<?xml version="1.0" encoding="UTF-8"?>
<svg width="18px" height="18px" viewBox="0 0 18 18" version="1.1" xmlns="http://www.w3.org/2000/svg" xmlns:xlink="http://www.w3.org/1999/xlink">
    <!-- Generator: Sketch 51.3 (57544) - http://www.bohemiancoding.com/sketch -->
    <title>tag</title>
    <desc>Created with Sketch.</desc>
    <defs>
        <path d="M16.00025,7.586 L8.00025,15.586 L2.41425,10 L10.41425,2 L16.00025,2 L16.00025,7.586 Z M17.00025,0 L10.00025,0 C9.73425,0 9.48025,0.106 9.29325,0.293 L0.29325,9.293 C-0.09775,9.684 -0.09775,10.316 0.29325,10.707 L7.29325,17.707 C7.48825,17.902 7.74425,18 8.00025,18 C8.25625,18 8.51225,17.902 8.70725,17.707 L17.70725,8.707 C17.89525,8.52 18.00025,8.266 18.00025,8 L18.00025,1 C18.00025,0.447 17.55325,0 17.00025,0 Z M12.50025,7.0001 C13.33025,7.0001 14.00025,6.3301 14.00025,5.5001 C14.00025,4.6701 13.33025,4.0001 12.50025,4.0001 C11.67025,4.0001 11.00025,4.6701 11.00025,5.5001 C11.00025,6.3301 11.67025,7.0001 12.50025,7.0001" id="path-1"></path>
    </defs>
    <g id="tag" stroke="none" stroke-width="1" fill="none" fill-rule="evenodd">
        <mask id="mask-2" fill="white">
            <use xlink:href="#path-1"></use>
        </mask>
        <use id="icons/18px/Tag" fill="#000000" xlink:href="#path-1"></use>
    </g>
</svg>