<?xml version="1.0" encoding="UTF-8"?>
<svg width="18px" height="18px" viewBox="0 0 18 18" version="1.1" xmlns="http://www.w3.org/2000/svg" xmlns:xlink="http://www.w3.org/1999/xlink">
    <!-- Generator: Sketch 51.3 (57544) - http://www.bohemiancoding.com/sketch -->
    <title>sitemap</title>
    <desc>Created with Sketch.</desc>
    <defs>
        <path d="M2,14 C2.552,14 3,13.553 3,13 L3,10 L8,10 L8,13 C8,13.553 8.448,14 9,14 C9.552,14 10,13.553 10,13 L10,10 L15,10 L15,13 C15,13.553 15.448,14 16,14 C16.552,14 17,13.553 17,13 L17,9 C17,8.447 16.552,8 16,8 L10,8 L10,5 C10,4.447 9.552,4 9,4 C8.448,4 8,4.447 8,5 L8,8 L2,8 C1.448,8 1,8.447 1,9 L1,13 C1,13.553 1.448,14 2,14 M8,2 L10,2 C10.552,2 11,1.553 11,1 C11,0.447 10.552,0 10,0 L8,0 C7.448,0 7,0.447 7,1 C7,1.553 7.448,2 8,2 M3,16 L1,16 C0.448,16 0,16.447 0,17 C0,17.553 0.448,18 1,18 L3,18 C3.552,18 4,17.553 4,17 C4,16.447 3.552,16 3,16 M17,16 L15,16 C14.448,16 14,16.447 14,17 C14,17.553 14.448,18 15,18 L17,18 C17.552,18 18,17.553 18,17 C18,16.447 17.552,16 17,16 M10,16 L8,16 C7.448,16 7,16.447 7,17 C7,17.553 7.448,18 8,18 L10,18 C10.552,18 11,17.553 11,17 C11,16.447 10.552,16 10,16" id="path-1"></path>
    </defs>
    <g id="sitemap" stroke="none" stroke-width="1" fill="none" fill-rule="evenodd">
        <mask id="mask-2" fill="white">
            <use xlink:href="#path-1"></use>
        </mask>
        <use id="icons/18px/Sitemap" fill="#000000" xlink:href="#path-1"></use>
    </g>
</svg>