<?xml version="1.0" encoding="UTF-8"?>
<svg width="18px" height="18px" viewBox="0 0 18 18" version="1.1" xmlns="http://www.w3.org/2000/svg" xmlns:xlink="http://www.w3.org/1999/xlink">
    <!-- Generator: Sketch 51.3 (57544) - http://www.bohemiancoding.com/sketch -->
    <title>watch</title>
    <desc>Created with Sketch.</desc>
    <defs>
        <path d="M9,16 C5.141,16 2,12.859 2,9 C2,5.141 5.141,2 9,2 C12.859,2 16,5.141 16,9 C16,12.859 12.859,16 9,16 M9,0 C4.037,0 0,4.037 0,9 C0,13.963 4.037,18 9,18 C13.963,18 18,13.963 18,9 C18,4.037 13.963,0 9,0 M13,8 L10,8 L10,5 C10,4.447 9.553,4 9,4 C8.447,4 8,4.447 8,5 L8,9 C8,9.553 8.447,10 9,10 L13,10 C13.553,10 14,9.553 14,9 C14,8.447 13.553,8 13,8" id="path-1"></path>
    </defs>
    <g id="watch" stroke="none" stroke-width="1" fill="none" fill-rule="evenodd">
        <mask id="mask-2" fill="white">
            <use xlink:href="#path-1"></use>
        </mask>
        <use id="icons/18px/Watch" fill="#000000" xlink:href="#path-1"></use>
    </g>
</svg>