<?xml version="1.0" encoding="UTF-8"?>
<svg width="18px" height="18px" viewBox="0 0 18 18" version="1.1" xmlns="http://www.w3.org/2000/svg" xmlns:xlink="http://www.w3.org/1999/xlink">
    <!-- Generator: Sketch 51.3 (57544) - http://www.bohemiancoding.com/sketch -->
    <title>add</title>
    <desc>Created with Sketch.</desc>
    <defs></defs>
    <g id="add" stroke="none" stroke-width="1" fill="none" fill-rule="evenodd">
        <path d="M16,8 L10,8 L10,2 C10,1.447 9.552,1 9,1 C8.448,1 8,1.447 8,2 L8,8 L2,8 C1.448,8 1,8.447 1,9 C1,9.553 1.448,10 2,10 L8,10 L8,16 C8,16.553 8.448,17 9,17 C9.552,17 10,16.553 10,16 L10,10 L16,10 C16.552,10 17,9.553 17,9 C17,8.447 16.552,8 16,8" id="Fill-1" fill="#000000"></path>
    </g>
</svg>