<?xml version="1.0" encoding="UTF-8"?>
<svg width="18px" height="18px" viewBox="0 0 18 18" version="1.1" xmlns="http://www.w3.org/2000/svg" xmlns:xlink="http://www.w3.org/1999/xlink">
    <!-- Generator: Sketch 51.3 (57544) - http://www.bohemiancoding.com/sketch -->
    <title>trash</title>
    <desc>Created with Sketch.</desc>
    <defs></defs>
    <g id="trash" stroke="none" stroke-width="1" fill="none" fill-rule="evenodd">
        <path d="M4,16 L14,16 L14,6 L4,6 L4,16 Z M16,4 L2,4 C1.447,4 1,4.447 1,5 C1,5.553 1.447,6 2,6 L2,17 C2,17.553 2.447,18 3,18 L15,18 C15.553,18 16,17.553 16,17 L16,6 C16.553,6 17,5.553 17,5 C17,4.447 16.553,4 16,4 Z M6,2 L12,2 C12.553,2 13,1.553 13,1 C13,0.447 12.553,0 12,0 L6,0 C5.447,0 5,0.447 5,1 C5,1.553 5.447,2 6,2 M11,14 C11.553,14 12,13.553 12,13 L12,9 C12,8.447 11.553,8 11,8 C10.447,8 10,8.447 10,9 L10,13 C10,13.553 10.447,14 11,14 M7,14 C7.553,14 8,13.553 8,13 L8,9 C8,8.447 7.553,8 7,8 C6.447,8 6,8.447 6,9 L6,13 C6,13.553 6.447,14 7,14" id="Fill-7" fill="#000000"></path>
    </g>
</svg>