<?xml version="1.0" encoding="UTF-8"?>
<svg width="18px" height="18px" viewBox="0 0 18 18" version="1.1" xmlns="http://www.w3.org/2000/svg" xmlns:xlink="http://www.w3.org/1999/xlink">
    <!-- Generator: Sketch 51.3 (57544) - http://www.bohemiancoding.com/sketch -->
    <title>activity</title>
    <desc>Created with Sketch.</desc>
    <defs>
        <path d="M12,17 C11.6,17 11.238,16.762 11.081,16.395 L6,4.539 L3.919,9.395 C3.762,9.762 3.4,10 3,10 L1,10 C0.448,10 0,9.553 0,9 C0,8.447 0.448,8 1,8 L2.341,8 L5.081,1.605 C5.238,1.238 5.6,1 6,1 C6.4,1 6.762,1.238 6.919,1.605 L12,13.461 L14.081,8.605 C14.238,8.238 14.6,8 15,8 L17,8 C17.552,8 18,8.447 18,9 C18,9.553 17.552,10 17,10 L15.659,10 L12.919,16.395 C12.762,16.762 12.4,17 12,17" id="path-1"></path>
    </defs>
    <g id="activity" stroke="none" stroke-width="1" fill="none" fill-rule="evenodd">
        <mask id="mask-2" fill="white">
            <use xlink:href="#path-1"></use>
        </mask>
        <use id="icons/18px/Activity" fill="#000000" xlink:href="#path-1"></use>
    </g>
</svg>