<?xml version="1.0" encoding="UTF-8"?>
<svg width="18px" height="18px" viewBox="0 0 18 18" version="1.1" xmlns="http://www.w3.org/2000/svg" xmlns:xlink="http://www.w3.org/1999/xlink">
    <!-- Generator: Sketch 51.3 (57544) - http://www.bohemiancoding.com/sketch -->
    <title>arrow</title>
    <desc>Created with Sketch.</desc>
    <defs></defs>
    <g id="arrow" stroke="none" stroke-width="1" fill="none" fill-rule="evenodd">
        <path d="M8,17.00025 C7.744,17.00025 7.488,16.90225 7.293,16.70725 L0.293,9.70725 C0.196,9.61125 0.124,9.50025 0.075,9.38125 C0.027,9.26525 0,9.13725 0,9.00325 L0,8.99725 C0,8.86325 0.027,8.73525 0.075,8.61925 C0.124,8.50025 0.196,8.38925 0.293,8.29325 L7.293,1.29325 C7.684,0.90225 8.316,0.90225 8.707,1.29325 C9.098,1.68425 9.098,2.31625 8.707,2.70725 L3.414,8.00025 L17,8.00025 C17.553,8.00025 18,8.44725 18,9.00025 C18,9.55325 17.553,10.00025 17,10.00025 L3.414,10.00025 L8.707,15.29325 C9.098,15.68425 9.098,16.31625 8.707,16.70725 C8.512,16.90225 8.256,17.00025 8,17.00025" id="Path" fill="#000000" fill-rule="nonzero"></path>
    </g>
</svg>