<svg xmlns="http://www.w3.org/2000/svg" width="132" height="26" viewBox="0 0 132 26"><defs><linearGradient x1="0%" y1="100%" x2="63.848%" y2="32.54%" id="company-wds-company-logo-fandom-a"><stop stop-color="#94D11F" offset="0%"/><stop stop-color="#09D3BF" offset="100%"/></linearGradient></defs><g fill="none" fill-rule="evenodd"><path d="M129.71 10.107c-1.16-1.222-2.797-1.868-4.736-1.868-1.972 0-3.59.887-4.583 2.507-.993-1.62-2.61-2.508-4.583-2.508-1.938 0-3.574.645-4.735 1.867-1.08 1.14-1.676 2.736-1.676 4.496v7.29h3.654v-7.29c0-1.97 1.005-3.1 2.757-3.1 1.752 0 2.756 1.13 2.756 3.1v7.29h3.655v-7.29c0-1.97 1.005-3.1 2.756-3.1 1.753 0 2.758 1.13 2.758 3.1v7.29h3.654v-7.29c0-1.76-.596-3.357-1.677-4.496M42.565 1.72c-.295-.044-.6-.09-.917-.09-4.383 0-7.327 2.782-7.327 6.92v13.342h3.654v-9.806h3.834V8.82h-3.834v-.297c0-2.336 1.293-3.52 3.84-3.52.25 0 .488.04.74.082l.292.047.185.027V1.78l-.138-.018c-.11-.014-.22-.03-.327-.045M54.2 15.132c0 2.373-1.223 3.627-3.536 3.627-3.172 0-3.646-2.274-3.646-3.628 0-2.306 1.33-3.628 3.646-3.628 2.262 0 3.418 1.19 3.535 3.628m3.668.678c-.004-.254-.007-.484-.016-.684-.17-4.248-2.925-6.887-7.188-6.887-2.2 0-4.06.697-5.384 2.016-1.236 1.232-1.916 2.954-1.916 4.85 0 3.943 2.97 6.918 6.91 6.918 1.874 0 3.395-.673 4.422-1.952.15.6.362 1.18.63 1.73l.042.09h3.684l-.102-.214c-1.028-2.18-1.06-4.398-1.082-5.868m9.901-7.568c-2.1 0-3.877.695-5.137 2.01-1.18 1.235-1.83 2.968-1.83 4.882v6.76h3.655v-6.76c0-2.306 1.208-3.628 3.313-3.628 2.105 0 3.312 1.322 3.312 3.628v6.76h3.654v-6.76c0-1.914-.65-3.647-1.83-4.88-1.26-1.317-3.035-2.013-5.136-2.013m19.865 6.893c0 2.373-1.222 3.627-3.535 3.627-3.173 0-3.647-2.274-3.647-3.628 0-2.306 1.33-3.628 3.646-3.628 2.26 0 3.417 1.19 3.534 3.628m3.14 0V3.55H87.25v5.456c-1.122-.478-1.946-.767-3.342-.767-4.31 0-7.205 2.76-7.205 6.865 0 3.944 2.992 6.92 6.96 6.92 2.02 0 3.477-.575 4.444-1.755.154.627.38 1.3.65 1.927l.04.095h3.687l-.1-.213c-1.18-2.557-1.61-5.556-1.61-6.948m13.152.002c0 2.305-1.308 3.627-3.59 3.627s-3.59-1.323-3.59-3.628c0-2.306 1.308-3.628 3.59-3.628s3.59 1.322 3.59 3.628m-3.59-6.893c-4.265 0-7.245 2.833-7.245 6.892 0 4.058 2.98 6.892 7.246 6.892 4.265 0 7.245-2.834 7.245-6.892 0-4.06-2.98-6.893-7.244-6.893" fill="#39414D"/><path d="M11.48 18.903c0 .214-.052.518-.296.75l-.913.785-8.303-7.804V9.572l9.13 8.582c.143.135.383.413.383.75zm12.646-9.107v2.84l-10.33 9.968a.767.767 0 0 1-.558.235.819.819 0 0 1-.58-.237l-.945-.854L24.126 9.795zm-7.87 5.06l-2.863 2.724-9.07-8.63a2.236 2.236 0 0 1-.003-3.263L7.185 2.96l9.07 8.632c.947.9.947 2.363 0 3.263zm-1.69-7.518l2.985-2.84a2.478 2.478 0 0 1 1.715-.673c.65 0 1.258.24 1.715.675l3.08 2.93-4.698 4.47-1.715-1.63-3.08-2.932zm11.47-.452L19.29.356 19.15.22l-.14.134-5.892 5.66L7.852.977 7.845.97 7.84.967l-.66-.53-.136-.11-.128.12L.06 6.874 0 6.93v6.48l.058.055L12.913 25.69l.14.134.14-.133 12.843-12.225.057-.055V6.94l-.056-.054z" fill="url(#company-wds-company-logo-fandom-a)" transform="translate(.48 .067)"/></g></svg>