<svg width="16" height="16" viewBox="0 0 16 16" xmlns="http://www.w3.org/2000/svg"><path d="M9.747 14.524l5.234-5.234A3.478 3.478 0 0 0 16 6.83V4.036c0-.923-.366-1.808-1.019-2.46l-.556-.556A3.478 3.478 0 0 0 11.965 0H9.17c-.922 0-1.807.366-2.46 1.019L1.477 6.253a3.478 3.478 0 0 0 0 4.919l3.352 3.352a3.478 3.478 0 0 0 4.92 0zm-3.935-.984L2.46 10.188a2.087 2.087 0 0 1 0-2.951l5.233-5.234A2.087 2.087 0 0 1 9.17 1.39h2.796c.554 0 1.085.22 1.476.612l.556.556c.392.391.612.922.612 1.476V6.83c0 .553-.22 1.084-.612 1.476L8.763 13.54a2.087 2.087 0 0 1-2.95 0z"/><path d="M11.694 5.068a.762.762 0 1 1-1.523.001.762.762 0 0 1 1.523 0zm1.39 0a2.153 2.153 0 1 0-4.305 0 2.153 2.153 0 0 0 4.306 0z"/></svg>