<svg width="184" height="44" viewBox="0 0 184 44" xmlns="http://www.w3.org/2000/svg"><defs><linearGradient x1="33.016%" y1="84.794%" x2="84.225%" y2="35.32%" id="company-wds-company-logo-fandom-powered-by-wikia-two-lines-a"><stop stop-color="#ADED00" offset="0%"/><stop stop-color="#00D6D6" offset="100%"/></linearGradient></defs><g fill="none" fill-rule="evenodd"><path d="M48.283 1.884c-5.14 0-8.594 3.466-8.594 8.624v16.63h4.285V14.915h4.497v-4.07h-4.497v-.37c0-2.912 1.516-4.389 4.505-4.389.292 0 .571.05.867.104.112.02.226.04.342.058l.216.034v-4.21l-.163-.021c-.13-.018-.257-.037-.383-.057a6.92 6.92 0 0 0-1.075-.11zM63.003 18.712c0 2.958-1.433 4.521-4.146 4.521-3.72 0-4.276-2.833-4.276-4.521 0-2.874 1.559-4.522 4.276-4.522 2.653 0 4.01 1.482 4.146 4.522m4.304.846a36.71 36.71 0 0 0-.018-.854c-.202-5.294-3.432-8.583-8.432-8.583-2.58 0-4.763.869-6.314 2.513-1.45 1.536-2.247 3.683-2.247 6.045 0 4.916 3.484 8.623 8.105 8.623 2.197 0 3.98-.839 5.186-2.432.176.746.423 1.47.737 2.157l.05.11h4.32l-.118-.267c-1.206-2.715-1.244-5.481-1.27-7.312M78.918 10.12c-2.464 0-4.547.868-6.025 2.509-1.384 1.537-2.146 3.698-2.146 6.083v8.426h4.285v-8.426c0-2.874 1.416-4.521 3.886-4.521 2.469 0 3.885 1.647 3.885 4.52v8.427h4.285v-8.426c0-2.385-.762-4.546-2.146-6.083-1.478-1.64-3.56-2.508-6.024-2.508M102.217 18.712c0 2.958-1.433 4.521-4.145 4.521-3.721 0-4.277-2.833-4.277-4.521 0-2.874 1.56-4.522 4.277-4.522 2.653 0 4.009 1.482 4.145 4.522m3.684 0V4.276h-4.133v6.8c-1.317-.595-2.283-.955-3.92-.955-5.055 0-8.45 3.44-8.45 8.558 0 4.916 3.508 8.623 8.161 8.623 2.37 0 4.08-.715 5.213-2.185.181.78.447 1.619.763 2.401l.047.118h4.324l-.116-.266c-1.386-3.185-1.89-6.923-1.89-8.658M121.326 18.712c0 2.873-1.535 4.521-4.21 4.521-2.677 0-4.212-1.648-4.212-4.521 0-2.874 1.535-4.522 4.211-4.522s4.211 1.648 4.211 4.522m-4.21-8.591c-5.003 0-8.497 3.533-8.497 8.59 0 5.059 3.494 8.591 8.496 8.591 5.003 0 8.497-3.532 8.497-8.59s-3.494-8.591-8.497-8.591M151.565 12.449c-1.36-1.523-3.28-2.328-5.552-2.328-2.313 0-4.21 1.106-5.376 3.125-1.166-2.019-3.063-3.125-5.376-3.125-2.273 0-4.193.805-5.553 2.328-1.268 1.42-1.967 3.41-1.967 5.604v9.085h4.286v-9.085c0-2.455 1.179-3.862 3.234-3.862 2.054 0 3.233 1.407 3.233 3.862v9.085h4.286v-9.085c0-2.455 1.178-3.862 3.233-3.862s3.234 1.407 3.234 3.862v9.085h4.285v-9.085c0-2.194-.698-4.184-1.967-5.604" fill="#FFF"/><path d="M13.464 23.496c0 .267-.06.646-.346.935l-1.07.978-9.741-9.726v-3.817l10.71 10.696c.166.169.447.515.447.934zm14.833-11.351v3.54L16.179 28.109c-.2.202-.401.292-.652.292a.93.93 0 0 1-.68-.293l-1.109-1.065 14.559-14.898zm-9.231 6.306l-3.359 3.396L5.07 11.09a2.872 2.872 0 0 1-.829-2.034c0-.77.294-1.493.828-2.033l3.36-3.397 10.638 10.757a2.903 2.903 0 0 1 0 4.068zm-1.981-9.37l3.5-3.538a2.811 2.811 0 0 1 2.01-.84c.76 0 1.475.299 2.012.841l3.612 3.653-5.51 5.571-2.012-2.034-3.612-3.652zm13.452-.562L22.623.379l-.164-.17-.165.169-6.909 7.053-6.176-6.278-.007-.007-.008-.007-.771-.66-.161-.137-.15.15L.069 8.502 0 8.572V16.65l.068.068 15.077 15.239.164.165.163-.165 15.064-15.239.067-.068V8.587l-.066-.068z" fill="url(#company-wds-company-logo-fandom-powered-by-wikia-two-lines-a)"/><g fill="#656E78"><path d="M153.465 37.06l-.999 4.414-.779-4.414h-2.145l1.584 6.461h2.758l.771-3.354.773 3.354h2.758l1.59-6.46h-2.154l-.776 4.413-1.014-4.414zM181.256 41.102c-.264.36-.676.602-1.212.602-.615 0-1.105-.422-1.105-1.423 0-1.004.49-1.428 1.105-1.428.536 0 .948.243 1.212.605v1.644zm2.052-2.162l.114-1.88h-1.878l-.143.709c-.431-.481-.97-.882-1.914-.882-1.713 0-2.648 1.172-2.648 3.394 0 2.218.935 3.389 2.648 3.389.945 0 1.483-.397 1.914-.88l.147.731h1.874l-.114-1.902v-2.68zM165.042 43.522v-9.689h2.057v5.43l.55-.724 1.182-1.479h2.942l-2.469 2.555 2.574 3.907h-2.668l-1.402-2.457-.71.712v1.745zM161.971 33.869c-.65 0-1.177.558-1.177 1.244 0 .688.527 1.246 1.177 1.246s1.176-.558 1.176-1.246c0-.686-.527-1.244-1.176-1.244M163.742 38.423V37.06h-2.948V43.522h2.948v-1.356h-.923v-3.743zM173.456 35.113c0 .688.527 1.246 1.178 1.246.65 0 1.176-.558 1.176-1.246 0-.686-.526-1.245-1.176-1.245-.65 0-1.178.559-1.178 1.245M173.787 38.423v3.743h-.924v1.355h2.947v-6.46h-2.947v1.362z"/><g><path d="M91.598 40.09c.155 0 .303-.011.446-.036a.992.992 0 0 0 .377-.14.746.746 0 0 0 .262-.295c.066-.127.098-.293.098-.499 0-.205-.032-.372-.098-.499a.75.75 0 0 0-.262-.294 1.004 1.004 0 0 0-.377-.14 2.669 2.669 0 0 0-.446-.037h-1.046v1.94h1.046zm.369-3.047c.383 0 .709.06.978.177.268.118.487.274.655.467.169.194.292.414.37.662a2.592 2.592 0 0 1 0 1.537c-.078.251-.201.474-.37.667-.168.194-.387.35-.655.467-.27.118-.595.177-.978.177h-1.415v2.322h-1.346v-6.476h2.761zM96.095 41.102c.06.257.156.488.288.694.131.205.302.37.514.494.211.124.469.186.772.186.303 0 .56-.062.771-.186.212-.124.383-.289.515-.494.131-.206.227-.437.287-.694.06-.257.09-.522.09-.794 0-.284-.03-.559-.09-.825a2.256 2.256 0 0 0-.287-.712 1.497 1.497 0 0 0-.515-.499 1.506 1.506 0 0 0-.771-.186c-.303 0-.56.062-.772.186-.212.124-.383.29-.514.499a2.25 2.25 0 0 0-.288.712c-.06.266-.09.54-.09.825 0 .272.03.537.09.794m-1.23-2.14c.137-.415.335-.776.592-1.084.257-.309.573-.55.947-.726a2.944 2.944 0 0 1 1.265-.263c.474 0 .897.088 1.269.263.371.176.686.417.943.726.257.308.454.67.591 1.083.138.415.206.864.206 1.347 0 .472-.068.912-.206 1.32a3.19 3.19 0 0 1-.591 1.066c-.257.302-.572.539-.943.711a2.98 2.98 0 0 1-1.27.259c-.468 0-.89-.086-1.264-.259a2.716 2.716 0 0 1-.947-.711 3.197 3.197 0 0 1-.592-1.066 4.109 4.109 0 0 1-.206-1.32c0-.483.069-.932.206-1.347M106.089 43.519l-1.038-4.408h-.017l-1.02 4.408h-1.364l-1.62-6.476h1.346l.97 4.408h.016l1.063-4.408h1.26l1.047 4.462h.017l1.003-4.462h1.32l-1.646 6.476zM114.268 37.043v1.197h-3.232v1.388h2.966v1.106h-2.966v1.588h3.3v1.197h-4.646v-6.476zM118.067 39.973c.308 0 .54-.073.694-.218.155-.145.232-.38.232-.707 0-.315-.077-.543-.232-.685-.154-.142-.386-.213-.694-.213h-1.475v1.823h1.475zm.48-2.93c.274 0 .522.047.742.141a1.683 1.683 0 0 1 .926.952c.083.215.124.446.124.694 0 .38-.076.71-.227.988-.152.279-.4.49-.742.635v.018c.166.05.303.123.412.223.108.1.197.217.265.354.069.135.119.285.15.448.032.163.053.327.065.49l.017.363c.005.139.015.281.03.426.014.145.037.283.069.413.03.13.078.24.14.33h-1.345a2.638 2.638 0 0 1-.137-.734 11.532 11.532 0 0 0-.078-.816c-.045-.339-.143-.587-.291-.744-.149-.157-.392-.236-.729-.236h-1.346v2.53h-1.346v-6.475h3.3zM126.015 37.043v1.197h-3.232v1.388h2.966v1.106h-2.966v1.588h3.3v1.197h-4.647v-6.476zM129.539 42.322c.194 0 .383-.034.565-.1.183-.067.346-.177.49-.331.142-.154.256-.355.342-.603.086-.248.129-.55.129-.907 0-.327-.03-.621-.09-.884a1.812 1.812 0 0 0-.296-.676 1.325 1.325 0 0 0-.545-.43c-.225-.1-.504-.15-.835-.15h-.96v4.08h1.2zm.094-5.279c.394 0 .762.067 1.102.2.34.133.634.332.883.598.248.267.443.6.583.998.14.4.21.868.21 1.406 0 .471-.057.907-.172 1.306a2.93 2.93 0 0 1-.518 1.034c-.232.29-.52.518-.866.684-.346.167-.753.25-1.222.25h-2.64v-6.476h2.64zM138.516 42.412c.131 0 .257-.013.377-.04a.897.897 0 0 0 .317-.137.674.674 0 0 0 .22-.258.933.933 0 0 0 .08-.417c0-.333-.088-.57-.266-.712-.177-.142-.41-.213-.703-.213h-1.465v1.777h1.44zm-.077-2.748a.93.93 0 0 0 .591-.181c.155-.12.232-.317.232-.59a.79.79 0 0 0-.077-.371.593.593 0 0 0-.206-.227.837.837 0 0 0-.296-.113 1.851 1.851 0 0 0-.347-.032h-1.26v1.514h1.363zm.171-2.62c.292 0 .558.026.798.08.24.055.445.145.617.269.171.124.304.288.399.494.094.205.141.46.141.762 0 .326-.07.598-.21.816-.14.218-.347.396-.622.535.378.115.659.316.845.603.186.287.278.633.278 1.039 0 .326-.06.609-.18.847-.12.24-.281.434-.484.585a2.092 2.092 0 0 1-.694.336c-.26.073-.528.109-.802.109h-2.967v-6.476h2.881zM141.105 37.043h1.51l1.431 2.558 1.423-2.558h1.501l-2.272 3.99v2.486h-1.346v-2.522z"/></g></g></g></svg>