<svg width="18" height="18" viewBox="0 0 18 18" xmlns="http://www.w3.org/2000/svg"><path d="M7.86 14.865L2.201 9.207C1.269 8.275.533 6.502.533 5.184V3.2A2.663 2.663 0 0 1 3.2.533h1.984c1.324 0 3.087.732 4.023 1.669l5.658 5.657a2.677 2.677 0 0 1-.001 3.78l-3.225 3.225a2.665 2.665 0 0 1-3.78 0zm.754-.754c.63.63 1.638.631 2.27-.001l3.226-3.225a1.61 1.61 0 0 0 0-2.271L8.454 2.956C7.716 2.22 6.225 1.6 5.184 1.6H3.2c-.886 0-1.6.713-1.6 1.6v1.984c0 1.035.624 2.536 1.356 3.269l5.658 5.658z"/><path d="M5.234 7.157a1.922 1.922 0 1 1 0-3.845 1.922 1.922 0 0 1 0 3.845zm0-1.067a.856.856 0 1 0 0-1.712.856.856 0 0 0 0 1.712z"/></svg>