<svg width="18" height="18" viewBox="0 0 18 18" xmlns="http://www.w3.org/2000/svg"><path d="M12.063 3C10.837 3 9.7 3.35 9 3.963 8.3 3.35 7.163 3 5.937 3 3.663 3 2 4.137 2 5.625v8.75c0 .525.35.875.875.875s.875-.35.875-.875c0-.262.787-.875 2.188-.875 1.4 0 2.187.613 2.187.875 0 .525.35.875.875.875s.875-.35.875-.875c0-.262.788-.875 2.188-.875 1.4 0 2.187.613 2.187.875 0 .525.35.875.875.875s.875-.35.875-.875v-8.75C16 4.137 14.337 3 12.062 3zm-6.126 8.75c-.787 0-1.574.175-2.187.438V5.625c0-.262.787-.875 2.188-.875 1.4 0 2.187.613 2.187.875v6.563a5.725 5.725 0 0 0-2.188-.438zm8.313.438a5.725 5.725 0 0 0-2.188-.438c-.787 0-1.574.175-2.187.438V5.625c0-.262.788-.875 2.188-.875 1.4 0 2.187.613 2.187.875v6.563z" fill-rule="evenodd"/></svg>