<svg width="184" height="44" viewBox="0 0 184 44" xmlns="http://www.w3.org/2000/svg" xmlns:xlink="http://www.w3.org/1999/xlink"><defs><linearGradient x1="33.016%" y1="84.794%" x2="84.225%" y2="35.32%" id="company-wds-company-logo-fandom-powered-by-wikia-two-lines-a"><stop stop-color="#ADED00" offset="0%"/><stop stop-color="#00D6D6" offset="100%"/></linearGradient></defs><g fill="none" fill-rule="evenodd"><path d="M48.283 1.884c-5.14 0-8.594 3.466-8.594 8.624v16.63h4.284V14.915h4.497v-4.07h-4.496v-.37c0-2.912 1.516-4.39 4.505-4.39.29 0 .57.05.866.105.112.02.226.04.342.058l.216.034v-4.21l-.163-.02-.382-.058c-.346-.054-.703-.11-1.075-.11zM63.003 18.712c0 2.958-1.433 4.52-4.146 4.52-3.72 0-4.276-2.832-4.276-4.52 0-2.874 1.56-4.522 4.277-4.522 2.653 0 4.01 1.482 4.146 4.522m4.304.846c-.005-.317-.01-.604-.018-.854-.203-5.294-3.433-8.583-8.433-8.583-2.58 0-4.763.87-6.314 2.514-1.45 1.536-2.247 3.683-2.247 6.045 0 4.915 3.484 8.622 8.105 8.622 2.198 0 3.982-.84 5.187-2.432.176.746.423 1.47.737 2.157l.05.11h4.32l-.118-.267c-1.206-2.715-1.244-5.48-1.27-7.312M78.918 10.12c-2.464 0-4.547.868-6.025 2.51-1.384 1.536-2.146 3.697-2.146 6.082v8.426h4.285v-8.426c0-2.874 1.416-4.52 3.886-4.52s3.885 1.646 3.885 4.52v8.426h4.285v-8.426c0-2.385-.762-4.546-2.146-6.083-1.478-1.642-3.56-2.51-6.024-2.51M102.217 18.712c0 2.958-1.433 4.52-4.145 4.52-3.72 0-4.277-2.832-4.277-4.52 0-2.874 1.56-4.522 4.277-4.522 2.653 0 4.01 1.482 4.145 4.522m3.684 0V4.276h-4.132v6.8c-1.317-.595-2.283-.955-3.92-.955-5.055 0-8.45 3.44-8.45 8.56 0 4.915 3.508 8.622 8.16 8.622 2.37 0 4.08-.715 5.214-2.185.18.78.447 1.62.763 2.4l.047.12h4.324l-.116-.267c-1.386-3.185-1.89-6.923-1.89-8.658M121.326 18.712c0 2.873-1.535 4.52-4.21 4.52-2.677 0-4.212-1.647-4.212-4.52 0-2.874 1.535-4.522 4.21-4.522 2.677 0 4.212 1.648 4.212 4.522m-4.21-8.59c-5.003 0-8.497 3.532-8.497 8.59s3.493 8.59 8.495 8.59c5.003 0 8.497-3.532 8.497-8.59s-3.494-8.59-8.497-8.59M151.565 12.45c-1.36-1.524-3.28-2.33-5.552-2.33-2.313 0-4.21 1.107-5.376 3.126-1.166-2.02-3.063-3.125-5.376-3.125-2.272 0-4.192.806-5.552 2.33-1.268 1.42-1.967 3.41-1.967 5.603v9.085h4.287v-9.085c0-2.455 1.18-3.862 3.234-3.862 2.055 0 3.234 1.408 3.234 3.863v9.085h4.286v-9.085c0-2.455 1.178-3.862 3.233-3.862s3.234 1.408 3.234 3.863v9.085h4.285v-9.085c0-2.194-.698-4.184-1.967-5.604" fill="#FFF"/><path d="M13.464 23.496c0 .267-.06.646-.346.935l-1.07.98-9.74-9.727v-3.817l10.71 10.696c.165.17.446.515.446.934zm14.833-11.35v3.54L16.18 28.108c-.2.2-.402.29-.653.29-.26 0-.488-.098-.68-.292l-1.11-1.065 14.56-14.898zm-9.23 6.305l-3.36 3.397L5.07 11.09c-.535-.54-.83-1.263-.83-2.034 0-.77.294-1.493.828-2.033l3.36-3.397 10.638 10.757c1.11 1.122 1.11 2.947 0 4.068zm-1.982-9.368l3.5-3.54c.536-.54 1.25-.84 2.01-.84.76 0 1.475.3 2.012.842l3.612 3.653-5.51 5.57-2.013-2.033-3.612-3.652zm13.452-.563L22.623.377 22.46.21l-.166.168-6.91 7.053L9.21 1.154 9.2 1.146l-.008-.007-.77-.66L8.26.34l-.15.15L.07 8.5l-.07.07v8.077l.068.068 15.077 15.24.164.164.162-.165 15.064-15.24.067-.067V8.587l-.066-.068z" fill="url(#company-wds-company-logo-fandom-powered-by-wikia-two-lines-a)"/><g fill="#656E78"><path d="M153.465 37.06l-1 4.414-.778-4.414h-2.145l1.584 6.46h2.758l.77-3.353.774 3.354h2.758l1.59-6.46h-2.154l-.776 4.414-1.014-4.414M181.256 41.102c-.264.36-.676.602-1.212.602-.615 0-1.105-.422-1.105-1.423 0-1.003.49-1.427 1.104-1.427.536 0 .948.243 1.212.605v1.644zm2.052-2.162l.114-1.88h-1.878l-.143.71c-.43-.482-.968-.883-1.913-.883-1.713 0-2.648 1.172-2.648 3.394 0 2.22.934 3.39 2.647 3.39.945 0 1.483-.397 1.914-.88l.148.73h1.874l-.114-1.9v-2.68zM165.042 43.522v-9.69h2.057v5.432l.55-.725 1.18-1.48h2.943l-2.47 2.555 2.575 3.907h-2.668l-1.402-2.457-.71.712v1.745M161.97 33.87c-.65 0-1.176.557-1.176 1.243 0 .688.527 1.246 1.177 1.246s1.177-.56 1.177-1.247c0-.686-.527-1.244-1.176-1.244M163.742 38.423V37.06h-2.948V43.522h2.948v-1.356h-.923v-3.743M173.456 35.113c0 .688.527 1.246 1.178 1.246.65 0 1.176-.56 1.176-1.247 0-.686-.526-1.245-1.176-1.245-.65 0-1.178.56-1.178 1.245M173.787 38.423v3.743h-.924v1.355h2.947v-6.46h-2.948v1.363"/><g><path d="M91.598 40.09c.155 0 .303-.01.446-.036.143-.024.27-.07.377-.14.11-.07.197-.168.263-.295.066-.128.098-.294.098-.5 0-.205-.03-.372-.097-.5-.066-.126-.153-.224-.262-.293-.107-.07-.233-.117-.376-.14-.143-.025-.29-.037-.446-.037h-1.046v1.94h1.046zm.37-3.047c.382 0 .708.06.977.177.268.118.487.274.655.467.17.194.292.414.37.662.076.247.115.504.115.77 0 .26-.04.516-.116.767-.078.25-.2.473-.37.666-.168.194-.387.35-.655.467-.27.118-.595.177-.978.177h-1.415v2.322h-1.346v-6.477h2.76zM96.095 41.102c.06.257.156.488.288.694.13.205.302.37.514.494.21.124.47.186.772.186.302 0 .56-.062.77-.186.212-.124.383-.29.515-.494.13-.206.227-.437.287-.694.06-.257.09-.522.09-.794 0-.284-.03-.56-.09-.825-.06-.266-.156-.504-.287-.712-.132-.207-.303-.374-.515-.498-.21-.124-.468-.186-.77-.186-.304 0-.562.062-.773.186-.212.124-.383.29-.514.5-.132.207-.228.445-.288.71-.06.267-.09.542-.09.826 0 .272.03.537.09.794m-1.23-2.14c.137-.415.335-.776.592-1.084.257-.31.573-.55.947-.726.374-.175.796-.263 1.265-.263.473 0 .896.087 1.268.262.37.176.686.417.943.726.258.308.455.67.592 1.083.138.416.206.865.206 1.348 0 .472-.068.912-.206 1.32-.137.408-.334.763-.59 1.066-.258.302-.573.54-.944.71-.372.174-.795.26-1.27.26-.468 0-.89-.086-1.264-.26-.374-.17-.69-.408-.947-.71-.257-.303-.455-.658-.592-1.066-.137-.408-.206-.848-.206-1.32 0-.483.068-.932.205-1.347M106.09 43.52l-1.04-4.41h-.016l-1.02 4.41h-1.364l-1.62-6.477h1.346l.97 4.408h.016l1.063-4.407h1.26l1.047 4.462h.017l1.002-4.462h1.32l-1.646 6.476M114.268 37.043v1.197h-3.232v1.388h2.966v1.106h-2.966v1.588h3.3v1.197h-4.646v-6.477M118.067 39.973c.308 0 .54-.073.694-.218.156-.145.233-.38.233-.707 0-.315-.077-.543-.232-.685-.153-.142-.385-.213-.693-.213h-1.475v1.823h1.475zm.48-2.93c.274 0 .522.047.742.14.22.095.407.223.565.386.157.162.277.352.36.566.083.215.124.446.124.694 0 .38-.077.71-.228.988-.152.28-.4.49-.742.635v.018c.166.05.303.124.412.224.108.1.197.217.265.354.07.135.12.285.15.448.032.163.053.327.065.49l.017.363c.004.138.014.28.03.425.013.145.036.283.068.413.03.13.078.24.14.33h-1.345c-.074-.205-.12-.45-.137-.734-.017-.284-.043-.556-.078-.816-.045-.34-.143-.587-.29-.744-.15-.157-.393-.236-.73-.236h-1.346v2.53h-1.346v-6.475h3.3zM126.015 37.043v1.197h-3.232v1.388h2.966v1.106h-2.967v1.588h3.3v1.197h-4.647v-6.477M129.54 42.322c.193 0 .382-.034.564-.1.183-.067.346-.177.49-.33.142-.155.256-.356.342-.604.086-.248.13-.55.13-.907 0-.326-.03-.62-.09-.883-.06-.264-.16-.49-.297-.676-.138-.186-.32-.33-.546-.43-.225-.1-.504-.15-.835-.15h-.962v4.082h1.2zm.093-5.28c.394 0 .762.068 1.102.2.34.134.634.333.883.6.248.266.443.598.583.997.14.398.21.867.21 1.405 0 .47-.056.907-.17 1.306-.115.4-.288.744-.52 1.035-.23.29-.52.518-.865.684-.346.166-.753.25-1.222.25h-2.64v-6.477h2.64zM138.516 42.412c.13 0 .257-.013.377-.04.12-.028.226-.073.317-.137.092-.063.165-.15.22-.258.053-.11.08-.248.08-.417 0-.333-.088-.57-.266-.712-.177-.142-.41-.213-.703-.213h-1.464v1.777h1.44zm-.077-2.748c.24 0 .436-.06.59-.18.155-.122.232-.318.232-.59 0-.15-.026-.276-.077-.372-.052-.097-.12-.173-.206-.227-.087-.055-.186-.092-.297-.113-.11-.022-.227-.032-.347-.032h-1.26v1.514h1.363zm.17-2.62c.292 0 .558.026.798.08.24.055.445.145.617.27.17.123.304.287.4.493.093.205.14.46.14.762 0 .325-.07.597-.21.815-.14.218-.347.396-.622.535.378.115.66.316.845.603.186.287.278.633.278 1.04 0 .325-.06.608-.18.846s-.28.433-.484.584c-.203.15-.434.263-.694.336-.26.073-.528.11-.802.11h-2.967v-6.477h2.88zM141.105 37.043h1.51l1.43 2.558 1.424-2.557h1.5l-2.272 3.99v2.486h-1.346v-2.523"/></g></g></g></svg>
