<svg xmlns="http://www.w3.org/2000/svg" width="18" height="18" viewBox="0 0 18 18"><g fill-rule="evenodd"><path d="M15 4.513V16.5c0 .828-.673 1.5-1.5 1.5H4.513c.456.604 1.173 1 1.987 1h7c1.379 0 2.5-1.121 2.5-2.5v-10c0-.813-.396-1.53-1-1.987"/><path d="M11.5 17c1.379 0 2.5-1.121 2.5-2.5V4h-.051a2.466 2.466 0 0 0-.462-1A2.496 2.496 0 0 0 13 2.513V4h-.092c.056.157.092.324.092.5v10c0 .827-.673 1.5-1.5 1.5h-7c-.176 0-.343-.036-.5-.092V16H2.513c.139.184.303.348.487.487.292.221.628.387 1 .462V17h7.5z"/><path d="M2.5 14c-.176 0-.343-.036-.5-.092-.581-.207-1-.757-1-1.408v-10C1 1.673 1.673 1 2.5 1h7c.651 0 1.201.419 1.408 1 .056.157.092.324.092.5v10c0 .827-.673 1.5-1.5 1.5h-7zm.592 1H9.5c1.379 0 2.5-1.121 2.5-2.5V2h-.051a2.466 2.466 0 0 0-.462-1A2.488 2.488 0 0 0 9.5 0h-7A2.503 2.503 0 0 0 0 2.5v10c0 .814.397 1.531 1 1.987.292.221.628.387 1 .462V15h1.092z"/><path d="M4 9h6V8H2v1h1zm0-2h6V6H2v1h1zm0 4h6v-1H2v1h1zm-.95-6H10V2H2v3h1z"/></g></svg>