<svg width="119" height="35" viewBox="0 0 119 35" xmlns="http://www.w3.org/2000/svg" xmlns:xlink="http://www.w3.org/1999/xlink"><g fill="none" fill-rule="evenodd"><path d="M114.766 35H4.17C1.87 35 0 33.138 0 30.86V4.134C0 1.855 1.87 0 4.17 0h110.596C117.063 0 119 1.855 119 4.135V30.86c0 2.278-1.937 4.14-4.234 4.14" fill="#A9AAA9"/><path d="M118.147 30.86c0 1.85-1.51 3.35-3.38 3.35H4.17c-1.87 0-3.385-1.5-3.385-3.35V4.134C.785 2.284 2.3.78 4.17.78h110.596c1.87 0 3.38 1.504 3.38 3.354V30.86" fill="#0A0B09"/><path d="M26.557 17.31c-.025-2.82 2.327-4.19 2.434-4.256-1.33-1.928-3.395-2.19-4.12-2.21-1.735-.182-3.417 1.03-4.3 1.03-.9 0-2.262-1.014-3.727-.984-1.885.03-3.65 1.113-4.62 2.797-1.996 3.432-.506 8.477 1.407 11.25.958 1.36 2.076 2.877 3.54 2.824 1.432-.058 1.967-.906 3.696-.906 1.713 0 2.216.907 3.71.873 1.536-.025 2.504-1.365 3.428-2.736 1.106-1.557 1.55-3.09 1.568-3.17-.036-.012-2.986-1.13-3.015-4.51M23.737 9.018c.77-.957 1.296-2.258 1.15-3.578-1.115.05-2.51.765-3.312 1.7-.71.825-1.345 2.176-1.18 3.447 1.252.092 2.538-.628 3.342-1.57M43.858 22.71l-.992-3.04c-.104-.31-.3-1.042-.592-2.194h-.034c-.116.497-.302 1.227-.557 2.195l-.974 3.04h3.148zm3.43 4.856h-2.003l-1.096-3.42h-3.812l-1.045 3.42h-1.948l3.776-11.644h2.333l3.794 11.644zM55.084 23.333c0-.817-.185-1.49-.557-2.02-.407-.554-.95-.83-1.636-.83-.463 0-.884.153-1.26.457-.378.306-.625.706-.74 1.202-.058.23-.088.42-.088.57v1.4c0 .61.19 1.125.566 1.545.378.42.868.63 1.47.63.708 0 1.26-.27 1.654-.81.394-.543.592-1.257.592-2.144zm1.914-.068c0 1.427-.388 2.556-1.166 3.385-.696.738-1.56 1.106-2.593 1.106-1.114 0-1.915-.397-2.402-1.193h-.036v4.423h-1.88v-9.052c0-.898-.023-1.82-.07-2.765h1.654l.105 1.33h.036c.626-1.002 1.578-1.503 2.854-1.503.998 0 1.83.39 2.498 1.174.667.785 1 1.816 1 3.095zM64.813 23.333c0-.817-.186-1.49-.557-2.02-.407-.554-.952-.83-1.636-.83-.465 0-.885.153-1.263.457-.376.306-.622.706-.738 1.202-.06.23-.09.42-.09.57v1.4c0 .61.19 1.125.565 1.545.378.42.87.63 1.473.63.707 0 1.258-.27 1.652-.81.395-.543.593-1.257.593-2.144zm1.914-.068c0 1.427-.388 2.556-1.167 3.385-.695.738-1.56 1.106-2.592 1.106-1.114 0-1.915-.397-2.4-1.193h-.037v4.423h-1.878v-9.052c0-.898-.024-1.82-.07-2.765h1.654l.104 1.33h.035c.626-1.002 1.576-1.503 2.854-1.503.996 0 1.83.39 2.497 1.174.666.785 1 1.816 1 3.095zM77.605 24.3c0 .99-.347 1.797-1.042 2.42-.764.68-1.828 1.018-3.196 1.018-1.26 0-2.274-.24-3.04-.725l.436-1.555c.825.495 1.73.743 2.716.743.707 0 1.258-.157 1.654-.475.395-.317.59-.74.59-1.272 0-.473-.16-.87-.487-1.194-.323-.324-.864-.624-1.617-.9-2.054-.76-3.08-1.875-3.08-3.34 0-.957.36-1.742 1.08-2.354.716-.61 1.673-.917 2.87-.917 1.068 0 1.955.183 2.662.55l-.47 1.522c-.66-.357-1.41-.535-2.245-.535-.66 0-1.178.16-1.548.483-.314.288-.47.64-.47 1.055 0 .46.178.84.538 1.14.313.276.882.576 1.706.898 1.01.404 1.75.875 2.228 1.416.476.54.713 1.215.713 2.02M83.818 20.57h-2.07v4.076c0 1.037.364 1.555 1.095 1.555.336 0 .616-.028.836-.085l.05 1.417c-.37.137-.857.206-1.46.206-.744 0-1.324-.224-1.742-.672-.416-.45-.627-1.204-.627-2.264V20.57h-1.233v-1.4H79.9v-1.538l1.847-.553v2.09h2.07v1.4M91.215 23.36c0-.774-.168-1.44-.505-1.993-.394-.67-.958-1.005-1.687-1.005-.756 0-1.33.334-1.724 1.005-.338.554-.505 1.23-.505 2.027 0 .774.167 1.44.504 1.992.406.67.974 1.005 1.706 1.005.717 0 1.28-.34 1.687-1.02.347-.566.522-1.238.522-2.01zm1.95-.06c0 1.29-.37 2.35-1.114 3.177-.777.853-1.81 1.28-3.098 1.28-1.24 0-2.23-.41-2.966-1.228-.737-.818-1.106-1.85-1.106-3.093 0-1.3.38-2.367 1.14-3.196.76-.828 1.783-1.243 3.07-1.243 1.243 0 2.24.41 2.996 1.227.72.794 1.08 1.82 1.08 3.075zM99.273 20.81c-.186-.034-.383-.05-.592-.05-.66 0-1.17.247-1.53.742-.315.438-.47.99-.47 1.658v4.406H94.8l.017-5.752c0-.97-.023-1.85-.07-2.645h1.638l.068 1.606h.052c.198-.552.512-.997.94-1.33.418-.3.87-.45 1.358-.45.174 0 .33.013.47.035v1.78M105.886 22.487c.013-.553-.11-1.03-.365-1.434-.324-.518-.824-.777-1.496-.777-.615 0-1.115.252-1.496.76-.314.403-.5.887-.556 1.45h3.914zm1.792.484c0 .335-.022.617-.07.847h-5.636c.022.83.294 1.463.817 1.9.474.392 1.09.588 1.843.588.834 0 1.596-.133 2.28-.398l.295 1.296c-.8.346-1.745.52-2.835.52-1.312 0-2.342-.384-3.09-1.15-.747-.767-1.123-1.795-1.123-3.085 0-1.267.347-2.32 1.046-3.16.73-.9 1.716-1.348 2.957-1.348 1.22 0 2.142.448 2.77 1.347.496.714.745 1.596.745 2.643zM42.263 8.783c0-.667-.178-1.18-.535-1.536-.357-.356-.877-.535-1.56-.535-.292 0-.54.02-.745.06v4.277c.114.017.322.025.624.025.707 0 1.253-.195 1.638-.585.385-.39.578-.96.578-1.707zm.974-.025c0 1.03-.31 1.805-.932 2.326-.577.48-1.394.72-2.454.72-.524 0-.974-.022-1.35-.067V6.11c.49-.08 1.02-.12 1.59-.12 1.01 0 1.77.22 2.284.655.574.492.863 1.196.863 2.113zM47.443 9.687c0-.38-.083-.706-.248-.978-.194-.33-.47-.496-.83-.496-.37 0-.652.165-.846.495-.166.27-.25.603-.25.994 0 .38.084.707.25.98.2.328.477.492.837.492.354 0 .63-.167.83-.5.17-.28.256-.608.256-.99zm.958-.03c0 .635-.18 1.155-.546 1.562-.383.418-.89.627-1.522.627-.61 0-1.096-.2-1.458-.602-.362-.402-.543-.91-.543-1.52 0-.64.187-1.162.56-1.57.374-.408.877-.61 1.51-.61.61 0 1.1.2 1.47.602.353.39.53.894.53 1.51zM55.326 7.63l-1.3 4.124h-.845l-.54-1.79c-.135-.448-.247-.892-.333-1.334h-.016c-.08.453-.19.898-.333 1.333l-.573 1.79h-.855L49.306 7.63h.95l.47 1.96c.112.464.207.905.282 1.324h.015c.068-.345.182-.784.342-1.316l.59-1.97h.752l.564 1.928c.137.47.248.922.333 1.358h.026c.062-.425.157-.877.283-1.358l.504-1.927h.906M60.115 11.754h-.924V9.39c0-.727-.277-1.09-.836-1.09-.274 0-.496.1-.667.3-.17.2-.257.436-.257.707v2.447h-.924V8.81c0-.364-.01-.757-.033-1.18h.812l.043.644h.026c.107-.2.268-.367.478-.498.25-.155.53-.232.838-.232.387 0 .71.125.967.374.32.305.478.76.478 1.366v2.47M61.74 5.737h.923v6.017h-.923M67.142 9.687c0-.38-.082-.706-.247-.978-.193-.33-.47-.496-.83-.496-.37 0-.653.165-.846.495-.166.27-.25.603-.25.994 0 .38.084.707.25.98.2.328.478.492.837.492.354 0 .63-.167.83-.5.17-.28.255-.608.255-.99zm.96-.03c0 .635-.183 1.155-.548 1.562-.382.418-.89.627-1.522.627-.61 0-1.097-.2-1.458-.602-.362-.402-.542-.91-.542-1.52 0-.64.186-1.162.56-1.57.372-.408.876-.61 1.507-.61.61 0 1.1.2 1.47.602.354.39.53.894.53 1.51zM71.613 10.336V9.7c-1.02-.017-1.528.26-1.528.832 0 .215.058.376.177.483.12.108.27.16.45.16.204 0 .394-.062.565-.19.175-.126.282-.29.32-.487.01-.045.016-.1.016-.162zm.96 1.418h-.83l-.07-.475h-.025c-.284.378-.69.568-1.214.568-.392 0-.71-.125-.95-.374-.215-.227-.324-.507-.324-.84 0-.504.212-.888.637-1.155.425-.266 1.023-.397 1.793-.39V9.01c0-.543-.288-.814-.863-.814-.41 0-.772.1-1.083.305l-.188-.603c.386-.237.862-.356 1.426-.356 1.086 0 1.63.57 1.63 1.707v1.52c0 .412.02.74.06.984zM76.864 10.014v-.687c0-.12-.01-.216-.025-.29-.053-.22-.165-.405-.335-.555-.172-.15-.38-.225-.618-.225-.345 0-.615.136-.813.407-.197.272-.296.62-.296 1.044 0 .408.094.74.284.993.2.273.47.41.807.41.302 0 .545-.115.73-.34.177-.21.264-.462.264-.756zm.958 1.74h-.82l-.042-.662h-.027c-.262.503-.707.755-1.334.755-.502 0-.918-.195-1.25-.585-.33-.39-.495-.897-.495-1.52 0-.667.18-1.208.54-1.62.347-.385.773-.578 1.282-.578.557 0 .948.187 1.17.56h.017V5.737h.925v4.906c0 .4.01.77.032 1.11zM84.765 9.687c0-.38-.083-.706-.248-.978-.194-.33-.47-.496-.83-.496-.37 0-.652.165-.847.495-.165.27-.248.603-.248.994 0 .38.083.707.248.98.2.328.48.492.84.492.352 0 .63-.167.83-.5.17-.28.255-.608.255-.99zm.957-.03c0 .635-.182 1.155-.547 1.562-.383.418-.89.627-1.522.627-.61 0-1.095-.2-1.458-.602-.362-.402-.542-.91-.542-1.52 0-.64.186-1.162.56-1.57.372-.408.875-.61 1.51-.61.608 0 1.1.2 1.47.602.352.39.53.894.53 1.51zM90.69 11.754h-.923V9.39c0-.727-.28-1.09-.84-1.09-.273 0-.495.1-.665.3-.17.2-.257.436-.257.707v2.447h-.924V8.81c0-.364-.01-.757-.032-1.18h.81l.044.644h.026c.108-.2.27-.367.478-.498.252-.155.53-.232.84-.232.387 0 .708.125.965.374.32.305.48.76.48 1.366v2.47M96.907 8.316h-1.02v2.004c0 .51.182.764.54.764.166 0 .303-.014.412-.043l.023.697c-.182.068-.422.102-.718.102-.365 0-.65-.11-.853-.332-.207-.22-.31-.59-.31-1.112v-2.08h-.607V7.63h.608v-.757l.905-.27v1.026h1.02v.686M101.797 11.754h-.924V9.41c0-.74-.28-1.11-.837-1.11-.43 0-.72.214-.882.643-.027.09-.042.2-.042.33v2.48h-.923V5.738h.922v2.485h.017c.29-.452.707-.678 1.247-.678.383 0 .7.125.95.374.314.31.47.772.47 1.383v2.454M105.96 9.258c.007-.27-.054-.506-.18-.704-.16-.255-.403-.382-.734-.382-.3 0-.547.125-.735.374-.152.198-.243.436-.273.712h1.923zm.882.238c0 .165-.013.303-.035.416h-2.77c.012.408.144.718.4.934.235.192.54.288.91.288.41 0 .782-.064 1.12-.195l.144.635c-.393.17-.856.256-1.394.256-.643 0-1.15-.187-1.516-.564-.368-.377-.55-.882-.55-1.515 0-.62.17-1.14.512-1.552.358-.442.842-.663 1.453-.663.598 0 1.052.22 1.358.663.246.35.37.784.37 1.298z" fill="#FFF"/></g></svg>
