<svg xmlns="http://www.w3.org/2000/svg" width="18" height="18" viewBox="0 0 18 18"><g fill-rule="evenodd"><path d="M11.842 3.563v9.463c0 .654-.531 1.184-1.184 1.184H3.562c.36.477.927.79 1.57.79h5.526a1.975 1.975 0 0 0 1.974-1.974V5.131c0-.642-.313-1.208-.79-1.568"/><path d="M9.079 13.421a1.975 1.975 0 0 0 1.974-1.974V3.158h-.04a1.947 1.947 0 0 0-.365-.79 1.97 1.97 0 0 0-.385-.384v1.174h-.072c.044.124.072.256.072.395v7.894c0 .653-.531 1.185-1.184 1.185H3.553a1.17 1.17 0 0 1-.395-.073v.073H1.984a2.024 2.024 0 0 0 1.174.749v.04h5.921z"/><path d="M1.974 11.053a1.17 1.17 0 0 1-.395-.073 1.182 1.182 0 0 1-.79-1.112V1.973A1.187 1.187 0 0 1 1.974.79H7.5c.514 0 .948.331 1.112.79.044.124.072.256.072.395v7.894c0 .653-.531 1.185-1.184 1.185H1.974zm.467.79H7.5a1.975 1.975 0 0 0 1.974-1.975V1.58h-.04a1.947 1.947 0 0 0-.365-.79A1.964 1.964 0 0 0 7.5 0H1.974A1.976 1.976 0 0 0 0 1.974v7.894c0 .643.313 1.21.79 1.57.23.174.495.305.789.364v.04h.861z"/><path d="M3.158 7.105h4.737v-.79H1.578v.79h.79zm0-1.579h4.737v-.79H1.578v.79h.79zm0 3.158h4.737v-.79H1.578v.79h.79zm-.75-4.737h5.486V1.578H1.58v2.369h.79z"/></g></svg>