<svg xmlns="http://www.w3.org/2000/svg" xmlns:xlink="http://www.w3.org/1999/xlink" width="12" height="12" viewBox="0 0 12 12">
  <defs>
    <path id="reddit-a" d="M11.091,6.13906061 C11.287,5.98142424 11.385,5.76506061 11.385,5.48945455 C11.385,5.29266667 11.3235,5.12009091 11.198,4.97275758 C11.074,4.82542424 10.913,4.75124242 10.717,4.75124242 C10.5745,4.75124242 10.441,4.80069697 10.3165,4.90012121 C10.6905,5.2540303 10.9485,5.66666667 11.091,6.13906061 M9.6885,0.973636364 C9.6085,1.07306061 9.5675,1.19 9.5675,1.32857576 C9.5675,1.46612121 9.6085,1.58409091 9.6885,1.68248485 C9.768,1.78087879 9.871,1.82981818 9.995,1.82981818 C10.1205,1.82981818 10.2275,1.78087879 10.3165,1.68248485 C10.4055,1.58409091 10.45,1.46612121 10.45,1.32857576 C10.45,1.19 10.4055,1.07306061 10.3165,0.973636364 C10.2275,0.875242424 10.1205,0.82630303 9.995,0.82630303 C9.871,0.82630303 9.768,0.875242424 9.6885,0.973636364 M7.176,7.28990909 C7.345,7.46763636 7.5455,7.55572727 7.777,7.55572727 C8.0085,7.55572727 8.2095,7.46763636 8.378,7.28990909 C8.548,7.11269697 8.6325,6.88706061 8.6325,6.61145455 C8.6325,6.35542424 8.5525,6.13906061 8.392,5.96133333 C8.232,5.78515152 8.027,5.6960303 7.777,5.6960303 C7.5275,5.6960303 7.3235,5.78515152 7.1625,5.96133333 C7.0015,6.13906061 6.922,6.35542424 6.922,6.61145455 C6.922,6.88706061 7.006,7.11269697 7.176,7.28990909 M5.987,9.91666667 C6.842,9.91666667 7.5365,9.622 8.0715,9.03163636 L7.7235,8.67772727 C7.279,9.15012121 6.6995,9.38554545 5.987,9.38554545 C5.6665,9.38554545 5.363,9.32630303 5.078,9.20781818 C4.793,9.09087879 4.5875,8.97239394 4.463,8.85390909 L4.276,8.67772727 L3.9285,9.03163636 C4.463,9.622 5.1485,9.91666667 5.987,9.91666667 M3.3935,6.61145455 C3.3935,6.88706061 3.479,7.11269697 3.648,7.28990909 C3.8165,7.46763636 4.0175,7.55572727 4.249,7.55572727 C4.4815,7.55572727 4.681,7.46763636 4.851,7.28990909 C5.0195,7.11269697 5.104,6.88706061 5.104,6.61145455 C5.104,6.35542424 5.0245,6.13906061 4.8635,5.96133333 C4.704,5.78515152 4.4985,5.6960303 4.249,5.6960303 C4,5.6960303 3.795,5.78515152 3.634,5.96133333 C3.4745,6.13906061 3.3935,6.35542424 3.3935,6.61145455 M0.9085,6.11021212 C1.0515,5.65687879 1.309,5.2540303 1.683,4.90012121 C1.5585,4.80069697 1.4255,4.75124242 1.283,4.75124242 C1.105,4.75124242 0.9485,4.82542424 0.815,4.97275758 C0.6805,5.12009091 0.6145,5.29266667 0.6145,5.48945455 C0.6145,5.78515152 0.7125,5.99172727 0.9085,6.11021212 M12,5.51933333 C12,6.12875758 11.7595,6.57230303 11.278,6.84687879 C11.2965,6.94630303 11.3055,7.08333333 11.3055,7.26106061 C11.3055,8.3820303 10.784,9.34124242 9.742,10.138697 C8.6995,10.9356364 7.4475,11.3333333 5.987,11.3333333 C4.526,11.3333333 3.2785,10.9392424 2.245,10.1520909 C1.211,9.36545455 0.6945,8.41190909 0.6945,7.28990909 C0.6945,7.09363636 0.7035,6.94630303 0.7215,6.84687879 C0.2405,6.57230303 0,6.12875758 0,5.51933333 C0,5.10669697 0.1335,4.75639394 0.4,4.4720303 C0.668,4.18612121 0.9795,4.04342424 1.3365,4.04342424 C1.657,4.04342424 1.951,4.17066667 2.218,4.42772727 C3.1985,3.67972727 4.347,3.27687879 5.6665,3.21763636 L5.719,3.21763636 L6.548,0.177727273 L8.953,0.707818182 C9.2025,0.235424242 9.5505,0 9.995,0 L10.0225,0 C10.361,0 10.6415,0.128787879 10.864,0.38430303 C11.0865,0.639818182 11.198,0.954575758 11.198,1.32857576 C11.198,1.70154545 11.0865,2.01733333 10.864,2.27336364 C10.6415,2.52887879 10.361,2.65612121 10.0225,2.65612121 L9.995,2.65612121 C9.693,2.65612121 9.425,2.54278788 9.1935,2.31715152 C8.962,2.09048485 8.8375,1.80972727 8.8195,1.47590909 L7.029,1.06275758 L6.4405,3.24648485 C7.7955,3.34487879 8.9085,3.7389697 9.782,4.42772727 C10.0485,4.17066667 10.352,4.04342424 10.6905,4.04342424 C11.0465,4.04342424 11.3545,4.18612121 11.612,4.4720303 C11.871,4.75639394 12,5.10669697 12,5.51933333"/>
  </defs>
  <use fill-rule="evenodd" xlink:href="#reddit-a"/>
</svg>
