<svg xmlns="http://www.w3.org/2000/svg" xmlns:xlink="http://www.w3.org/1999/xlink" width="12" height="12" viewBox="0 0 12 12">
  <defs>
    <path id="bubble-a" d="M3,2 C2.449,2 2,2.449 2,3 L2,6 C2,6.551 2.449,7 3,7 C3.552,7 4,7.448 4,8 L4,8.586 L5.293,7.293 C5.48,7.105 5.735,7 6,7 L9,7 C9.551,7 10,6.551 10,6 L10,3 C10,2.449 9.551,2 9,2 L3,2 Z M3,12 C2.871,12 2.741,11.975 2.617,11.924 C2.244,11.769 2,11.404 2,11 L2,8.829 C0.836,8.416 0,7.304 0,6 L0,3 C0,1.346 1.346,0 3,0 L9,0 C10.654,0 12,1.346 12,3 L12,6 C12,7.654 10.654,9 9,9 L6.414,9 L3.707,11.707 C3.516,11.898 3.26,12 3,12 Z"/>
  </defs>
  <use fill-rule="evenodd" xlink:href="#bubble-a"/>
</svg>
