<svg xmlns="http://www.w3.org/2000/svg" xmlns:xlink="http://www.w3.org/1999/xlink" width="18" height="18" viewBox="0 0 18 18">
  <defs>
    <path id="close-a" d="M10.4141,9 L16.7071,2.707 C17.0981,2.316 17.0981,1.684 16.7071,1.293 C16.3161,0.902 15.6841,0.902 15.2931,1.293 L9.0001,7.586 L2.7071,1.293 C2.3161,0.902 1.6841,0.902 1.2931,1.293 C0.9021,1.684 0.9021,2.316 1.2931,2.707 L7.5861,9 L1.2931,15.293 C0.9021,15.684 0.9021,16.316 1.2931,16.707 C1.4881,16.902 1.7441,17 2.0001,17 C2.2561,17 2.5121,16.902 2.7071,16.707 L9.0001,10.414 L15.2931,16.707 C15.4881,16.902 15.7441,17 16.0001,17 C16.2561,17 16.5121,16.902 16.7071,16.707 C17.0981,16.316 17.0981,15.684 16.7071,15.293 L10.4141,9 Z"/>
  </defs>
  <use fill-rule="evenodd" xlink:href="#close-a"/>
</svg>
