<svg width="24" height="24" viewBox="0 0 24 24" xmlns="http://www.w3.org/2000/svg">
  <path d="M9.245 5.204L5.46 9.314H1.83c-.78 0-1.035.46-1.035.895v3.52c0 .435.256.984 1.036.984h3.65l3.785 4.176c.165.093.35.144.533.144a.964.964 0 0 0 .5-.137c.33-.185.5-.526.5-.897V6.048c0-.37-.17-.713-.5-.898-.33-.187-.72-.13-1.05.053zm9.963 6.83l3.294-3.294a1 1 0 0 0-1.412-1.413l-3.295 3.295L14.5 7.327a.998.998 0 1 0-1.41 1.413l3.295 3.294-3.295 3.295a.998.998 0 1 0 1.413 1.41l3.295-3.295 3.295 3.294a.996.996 0 0 0 1.412 0 1 1 0 0 0 0-1.41l-3.294-3.297z" fill-rule="evenodd"/>
</svg>
