<svg xmlns="http://www.w3.org/2000/svg" xmlns:xlink="http://www.w3.org/1999/xlink" width="12" height="12" viewBox="0 0 12 12">
  <defs>
    <path id="bold-active-a" d="M5,4.69565217 L6,4.69565217 C6.41357288,4.69565217 6.75,4.34459778 6.75,3.91304348 C6.75,3.48148917 6.41357288,3.13043478 6,3.13043478 L5,3.13043478 L5,4.69565217 Z M6,7.82608696 L3.5,7.82608696 C2.67157288,7.82608696 2,7.12531526 2,6.26086957 L2,1.56521739 C2,0.700771696 2.67157288,0 3.5,0 L6,0 C8.07042712,0 9.75,1.75259778 9.75,3.91304348 C9.75,6.07348917 8.07042712,7.82608696 6,7.82608696 Z M5,8.86956522 L7.25,8.86956522 C7.66357288,8.86956522 8,8.51851083 8,8.08695652 C8,7.65540222 7.66357288,7.30434783 7.25,7.30434783 L5,7.30434783 L5,8.86956522 Z M7.25,12 L3.5,12 C2.67157288,12 2,11.2992283 2,10.4347826 L2,5.73913043 C2,4.87468474 2.67157288,4.17391304 3.5,4.17391304 L7.25,4.17391304 C9.32042712,4.17391304 11,5.92651083 11,8.08695652 C11,10.2474022 9.32042712,12 7.25,12 Z"/>
  </defs>
  <use xlink:href="#bold-active-a"/>
</svg>
