<svg width="129" height="10" viewBox="0 0 129 10" xmlns="http://www.w3.org/2000/svg">
	<path
		d="M3.836 4.292c.334 0 .597-.088.79-.264.19-.176.286-.436.286-.78 0-.32-.088-.577-.263-.774-.176-.196-.447-.294-.814-.294h-1.37v2.112h1.37zM.22 8.915C.16 8.855.13 8.782.13 8.7V.73C.13.64.156.566.213.504.27.443.344.41.434.41h3.463c1.06 0 1.892.243 2.496.726.603.483.905 1.19.905 2.124 0 .934-.302 1.632-.905 2.094-.604.463-1.436.694-2.496.694H2.502V8.7c0 .082-.03.154-.086.215-.057.062-.13.092-.22.092H.436c-.083 0-.154-.03-.216-.092zM13.89 6.9c.252-.257.387-.652.403-1.184.016-.474.025-.814.025-1.02 0-.203-.01-.535-.025-.994-.016-.532-.15-.927-.404-1.185-.253-.258-.592-.386-1.016-.386-.432 0-.775.13-1.028.387-.253.258-.387.653-.403 1.185-.01.23-.013.56-.013.995 0 .442.004.782.013 1.02.016.53.15.926.403 1.184.253.26.596.388 1.028.388.424 0 .763-.13 1.015-.387m-3.756 1.383C9.464 7.718 9.11 6.887 9.07 5.79c-.01-.23-.013-.58-.013-1.056 0-.475.004-.83.012-1.068.032-1.08.39-1.914 1.07-2.5.68-.585 1.592-.878 2.734-.878 1.134 0 2.04.293 2.722.88.68.584 1.038 1.417 1.07 2.498.017.475.025.83.025 1.068 0 .245-.007.598-.023 1.056-.04 1.097-.394 1.928-1.06 2.493-.664.565-1.575.847-2.733.847-1.158 0-2.072-.282-2.74-.847M19.736 8.89c-.086-.077-.137-.173-.153-.288l-1.31-7.86c-.007-.015-.01-.04-.01-.073 0-.066.025-.126.078-.18.054-.052.113-.08.18-.08h1.6c.238 0 .37.096.393.284l.746 4.642.843-2.69c.066-.22.2-.33.404-.33h.918c.203 0 .338.11.403.33l.845 2.677.758-4.63c.017-.097.054-.17.11-.214.058-.046.148-.07.27-.07h1.603c.073 0 .135.028.184.08.048.054.073.114.073.18v.073l-1.31 7.86c-.016.114-.07.21-.158.287-.09.078-.2.117-.33.117h-1.236c-.13 0-.233-.032-.306-.098-.073-.066-.122-.14-.147-.222l-1.21-3.402-1.212 3.402c-.032.082-.085.156-.158.22-.074.067-.176.1-.306.1h-1.223c-.14 0-.25-.04-.337-.118M29.692 8.915c-.06-.06-.092-.133-.092-.215V.73c0-.09.03-.165.086-.227.057-.06.13-.092.22-.092h5.775c.09 0 .166.032.227.093.06.062.092.138.092.228v1.216c0 .09-.032.164-.093.222-.06.057-.137.085-.226.085h-3.865v1.56h3.596c.09 0 .167.03.228.092.06.06.09.137.09.227V5.25c0 .09-.03.166-.09.227-.06.06-.137.092-.227.092h-3.595v1.595h3.963c.09 0 .166.03.227.092.06.062.092.138.092.228V8.7c0 .09-.03.164-.092.22-.06.06-.137.087-.227.087h-5.872c-.082 0-.153-.03-.214-.092M41.88 4.206c.35 0 .62-.088.802-.264.184-.176.275-.42.275-.73 0-.312-.09-.562-.275-.75-.183-.188-.45-.282-.8-.282h-1.36v2.026h1.36zm-3.565 4.71c-.062-.062-.092-.134-.092-.216V.73c0-.09.028-.165.085-.227.057-.06.13-.092.22-.092h3.365c1.077 0 1.92.247 2.526.738.607.49.91 1.183.91 2.075 0 .574-.132 1.06-.397 1.462-.265.4-.63.712-1.095.933l1.652 2.996c.024.05.037.094.037.135 0 .065-.025.124-.074.177-.05.054-.11.08-.183.08h-1.725c-.237 0-.404-.11-.502-.33L41.697 6.01h-1.174V8.7c0 .09-.03.164-.092.22-.06.06-.136.087-.225.087H38.53c-.083 0-.154-.03-.215-.092zM47.53 8.915c-.06-.06-.09-.133-.09-.215V.73c0-.09.027-.165.084-.227.057-.06.13-.092.22-.092h5.775c.09 0 .164.032.225.093.062.062.092.138.092.228v1.216c0 .09-.03.164-.092.222-.06.057-.136.085-.226.085h-3.867v1.56h3.597c.09 0 .165.03.226.092.06.06.092.137.092.227V5.25c0 .09-.03.166-.092.227-.06.06-.136.092-.226.092h-3.597v1.595h3.964c.09 0 .165.03.226.092.06.062.092.138.092.228V8.7c0 .09-.03.164-.092.22-.06.06-.136.087-.226.087h-5.872c-.082 0-.153-.03-.215-.092M59.585 7.165c.514 0 .893-.123 1.138-.368.244-.246.375-.64.39-1.18.017-.236.025-.543.025-.92 0-.376-.008-.68-.024-.91-.016-.523-.157-.91-.422-1.16-.265-.25-.655-.374-1.168-.374H58.36v4.912h1.225zm-3.432 1.75c-.06-.06-.092-.133-.092-.215V.73c0-.09.03-.165.087-.227.057-.06.13-.092.22-.092h3.218c1.207 0 2.145.29 2.814.867.667.577 1.018 1.406 1.05 2.487.01.237.013.553.013.945 0 .392-.004.703-.012.932-.08 2.244-1.35 3.365-3.804 3.365h-3.28c-.08 0-.152-.03-.213-.092zM73.2 7.35c.32 0 .566-.093.74-.277.176-.184.264-.41.264-.682 0-.277-.09-.508-.27-.692-.178-.184-.423-.276-.733-.276h-1.638V7.35h1.64zm-.11-3.537c.302 0 .535-.082.698-.246.163-.163.245-.376.245-.64 0-.252-.08-.46-.24-.618-.158-.16-.392-.24-.702-.24h-1.528v1.743h1.53zm-3.737 5.102c-.06-.06-.09-.133-.09-.215V.73c0-.09.027-.165.084-.227.057-.06.13-.092.22-.092h3.78c1.036 0 1.807.214 2.313.64.506.426.76 1.03.76 1.817 0 .393-.105.733-.313 1.02-.208.286-.44.495-.692.626.335.147.616.39.845.73.228.34.342.723.342 1.148 0 .828-.27 1.47-.814 1.93-.542.458-1.32.687-2.33.687h-3.89c-.082 0-.153-.03-.215-.092zM80.788 8.915c-.06-.06-.09-.133-.09-.215V6.085L77.87.805c-.024-.042-.036-.087-.036-.136 0-.066.026-.125.08-.18.052-.052.11-.08.177-.08h1.616c.114 0 .208.03.28.087.075.058.127.12.16.184l1.7 3.084 1.7-3.083c.034-.064.087-.125.16-.183.074-.057.167-.086.282-.086h1.615c.065 0 .124.028.177.08.053.055.08.114.08.18 0 .048-.013.093-.037.134l-2.826 5.28V8.7c0 .09-.03.164-.092.22-.06.06-.137.087-.226.087h-1.677c-.082 0-.153-.03-.215-.092M92.3 8.89c-.085-.077-.136-.173-.152-.288l-1.31-7.86c-.008-.015-.012-.04-.012-.073 0-.066.027-.126.08-.18.053-.052.112-.08.177-.08h1.603c.236 0 .367.096.39.284l.748 4.642.844-2.69c.065-.22.2-.33.404-.33h.917c.203 0 .337.11.403.33l.844 2.677.76-4.63c.015-.097.052-.17.11-.214.056-.046.145-.07.268-.07h1.603c.073 0 .134.028.183.08.05.054.074.114.074.18v.073l-1.31 7.86c-.015.114-.068.21-.158.287-.09.078-.2.117-.33.117H97.2c-.13 0-.232-.032-.305-.098-.074-.066-.123-.14-.147-.222l-1.21-3.402-1.213 3.402c-.032.082-.085.156-.16.22-.072.067-.174.1-.305.1h-1.223c-.14 0-.25-.04-.336-.118M102.256 8.915c-.06-.06-.09-.133-.09-.215V.718c0-.09.03-.163.09-.22.062-.058.133-.087.215-.087h1.75c.09 0 .163.03.22.087.057.058.086.13.086.22V8.7c0 .082-.03.154-.086.215-.057.062-.13.092-.22.092h-1.75c-.08 0-.152-.03-.214-.092M107.008 8.915c-.06-.06-.092-.133-.092-.215V.73c0-.09.03-.165.086-.227.057-.06.13-.092.22-.092h1.64c.09 0 .163.032.22.093.057.062.085.138.085.228V3.41l2.166-2.75c.09-.165.25-.247.477-.247h1.872c.065 0 .124.028.177.08.052.055.08.114.08.18 0 .065-.018.114-.05.147l-2.85 3.708 3.082 4.077c.033.033.05.082.05.147 0 .065-.027.124-.08.177-.053.054-.117.08-.19.08h-1.92c-.13 0-.237-.026-.32-.08-.08-.053-.138-.108-.17-.165l-2.325-2.997V8.7c0 .082-.028.154-.085.215-.057.062-.13.092-.22.092h-1.64c-.08 0-.153-.03-.214-.092M116.044 8.915c-.06-.06-.092-.133-.092-.215V.718c0-.09.03-.163.092-.22.06-.058.133-.087.214-.087h1.75c.09 0 .163.03.22.087.057.058.086.13.086.22V8.7c0 .082-.03.154-.086.215-.057.062-.13.092-.22.092h-1.75c-.08 0-.153-.03-.214-.092M123.32 5.704h2.176l-1.09-3.132-1.087 3.132zm-3.14 3.223c-.052-.053-.08-.112-.08-.178 0-.05.005-.087.013-.11l2.85-7.872c.082-.238.246-.357.49-.357h1.91c.244 0 .406.12.488.358l2.852 7.87c.008.025.012.062.012.11 0 .067-.027.126-.08.18-.053.053-.112.08-.177.08h-1.59c-.196 0-.335-.09-.416-.27l-.44-1.192h-3.205l-.44 1.19c-.082.18-.22.27-.417.27h-1.59c-.065 0-.124-.025-.177-.08z"
		fill="#002A32" fill-rule="evenodd"/>
</svg>
