<svg xmlns="http://www.w3.org/2000/svg" xmlns:xlink="http://www.w3.org/1999/xlink" width="12" height="12" viewBox="0 0 12 12">
  <defs>
    <path id="bold-a" d="M4,4 L6,4 C6.551,4 7,3.552 7,3 C7,2.449 6.551,2 6,2 L4,2 L4,4 Z M4,10 L7,10 C8.103,10 9,9.104 9,8 C9,6.897 8.103,6 7,6 L4,6 L4,10 Z M7,12 L3,12 C2.448,12 2,11.553 2,11 L2,1 C2,0.448 2.448,0 3,0 L6,0 C7.654,0 9,1.346 9,3 C9,3.492 8.881,3.956 8.671,4.366 C10.044,5 11,6.391 11,8 C11,10.206 9.206,12 7,12 Z"/>
  </defs>
  <use fill-rule="evenodd" xlink:href="#bold-a"/>
</svg>
