<svg xmlns="http://www.w3.org/2000/svg" xmlns:xlink="http://www.w3.org/1999/xlink" width="12" height="12" viewBox="0 0 12 12">
  <defs>
    <path id="bookmark-a" d="M10,9.605 L6.371,8.154 C6.252,8.107 6.126,8.083 6,8.083 C5.874,8.083 5.748,8.107 5.629,8.154 L2,9.605 L2,2 L10,2 L10,9.605 Z M11,0 L1,0 C0.447,0 0,0.447 0,1 L0,11.083 C0,11.415 0.165,11.724 0.439,11.911 C0.714,12.097 1.064,12.134 1.371,12.011 L6,10.16 L10.629,12.011 C10.748,12.059 10.874,12.083 11,12.083 C11.197,12.083 11.393,12.025 11.561,11.911 C11.835,11.724 12,11.415 12,11.083 L12,1 C12,0.447 11.553,0 11,0 Z M5,5.9165 C5,6.4685 5.447,6.9165 6,6.9165 C6.553,6.9165 7,6.4685 7,5.9165 C7.553,5.9165 8,5.4685 8,4.9165 C8,4.3645 7.553,3.9165 7,3.9165 C7,3.3645 6.553,2.9165 6,2.9165 C5.447,2.9165 5,3.3645 5,3.9165 C4.447,3.9165 4,4.3645 4,4.9165 C4,5.4685 4.447,5.9165 5,5.9165"/>
  </defs>
  <use fill-rule="evenodd" xlink:href="#bookmark-a"/>
</svg>
