<svg xmlns="http://www.w3.org/2000/svg" xmlns:xlink="http://www.w3.org/1999/xlink" width="12" height="12" viewBox="0 0 12 12">
  <defs>
    <path id="unlock-a" d="M3,10 L9,10 L9,6 L3,6 L3,10 Z M10,4 L4,4 C4,2.897 4.897,2 6,2 C6.552,2 7,1.552 7,1 C7,0.448 6.552,0 6,0 C3.794,0 2,1.794 2,4 C1.448,4 1,4.448 1,5 L1,11 C1,11.552 1.448,12 2,12 L10,12 C10.552,12 11,11.552 11,11 L11,5 C11,4.448 10.552,4 10,4 Z M5.29,8.71 C5.39,8.8 5.49,8.87 5.62,8.92 C5.74,8.97 5.87,9 6,9 C6.26,9 6.52,8.89 6.71,8.71 C6.89,8.521 7,8.26 7,8 C7,7.739 6.89,7.48 6.71,7.29 C6.43,7.01 5.98,6.92 5.62,7.079 C5.49,7.13 5.39,7.2 5.29,7.29 C5.11,7.48 5,7.739 5,8 C5,8.13 5.03,8.26 5.08,8.38 C5.13,8.5 5.2,8.61 5.29,8.71"/>
  </defs>
  <use fill-rule="evenodd" xlink:href="#unlock-a"/>
</svg>
