<svg xmlns="http://www.w3.org/2000/svg" xmlns:xlink="http://www.w3.org/1999/xlink" width="18" height="18" viewBox="0 0 18 18">
  <defs>
    <path id="more-a" d="M9,5 C10.103,5 11,4.104 11,3 C11,1.896 10.103,1 9,1 C7.897,1 7,1.896 7,3 C7,4.104 7.897,5 9,5 M9,13 C7.897,13 7,13.896 7,15 C7,16.104 7.897,17 9,17 C10.103,17 11,16.104 11,15 C11,13.896 10.103,13 9,13 M9,7 C7.897,7 7,7.896 7,9 C7,10.104 7.897,11 9,11 C10.103,11 11,10.104 11,9 C11,7.896 10.103,7 9,7"/>
  </defs>
  <use fill-rule="evenodd" xlink:href="#more-a"/>
</svg>
