<svg xmlns="http://www.w3.org/2000/svg" xmlns:xlink="http://www.w3.org/1999/xlink" width="18" height="18" viewBox="0 0 18 18">
  <defs>
    <path id="documents-a" d="M3,16 L11,16 L11,6 L3,6 L3,16 Z M12,4 C12.553,4 13,4.447 13,5 L13,17 C13,17.553 12.553,18 12,18 L2,18 C1.447,18 1,17.553 1,17 L1,5 C1,4.447 1.447,4 2,4 L12,4 Z M16,0 C16.553,0 17,0.447 17,1 L17,13 C17,13.553 16.553,14 16,14 C15.447,14 15,13.553 15,13 L15,2 L6,2 C5.447,2 5,1.553 5,1 C5,0.447 5.447,0 6,0 L16,0 Z"/>
  </defs>
  <use fill-rule="evenodd" xlink:href="#documents-a"/>
</svg>
