<svg xmlns="http://www.w3.org/2000/svg" xmlns:xlink="http://www.w3.org/1999/xlink" width="24" height="24" viewBox="0 0 24 24">
  <defs>
    <path id="close-a" d="M22.0833524,23.0000208 C21.8486853,23.0000208 21.6140182,22.9101873 21.4352679,22.731437 L11.9495832,13.2457524 L2.56473213,22.6306035 C2.20631479,22.9881041 1.62698035,22.9881041 1.26856301,22.6306035 C0.910145664,22.2721861 0.910145664,21.691935 1.26856301,21.3344343 L10.6534141,11.9495832 L1.36939653,2.66556565 C1.01189586,2.30806498 1.01189586,1.72781388 1.36939653,1.36939653 C1.72781388,1.01189586 2.30806498,1.01189586 2.66556565,1.36939653 L11.9495832,10.6524974 L21.3344343,1.26856301 C21.6928517,0.910145664 22.2731028,0.910145664 22.6306035,1.26856301 C22.9890208,1.62698035 22.9890208,2.20631479 22.6306035,2.56473213 L13.2457524,11.9495832 L22.731437,21.4352679 C23.0898543,21.7936852 23.0898543,22.3730196 22.731437,22.731437 C22.5526867,22.9101873 22.3180195,23.0000208 22.0833524,23.0000208"/>
  </defs>
  <use fill-rule="evenodd" xlink:href="#close-a"/>
</svg>
