<svg xmlns="http://www.w3.org/2000/svg" xmlns:xlink="http://www.w3.org/1999/xlink" width="12" height="12" viewBox="0 0 12 12">
  <defs>
    <path id="footnote-a" d="M1.71,10.29 C1.8,10.39 1.87,10.5 1.92,10.62 C1.97,10.739 2,10.87 2,11 C2,11.26 1.89,11.52 1.71,11.71 C1.66,11.75 1.61,11.79 1.56,11.829 C1.5,11.87 1.44,11.899 1.38,11.92 C1.32,11.95 1.26,11.97 1.2,11.979 C1.13,11.989 1.07,12 1,12 C0.74,12 0.48,11.89 0.29,11.71 C0.11,11.52 0,11.26 0,11 C0,10.87 0.03,10.739 0.08,10.62 C0.13,10.5 0.2,10.39 0.29,10.29 C0.52,10.06 0.87,9.95 1.2,10.02 C1.26,10.03 1.32,10.05 1.38,10.079 C1.44,10.1 1.5,10.13 1.56,10.17 C1.61,10.2 1.66,10.25 1.71,10.29 Z M4.29,10.29 C4.66,9.92 5.33,9.92 5.71,10.29 C5.89,10.479 6,10.739 6,11 C6,11.26 5.89,11.52 5.71,11.71 C5.52,11.89 5.26,12 5,12 C4.74,12 4.48,11.89 4.29,11.71 C4.11,11.52 4,11.26 4,11 C4,10.739 4.11,10.479 4.29,10.29 Z M8.29,10.29 C8.67,9.92 9.33,9.92 9.71,10.29 C9.89,10.479 10,10.739 10,11 C10,11.26 9.89,11.52 9.71,11.71 C9.52,11.89 9.26,12 9,12 C8.74,12 8.48,11.89 8.29,11.71 C8.11,11.52 8,11.26 8,11 C8,10.739 8.11,10.479 8.29,10.29 Z M5,7 C5,7.552 4.552,8 4,8 L3,8 C2.448,8 2,7.552 2,7 L2,1 C2,0.448 2.448,1.77635684e-14 3,1.77635684e-14 L4,1.77635684e-14 C4.552,1.77635684e-14 5,0.448 5,1 C5,1.552 4.552,2 4,2 L4,6 C4.552,6 5,6.448 5,7 Z M11,1.77635684e-14 C11.552,1.77635684e-14 12,0.448 12,1 L12,7 C12,7.552 11.552,8 11,8 L10,8 C9.448,8 9,7.552 9,7 C9,6.448 9.448,6 10,6 L10,2 C9.448,2 9,1.552 9,1 C9,0.448 9.448,1.77635684e-14 10,1.77635684e-14 L11,1.77635684e-14 Z M7,6 L7,5 L7,4 L6,4 L6,3 L6,2 L7,2 L8,2 L8,3 L8,4 L8,5 L8,6 L7,6 Z"/>
  </defs>
  <use fill-rule="evenodd" xlink:href="#footnote-a"/>
</svg>
