<svg xmlns="http://www.w3.org/2000/svg" xmlns:xlink="http://www.w3.org/1999/xlink" width="18" height="18" viewBox="0 0 18 18">
  <defs>
    <path id="pin-a" d="M7,10 L11,10 L11,3 L7,3 L7,10 Z M9,17 C8.447,17 8,16.553 8,16 L8,12 L4,12 C3.447,12 3,11.553 3,11 C3,10.447 3.447,10 4,10 L5,10 L5,3 L4,3 C3.447,3 3,2.553 3,2 C3,1.447 3.447,1 4,1 L14,1 C14.553,1 15,1.447 15,2 C15,2.553 14.553,3 14,3 L13,3 L13,10 L14,10 C14.553,10 15,10.447 15,11 C15,11.553 14.553,12 14,12 L10,12 L10,16 C10,16.553 9.553,17 9,17 Z"/>
  </defs>
  <use fill-rule="evenodd" xlink:href="#pin-a"/>
</svg>
