<svg xmlns="http://www.w3.org/2000/svg" xmlns:xlink="http://www.w3.org/1999/xlink" width="24" height="24" viewBox="0 0 24 24">
  <defs>
    <path id="arrow-a" d="M23,11.00025 L3.414,11.00025 L10.707,3.70725 C11.098,3.31625 11.098,2.68425 10.707,2.29325 C10.316,1.90225 9.684,1.90225 9.293,2.29325 L0.293,11.29325 C0.196,11.38925 0.124,11.50025 0.075,11.61925 C0.027,11.73525 0,11.86325 0,11.99725 L0,12.00325 C0,12.13725 0.027,12.26525 0.075,12.38125 C0.124,12.50025 0.196,12.61125 0.293,12.70725 L9.293,21.70725 C9.488,21.90225 9.744,22.00025 10,22.00025 C10.256,22.00025 10.512,21.90225 10.707,21.70725 C11.098,21.31625 11.098,20.68425 10.707,20.29325 L3.414,13.00025 L23,13.00025 C23.553,13.00025 24,12.55325 24,12.00025 C24,11.44725 23.553,11.00025 23,11.00025"/>
  </defs>
  <use fill-rule="evenodd" xlink:href="#arrow-a"/>
</svg>
