<svg width="282" height="32" viewBox="0 0 282 32" fill="none" xmlns="http://www.w3.org/2000/svg">
<path d="M0 12.7467L12.8156 0V4.13405L1.72252 12.6089L7.02789 26.8024H6.13217L0 12.7467Z" fill="#F58120"/>
<path d="M2.75586 12.7467L18.7409 0.826904L18.3274 4.54755L7.16551 11.2998L21.4969 3.44514L20.9457 7.16578L9.43924 11.5754L23.9084 6.82128L22.9438 10.0596L6.4076 14.2626L2.75586 12.7467Z" fill="white"/>
<path d="M6.20068 15.0204L11.2993 31.2121L24.3905 24.5287L25.1484 10.4041L6.20068 15.0204ZM20.601 24.2531C19.9809 24.8043 19.2229 24.9421 18.8095 25.3555C18.5339 25.6311 18.3961 26.0445 18.3961 26.0445C17.9138 25.3555 17.4315 25.1488 16.9492 25.0799C16.398 25.011 15.5023 25.2866 14.1243 24.322C13.1597 23.7019 12.953 22.7373 12.953 22.1861V22.1172C12.953 22.0483 12.953 22.0483 12.953 21.9794C12.953 21.9105 12.953 21.8416 12.953 21.7727C13.0219 21.2215 13.3664 20.6703 14.1932 20.188C14.1932 20.188 13.7798 21.0837 14.4688 21.9105C14.8822 22.3928 15.6401 22.5306 16.1224 22.0483C16.3291 21.8416 16.4669 21.4971 16.4669 21.2215C16.5358 20.6014 16.398 20.0502 15.8468 19.7057C14.9511 19.1545 14.6755 18.2587 15.0889 17.6386C15.0889 17.6386 15.4334 18.6722 16.0535 18.5344C16.5358 18.3965 16.5358 17.9142 16.3291 17.7075C16.1224 17.5008 14.8133 16.0539 16.2602 14.6759C16.2602 14.6759 17.087 13.918 18.1894 13.7113C18.2583 13.7113 18.2583 13.7113 18.3272 13.7113C17.7071 13.918 17.0181 14.4692 16.8803 15.1582C16.8803 15.1582 16.8803 15.1582 16.8803 15.2271C16.7425 15.985 17.087 16.674 17.6382 17.2252C18.0516 17.6386 18.5339 17.9831 18.8095 18.6722C18.5339 18.6033 18.3272 18.7411 18.1894 18.9478C18.0516 19.1545 17.9827 19.499 18.1894 19.7746C18.3272 19.9124 18.465 20.0502 18.6717 20.0502C18.7406 20.0502 18.8095 20.0502 18.8784 19.9813C18.8784 19.9813 18.9473 19.9813 18.9473 19.9124C19.154 19.7746 19.2918 19.4301 19.154 19.2234C19.3607 19.2923 19.4985 19.7746 19.4985 19.9813C19.4985 20.2569 19.4296 20.4636 19.3607 20.7392C19.2918 20.877 19.154 21.0837 19.154 21.2904C19.0851 21.4971 19.0851 21.6349 19.0851 21.8416C19.0851 22.0483 19.154 22.255 19.2918 22.3928C19.7052 22.8062 20.2565 22.1861 20.3943 21.7727C20.5321 21.2215 20.3943 20.6703 19.9809 20.2569C19.9809 20.2569 20.601 20.4636 21.2211 21.566C21.5656 22.4617 21.2211 23.7019 20.601 24.2531Z" fill="#F58120"/>
<path d="M47.9553 21.6348C47.9553 21.8415 47.8864 21.9793 47.8175 22.186C47.7486 22.3927 47.6108 22.5994 47.3352 22.7372C45.6815 23.9775 43.5456 24.6665 41.4786 24.6665C38.9982 24.6665 36.8622 23.8397 35.1397 22.1171C33.4172 20.3946 32.5215 18.3276 32.5215 15.9161C32.5215 13.5045 33.4172 11.3686 35.1397 9.71498C36.8622 7.99246 38.9982 7.16565 41.4786 7.16565C43.5456 7.16565 45.4059 7.78576 47.0596 9.09487C47.3352 9.30158 47.5419 9.64608 47.6108 9.99058C47.6797 10.404 47.5419 10.7485 47.3352 11.0241C47.1285 11.2997 46.784 11.5064 46.4395 11.5753C46.0261 11.6442 45.6815 11.5064 45.4059 11.2997C44.2346 10.404 42.9255 9.99058 41.3408 9.99058C39.7561 9.99058 38.3781 10.5418 37.1378 11.7131C35.8976 12.8844 35.2775 14.3313 35.2775 15.985C35.2775 17.6386 35.8976 19.0855 37.1378 20.2568C38.3781 21.4281 39.825 21.9793 41.5475 21.9793C42.7188 21.9793 44.1657 21.7037 45.2681 21.0836V17.9142H41.4097C41.0652 17.9142 40.7207 17.7764 40.4451 17.5008C40.1695 17.2252 40.0317 16.674 40.0317 16.2606C40.0317 15.8472 40.1695 15.7783 40.4451 15.5716C40.7207 15.2959 41.0652 15.1581 41.4097 15.1581H46.5773C46.9907 15.1581 47.2663 15.2959 47.6108 15.5716C47.8864 15.8472 48.0242 15.9161 48.0242 16.3295V21.6348H47.9553Z" fill="white"/>
<path d="M60.1497 23.8398L58.9095 20.6703H52.984L51.8127 23.8398C51.606 24.391 51.1926 24.6666 50.6414 24.6666C50.0902 24.6666 49.6768 24.4599 49.4012 24.0465C49.1256 23.6331 49.1256 23.2197 49.2634 22.8063L54.6376 8.47488C54.7754 8.19928 54.9132 7.99257 55.1888 7.85477C55.3955 7.71697 55.6711 7.64807 55.9467 7.64807C56.5669 7.64807 56.9803 7.92367 57.2559 8.47488L62.6301 22.8063C62.7679 23.2197 62.699 23.6331 62.4923 24.0465C62.2167 24.4599 61.8722 24.6666 61.2521 24.6666C60.7009 24.7355 60.3564 24.391 60.1497 23.8398ZM54.0175 17.9832H57.9449L55.9467 12.7467L54.0175 17.9832Z" fill="white"/>
<path d="M71.1058 18.5343C70.5546 18.5343 70.2101 18.3276 69.9345 17.9831L66.4205 13.0911V23.3574C66.4205 23.7019 66.2827 24.0464 66.0071 24.322C65.7315 24.5976 65.387 24.7354 65.0425 24.7354C64.698 24.7354 64.3535 24.5976 64.0779 24.322C63.8023 24.0464 63.7334 23.7708 63.7334 23.3574V8.95708C63.7334 8.61258 63.8023 8.26808 64.0779 7.99247C64.3535 7.71687 64.6291 7.57907 65.0425 7.57907H65.1803C65.6626 7.57907 66.0071 7.78577 66.2827 8.13027L71.1058 14.8826L75.9288 8.13027C76.2044 7.78577 76.549 7.57907 77.0313 7.57907C77.3758 7.57907 77.5825 7.51017 77.8581 7.78577C78.1337 8.06137 78.2715 8.33698 78.2715 8.68148V23.0818C78.2715 23.4263 77.9959 23.7019 77.8581 24.0464C77.7203 24.322 77.4447 24.6665 77.0313 24.6665C76.6868 24.6665 76.3423 24.5287 76.0667 24.2531C75.791 23.9775 75.4465 23.7019 75.4465 23.3574V13.16L72.1393 17.9831C71.9326 18.3276 71.5881 18.5343 71.1058 18.5343Z" fill="white"/>
<path d="M102.731 9.1637C103.765 10.1972 104.247 11.4374 104.247 12.8843C104.247 14.3313 103.765 15.5715 102.731 16.5361C101.698 17.5696 100.389 17.9141 98.9418 17.9141H96.1857V23.4262C96.1857 23.7707 96.0479 24.1152 95.7723 24.3908C95.4967 24.6664 95.29 24.8042 94.9455 24.8042C94.601 24.8042 94.1187 24.5975 93.8431 24.3908C93.5675 24.1152 93.4297 23.8396 93.4297 23.4262V8.957C93.4297 8.61249 93.5675 8.26799 93.8431 7.99238C94.1187 7.71678 94.3254 7.57898 94.6699 7.57898H99.0107C100.458 7.64788 101.698 8.13019 102.731 9.1637ZM96.1857 10.335V15.1581H99.0107C99.6997 15.1581 100.32 15.1581 100.802 14.6758C101.284 14.1935 101.56 13.5734 101.56 12.9532C101.56 12.2642 101.284 11.6441 100.802 11.1618C100.32 10.6795 99.6997 10.4039 99.0107 10.4039H96.1857V10.335Z" fill="#F58120"/>
<path d="M107.14 24.7355C106.795 24.7355 106.451 24.5977 106.175 24.3221C105.9 24.0465 105.762 23.7709 105.762 23.3575V9.02609C105.762 8.68158 105.9 8.33708 106.175 8.06148C106.451 7.78587 106.726 7.64807 107.14 7.64807H114.926C115.27 7.64807 115.615 7.78587 115.89 8.06148C116.166 8.33708 116.304 8.61268 116.304 9.02609C116.304 9.37059 116.166 9.6462 115.89 9.9218C115.615 10.1974 115.339 10.3352 114.926 10.3352H108.587V15.1583H114.03C114.374 15.1583 114.719 15.2961 114.994 15.5717C115.27 15.8473 115.408 16.1229 115.408 16.5363C115.408 16.8808 115.27 17.2253 114.994 17.5009C114.719 17.7765 114.443 17.9143 114.03 17.9143H108.587V22.0483H114.926C115.27 22.0483 115.615 22.1861 115.89 22.4618C116.166 22.7374 116.304 23.013 116.304 23.4264C116.304 23.7709 116.166 24.1154 115.89 24.391C115.615 24.6666 115.339 24.8044 114.926 24.8044H107.002H107.14V24.7355Z" fill="#F58120"/>
<path d="M82.3355 24.7355C81.991 24.7355 81.6465 24.5977 81.3709 24.3221C81.0953 24.0465 80.9575 23.7709 80.9575 23.3575V9.02609C80.9575 8.68158 81.0953 8.33708 81.3709 8.06148C81.6465 7.78587 81.9221 7.64807 82.3355 7.64807H90.1213C90.4658 7.64807 90.8103 7.78587 91.0859 8.06148C91.3615 8.33708 91.4993 8.61268 91.4993 9.02609C91.4993 9.37059 91.3615 9.6462 91.0859 9.9218C90.8103 10.1974 90.5347 10.3352 90.1213 10.3352H83.7825V15.1583H89.2256C89.5701 15.1583 89.9146 15.2961 90.1902 15.5717C90.4658 15.8473 90.6036 16.1229 90.6036 16.5363C90.6036 16.8808 90.4658 17.2253 90.1902 17.5009C89.9146 17.7765 89.639 17.9143 89.2256 17.9143H83.7825V22.0483H90.1213C90.4658 22.0483 90.8103 22.1861 91.0859 22.4618C91.3615 22.7374 91.4993 23.013 91.4993 23.4264C91.4993 23.7709 91.3615 24.1154 91.0859 24.391C90.8103 24.6666 90.5347 24.8044 90.1213 24.8044H82.1977H82.3355V24.7355Z" fill="white"/>
<path d="M117.614 23.3573V8.957C117.614 8.61249 117.752 8.26799 118.028 7.99238C118.303 7.71678 118.579 7.57898 118.992 7.57898H122.162C124.504 7.57898 126.502 8.40579 128.156 10.0594C129.81 11.713 130.637 13.7112 130.637 16.1227C130.637 18.4653 129.81 20.4634 128.156 22.186C126.502 23.8396 124.504 24.6664 122.162 24.6664H118.923C118.579 24.6664 118.234 24.5286 117.959 24.253C117.683 24.0463 117.614 23.7018 117.614 23.3573ZM120.301 10.335V21.9793H122.093C123.678 21.9793 125.056 21.3591 126.227 20.2567C127.329 19.1543 127.949 17.7763 127.949 16.1227C127.949 14.538 127.398 13.1599 126.227 11.9886C125.124 10.8173 123.746 10.2661 122.093 10.2661H120.301V10.335Z" fill="#F58120"/>
<path d="M132.014 8.957C132.014 8.61249 132.151 8.26799 132.427 7.99238C132.703 7.71678 133.047 7.57898 133.461 7.57898C133.805 7.57898 134.15 7.71678 134.425 7.99238C134.701 8.26799 134.839 8.54359 134.839 8.957V23.3573C134.839 23.7018 134.701 24.0463 134.425 24.3219C134.15 24.5975 133.805 24.7353 133.461 24.7353C133.116 24.7353 132.703 24.5975 132.427 24.3219C132.151 24.0463 132.014 23.7707 132.014 23.3573V8.957Z" fill="#F58120"/>
<path d="M147.379 23.8398L146.208 20.6703H140.282L139.111 23.8398C138.904 24.391 138.491 24.6666 137.94 24.6666C137.389 24.6666 136.975 24.4599 136.7 24.0465C136.424 23.6331 136.424 23.2197 136.562 22.8063L141.936 8.47488C142.074 8.19928 142.212 7.99257 142.487 7.85477C142.694 7.71697 142.969 7.64807 143.245 7.64807C143.865 7.64807 144.279 7.92367 144.554 8.47488L149.928 22.8063C150.066 23.2197 149.997 23.6331 149.791 24.0465C149.515 24.4599 149.171 24.6666 148.55 24.6666C147.999 24.7355 147.586 24.391 147.379 23.8398ZM141.247 17.9832H145.174L143.176 12.7467L141.247 17.9832Z" fill="#F58120"/>
<path d="M160.02 20C159.953 20 159.897 19.9767 159.85 19.93C159.803 19.8833 159.78 19.8267 159.78 19.76V13.25C159.78 13.1767 159.8 13.1167 159.84 13.07C159.887 13.0233 159.947 13 160.02 13H162.7C163.507 13 164.14 13.19 164.6 13.57C165.06 13.95 165.29 14.5033 165.29 15.23C165.29 15.95 165.06 16.4967 164.6 16.87C164.14 17.2367 163.507 17.42 162.7 17.42H161.23V19.76C161.23 19.8333 161.207 19.8933 161.16 19.94C161.113 19.98 161.053 20 160.98 20H160.02ZM162.65 16.3C163.037 16.3 163.33 16.21 163.53 16.03C163.737 15.8433 163.84 15.5733 163.84 15.22C163.84 14.8733 163.74 14.6033 163.54 14.41C163.347 14.2167 163.05 14.12 162.65 14.12H161.21V16.3H162.65Z" fill="white"/>
<path d="M170.082 20.1C169.168 20.1 168.458 19.87 167.952 19.41C167.445 18.95 167.178 18.2667 167.152 17.36C167.145 17.1667 167.142 16.8833 167.142 16.51C167.142 16.13 167.145 15.8433 167.152 15.65C167.178 14.7633 167.452 14.0833 167.972 13.61C168.492 13.1367 169.195 12.9 170.082 12.9C170.962 12.9 171.662 13.1367 172.182 13.61C172.708 14.0833 172.985 14.7633 173.012 15.65C173.025 16.0367 173.032 16.3233 173.032 16.51C173.032 16.69 173.025 16.9733 173.012 17.36C172.985 18.2667 172.715 18.95 172.202 19.41C171.695 19.87 170.988 20.1 170.082 20.1ZM170.082 18.94C170.528 18.94 170.882 18.8067 171.142 18.54C171.402 18.2733 171.542 17.8633 171.562 17.31C171.575 16.91 171.582 16.64 171.582 16.5C171.582 16.3467 171.575 16.0767 171.562 15.69C171.542 15.1433 171.398 14.7367 171.132 14.47C170.865 14.1967 170.515 14.06 170.082 14.06C169.642 14.06 169.288 14.1967 169.022 14.47C168.755 14.7367 168.615 15.1433 168.602 15.69C168.595 15.8833 168.592 16.1533 168.592 16.5C168.592 16.84 168.595 17.11 168.602 17.31C168.615 17.8567 168.752 18.2667 169.012 18.54C169.278 18.8067 169.635 18.94 170.082 18.94Z" fill="white"/>
<path d="M176.407 20C176.213 20 176.093 19.9 176.047 19.7L174.867 13.29L174.857 13.21C174.857 13.15 174.877 13.1 174.917 13.06C174.957 13.02 175.007 13 175.067 13H175.967C176.053 13 176.117 13.0167 176.157 13.05C176.197 13.0767 176.223 13.1267 176.237 13.2L177.067 17.7L177.957 14.8C178.023 14.6333 178.133 14.55 178.287 14.55H178.837C178.923 14.55 178.993 14.5767 179.047 14.63C179.1 14.6767 179.137 14.7333 179.157 14.8L180.057 17.7L180.877 13.2C180.897 13.0667 180.99 13 181.157 13H182.057C182.11 13 182.157 13.02 182.197 13.06C182.237 13.1 182.257 13.15 182.257 13.21C182.257 13.2433 182.253 13.27 182.247 13.29L181.067 19.7C181.053 19.7933 181.013 19.8667 180.947 19.92C180.887 19.9733 180.807 20 180.707 20H180.027C179.933 20 179.857 19.9767 179.797 19.93C179.737 19.8767 179.697 19.8167 179.677 19.75L178.557 16.43L177.437 19.75C177.383 19.9167 177.267 20 177.087 20H176.407Z" fill="white"/>
<path d="M184.661 20C184.594 20 184.537 19.9767 184.491 19.93C184.444 19.8833 184.421 19.8267 184.421 19.76V13.25C184.421 13.1767 184.441 13.1167 184.481 13.07C184.527 13.0233 184.587 13 184.661 13H189.071C189.144 13 189.204 13.0233 189.251 13.07C189.297 13.1167 189.321 13.1767 189.321 13.25V13.92C189.321 13.9933 189.297 14.0533 189.251 14.1C189.204 14.14 189.144 14.16 189.071 14.16H185.791V15.91H188.851C188.924 15.91 188.984 15.9333 189.031 15.98C189.077 16.0267 189.101 16.0867 189.101 16.16V16.79C189.101 16.8633 189.077 16.9233 189.031 16.97C188.984 17.01 188.924 17.03 188.851 17.03H185.791V18.84H189.151C189.224 18.84 189.284 18.8633 189.331 18.91C189.377 18.95 189.401 19.0067 189.401 19.08V19.76C189.401 19.8333 189.377 19.8933 189.331 19.94C189.284 19.98 189.224 20 189.151 20H184.661Z" fill="white"/>
<path d="M191.891 20C191.824 20 191.768 19.9767 191.721 19.93C191.674 19.8833 191.651 19.8267 191.651 19.76V13.25C191.651 13.1767 191.671 13.1167 191.711 13.07C191.758 13.0233 191.818 13 191.891 13H194.481C195.301 13 195.941 13.19 196.401 13.57C196.868 13.95 197.101 14.49 197.101 15.19C197.101 15.6767 196.984 16.0867 196.751 16.42C196.518 16.7467 196.191 16.9833 195.771 17.13L197.221 19.68C197.241 19.72 197.251 19.7567 197.251 19.79C197.251 19.85 197.228 19.9 197.181 19.94C197.141 19.98 197.094 20 197.041 20H196.121C196.014 20 195.931 19.9767 195.871 19.93C195.811 19.8767 195.758 19.81 195.711 19.73L194.431 17.36H193.061V19.76C193.061 19.8267 193.038 19.8833 192.991 19.93C192.944 19.9767 192.884 20 192.811 20H191.891ZM194.451 16.22C194.851 16.22 195.151 16.1333 195.351 15.96C195.551 15.78 195.651 15.52 195.651 15.18C195.651 14.84 195.551 14.58 195.351 14.4C195.151 14.2133 194.851 14.12 194.451 14.12H193.061V16.22H194.451Z" fill="white"/>
<path d="M199.629 20C199.563 20 199.506 19.9767 199.459 19.93C199.413 19.8833 199.389 19.8267 199.389 19.76V13.25C199.389 13.1767 199.409 13.1167 199.449 13.07C199.496 13.0233 199.556 13 199.629 13H204.039C204.113 13 204.173 13.0233 204.219 13.07C204.266 13.1167 204.289 13.1767 204.289 13.25V13.92C204.289 13.9933 204.266 14.0533 204.219 14.1C204.173 14.14 204.113 14.16 204.039 14.16H200.759V15.91H203.819C203.893 15.91 203.953 15.9333 203.999 15.98C204.046 16.0267 204.069 16.0867 204.069 16.16V16.79C204.069 16.8633 204.046 16.9233 203.999 16.97C203.953 17.01 203.893 17.03 203.819 17.03H200.759V18.84H204.119C204.193 18.84 204.253 18.8633 204.299 18.91C204.346 18.95 204.369 19.0067 204.369 19.08V19.76C204.369 19.8333 204.346 19.8933 204.299 19.94C204.253 19.98 204.193 20 204.119 20H199.629Z" fill="white"/>
<path d="M206.86 20C206.793 20 206.737 19.9767 206.69 19.93C206.643 19.8833 206.62 19.8267 206.62 19.76V13.25C206.62 13.1767 206.64 13.1167 206.68 13.07C206.727 13.0233 206.787 13 206.86 13H209.3C211.267 13 212.27 13.9067 212.31 15.72C212.323 16.1067 212.33 16.3667 212.33 16.5C212.33 16.6267 212.323 16.8833 212.31 17.27C212.283 18.2033 212.03 18.8933 211.55 19.34C211.077 19.78 210.343 20 209.35 20H206.86ZM209.3 18.84C209.853 18.84 210.253 18.7167 210.5 18.47C210.747 18.2233 210.877 17.8133 210.89 17.24C210.903 16.84 210.91 16.59 210.91 16.49C210.91 16.3833 210.903 16.1367 210.89 15.75C210.877 15.2033 210.74 14.8033 210.48 14.55C210.22 14.29 209.81 14.16 209.25 14.16H208.03V18.84H209.3Z" fill="white"/>
<path d="M218.167 20C218.1 20 218.043 19.9767 217.997 19.93C217.95 19.8833 217.927 19.8267 217.927 19.76V13.25C217.927 13.1767 217.947 13.1167 217.987 13.07C218.033 13.0233 218.093 13 218.167 13H221.067C221.847 13 222.43 13.1733 222.817 13.52C223.203 13.86 223.397 14.3267 223.397 14.92C223.397 15.2667 223.31 15.5633 223.137 15.81C222.97 16.05 222.773 16.2233 222.547 16.33C222.827 16.4567 223.063 16.6633 223.257 16.95C223.45 17.2367 223.547 17.5633 223.547 17.93C223.547 18.55 223.337 19.05 222.917 19.43C222.497 19.81 221.91 20 221.157 20H218.167ZM220.887 15.87C221.227 15.87 221.487 15.7867 221.667 15.62C221.853 15.4533 221.947 15.23 221.947 14.95C221.947 14.67 221.857 14.4533 221.677 14.3C221.497 14.1467 221.233 14.07 220.887 14.07H219.337V15.87H220.887ZM220.987 18.93C221.333 18.93 221.603 18.8367 221.797 18.65C221.99 18.4567 222.087 18.2133 222.087 17.92C222.087 17.6267 221.987 17.3867 221.787 17.2C221.593 17.0067 221.327 16.91 220.987 16.91H219.337V18.93H220.987Z" fill="white"/>
<path d="M227.637 20C227.571 20 227.514 19.9767 227.467 19.93C227.421 19.8833 227.397 19.8267 227.397 19.76V17.51L225.027 13.32C225.007 13.26 224.997 13.2233 224.997 13.21C224.997 13.15 225.017 13.1 225.057 13.06C225.104 13.02 225.154 13 225.207 13H226.107C226.234 13 226.337 13.0633 226.417 13.19L228.097 16.09L229.787 13.19C229.814 13.1433 229.851 13.1 229.897 13.06C229.951 13.02 230.014 13 230.087 13H230.987C231.047 13 231.097 13.02 231.137 13.06C231.177 13.1 231.197 13.15 231.197 13.21C231.197 13.25 231.187 13.2867 231.167 13.32L228.807 17.51V19.76C228.807 19.8333 228.784 19.8933 228.737 19.94C228.691 19.98 228.631 20 228.557 20H227.637Z" fill="white"/>
<path d="M236.43 20C236.364 20 236.307 19.9767 236.26 19.93C236.214 19.8833 236.19 19.8267 236.19 19.76V13.25C236.19 13.1767 236.21 13.1167 236.25 13.07C236.297 13.0233 236.357 13 236.43 13H240.78C240.854 13 240.914 13.0233 240.96 13.07C241.007 13.1167 241.03 13.1767 241.03 13.25V13.97C241.03 14.0367 241.007 14.0933 240.96 14.14C240.914 14.1867 240.854 14.21 240.78 14.21H237.58V16.09H240.58C240.654 16.09 240.714 16.1133 240.76 16.16C240.807 16.2067 240.83 16.2633 240.83 16.33V17.05C240.83 17.1167 240.807 17.1733 240.76 17.22C240.714 17.2667 240.654 17.29 240.58 17.29H237.58V19.76C237.58 19.8267 237.557 19.8833 237.51 19.93C237.464 19.9767 237.404 20 237.33 20H236.43Z" fill="white"/>
<path d="M242.366 20C242.306 20 242.256 19.98 242.216 19.94C242.176 19.9 242.156 19.85 242.156 19.79L242.176 19.7L244.576 13.25C244.642 13.0833 244.762 13 244.936 13H246.036C246.209 13 246.329 13.0833 246.396 13.25L248.796 19.7L248.816 19.79C248.816 19.85 248.792 19.9 248.746 19.94C248.706 19.98 248.659 20 248.606 20H247.716C247.576 20 247.479 19.9367 247.426 19.81L246.966 18.6H244.006L243.546 19.81C243.492 19.9367 243.396 20 243.256 20H242.366ZM244.356 17.44H246.616L245.486 14.36L244.356 17.44Z" fill="white"/>
<path d="M250.979 20C250.912 20 250.856 19.9767 250.809 19.93C250.762 19.8833 250.739 19.8267 250.739 19.76V13.25C250.739 13.1767 250.759 13.1167 250.799 13.07C250.846 13.0233 250.906 13 250.979 13H251.759C251.886 13 251.982 13.0567 252.049 13.17L254.909 17.61V13.25C254.909 13.1767 254.929 13.1167 254.969 13.07C255.016 13.0233 255.076 13 255.149 13H256.009C256.082 13 256.142 13.0233 256.189 13.07C256.236 13.1167 256.259 13.1767 256.259 13.25V19.75C256.259 19.8233 256.236 19.8833 256.189 19.93C256.142 19.9767 256.086 20 256.019 20H255.229C255.096 20 254.996 19.9433 254.929 19.83L252.079 15.49V19.76C252.079 19.8267 252.056 19.8833 252.009 19.93C251.969 19.9767 251.912 20 251.839 20H250.979Z" fill="white"/>
<path d="M259.049 20C258.983 20 258.926 19.9767 258.879 19.93C258.833 19.8833 258.809 19.8267 258.809 19.76V13.25C258.809 13.1767 258.829 13.1167 258.869 13.07C258.916 13.0233 258.976 13 259.049 13H261.489C263.456 13 264.459 13.9067 264.499 15.72C264.513 16.1067 264.519 16.3667 264.519 16.5C264.519 16.6267 264.513 16.8833 264.499 17.27C264.473 18.2033 264.219 18.8933 263.739 19.34C263.266 19.78 262.533 20 261.539 20H259.049ZM261.489 18.84C262.043 18.84 262.443 18.7167 262.689 18.47C262.936 18.2233 263.066 17.8133 263.079 17.24C263.093 16.84 263.099 16.59 263.099 16.49C263.099 16.3833 263.093 16.1367 263.079 15.75C263.066 15.2033 262.929 14.8033 262.669 14.55C262.409 14.29 261.999 14.16 261.439 14.16H260.219V18.84H261.489Z" fill="white"/>
<path d="M269.541 20.1C268.627 20.1 267.917 19.87 267.411 19.41C266.904 18.95 266.637 18.2667 266.611 17.36C266.604 17.1667 266.601 16.8833 266.601 16.51C266.601 16.13 266.604 15.8433 266.611 15.65C266.637 14.7633 266.911 14.0833 267.431 13.61C267.951 13.1367 268.654 12.9 269.541 12.9C270.421 12.9 271.121 13.1367 271.641 13.61C272.167 14.0833 272.444 14.7633 272.471 15.65C272.484 16.0367 272.491 16.3233 272.491 16.51C272.491 16.69 272.484 16.9733 272.471 17.36C272.444 18.2667 272.174 18.95 271.661 19.41C271.154 19.87 270.447 20.1 269.541 20.1ZM269.541 18.94C269.987 18.94 270.341 18.8067 270.601 18.54C270.861 18.2733 271.001 17.8633 271.021 17.31C271.034 16.91 271.041 16.64 271.041 16.5C271.041 16.3467 271.034 16.0767 271.021 15.69C271.001 15.1433 270.857 14.7367 270.591 14.47C270.324 14.1967 269.974 14.06 269.541 14.06C269.101 14.06 268.747 14.1967 268.481 14.47C268.214 14.7367 268.074 15.1433 268.061 15.69C268.054 15.8833 268.051 16.1533 268.051 16.5C268.051 16.84 268.054 17.11 268.061 17.31C268.074 17.8567 268.211 18.2667 268.471 18.54C268.737 18.8067 269.094 18.94 269.541 18.94Z" fill="white"/>
<path d="M275.034 20C274.967 20 274.91 19.9767 274.864 19.93C274.817 19.8833 274.794 19.8267 274.794 19.76V13.25C274.794 13.1767 274.814 13.1167 274.854 13.07C274.9 13.0233 274.96 13 275.034 13H275.844C275.97 13 276.07 13.0633 276.144 13.19L278.074 16.77L280.004 13.19C280.077 13.0633 280.177 13 280.304 13H281.104C281.177 13 281.237 13.0233 281.284 13.07C281.33 13.1167 281.354 13.1767 281.354 13.25V19.76C281.354 19.8333 281.33 19.8933 281.284 19.94C281.237 19.98 281.177 20 281.104 20H280.244C280.177 20 280.12 19.9767 280.074 19.93C280.027 19.8833 280.004 19.8267 280.004 19.76V15.46L278.614 18.1C278.54 18.2467 278.43 18.32 278.284 18.32H277.864C277.724 18.32 277.61 18.2467 277.524 18.1L276.134 15.46V19.76C276.134 19.8267 276.11 19.8833 276.064 19.93C276.024 19.9767 275.967 20 275.894 20H275.034Z" fill="white"/>
<rect x="159" y="8" width="123" height="1" fill="#F58120"/>
<rect x="159" y="24" width="123" height="1" fill="#F58120"/>
</svg>
