<svg xmlns="http://www.w3.org/2000/svg" xmlns:xlink="http://www.w3.org/1999/xlink" width="12" height="12" viewBox="0 0 12 12">
  <defs>
    <path id="h2-a" d="M5,0 C5.552,0 6,0.448 6,1 L6,11 C6,11.552 5.552,12 5,12 C4.448,12 4,11.552 4,11 L4,7 L2,7 L2,11 C2,11.552 1.552,12 1,12 C0.448,12 0,11.552 0,11 L0,1 C0,0.448 0.448,0 1,0 C1.552,0 2,0.448 2,1 L2,5 L4,5 L4,1 C4,0.448 4.448,0 5,0 Z M9.5,7 C9.224,7 9,7.224 9,7.5 L9,10 L11,10 C11.552,10 12,10.448 12,11 C12,11.552 11.552,12 11,12 L8,12 C7.448,12 7,11.552 7,11 L7,7.5 C7,6.122 8.122,5 9.5,5 C9.776,5 10,4.776 10,4.5 L10,3 C10,2.448 9.551,2 9,2 L8,2 C7.448,2 7,1.552 7,1 C7,0.448 7.448,0 8,0 L9,0 C10.654,0 12,1.346 12,3 L12,4.5 C12,5.878 10.878,7 9.5,7 Z"/>
  </defs>
  <use fill-rule="evenodd" xlink:href="#h2-a"/>
</svg>
