<svg xmlns="http://www.w3.org/2000/svg" xmlns:xlink="http://www.w3.org/1999/xlink" width="18" height="18" viewBox="0 0 18 18">
  <defs>
    <path id="radio-active-a" d="M9,15 C5.691,15 3,12.309 3,9 C3,5.691 5.691,3 9,3 C12.309,3 15,5.691 15,9 C15,12.309 12.309,15 9,15 M9,1 C4.589,1 1,4.589 1,9 C1,13.411 4.589,17 9,17 C13.411,17 17,13.411 17,9 C17,4.589 13.411,1 9,1 M9,6 C7.346,6 6,7.346 6,9 C6,10.654 7.346,12 9,12 C10.654,12 12,10.654 12,9 C12,7.346 10.654,6 9,6"/>
  </defs>
  <use fill-rule="evenodd" xlink:href="#radio-active-a"/>
</svg>
