<svg width="295" height="35" viewBox="0 0 295 35" xmlns="http://www.w3.org/2000/svg">
	<mask id="b" fill="#fff">
		<path d="M0 34.78h34.61V.203H0V34.78z"/>
	</mask>
	<path
		d="M32.003 16.507c0 .288-.115.564-.32.768L18.3 30.695c-.226.224-.454.324-.738.324-.292 0-.55-.11-.77-.326l-.943-.887c-.17-.16-.174-.426-.01-.59l15.45-15.46c.262-.263.716-.078.716.29v2.46zm-17.167 10.12l-.766.685c-.25.223-.632.215-.872-.02L3.01 17.346c-.257-.25-.4-.593-.4-.95v-1.858c0-.67.816-1.006 1.298-.536l10.814 10.562c.188.186.505.57.505 1.032 0 .295-.068.714-.39 1.034zM5.73 7.378l3.505-3.464c.163-.162.428-.162.592 0l11.736 11.603c1.256 1.242 1.256 3.257 0 4.5l-3.503 3.462c-.163.16-.428.16-.59 0L5.732 11.874c-.605-.597-.937-1.396-.937-2.25 0-.852.332-1.65.935-2.247zM19.62 9.36l3.662-3.62c.715-.705 1.708-1.038 2.737-.897.722.098 1.378.47 1.893.978l3.708 3.668c.164.162.164.424 0 .585l-5.64 5.576c-.163.16-.428.16-.59 0l-5.77-5.704c-.163-.162-.163-.424 0-.586zm14.563-.687L26.014.458c-.337-.34-.89-.34-1.228-.002l-6.478 6.466c-.5.5-1.316.502-1.82.005l-6.48-6.4C9.674.198 9.13.196 8.793.525L.447 8.654C.16 8.93 0 9.313 0 9.71v7.7c0 .392.158.77.44 1.048L16.703 34.53c.337.333.883.333 1.22 0l16.25-16.073c.28-.278.438-.655.438-1.048V9.712c0-.39-.153-.763-.43-1.04z"
		fill="#00D6D6" mask="url(#b)"/>
	<path
		d="M62.852 20.51l2.58-6.716c.153-.394.717-.394.87 0l2.58 6.717h-6.03zm5.856-12.428c-.184-.48-.65-.8-1.17-.8h-3.342c-.52 0-.986.32-1.17.8l-7.083 18.5c-.21.552.2 1.14.796 1.14h2.753c.353 0 .67-.215.796-.542l.738-1.922c.125-.327.442-.542.795-.542h8.088c.354 0 .67.215.796.542l.74 1.922c.125.327.44.543.795.543h2.754c.596 0 1.007-.59.796-1.14l-7.082-18.5zm93.504-.8h-2.715c-.716 0-1.37.408-1.677 1.047l-5.393 11.162-5.393-11.163c-.308-.64-.96-1.047-1.677-1.047h-2.715c-.493 0-.893.396-.893.883V26.84c0 .487.4.883.892.883h2.608c.493 0 .893-.396.893-.883v-9.686l4.945 10.072c.15.304.46.497.803.497h1.073c.342 0 .654-.193.803-.497l4.945-10.072v9.686c0 .487.4.883.894.883h2.608c.493 0 .893-.396.893-.883V8.166c0-.487-.4-.883-.893-.883zm-106.972 8.8h-8.63V11.49h10.918c.372 0 .704-.23.83-.578l.888-2.464c.205-.567-.22-1.163-.83-1.163h-15.18c-.486 0-.88.39-.88.87v18.7c0 .48.394.87.88.87h2.492c.486 0 .88-.39.88-.87v-6.565h7.743c.373 0 .705-.232.83-.578l.89-2.464c.204-.567-.22-1.163-.83-1.163zm51.76 7.61h-3.615V11.315H107c3.828 0 6.41 2.517 6.41 6.188 0 3.672-2.582 6.19-6.41 6.19zm-.124-16.41h-7.128c-.486 0-.88.39-.88.872v18.698c0 .48.394.87.88.87h7.128c6.453 0 10.912-4.44 10.912-10.16v-.117c0-5.72-4.46-10.162-10.912-10.162zm-11.947.03h-2.642c-.484 0-.876.387-.876.866v12.36l-8.755-12.72c-.23-.334-.613-.535-1.023-.535H78.32c-.483 0-.876.39-.876.867v18.706c0 .48.393.867.877.867h2.64c.486 0 .878-.388.878-.867V14.71l8.608 12.478c.23.334.613.535 1.022.535h3.46c.485 0 .877-.388.877-.867V8.178c0-.48-.392-.867-.876-.867zm40.71 10.3c0 3.323-2.712 6.016-6.056 6.016-3.345 0-6.056-2.693-6.056-6.015v-.22c0-3.322 2.71-6.015 6.056-6.015 3.344 0 6.055 2.693 6.055 6.015v.22zm-6.056-10.44c-5.694 0-10.31 4.576-10.31 10.22v.22c0 5.646 4.616 10.22 10.31 10.22 5.693 0 10.308-4.574 10.308-10.22v-.22c0-5.644-4.615-10.22-10.308-10.22zM176.555 17.672c.316 0 .565-.082.747-.246.18-.164.272-.407.272-.727 0-.3-.083-.54-.25-.722-.165-.183-.422-.275-.77-.275h-1.296v1.97h1.297zm-3.42 4.31c-.06-.058-.088-.124-.088-.2v-7.43c0-.083.027-.154.08-.21.055-.06.124-.087.21-.087h3.276c1.003 0 1.79.225 2.36.675.573.45.858 1.11.858 1.98 0 .87-.284 1.52-.856 1.952-.57.43-1.358.647-2.36.647h-1.32v2.47c0 .078-.028.144-.082.202-.054.057-.124.085-.21.085h-1.666c-.077 0-.144-.028-.202-.085zM186.07 20.104c.238-.24.365-.608.38-1.104.016-.443.024-.76.024-.95 0-.19-.008-.5-.023-.927-.015-.496-.142-.865-.38-1.105-.24-.24-.56-.36-.962-.36-.41 0-.733.12-.973.36s-.366.61-.382 1.105c-.007.213-.01.522-.01.927 0 .412.003.73.01.95.016.496.143.864.382 1.104.24.24.564.36.973.36.4 0 .722-.12.96-.36m-3.553 1.288c-.633-.526-.97-1.3-1.008-2.323-.007-.215-.01-.543-.01-.986 0-.442.003-.774.01-.996.03-1.007.37-1.784 1.013-2.33.645-.545 1.507-.818 2.588-.818 1.073 0 1.93.273 2.576.82.644.544.982 1.32 1.013 2.328.015.443.023.775.023.996 0 .23-.008.557-.023.985-.04 1.02-.373 1.796-1 2.322-.63.527-1.493.79-2.59.79-1.095 0-1.96-.263-2.592-.79M191.602 21.96c-.08-.074-.13-.163-.145-.27l-1.24-7.326c-.007-.015-.01-.038-.01-.07 0-.06.025-.115.075-.165.05-.05.106-.075.168-.075h1.516c.224 0 .348.088.37.263l.707 4.327.8-2.507c.06-.206.188-.31.38-.31h.87c.192 0 .32.104.38.31l.8 2.496.718-4.316c.016-.09.05-.158.105-.2.054-.042.14-.063.255-.063h1.516c.07 0 .128.025.174.074.046.05.07.104.07.165v.07l-1.24 7.325c-.015.107-.065.196-.15.27-.085.07-.19.107-.312.107h-1.17c-.123 0-.22-.03-.29-.09-.068-.062-.115-.13-.138-.207l-1.146-3.17-1.146 3.17c-.03.076-.08.145-.15.206-.07.06-.167.09-.29.09h-1.158c-.13 0-.237-.035-.318-.107M201.023 21.982c-.058-.058-.087-.124-.087-.2v-7.43c0-.083.027-.154.08-.21.055-.06.125-.087.21-.087h5.464c.085 0 .156.028.214.086.058.058.087.13.087.213v1.133c0 .084-.028.153-.086.206-.058.053-.13.08-.214.08h-3.658v1.454h3.403c.085 0 .157.028.215.085.058.06.086.13.086.213v1.042c0 .084-.028.155-.086.212-.058.057-.13.085-.215.085h-3.403v1.49h3.75c.086 0 .157.027.215.084.058.058.087.128.087.212v1.133c0 .085-.03.154-.087.207-.058.054-.13.08-.214.08h-5.557c-.078 0-.145-.028-.203-.085M212.558 17.592c.33 0 .584-.082.758-.246.174-.164.26-.39.26-.68 0-.29-.086-.524-.26-.7-.174-.175-.427-.263-.758-.263h-1.286v1.89h1.286zm-3.375 4.39c-.058-.058-.087-.124-.087-.2v-7.43c0-.083.027-.154.08-.21.055-.06.124-.087.21-.087h3.183c1.018 0 1.815.23 2.39.687.575.458.862 1.103.862 1.934 0 .534-.125.988-.376 1.362-.25.374-.596.664-1.036.87l1.563 2.793c.023.047.035.09.035.127 0 .06-.024.117-.07.166-.046.05-.104.074-.173.074h-1.633c-.224 0-.382-.102-.475-.308l-1.273-2.485h-1.112v2.506c0 .085-.028.154-.086.207-.058.054-.13.08-.215.08h-1.585c-.077 0-.144-.028-.202-.086zM217.904 21.982c-.058-.058-.087-.124-.087-.2v-7.43c0-.083.027-.154.08-.21.055-.06.124-.087.21-.087h5.464c.086 0 .157.028.215.086.058.058.087.13.087.213v1.133c0 .084-.03.153-.087.206-.058.053-.13.08-.214.08h-3.657v1.454h3.403c.085 0 .157.028.215.085.058.06.087.13.087.213v1.042c0 .084-.03.155-.086.212-.057.057-.13.085-.214.085h-3.403v1.49h3.75c.085 0 .157.027.215.084.058.058.087.128.087.212v1.133c0 .085-.03.154-.087.207-.058.054-.13.08-.214.08h-5.557c-.078 0-.145-.028-.203-.085M229.31 20.35c.487 0 .846-.114 1.078-.343.23-.23.355-.595.37-1.1.016-.22.023-.506.023-.857 0-.35-.006-.634-.022-.847-.015-.49-.148-.85-.4-1.082-.25-.232-.62-.348-1.105-.348h-1.1v4.58h1.158zm-3.246 1.632c-.058-.058-.087-.124-.087-.2v-7.43c0-.083.027-.154.08-.21.055-.06.124-.087.21-.087h3.044c1.143 0 2.03.27 2.664.807.633.538.965 1.31.996 2.318.007.22.01.515.01.88 0 .368-.003.658-.01.87-.078 2.092-1.278 3.137-3.6 3.137h-3.104c-.077 0-.144-.028-.202-.085zM242.196 20.522c.3 0 .535-.086.7-.257.167-.172.25-.384.25-.636 0-.26-.085-.476-.255-.647-.17-.172-.4-.258-.694-.258h-1.55v1.797h1.55zm-.104-3.297c.286 0 .506-.076.66-.228.154-.153.232-.35.232-.596 0-.235-.076-.428-.226-.577-.15-.148-.373-.223-.666-.223h-1.447v1.625h1.447zm-3.537 4.757c-.058-.058-.087-.125-.087-.2v-7.43c0-.083.027-.154.082-.21.053-.06.123-.087.208-.087h3.577c.98 0 1.71.198 2.188.595.48.397.718.96.718 1.694 0 .366-.097.683-.294.95-.197.267-.415.462-.654.584.316.137.583.365.8.68.215.318.323.675.323 1.07 0 .772-.257 1.37-.77 1.798-.513.428-1.25.64-2.205.64h-3.682c-.077 0-.145-.027-.203-.084zM249.377 21.982c-.058-.058-.087-.124-.087-.2v-2.44l-2.675-4.92c-.023-.04-.034-.08-.034-.127 0-.06.026-.116.076-.166s.106-.075.168-.075h1.528c.108 0 .197.027.266.08.07.053.12.11.15.172l1.61 2.873 1.61-2.873c.03-.062.08-.12.15-.172.07-.053.158-.08.266-.08h1.528c.062 0 .118.025.168.074.05.05.075.104.075.165 0 .046-.01.088-.034.126l-2.674 4.923v2.438c0 .085-.03.154-.087.207-.058.054-.13.08-.215.08h-1.586c-.078 0-.146-.028-.203-.085M260.27 21.96c-.08-.074-.13-.163-.144-.27l-1.24-7.326c-.007-.015-.01-.038-.01-.07 0-.06.025-.115.075-.165.05-.05.107-.075.17-.075h1.515c.224 0 .348.088.37.263l.707 4.327.8-2.507c.06-.206.188-.31.38-.31h.87c.192 0 .32.104.38.31l.8 2.496.718-4.316c.015-.09.05-.158.104-.2.054-.042.14-.063.255-.063h1.516c.07 0 .127.025.173.074.045.05.07.104.07.165v.07l-1.24 7.325c-.016.107-.066.196-.15.27-.086.07-.19.107-.313.107h-1.17c-.123 0-.22-.03-.29-.09-.068-.062-.115-.13-.138-.207l-1.147-3.17-1.146 3.17c-.03.076-.08.145-.15.206-.07.06-.167.09-.29.09h-1.158c-.132 0-.238-.035-.32-.107M269.692 21.982c-.058-.058-.087-.124-.087-.2v-7.44c0-.085.03-.154.087-.207.058-.053.125-.08.203-.08h1.655c.085 0 .155.027.21.08.053.053.08.122.08.206v7.44c0 .078-.027.144-.08.202-.055.057-.125.085-.21.085h-1.655c-.078 0-.145-.028-.203-.085M274.19 21.982c-.06-.058-.088-.124-.088-.2v-7.43c0-.083.027-.154.08-.21.055-.06.124-.087.21-.087h1.55c.086 0 .155.028.21.086.053.058.08.13.08.213v2.495l2.05-2.564c.084-.153.235-.23.45-.23h1.772c.062 0 .118.026.168.075.05.05.075.104.075.165 0 .06-.015.107-.046.138l-2.697 3.456 2.918 3.8c.032.03.047.076.047.137 0 .06-.025.117-.075.166-.05.05-.11.074-.18.074h-1.817c-.124 0-.224-.024-.3-.074-.078-.05-.132-.1-.163-.154l-2.2-2.794v2.735c0 .078-.027.144-.08.202-.055.057-.124.085-.21.085h-1.55c-.078 0-.145-.028-.203-.085M282.74 21.982c-.058-.058-.087-.124-.087-.2v-7.44c0-.085.03-.154.087-.207.058-.053.125-.08.202-.08h1.656c.085 0 .154.027.208.08.054.053.08.122.08.206v7.44c0 .078-.026.144-.08.202-.054.057-.123.085-.208.085h-1.656c-.077 0-.144-.028-.202-.085M289.624 18.988h2.06l-1.03-2.92-1.03 2.92zm-2.97 3.005c-.05-.05-.075-.105-.075-.166 0-.046.003-.08.01-.103l2.698-7.337c.077-.22.23-.332.463-.332h1.807c.232 0 .386.11.463.332l2.698 7.337c.007.023.01.057.01.103 0 .06-.024.117-.074.166-.05.05-.106.074-.168.074h-1.505c-.184 0-.316-.084-.392-.25l-.417-1.112h-3.033l-.416 1.11c-.076.168-.208.252-.393.252h-1.505c-.062 0-.118-.024-.168-.074z"
		fill="#002A32"/>
	<mask id="d" fill="#fff">
		<path d="M0 34.797h294.972V.22H0z"/>
	</mask>
	<path fill="#00D6D6" mask="url(#d)"
		  d="M172.905 8.964h122.067v-1.76H172.905M172.905 27.826h122.067v-1.76H172.905"/>
</svg>
