<svg xmlns="http://www.w3.org/2000/svg" width="18" height="18" viewBox="0 0 18 18">
  <path fill-rule="evenodd" d="M9,16 C6.215,16 3.812,14.36 2.685,12 L15.315,12 C14.188,14.36 11.785,16 9,16 M9,2 C12.86,2 16,5.14 16,9 C16,9.34 15.967,9.672 15.92,10 L10.5,10 L7.8,6.4 C7.469,5.959 6.843,5.868 6.4,6.2 C5.958,6.531 5.869,7.158 6.2,7.6 L8,10 L2.08,10 C2.033,9.672 2,9.34 2,9 C2,5.14 5.14,2 9,2 M9,0 C4.038,0 0,4.038 0,9 C0,13.963 4.038,18 9,18 C13.962,18 18,13.963 18,9 C18,4.038 13.962,0 9,0"/>
</svg>
