<svg xmlns="http://www.w3.org/2000/svg" xmlns:xlink="http://www.w3.org/1999/xlink" width="18" height="18" viewBox="0 0 18 18">
  <defs>
    <path id="reddit-a" d="M16.6365,10.2085909 C16.9305,9.97213636 17.0775,9.64759091 17.0775,9.23418182 C17.0775,8.939 16.98525,8.68013636 16.797,8.45913636 C16.611,8.23813636 16.3695,8.12686364 16.0755,8.12686364 C15.86175,8.12686364 15.6615,8.20104545 15.47475,8.35018182 C16.03575,8.88104545 16.42275,9.5 16.6365,10.2085909 M14.53275,2.46045455 C14.41275,2.60959091 14.35125,2.785 14.35125,2.99286364 C14.35125,3.19918182 14.41275,3.37613636 14.53275,3.52372727 C14.652,3.67131818 14.8065,3.74472727 14.9925,3.74472727 C15.18075,3.74472727 15.34125,3.67131818 15.47475,3.52372727 C15.60825,3.37613636 15.675,3.19918182 15.675,2.99286364 C15.675,2.785 15.60825,2.60959091 15.47475,2.46045455 C15.34125,2.31286364 15.18075,2.23945455 14.9925,2.23945455 C14.8065,2.23945455 14.652,2.31286364 14.53275,2.46045455 M10.764,11.9348636 C11.0175,12.2014545 11.31825,12.3335909 11.6655,12.3335909 C12.01275,12.3335909 12.31425,12.2014545 12.567,11.9348636 C12.822,11.6690455 12.94875,11.3305909 12.94875,10.9171818 C12.94875,10.5331364 12.82875,10.2085909 12.588,9.942 C12.348,9.67772727 12.0405,9.54404545 11.6655,9.54404545 C11.29125,9.54404545 10.98525,9.67772727 10.74375,9.942 C10.50225,10.2085909 10.383,10.5331364 10.383,10.9171818 C10.383,11.3305909 10.509,11.6690455 10.764,11.9348636 M8.9805,15.875 C10.263,15.875 11.30475,15.433 12.10725,14.5474545 L11.58525,14.0165909 C10.9185,14.7251818 10.04925,15.0783182 8.9805,15.0783182 C8.49975,15.0783182 8.0445,14.9894545 7.617,14.8117273 C7.1895,14.6363182 6.88125,14.4585909 6.6945,14.2808636 L6.414,14.0165909 L5.89275,14.5474545 C6.6945,15.433 7.72275,15.875 8.9805,15.875 M5.09025,10.9171818 C5.09025,11.3305909 5.2185,11.6690455 5.472,11.9348636 C5.72475,12.2014545 6.02625,12.3335909 6.3735,12.3335909 C6.72225,12.3335909 7.0215,12.2014545 7.2765,11.9348636 C7.52925,11.6690455 7.656,11.3305909 7.656,10.9171818 C7.656,10.5331364 7.53675,10.2085909 7.29525,9.942 C7.056,9.67772727 6.74775,9.54404545 6.3735,9.54404545 C6,9.54404545 5.6925,9.67772727 5.451,9.942 C5.21175,10.2085909 5.09025,10.5331364 5.09025,10.9171818 M1.36275,10.1653182 C1.57725,9.48531818 1.9635,8.88104545 2.5245,8.35018182 C2.33775,8.20104545 2.13825,8.12686364 1.9245,8.12686364 C1.6575,8.12686364 1.42275,8.23813636 1.2225,8.45913636 C1.02075,8.68013636 0.92175,8.939 0.92175,9.23418182 C0.92175,9.67772727 1.06875,9.98759091 1.36275,10.1653182 M18,9.279 C18,10.1931364 17.63925,10.8584545 16.917,11.2703182 C16.94475,11.4194545 16.95825,11.625 16.95825,11.8915909 C16.95825,13.5730455 16.176,15.0118636 14.613,16.2080455 C13.04925,17.4034545 11.17125,18 8.9805,18 C6.789,18 4.91775,17.4088636 3.3675,16.2281364 C1.8165,15.0481818 1.04175,13.6178636 1.04175,11.9348636 C1.04175,11.6404545 1.05525,11.4194545 1.08225,11.2703182 C0.36075,10.8584545 0,10.1931364 0,9.279 C0,8.66004545 0.20025,8.13459091 0.6,7.70804545 C1.002,7.27918182 1.46925,7.06513636 2.00475,7.06513636 C2.4855,7.06513636 2.9265,7.256 3.327,7.64159091 C4.79775,6.51959091 6.5205,5.91531818 8.49975,5.82645455 L8.5785,5.82645455 L9.822,1.26659091 L13.4295,2.06172727 C13.80375,1.35313636 14.32575,1 14.9925,1 L15.03375,1 C15.5415,1 15.96225,1.19318182 16.296,1.57645455 C16.62975,1.95972727 16.797,2.43186364 16.797,2.99286364 C16.797,3.55231818 16.62975,4.026 16.296,4.41004545 C15.96225,4.79331818 15.5415,4.98418182 15.03375,4.98418182 L14.9925,4.98418182 C14.5395,4.98418182 14.1375,4.81418182 13.79025,4.47572727 C13.443,4.13572727 13.25625,3.71459091 13.22925,3.21386364 L10.5435,2.59413636 L9.66075,5.86972727 C11.69325,6.01731818 13.36275,6.60845455 14.673,7.64159091 C15.07275,7.256 15.528,7.06513636 16.03575,7.06513636 C16.56975,7.06513636 17.03175,7.27918182 17.418,7.70804545 C17.8065,8.13459091 18,8.66004545 18,9.279"/>
  </defs>
  <use fill-rule="evenodd" xlink:href="#reddit-a"/>
</svg>
