<svg xmlns="http://www.w3.org/2000/svg" width="12" height="12" viewBox="0 0 12 12">
  <path fill-rule="evenodd" d="M6,10 C4.521,10 3.242,9.184 2.549,7.987 L7.439,7.987 C7.46,7.99 7.479,8 7.5,8 C7.524,8 7.547,7.99 7.571,7.987 L9.451,7.987 C8.758,9.184 7.479,10 6,10 M6,2 C8.206,2 10,3.794 10,6 C10,6.352 9.94,6.687 9.854,7.013 L7.736,7.013 L5,3.919 C4.816,3.71 4.5,3.691 4.294,3.876 C4.087,4.059 4.067,4.374 4.25,4.581 L6.401,7.013 L2.146,7.013 C2.06,6.687 2,6.352 2,6 C2,3.794 3.794,2 6,2 M6,0 C2.691,0 0,2.691 0,6 C0,9.309 2.691,12 6,12 C9.309,12 12,9.309 12,6 C12,2.691 9.309,0 6,0"/>
</svg>
