<svg viewBox="0 0 12 12" xmlns="http://www.w3.org/2000/svg">
  <path fill-rule="evenodd" clip-rule="evenodd" d="M4.08061 3.3653C4.00269 3.53056 3.85206 3.6451 3.67782 3.6716L0.458615 4.1612C0.0198332 4.22793 -0.155371 4.79231 0.162135 5.11624L2.49158 7.49282C2.61766 7.62145 2.67519 7.80678 2.64543 7.98841L2.09552 11.3442C2.02057 11.8016 2.47926 12.1504 2.87172 11.9344L5.75106 10.3501C5.90691 10.2643 6.09309 10.2643 6.24894 10.3501L9.12828 11.9344C9.52074 12.1504 9.97943 11.8016 9.90448 11.3442L9.35457 7.98841C9.32481 7.80678 9.38234 7.62145 9.50842 7.49282L11.8379 5.11624C12.1554 4.79231 11.9802 4.22793 11.5414 4.1612L8.32218 3.6716C8.14794 3.6451 7.99731 3.53056 7.91939 3.3653L6.47971 0.312115C6.28349 -0.104038 5.71651 -0.104038 5.52029 0.312115L4.08061 3.3653ZM6 3.09022L5.51976 4.1087C5.20806 4.76972 4.60556 5.22788 3.9086 5.33388L2.83474 5.4972L3.61179 6.28998C4.11612 6.80451 4.34626 7.54584 4.2272 8.27237L4.04376 9.39178L5.00425 8.86327C5.62764 8.52024 6.37237 8.52025 6.99575 8.86327L7.95624 9.39178L7.7728 8.27237C7.65374 7.54583 7.88388 6.80451 8.38821 6.28998L9.16526 5.4972L8.0914 5.33388C7.39444 5.22788 6.79193 4.76972 6.48024 4.1087L6 3.09022Z"/>
</svg>
