<svg xmlns="http://www.w3.org/2000/svg" xmlns:xlink="http://www.w3.org/1999/xlink" width="18" height="18" viewBox="0 0 18 18">
  <defs>
    <path id="pencil-a" d="M14,8.58625 L9.414,4.00025 L11,2.41425 L15.586,7.00025 L14,8.58625 Z M6.586,16.00025 L2,16.00025 L2,11.41425 L8,5.41425 L12.586,10.00025 L6.586,16.00025 Z M17.707,6.29325 L11.707,0.29325 C11.316,-0.09775 10.684,-0.09775 10.293,0.29325 L0.294,10.29225 C0.201,10.38425 0.128,10.49525 0.077,10.61825 C0.026,10.74025 0,10.87025 0,11.00025 L0,17.00025 C0,17.55325 0.447,18.00025 1,18.00025 L7,18.00025 C7.13,18.00025 7.26,17.97425 7.382,17.92325 C7.505,17.87225 7.616,17.79925 7.708,17.70625 L17.707,7.70725 C18.098,7.31625 18.098,6.68425 17.707,6.29325 Z"/>
  </defs>
  <use fill-rule="evenodd" xlink:href="#pencil-a"/>
</svg>
