<svg xmlns="http://www.w3.org/2000/svg" width="24" height="24" viewBox="0 0 24 24">
  <path fill-rule="evenodd" d="M12,21.8181818 C8.15563636,21.8181818 4.82836364,19.5905455 3.21818182,16.3636364 L20.7818182,16.3636364 C19.1716364,19.5905455 15.8443636,21.8181818 12,21.8181818 M12,2.18181818 C17.4130909,2.18181818 21.8181818,6.58690909 21.8181818,12 C21.8181818,12.7505455 21.7254545,13.4781818 21.5650909,14.1818182 L14.7861818,14.1818182 L9.65236364,5.96727273 C9.33381818,5.45672727 8.66072727,5.30181818 8.14909091,5.62036364 C7.63745455,5.94 7.48254545,6.61309091 7.80218182,7.12363636 L12.2138182,14.1818182 L2.43490909,14.1818182 C2.27454545,13.4781818 2.18181818,12.7505455 2.18181818,12 C2.18181818,6.58690909 6.58690909,2.18181818 12,2.18181818 M12,0 C5.38363636,0 0,5.38363636 0,12 C0,18.6163636 5.38363636,24 12,24 C18.6163636,24 24,18.6163636 24,12 C24,5.38363636 18.6163636,0 12,0"/>
</svg>
