<svg xmlns="http://www.w3.org/2000/svg" xmlns:xlink="http://www.w3.org/1999/xlink" width="12" height="12" viewBox="0 0 12 12">
  <defs>
    <path id="quote-a" d="M4.667,1.765631 C3.362,2.866631 2.491,4.360631 2.157,6.000631 L4,6.000631 C4.552,6.000631 5,6.449631 5,7.000631 L5,10.000631 C5,10.552631 4.552,11.000631 4,11.000631 L1,11.000631 C0.447,11.000631 0,10.552631 0,10.000631 L0,7.000631 C0,6.935631 0.025,6.876631 0.037,6.815631 C0.221,4.267631 1.408,1.898631 3.378,0.236631003 C3.799,-0.121368997 4.43,-0.0663689975 4.787,0.355631003 C5.143,0.777631003 5.089,1.408631 4.667,1.765631 Z M10.9995,6.001031 C11.5515,6.001031 11.9995,6.449031 11.9995,7.001031 L11.9995,10.001031 C11.9995,10.553031 11.5515,11.001031 10.9995,11.001031 L7.9995,11.001031 C7.4475,11.001031 6.9995,10.553031 6.9995,10.001031 L6.9995,7.001031 C6.9995,6.936031 7.0245,6.877031 7.0375,6.815031 C7.2215,4.268031 8.4075,1.898031 10.3775,0.236031003 C10.7985,-0.120968997 11.4305,-0.0659689975 11.7875,0.355031003 C12.1435,0.777031003 12.0895,1.408031 11.6665,1.766031 C10.3615,2.866031 9.4905,4.360031 9.1565,6.001031 L10.9995,6.001031 Z"/>
  </defs>
  <use fill-rule="evenodd" xlink:href="#quote-a"/>
</svg>
