<svg xmlns="http://www.w3.org/2000/svg" xmlns:xlink="http://www.w3.org/1999/xlink" width="24" height="24" viewBox="0 0 24 24">
  <defs>
    <path id="menu-a" d="M3,4 L21,4 C21.553,4 22,3.553 22,3 C22,2.447 21.553,2 21,2 L3,2 C2.447,2 2,2.447 2,3 C2,3.553 2.447,4 3,4 M21,20 L3,20 C2.447,20 2,20.447 2,21 C2,21.553 2.447,22 3,22 L21,22 C21.553,22 22,21.553 22,21 C22,20.447 21.553,20 21,20 M21,11 L3,11 C2.447,11 2,11.447 2,12 C2,12.553 2.447,13 3,13 L21,13 C21.553,13 22,12.553 22,12 C22,11.447 21.553,11 21,11"/>
  </defs>
  <use fill-rule="evenodd" xlink:href="#menu-a"/>
</svg>
