<svg xmlns="http://www.w3.org/2000/svg" xmlns:xlink="http://www.w3.org/1999/xlink" width="12" height="12" viewBox="0 0 12 12">
  <defs>
    <path id="close-a" d="M7.4255,6.00125 L11.7045,1.72225 C12.0985,1.32725 12.0985,0.68925 11.7045,0.29625 C11.3105,-0.09875 10.6725,-0.09875 10.2785,0.29625 L5.9995,4.57425 L1.7215,0.29625 C1.3275,-0.09875 0.6895,-0.09875 0.2955,0.29625 C-0.0985,0.68925 -0.0985,1.32725 0.2955,1.72225 L4.5735,6.00125 L0.2955,10.27925 C-0.0985,10.67425 -0.0985,11.31225 0.2955,11.70525 C0.4915,11.90225 0.7505,12.00125 1.0085,12.00125 C1.2665,12.00125 1.5245,11.90225 1.7215,11.70525 L5.9995,7.42725 L10.2785,11.70525 C10.4755,11.90225 10.7335,12.00125 10.9915,12.00125 C11.2495,12.00125 11.5075,11.90225 11.7045,11.70525 C12.0985,11.31225 12.0985,10.67425 11.7045,10.27925 L7.4255,6.00125 Z"/>
  </defs>
  <use fill-rule="evenodd" xlink:href="#close-a"/>
</svg>
