<svg xmlns="http://www.w3.org/2000/svg" xmlns:xlink="http://www.w3.org/1999/xlink" width="18" height="18" viewBox="0 0 18 18">
  <defs>
    <path id="play-a" d="M4,5.50055418 L4,12.5005542 L12.4,9.00055418 L4,5.50055418 Z M3,15.0005542 C2.805,15.0005542 2.612,14.9435542 2.445,14.8325542 C2.167,14.6465542 2,14.3345542 2,14.0005542 L2,4.00055418 C2,3.66655418 2.167,3.35455418 2.445,3.16855418 C2.723,2.98155418 3.075,2.94855418 3.385,3.07755418 L15.385,8.07755418 C15.757,8.23255418 16,8.59655418 16,9.00055418 C16,9.40455418 15.757,9.76855418 15.385,9.92355418 L3.385,14.9235542 C3.261,14.9755542 3.13,15.0005542 3,15.0005542 Z"/>
  </defs>
  <use fill-rule="evenodd" xlink:href="#play-a"/>
</svg>
