<svg xmlns="http://www.w3.org/2000/svg" xmlns:xlink="http://www.w3.org/1999/xlink" width="24" height="24" viewBox="0 0 24 24">
  <defs>
    <path id="more-a" d="M12,18 C10.346,18 9,19.346 9,21 C9,22.654 10.346,24 12,24 C13.654,24 15,22.654 15,21 C15,19.346 13.654,18 12,18 M12,6 C13.654,6 15,4.654 15,3 C15,1.346 13.654,0 12,0 C10.346,0 9,1.346 9,3 C9,4.654 10.346,6 12,6 M12,9 C10.346,9 9,10.346 9,12 C9,13.654 10.346,15 12,15 C13.654,15 15,13.654 15,12 C15,10.346 13.654,9 12,9"/>
  </defs>
  <use fill-rule="evenodd" xlink:href="#more-a"/>
</svg>
