<svg xmlns="http://www.w3.org/2000/svg" xmlns:xlink="http://www.w3.org/1999/xlink" width="12" height="12" viewBox="0 0 12 12">
  <defs>
    <path id="watch-a" d="M6,10 C3.794,10 2,8.206 2,6 C2,3.794 3.794,2 6,2 C8.206,2 10,3.794 10,6 C10,8.206 8.206,10 6,10 M6,0 C2.691,0 0,2.691 0,6 C0,9.309 2.691,12 6,12 C9.309,12 12,9.309 12,6 C12,2.691 9.309,0 6,0 M8,5 L7,5 L7,4 C7,3.448 6.553,3 6,3 C5.447,3 5,3.448 5,4 L5,6 C5,6.552 5.447,7 6,7 L8,7 C8.553,7 9,6.552 9,6 C9,5.448 8.553,5 8,5"/>
  </defs>
  <use fill-rule="evenodd" xlink:href="#watch-a"/>
</svg>
