<svg xmlns="http://www.w3.org/2000/svg" xmlns:xlink="http://www.w3.org/1999/xlink" width="24" height="24" viewBox="0 0 24 24">
  <defs>
    <path id="bubble-a" d="M18,10 L6,10 C5.448,10 5,10.447 5,11 C5,11.553 5.448,12 6,12 L18,12 C18.552,12 19,11.553 19,11 C19,10.447 18.552,10 18,10 M22,12 C22,13.654 20.654,15 19,15 L13,15 C12.735,15 12.48,15.105 12.293,15.293 L7,20.586 L7,16 C7,15.447 6.552,15 6,15 L5,15 C3.346,15 2,13.654 2,12 L2,5 C2,3.346 3.346,2 5,2 L19,2 C20.654,2 22,3.346 22,5 L22,12 Z M19,0 L5,0 C2.243,0 0,2.243 0,5 L0,12 C0,14.757 2.243,17 5,17 L5,23 C5,23.404 5.244,23.77 5.617,23.924 C5.741,23.975 5.871,24 6,24 C6.26,24 6.516,23.898 6.707,23.707 L13.414,17 L19,17 C21.757,17 24,14.757 24,12 L24,5 C24,2.243 21.757,0 19,0 Z M18,5 L6,5 C5.448,5 5,5.447 5,6 C5,6.553 5.448,7 6,7 L18,7 C18.552,7 19,6.553 19,6 C19,5.447 18.552,5 18,5"/>
  </defs>
  <use fill-rule="evenodd" xlink:href="#bubble-a"/>
</svg>
