<svg xmlns="http://www.w3.org/2000/svg" xmlns:xlink="http://www.w3.org/1999/xlink" width="18" height="18" viewBox="0 0 18 18">
  <defs>
    <path id="eye-a" d="M8.9998,11.401936 C7.8918,11.401936 6.9898,10.5485153 6.9898,9.50018923 C6.9898,8.45091703 7.8918,7.5984425 8.9998,7.5984425 C10.1078,7.5984425 11.0098,8.45091703 11.0098,9.50018923 C11.0098,10.5485153 10.1078,11.401936 8.9998,11.401936 M2.0555,9.5 C3.1145,12.2684134 5.8665,14.1077147 8.9995,14.1077147 C12.1335,14.1077147 14.8855,12.2684134 15.9445,9.5 C14.8855,6.73158661 12.1335,4.8922853 8.9995,4.8922853 C5.8665,4.8922853 3.1145,6.73158661 2.0555,9.5 M8.9995,16 C4.8835,16 1.2845,13.5021834 0.0465,9.78478894 C-0.0155,9.59934498 -0.0155,9.40065502 0.0465,9.21521106 C1.2845,5.49781659 4.8835,3 8.9995,3 C13.1165,3 16.7155,5.49781659 17.9535,9.21521106 C18.0155,9.40065502 18.0155,9.59934498 17.9535,9.78478894 C16.7155,13.5021834 13.1165,16 8.9995,16"/>
  </defs>
  <use fill-rule="evenodd" xlink:href="#eye-a"/>
</svg>
