<svg xmlns="http://www.w3.org/2000/svg" xmlns:xlink="http://www.w3.org/1999/xlink" width="18" height="18" viewBox="0 0 18 18">
  <defs>
    <path id="twitter-a" d="M16.1052632,5.44262295 L16.1052632,5.90163934 C16.1052632,10.6065574 12.4342105,16 5.68421053,16 C3.55263158,16 1.65789474,15.4262295 1.4536212e-15,14.3934426 C0.355263158,14.3934426 0.592105263,14.5081967 0.947368421,14.5081967 C2.60526316,14.5081967 4.26315789,13.9344262 5.56578947,13.0163934 C4.02631579,13.0163934 2.60526316,11.9836066 2.13157895,10.4918033 C2.36842105,10.4918033 2.60526316,10.6065574 2.84210526,10.6065574 C3.19736842,10.6065574 3.19736842,10.6065574 3.67105263,10.4918033 C1.89473684,10.147541 0.355263158,8.6557377 0.355263158,6.93442623 L0.355263158,6.93442623 C0.355263158,7.27868852 1.65789474,7.27868852 2.25,7.39344262 C1.30263158,6.70491803 0.710526316,5.67213115 0.710526316,4.40983607 C0.710526316,3.72131148 0.947368421,3.14754098 1.30263158,2.57377049 C3.07894737,4.75409836 5.92105263,6.13114754 8.88157895,6.36065574 C8.76315789,6.01639344 8.76315789,5.78688525 8.76315789,5.55737705 C8.76315789,3.60655738 10.4210526,2 12.4342105,2 C13.5,2 14.4473684,2.3442623 15.1578947,3.14754098 C15.9868421,2.91803279 16.6973684,2.68852459 17.4078947,2.2295082 C17.0526316,3.14754098 16.4605263,3.72131148 15.8684211,4.18032787 C16.5789474,4.06557377 17.4078947,3.83606557 18,3.60655738 C17.4078947,4.29508197 16.8157895,4.98360656 16.1052632,5.44262295 L16.1052632,5.44262295 Z"/>
  </defs>
  <use fill-rule="evenodd" xlink:href="#twitter-a"/>
</svg>
