<svg width="24" height="24" viewBox="0 0 24 24" xmlns="http://www.w3.org/2000/svg">
    <path d="M14.2181521,22 C14.1862363,22 14.1543204,21.9990009 14.1214072,21.9970026 C13.4781032,21.9550386 12.9335389,21.5054242 12.7699701,20.8799606 L9.4856288,8.28875924 L7.68736966,12.8058852 C7.46096654,13.3753968 6.90942062,13.7490763 6.29803246,13.7490763 L2.49605585,13.7490763 C1.66923565,13.7490763 1,13.0776521 1,12.2503616 C1,11.4230711 1.66923565,10.751647 2.49605585,10.751647 L5.28370659,10.751647 L8.39350802,2.9443428 C8.63287696,2.34185951 9.22730982,1.96118599 9.87560069,2.00315 C10.5199021,2.04311572 11.0664611,2.4947284 11.2300299,3.12019198 L14.5223502,15.7423668 L16.1570405,11.6898424 C16.3854384,11.1223291 16.9339922,10.751647 17.5433856,10.751647 L21.5039441,10.751647 C22.329767,10.751647 23,11.4230711 23,12.2503616 C23,13.0776521 22.329767,13.7490763 21.5039441,13.7490763 L18.5527246,13.7490763 L15.6044972,21.0628038 C15.375102,21.6323153 14.8245534,22 14.2181521,22"></path>
</svg>