<svg viewBox="0 0 40 50" xmlns="http://www.w3.org/2000/svg">
  <path fill="#F58120" d="M1.4 21.5L20 3v6L3.9 21.3l7.7 20.6h-1.3z"/>
  <path fill="#FFF" d="M5.4 21.5L28.6 4.2 28 9.6l-16.2 9.8L32.6 8l-.8 5.4-16.7 6.4 21-6.9-1.4 4.7-24 6.1z"/>
  <path fill="#F58120" d="M10.4 24.8l7.4 23.5 19-9.7 1.1-20.5-27.5 6.7zm20.9 13.4c-.9.8-2 1-2.6 1.6-.4.4-.6 1-.6 1-.7-1-1.4-1.3-2.1-1.4-.8-.1-2.1.3-4.1-1.1-1.4-.9-1.7-2.3-1.7-3.1v-.1-.2-.3c.1-.8.6-1.6 1.8-2.3 0 0-.6 1.3.4 2.5.6.7 1.7.9 2.4.2.3-.3.5-.8.5-1.2.1-.9-.1-1.7-.9-2.2-1.3-.8-1.7-2.1-1.1-3 0 0 .5 1.5 1.4 1.3.7-.2.7-.9.4-1.2-.3-.3-2.2-2.4-.1-4.4 0 0 1.2-1.1 2.8-1.4h.2c-.9.3-1.9 1.1-2.1 2.1v.1c-.2 1.1.3 2.1 1.1 2.9.6.6 1.3 1.1 1.7 2.1-.4-.1-.7.1-.9.4-.2.3-.3.8 0 1.2.2.2.4.4.7.4.1 0 .2 0 .3-.1 0 0 .1 0 .1-.1.3-.2.5-.7.3-1 .3.1.5.8.5 1.1 0 .4-.1.7-.2 1.1-.1.2-.3.5-.3.8-.1.3-.1.5-.1.8 0 .3.1.6.3.8.6.6 1.4-.3 1.6-.9.2-.8 0-1.6-.6-2.2 0 0 .9.3 1.8 1.9.5 1.3 0 3.1-.9 3.9z"/>
</svg>
