<svg width="18" height="18" viewBox="0 0 18 18" xmlns="http://www.w3.org/2000/svg">
  <path d="M8.14 14.865l5.659-5.658c.932-.932 1.668-2.705 1.668-4.023V3.2A2.663 2.663 0 0 1 12.8.533h-1.984c-1.324 0-3.087.732-4.023 1.669L1.135 7.859a2.677 2.677 0 0 1 .001 3.78l3.225 3.225a2.665 2.665 0 0 1 3.78 0zm-.754-.754c-.63.63-1.638.631-2.27-.001L1.89 10.885a1.61 1.61 0 0 0 0-2.271l5.656-5.658C8.284 2.22 9.775 1.6 10.816 1.6H12.8c.886 0 1.6.713 1.6 1.6v1.984c0 1.035-.624 2.536-1.356 3.269l-5.658 5.658z"/>
  <path d="M10.766 7.157a1.923 1.923 0 1 1 0-3.845 1.923 1.923 0 0 1 0 3.845zm0-1.067a.856.856 0 1 0 0-1.712.856.856 0 0 0 0 1.712z"/>
</svg>
