<svg xmlns="http://www.w3.org/2000/svg" xmlns:xlink="http://www.w3.org/1999/xlink" width="18" height="18" viewBox="0 0 18 18">
  <defs>
    <path id="eye-off-a" d="M7.213812,8.62802557 L4.74616158,6.16037514 C3.53586945,6.96613905 2.58447732,8.11715969 2.0555,9.5 C3.1145,12.2684134 5.8665,14.1077147 8.9995,14.1077147 C10.0864312,14.1077147 11.1274141,13.8864771 12.0677582,13.4819718 L9.82141643,11.23563 C9.57043617,11.3424625 9.29229599,11.401936 8.9998,11.401936 C7.8918,11.401936 6.9898,10.5485153 6.9898,9.50018923 C6.9898,9.18594587 7.07070259,8.88935378 7.213812,8.62802557 Z M9.01269457,7.59848101 C10.1147896,7.60506416 11.0098,8.45499035 11.0098,9.50018923 C11.0098,9.53137446 11.0090018,9.56238722 11.0074237,9.59321016 L13.8289534,12.4147399 C14.7655265,11.6491467 15.502485,10.6555053 15.9445,9.5 C14.8855,6.73158661 12.1335,4.8922853 8.9995,4.8922853 C8.18699307,4.8922853 7.40011082,5.01599001 6.66173733,5.24752377 L9.01269457,7.59848101 Z M3.35894111,4.77315467 L1.29289322,2.70710678 C0.350084177,1.76429774 1.76429774,0.350084177 2.70710678,1.29289322 L5.17705865,3.76284508 C6.35191437,3.26937126 7.64782985,3 8.9995,3 C13.1165,3 16.7155,5.49781659 17.9535,9.21521106 C18.0155,9.40065502 18.0155,9.59934498 17.9535,9.78478894 C17.4229267,11.3779636 16.4586973,12.7471326 15.2058891,13.7916755 L16.7071068,15.2928932 C17.6499158,16.2357023 16.2357023,17.6499158 15.2928932,16.7071068 L13.5045016,14.9187151 C12.1576967,15.6136528 10.6186589,16 8.9995,16 C4.8835,16 1.2845,13.5021834 0.0465,9.78478894 C-0.0155,9.59934498 -0.0155,9.40065502 0.0465,9.21521106 C0.654300459,7.39014316 1.8311854,5.85903665 3.35894111,4.77315467 Z"/>
  </defs>
  <use fill-rule="evenodd" xlink:href="#eye-off-a"/>
</svg>
