<svg xmlns="http://www.w3.org/2000/svg" xmlns:xlink="http://www.w3.org/1999/xlink" width="24" height="24" viewBox="0 0 24 24">
  <defs>
    <path id="image-a" d="M3,21 L3,14.414 L7,10.414 L13.293,16.707 C13.684,17.098 14.316,17.098 14.707,16.707 L18,13.414 L21,16.414 L21,21 L3,21 Z M21,3 L21,13.586 L18.707,11.293 C18.316,10.902 17.684,10.902 17.293,11.293 L14,14.586 L7.707,8.293 C7.316,7.902 6.684,7.902 6.293,8.293 L3,11.586 L3,3 L21,3 Z M22,1 L2,1 C1.448,1 1,1.448 1,2 L1,22 C1,22.552 1.448,23 2,23 L22,23 C22.552,23 23,22.552 23,22 L23,2 C23,1.448 22.552,1 22,1 Z M14,9 C15.103,9 16,8.103 16,7 C16,5.897 15.103,5 14,5 C12.897,5 12,5.897 12,7 C12,8.103 12.897,9 14,9"/>
  </defs>
  <use fill-rule="evenodd" xlink:href="#image-a"/>
</svg>
