<svg xmlns="http://www.w3.org/2000/svg" xmlns:xlink="http://www.w3.org/1999/xlink" width="18" height="18" viewBox="0 0 18 18">
  <defs>
    <path id="italics-a" d="M7.1,17 L7.078,17 L4,17 C3.448,17 3,16.553 3,16 C3,15.447 3.448,15 4,15 L6.432,15 L10.984,4 L9,4 C8.448,4 8,3.553 8,3 C8,2.447 8.448,2 9,2 L12.458,2 L12.503,2 L15,2 C15.553,2 16,2.447 16,3 C16,3.553 15.553,4 15,4 L13.149,4 L8.597,15 L11,15 C11.553,15 12,15.447 12,16 C12,16.553 11.553,17 11,17 L7.123,17 L7.1,17 Z"/>
  </defs>
  <use fill-rule="evenodd" xlink:href="#italics-a"/>
</svg>
