<svg xmlns="http://www.w3.org/2000/svg" xmlns:xlink="http://www.w3.org/1999/xlink" width="24" height="24" viewBox="0 0 24 24">
  <defs>
    <path id="bold-active-a" d="M21,16.545 C21,20.6623582 17.6627808,24 13.546,24 L6,24 C4.8954305,24 4,23.1045695 4,22 L4,11.09 C4,9.9854305 4.8954305,9.09 6,9.09 L13.546,9.09 C17.6624922,9.09 21,12.4283531 21,16.545 Z M13.546,20 C15.4535284,20 17,18.4533326 17,16.545 C17,14.6372654 15.4531264,13.09 13.546,13.09 L8,13.09 L8,20 L13.546,20 Z M10.454,9.09 C11.8603439,9.09 13,7.95051707 13,6.545 C13,5.13948293 11.8603439,4 10.454,4 L8,4 L8,9.09 L10.454,9.09 Z M10.454,13.09 L6,13.09 C4.8954305,13.09 4,12.1945695 4,11.09 L4,2 C4,0.8954305 4.8954305,0 6,0 L10.454,0 C14.0693468,0 17,2.93020785 17,6.545 C17,10.1597922 14.0693468,13.09 10.454,13.09 Z"/>
  </defs>
  <use xlink:href="#bold-active-a"/>
</svg>
