<svg xmlns="http://www.w3.org/2000/svg" xmlns:xlink="http://www.w3.org/1999/xlink" width="24" height="24" viewBox="0 0 24 24">
  <defs>
    <path id="camera-a" d="M2,4 L4,4 C4.553,4 5,3.553 5,3 C5,2.447 4.553,2 4,2 L2,2 C1.447,2 1,2.447 1,3 C1,3.553 1.447,4 2,4 M21,21 L3,21 L3,8 L5,8 C5.266,8 5.52,7.895 5.707,7.707 L9.414,4 L14.586,4 L18.293,7.707 C18.48,7.895 18.734,8 19,8 L21,8 L21,21 Z M22,6 L19.414,6 L15.707,2.293 C15.52,2.105 15.266,2 15,2 L9,2 C8.734,2 8.48,2.105 8.293,2.293 L4.586,6 L2,6 C1.447,6 1,6.447 1,7 L1,22 C1,22.553 1.447,23 2,23 L22,23 C22.553,23 23,22.553 23,22 L23,7 C23,6.447 22.553,6 22,6 Z M12,15 C10.897,15 10,14.104 10,13 C10,11.896 10.897,11 12,11 C13.103,11 14,11.896 14,13 C14,14.104 13.103,15 12,15 M12,9 C9.794,9 8,10.795 8,13 C8,15.205 9.794,17 12,17 C14.206,17 16,15.205 16,13 C16,10.795 14.206,9 12,9"/>
  </defs>
  <use fill-rule="evenodd" xlink:href="#camera-a"/>
</svg>
