<svg xmlns="http://www.w3.org/2000/svg" xmlns:xlink="http://www.w3.org/1999/xlink" width="24" height="24" viewBox="0 0 24 24">
  <defs>
    <path id="message-a" d="M3.414,5 L12,13.586 L20.586,5 L3.414,5 Z M2,19 L22,19 L22,6.414 L12.707,15.707 C12.316,16.098 11.684,16.098 11.293,15.707 L2,6.414 L2,19 Z M23,21 L1,21 C0.447,21 0,20.553 0,20 L0,4 L0,3.997 C0,3.863 0.027,3.735 0.075,3.619 C0.124,3.5 0.196,3.389 0.293,3.293 C0.39,3.197 0.5,3.124 0.619,3.075 C0.735,3.027 0.863,3 0.997,3 L1,3 L23,3 L23.003,3 C23.137,3 23.265,3.027 23.381,3.075 C23.5,3.124 23.61,3.197 23.707,3.293 C23.804,3.389 23.876,3.5 23.925,3.619 C23.973,3.735 24,3.863 24,3.997 L24,4 L24,20 C24,20.553 23.553,21 23,21 Z"/>
  </defs>
  <use fill-rule="evenodd" xlink:href="#message-a"/>
</svg>
