<svg xmlns="http://www.w3.org/2000/svg" xmlns:xlink="http://www.w3.org/1999/xlink" width="24" height="24" viewBox="0 0 24 24">
  <defs>
    <path id="activity-a" d="M16,23 C15.591,23 15.224,22.751 15.071,22.371 L8,4.692 L4.929,12.371 C4.776,12.751 4.409,13 4,13 L1,13 C0.448,13 0,12.553 0,12 C0,11.447 0.448,11 1,11 L3.323,11 L7.071,1.629 C7.224,1.249 7.591,1 8,1 C8.409,1 8.776,1.249 8.929,1.629 L16,19.308 L19.071,11.629 C19.224,11.249 19.591,11 20,11 L23,11 C23.552,11 24,11.447 24,12 C24,12.553 23.552,13 23,13 L20.677,13 L16.929,22.371 C16.776,22.751 16.409,23 16,23"/>
  </defs>
  <use fill-rule="evenodd" xlink:href="#activity-a"/>
</svg>
