<svg xmlns="http://www.w3.org/2000/svg" xmlns:xlink="http://www.w3.org/1999/xlink" width="12" height="12" viewBox="0 0 12 12">
  <defs>
    <path id="text-a" d="M8,12 L4,12 C3.448,12 3,11.553 3,11 C3,10.448 3.448,10 4,10 L5,10 L5,2 L3,2 C3,2.553 2.552,3 2,3 C1.448,3 1,2.553 1,2 L1,1 C1,0.448 1.448,0 2,0 L10,0 C10.552,0 11,0.448 11,1 L11,2 C11,2.553 10.552,3 10,3 C9.448,3 9,2.553 9,2 L7,2 L7,10 L8,10 C8.552,10 9,10.448 9,11 C9,11.553 8.552,12 8,12"/>
  </defs>
  <use fill-rule="evenodd" xlink:href="#text-a"/>
</svg>
