<svg xmlns="http://www.w3.org/2000/svg" xmlns:xlink="http://www.w3.org/1999/xlink" width="12" height="12" viewBox="0 0 12 12">
  <defs>
    <path id="zoom-out-a" d="M8,5 C7.447,5 7,4.552 7,4 L7,2 C7,1.448 7.447,1 8,1 C8.553,1 9,1.448 9,2 L9,3 L10,3 C10.553,3 11,3.448 11,4 C11,4.552 10.553,5 10,5 L8,5 Z M4,7 C4.553,7 5,7.448 5,8 L5,10 C5,10.552 4.553,11 4,11 C3.447,11 3,10.552 3,10 L3,9 L2,9 C1.447,9 1,8.552 1,8 C1,7.448 1.447,7 2,7 L4,7 Z M4,1 C4.553,1 5,1.448 5,2 L5,4 C5,4.552 4.553,5 4,5 L2,5 C1.447,5 1,4.552 1,4 C1,3.448 1.447,3 2,3 L3,3 L3,2 C3,1.448 3.447,1 4,1 Z M10,7 C10.553,7 11,7.448 11,8 C11,8.552 10.553,9 10,9 L9,9 L9,10 C9,10.552 8.553,11 8,11 C7.447,11 7,10.552 7,10 L7,8 C7,7.448 7.447,7 8,7 L10,7 Z"/>
  </defs>
  <use fill-rule="evenodd" xlink:href="#zoom-out-a"/>
</svg>
