<svg xmlns="http://www.w3.org/2000/svg" xmlns:xlink="http://www.w3.org/1999/xlink" width="24" height="24" viewBox="0 0 24 24">
  <defs>
    <path id="unlock-a" d="M10,15 L11,15 L11,18 C11,18.553 11.448,19 12,19 C12.552,19 13,18.553 13,18 L13,15 L14,15 C14.552,15 15,14.553 15,14 C15,13.447 14.552,13 14,13 L10,13 C9.448,13 9,13.447 9,14 C9,14.553 9.448,15 10,15 M5,22 L19,22 L19,10 L5,10 L5,22 Z M20,8 L9,8 L9,5 C9,3.346 10.346,2 12,2 C12.795,2 13.551,2.313 14.128,2.882 C14.521,3.27 15.155,3.265 15.542,2.872 C15.93,2.479 15.925,1.846 15.532,1.458 C14.579,0.518 13.324,0 12,0 C9.243,0 7,2.243 7,5 L7,8 L4,8 C3.448,8 3,8.447 3,9 L3,23 C3,23.553 3.448,24 4,24 L20,24 C20.552,24 21,23.553 21,23 L21,9 C21,8.447 20.552,8 20,8 Z"/>
  </defs>
  <use fill-rule="evenodd" xlink:href="#unlock-a"/>
</svg>
