<svg xmlns="http://www.w3.org/2000/svg" xmlns:xlink="http://www.w3.org/1999/xlink" width="12" height="12" viewBox="0 0 12 12">
  <defs>
    <path id="image-a" d="M10,6.243 L9.354,5.597 C9.158,5.401 8.842,5.401 8.646,5.597 L7,7.243 L3.854,4.097 C3.658,3.901 3.342,3.901 3.146,4.097 L2,5.243 L2,2 L10,2 L10,6.243 Z M10,10 L2,10 L2,6.657 L3.5,5.157 L6.646,8.304 C6.842,8.499 7.158,8.499 7.354,8.304 L9,6.657 L10,7.657 L10,10 Z M11,0 L1,0 C0.448,0 0,0.447 0,1 L0,11 C0,11.553 0.448,12 1,12 L11,12 C11.552,12 12,11.553 12,11 L12,1 C12,0.447 11.552,0 11,0 Z M6.6499,4.3494 C6.7399,4.4504 6.8699,4.4994 6.9999,4.4994 C7.0699,4.4994 7.1299,4.4904 7.1899,4.4594 C7.2499,4.4394 7.3099,4.3994 7.3499,4.3494 C7.3999,4.3094 7.4399,4.2494 7.4599,4.1894 C7.4899,4.1294 7.4999,4.0694 7.4999,3.9994 C7.4999,3.8704 7.4499,3.7404 7.3499,3.6494 C7.3099,3.5994 7.2499,3.5594 7.1899,3.5394 C7.0099,3.4594 6.7899,3.5094 6.6499,3.6494 C6.5499,3.7404 6.4999,3.8704 6.4999,3.9994 C6.4999,4.0694 6.5099,4.1294 6.5399,4.1894 C6.5599,4.2494 6.5999,4.3094 6.6499,4.3494"/>
  </defs>
  <use fill-rule="evenodd" xlink:href="#image-a"/>
</svg>
