<svg width="130" height="28" viewBox="0 0 130 28" xmlns="http://www.w3.org/2000/svg">
	<mask id="b" fill="#fff">
		<path d="M0 27.984h27.572V.164H0v27.82z"/>
	</mask>
	<path
		d="M25.494 13.282c0 .23-.092.453-.254.617L14.576 24.697c-.18.18-.36.26-.587.26-.234 0-.44-.088-.614-.262l-.752-.713c-.135-.13-.14-.343-.008-.476L24.923 11.07c.21-.212.57-.064.57.233v1.98zm-13.676 8.143l-.61.55c-.2.18-.504.173-.694-.015l-8.116-8.004c-.205-.202-.32-.477-.32-.764v-1.495c0-.54.65-.81 1.035-.432l8.614 8.497c.15.15.403.458.403.83 0 .238-.054.575-.312.833zM4.565 5.935l2.79-2.787c.132-.13.343-.13.473 0l9.35 9.336c1 1 1 2.62 0 3.62l-2.79 2.786c-.13.13-.342.13-.472 0l-9.35-9.336c-.48-.48-.746-1.124-.746-1.81 0-.686.265-1.328.745-1.81zM15.628 7.53l2.917-2.912c.57-.567 1.36-.834 2.18-.72.576.078 1.098.376 1.51.786l2.952 2.95c.13.13.13.34 0 .47l-4.492 4.487c-.13.13-.34.13-.472 0l-4.595-4.588c-.13-.13-.13-.34 0-.47zm11.6-.552L20.723.368c-.268-.272-.708-.273-.978 0l-5.16 5.202c-.4.402-1.05.403-1.45.004L7.972.424c-.267-.265-.7-.267-.968-.002L.356 6.962c-.228.225-.356.53-.356.85v6.195c0 .316.126.62.35.844l12.956 12.933c.268.268.704.268.972 0L27.222 14.85c.224-.223.35-.527.35-.843V7.815c0-.313-.123-.614-.343-.837z"
		fill="#00D6D6" mask="url(#b)"/>
	<path
		d="M50.07 16.503l2.055-5.404c.12-.32.57-.32.69 0l2.057 5.403H50.07zm4.663-10c-.146-.387-.517-.643-.932-.643h-2.66c-.415 0-.786.256-.933.643L44.565 21.39c-.168.442.16.916.634.916h2.193c.28 0 .534-.174.634-.437l.588-1.547c.1-.263.352-.437.634-.437h6.442c.28 0 .533.174.633.437l.59 1.546c.1.262.35.436.633.436h2.193c.475 0 .803-.474.635-.917L54.733 6.502zm74.486-.643h-2.163c-.57 0-1.09.327-1.336.84l-4.295 8.984L117.13 6.7c-.247-.513-.766-.84-1.337-.84h-2.163c-.393 0-.71.318-.71.71v15.025c0 .393.317.71.71.71h2.077c.393 0 .712-.317.712-.71v-7.793l3.938 8.104c.12.244.368.4.64.4h.854c.272 0 .52-.156.64-.4l3.94-8.104v7.793c0 .393.318.71.71.71h2.077c.392 0 .71-.317.71-.71V6.57c0-.392-.318-.71-.71-.71zm-85.215 7.08H37.13V9.243h8.697c.296 0 .56-.186.66-.464l.71-1.984c.162-.456-.176-.936-.66-.936H34.44c-.387 0-.7.314-.7.7v15.046c0 .386.313.7.7.7h1.986c.387 0 .7-.314.7-.7v-5.283h6.168c.297 0 .56-.186.66-.464l.71-1.984c.163-.456-.176-.936-.66-.936zm41.233 6.122h-2.88V9.104h2.88c3.05 0 5.106 2.025 5.106 4.98 0 2.953-2.057 4.978-5.106 4.978zm-.1-13.202H79.46c-.387 0-.7.314-.7.7v15.045c0 .387.313.7.7.7h5.678c5.14 0 8.693-3.573 8.693-8.175v-.094c0-4.602-3.55-8.176-8.692-8.176zm-9.517.023H73.52c-.386 0-.7.312-.7.697v9.945L65.846 6.29c-.183-.27-.488-.43-.814-.43h-2.64c-.384 0-.697.312-.697.698v15.05c0 .385.313.698.698.698h2.105c.385 0 .698-.313.698-.698v-9.773l6.857 10.04c.183.27.488.43.814.43h2.757c.387 0 .7-.312.7-.697V6.58c0-.385-.313-.697-.7-.697zm32.43 8.288c0 2.674-2.158 4.84-4.822 4.84-2.665 0-4.824-2.166-4.824-4.84v-.176c0-2.673 2.16-4.84 4.824-4.84 2.664 0 4.823 2.167 4.823 4.84v.177zm-4.822-8.4c-4.536 0-8.212 3.683-8.212 8.224v.177c0 4.543 3.676 8.224 8.212 8.224 4.535 0 8.21-3.68 8.21-8.223v-.176c0-4.54-3.675-8.223-8.21-8.223z"
		fill="#002A32"/>
</svg>
