<svg xmlns="http://www.w3.org/2000/svg" xmlns:xlink="http://www.w3.org/1999/xlink" width="12" height="12" viewBox="0 0 12 12">
  <defs>
    <path id="twitter-a" d="M10.7368421,4.21311475 L10.7368421,4.50819672 C10.7368421,7.53278689 8.28947368,11 3.78947368,11 C2.36842105,11 1.10526316,10.6311475 9.69080803e-16,9.96721311 C0.236842105,9.96721311 0.394736842,10.0409836 0.631578947,10.0409836 C1.73684211,10.0409836 2.84210526,9.67213115 3.71052632,9.08196721 C2.68421053,9.08196721 1.73684211,8.41803279 1.42105263,7.45901639 C1.57894737,7.45901639 1.73684211,7.53278689 1.89473684,7.53278689 C2.13157895,7.53278689 2.13157895,7.53278689 2.44736842,7.45901639 C1.26315789,7.23770492 0.236842105,6.27868852 0.236842105,5.17213115 L0.236842105,5.17213115 C0.236842105,5.39344262 1.10526316,5.39344262 1.5,5.46721311 C0.868421053,5.02459016 0.473684211,4.36065574 0.473684211,3.54918033 C0.473684211,3.10655738 0.631578947,2.73770492 0.868421053,2.36885246 C2.05263158,3.7704918 3.94736842,4.6557377 5.92105263,4.80327869 C5.84210526,4.58196721 5.84210526,4.43442623 5.84210526,4.28688525 C5.84210526,3.03278689 6.94736842,2 8.28947368,2 C9,2 9.63157895,2.22131148 10.1052632,2.73770492 C10.6578947,2.59016393 11.1315789,2.44262295 11.6052632,2.14754098 C11.3684211,2.73770492 10.9736842,3.10655738 10.5789474,3.40163934 C11.0526316,3.32786885 11.6052632,3.18032787 12,3.03278689 C11.6052632,3.47540984 11.2105263,3.91803279 10.7368421,4.21311475 L10.7368421,4.21311475 Z"/>
  </defs>
  <use fill-rule="evenodd" xlink:href="#twitter-a"/>
</svg>
