<?xml version="1.0" encoding="UTF-8"?>
<svg width="24px" height="24px" viewBox="0 0 24 24" version="1.1" xmlns="http://www.w3.org/2000/svg" xmlns:xlink="http://www.w3.org/1999/xlink">
    <!-- Generator: Sketch 51.3 (57544) - http://www.bohemiancoding.com/sketch -->
    <title>add</title>
    <desc>Created with Sketch.</desc>
    <defs>
        <path d="M22,11 L13,11 L13,2 C13,1.447 12.552,1 12,1 C11.448,1 11,1.447 11,2 L11,11 L2,11 C1.448,11 1,11.447 1,12 C1,12.553 1.448,13 2,13 L11,13 L11,22 C11,22.553 11.448,23 12,23 C12.552,23 13,22.553 13,22 L13,13 L22,13 C22.552,13 23,12.553 23,12 C23,11.447 22.552,11 22,11" id="path-1"></path>
    </defs>
    <g id="add" stroke="none" stroke-width="1" fill="none" fill-rule="evenodd">
        <mask id="mask-2" fill="white">
            <use xlink:href="#path-1"></use>
        </mask>
        <use fill="#000000" xlink:href="#path-1"></use>
    </g>
</svg>