<?xml version="1.0" encoding="UTF-8"?>
<svg width="12px" height="12px" viewBox="0 0 12 12" version="1.1" xmlns="http://www.w3.org/2000/svg" xmlns:xlink="http://www.w3.org/1999/xlink">
    <!-- Generator: Sketch 51.3 (57544) - http://www.bohemiancoding.com/sketch -->
    <title>reply</title>
    <desc>Created with Sketch.</desc>
    <defs></defs>
    <g id="reply" stroke="none" stroke-width="1" fill="none" fill-rule="evenodd">
        <path d="M4.998,4.00025 L3.412,4.00025 L5.705,1.70725 C6.096,1.31625 6.096,0.68425 5.705,0.29325 C5.314,-0.09775 4.682,-0.09775 4.291,0.29325 L0.292,4.29225 C0.199,4.38525 0.126,4.49525 0.075,4.61825 C-0.025,4.86225 -0.025,5.13825 0.075,5.38225 C0.126,5.50525 0.199,5.61525 0.292,5.70825 L4.291,9.70725 C4.486,9.90225 4.742,10.00025 4.998,10.00025 C5.254,10.00025 5.51,9.90225 5.705,9.70725 C6.096,9.31625 6.096,8.68425 5.705,8.29325 L3.412,6.00025 L4.998,6.00025 C7.755,6.00025 9.998,8.24325 9.998,11.00025 C9.998,11.55225 10.445,12.00025 10.998,12.00025 C11.551,12.00025 11.998,11.55225 11.998,11.00025 C11.998,7.14025 8.857,4.00025 4.998,4.00025" id="Fill-1" fill="#000000"></path>
    </g>
</svg>