<?xml version="1.0" encoding="UTF-8"?>
<svg width="12px" height="12px" viewBox="0 0 12 12" version="1.1" xmlns="http://www.w3.org/2000/svg" xmlns:xlink="http://www.w3.org/1999/xlink">
    <!-- Generator: Sketch 51.3 (57544) - http://www.bohemiancoding.com/sketch -->
    <title>menu</title>
    <desc>Created with Sketch.</desc>
    <defs></defs>
    <g id="menu" stroke="none" stroke-width="1" fill="none" fill-rule="evenodd">
        <path d="M2,5 L10,5 C10.553,5 11,5.448 11,6 C11,6.552 10.553,7 10,7 L2,7 C1.447,7 1,6.552 1,6 C1,5.448 1.447,5 2,5 Z M10,3 L2,3 C1.447,3 1,2.552 1,2 C1,1.448 1.447,1 2,1 L10,1 C10.553,1 11,1.448 11,2 C11,2.552 10.553,3 10,3 Z M2,9 L10,9 C10.553,9 11,9.448 11,10 C11,10.552 10.553,11 10,11 L2,11 C1.447,11 1,10.552 1,10 C1,9.448 1.447,9 2,9 Z" id="Fill-5" fill="#000000"></path>
    </g>
</svg>