<?xml version="1.0" encoding="UTF-8"?>
<svg width="12px" height="12px" viewBox="0 0 12 12" version="1.1" xmlns="http://www.w3.org/2000/svg" xmlns:xlink="http://www.w3.org/1999/xlink">
    <!-- Generator: Sketch 51.3 (57544) - http://www.bohemiancoding.com/sketch -->
    <title>italics</title>
    <desc>Created with Sketch.</desc>
    <defs></defs>
    <g id="italics" stroke="none" stroke-width="1" fill="none" fill-rule="evenodd">
        <path d="M4,12.001 C3.993,12.001 3.985,12 3.977,12 L2,12 C1.448,12 1,11.553 1,11 C1,10.448 1.448,10 2,10 L3.323,10 L6.523,2 L5,2 C4.448,2 4,1.553 4,1 C4,0.448 4.448,1.77635684e-15 5,1.77635684e-15 L7.978,1.77635684e-15 C7.993,0.001 8.008,0.001 8.024,1.77635684e-15 L10,1.77635684e-15 C10.553,1.77635684e-15 11,0.448 11,1 C11,1.553 10.553,2 10,2 L8.678,2 L5.478,10 L7,10 C7.553,10 8,10.448 8,11 C8,11.553 7.553,12 7,12 L4.023,12 C4.016,12 4.008,12.001 4,12.001" id="Fill-1" fill="#000000"></path>
    </g>
</svg>