<?xml version="1.0" encoding="UTF-8"?>
<svg width="12px" height="12px" viewBox="0 0 12 12" version="1.1" xmlns="http://www.w3.org/2000/svg" xmlns:xlink="http://www.w3.org/1999/xlink">
    <!-- Generator: Sketch 51.3 (57544) - http://www.bohemiancoding.com/sketch -->
    <title>indent left</title>
    <desc>Created with Sketch.</desc>
    <defs></defs>
    <g id="indent-left" stroke="none" stroke-width="1" fill="none" fill-rule="evenodd">
        <path d="M7,5 C7.553,5 8,5.448 8,6 C8,6.552 7.553,7 7,7 L3.414,7 L4.707,8.293 C5.098,8.684 5.098,9.316 4.707,9.707 C4.512,9.902 4.256,10 4,10 C3.744,10 3.488,9.902 3.293,9.707 L0.293,6.707 C0.196,6.61 0.124,6.499 0.075,6.381 C0.027,6.265 0,6.137 0,6.003 L0,5.997 C0,5.863 0.027,5.735 0.075,5.619 C0.124,5.501 0.196,5.39 0.293,5.293 L3.293,2.293 C3.684,1.902 4.316,1.902 4.707,2.293 C5.098,2.684 5.098,3.316 4.707,3.707 L3.414,5 L7,5 Z M11,1 C11.553,1 12,1.448 12,2 L12,10 C12,10.552 11.553,11 11,11 C10.447,11 10,10.552 10,10 L10,2 C10,1.448 10.447,1 11,1 Z" id="Fill-1" fill="#000000"></path>
    </g>
</svg>