<?xml version="1.0" encoding="UTF-8"?>
<svg width="18px" height="18px" viewBox="0 0 18 18" version="1.1" xmlns="http://www.w3.org/2000/svg" xmlns:xlink="http://www.w3.org/1999/xlink">
    <!-- Generator: Sketch 51.3 (57544) - http://www.bohemiancoding.com/sketch -->
    <title>reload</title>
    <desc>Created with Sketch.</desc>
    <defs>
        <path d="M16,9 C15.447,9 15,9.447 15,10 C15,13.309 12.309,16 9,16 C5.691,16 3,13.309 3,10 C3,6.691 5.691,4 9,4 C10.191,4 11.336,4.359 12.306,5 L11,5 C10.447,5 10,5.447 10,6 C10,6.553 10.447,7 11,7 L15,7 C15.553,7 16,6.553 16,6 L16,2 C16,1.447 15.553,1 15,1 C14.447,1 14,1.447 14,2 L14,3.773 C12.596,2.646 10.841,2 9,2 C4.589,2 1,5.589 1,10 C1,14.411 4.589,18 9,18 C13.411,18 17,14.411 17,10 C17,9.447 16.553,9 16,9" id="path-1"></path>
    </defs>
    <g id="reload" stroke="none" stroke-width="1" fill="none" fill-rule="evenodd">
        <mask id="mask-2" fill="white">
            <use xlink:href="#path-1"></use>
        </mask>
        <use id="icons/18px/Loading" fill="#000000" xlink:href="#path-1"></use>
    </g>
</svg>