<?xml version="1.0" encoding="UTF-8"?>
<svg width="18px" height="18px" viewBox="0 0 18 18" version="1.1" xmlns="http://www.w3.org/2000/svg" xmlns:xlink="http://www.w3.org/1999/xlink">
    <!-- Generator: Sketch 51.3 (57544) - http://www.bohemiancoding.com/sketch -->
    <title>text</title>
    <desc>Created with Sketch.</desc>
    <defs></defs>
    <g id="text" stroke="none" stroke-width="1" fill="none" fill-rule="evenodd">
        <path d="M11,17 L7,17 C6.448,17 6,16.553 6,16 C6,15.447 6.448,15 7,15 L8,15 L8,4 L5,4 C5,4.553 4.552,5 4,5 C3.448,5 3,4.553 3,4 L3,3 C3,2.447 3.448,2 4,2 L14,2 C14.552,2 15,2.447 15,3 L15,4 C15,4.553 14.552,5 14,5 C13.448,5 13,4.553 13,4 L10,4 L10,15 L11,15 C11.552,15 12,15.447 12,16 C12,16.553 11.552,17 11,17" id="Fill-1" fill="#000000"></path>
    </g>
</svg>