<?xml version="1.0" encoding="UTF-8"?>
<svg width="24px" height="24px" viewBox="0 0 24 24" version="1.1" xmlns="http://www.w3.org/2000/svg" xmlns:xlink="http://www.w3.org/1999/xlink">
    <!-- Generator: Sketch 51.3 (57544) - http://www.bohemiancoding.com/sketch -->
    <title>sound</title>
    <desc>Created with Sketch.</desc>
    <defs>
        <path d="M15.739,17.0004094 C15.539,17.0004094 15.338,16.9404094 15.162,16.8164094 C14.712,16.4974094 14.605,15.8734094 14.924,15.4224094 C15.628,14.4284094 16,13.2444094 16,12.0004094 C16,10.7564094 15.628,9.5724094 14.924,8.5784094 C14.605,8.1274094 14.712,7.5034094 15.162,7.1844094 C15.613,6.8654094 16.237,6.9724094 16.556,7.4224094 C17.501,8.7564094 18,10.3404094 18,12.0004094 C18,13.6604094 17.501,15.2444094 16.556,16.5784094 C16.361,16.8544094 16.052,17.0004094 15.739,17.0004094 Z M19.929,21.0004094 C19.69,21.0004094 19.45,20.9144094 19.259,20.7414094 C18.849,20.3714094 18.818,19.7384094 19.189,19.3284094 C21.001,17.3274094 22,14.7254094 22,12.0004094 C22,9.2754094 21.001,6.6734094 19.189,4.6724094 C18.818,4.2624094 18.849,3.6294094 19.259,3.2594094 C19.668,2.8884094 20.301,2.9204094 20.671,3.3284094 C22.818,5.6994094 24,8.7784094 24,12.0004094 C24,15.2224094 22.818,18.3014094 20.671,20.6724094 C20.474,20.8894094 20.202,21.0004094 19.929,21.0004094 Z M2,15.0004094 L5,15.0004094 C5.265,15.0004094 5.519,15.1054094 5.707,15.2934094 L10,19.5864094 L10,4.4144094 L5.707,8.7074094 C5.519,8.8954094 5.265,9.0004094 5,9.0004094 L2,9.0004094 L2,15.0004094 Z M11,23.0004094 C10.739,23.0004094 10.484,22.8984094 10.293,22.7074094 L4.586,17.0004094 L1,17.0004094 C0.447,17.0004094 0,16.5534094 0,16.0004094 L0,8.0004094 C0,7.4474094 0.447,7.0004094 1,7.0004094 L4.586,7.0004094 L10.293,1.2934094 C10.579,1.0064094 11.007,0.921409403 11.383,1.0764094 C11.756,1.2304094 12,1.5964094 12,2.0004094 L12,22.0004094 C12,22.4044094 11.756,22.7704094 11.383,22.9244094 C11.259,22.9754094 11.129,23.0004094 11,23.0004094 Z" id="path-1"></path>
    </defs>
    <g id="sound" stroke="none" stroke-width="1" fill="none" fill-rule="evenodd">
        <mask id="mask-2" fill="white">
            <use xlink:href="#path-1"></use>
        </mask>
        <use id="icons/24px/Sound" fill="#000000" xlink:href="#path-1"></use>
    </g>
</svg>