<?xml version="1.0" encoding="UTF-8"?>
<svg width="24px" height="24px" viewBox="0 0 24 24" version="1.1" xmlns="http://www.w3.org/2000/svg" xmlns:xlink="http://www.w3.org/1999/xlink">
    <!-- Generator: Sketch 51.3 (57544) - http://www.bohemiancoding.com/sketch -->
    <title>calendar</title>
    <desc>Created with Sketch.</desc>
    <defs>
        <path d="M16.6956522,22 L21.9130435,22 L21.9130435,18 L16.6956522,18 L16.6956522,22 Z M2.08695652,22 L7.30434783,22 L7.30434783,18 L2.08695652,18 L2.08695652,22 Z M7.30434783,5 L7.30434783,7 C7.30434783,7.553 7.77182609,8 8.34782609,8 C8.92382609,8 9.39130435,7.553 9.39130435,7 L9.39130435,5 L14.6086957,5 L14.6086957,7 C14.6086957,7.553 15.0761739,8 15.6521739,8 C16.2281739,8 16.6956522,7.553 16.6956522,7 L16.6956522,5 L21.9130435,5 L21.9130435,10 L2.08695652,10 L2.08695652,5 L7.30434783,5 Z M16.6956522,16 L21.9130435,16 L21.9130435,12 L16.6956522,12 L16.6956522,16 Z M2.08695652,16 L7.30434783,16 L7.30434783,12 L2.08695652,12 L2.08695652,16 Z M9.39130435,22 L14.6086957,22 L14.6086957,18 L9.39130435,18 L9.39130435,22 Z M9.39130435,16 L14.6086957,16 L14.6086957,12 L9.39130435,12 L9.39130435,16 Z M22.9565217,3 L16.6956522,3 L16.6956522,1 C16.6956522,0.447 16.2281739,0 15.6521739,0 C15.0761739,0 14.6086957,0.447 14.6086957,1 L14.6086957,3 L9.39130435,3 L9.39130435,1 C9.39130435,0.447 8.92382609,0 8.34782609,0 C7.77182609,0 7.30434783,0.447 7.30434783,1 L7.30434783,3 L1.04347826,3 C0.467478261,3 0,3.447 0,4 L0,23 C0,23.553 0.467478261,24 1.04347826,24 L22.9565217,24 C23.5325217,24 24,23.553 24,23 L24,4 C24,3.447 23.5325217,3 22.9565217,3 Z" id="path-1"></path>
    </defs>
    <g id="calendar" stroke="none" stroke-width="1" fill="none" fill-rule="evenodd">
        <mask id="mask-2" fill="white">
            <use xlink:href="#path-1"></use>
        </mask>
        <use id="icons/24px/Calendar" fill="#000000" xlink:href="#path-1"></use>
    </g>
</svg>