<?xml version="1.0" encoding="UTF-8"?>
<svg width="18px" height="18px" viewBox="0 0 18 18" version="1.1" xmlns="http://www.w3.org/2000/svg" xmlns:xlink="http://www.w3.org/1999/xlink">
    <!-- Generator: Sketch 51.3 (57544) - http://www.bohemiancoding.com/sketch -->
    <title>more</title>
    <desc>Created with Sketch.</desc>
    <defs>
        <path d="M9,5 C10.103,5 11,4.104 11,3 C11,1.896 10.103,1 9,1 C7.897,1 7,1.896 7,3 C7,4.104 7.897,5 9,5 M9,13 C7.897,13 7,13.896 7,15 C7,16.104 7.897,17 9,17 C10.103,17 11,16.104 11,15 C11,13.896 10.103,13 9,13 M9,7 C7.897,7 7,7.896 7,9 C7,10.104 7.897,11 9,11 C10.103,11 11,10.104 11,9 C11,7.896 10.103,7 9,7" id="path-1"></path>
    </defs>
    <g id="more" stroke="none" stroke-width="1" fill="none" fill-rule="evenodd">
        <mask id="mask-2" fill="white">
            <use xlink:href="#path-1"></use>
        </mask>
        <use id="icons/18px/More" fill="#000000" xlink:href="#path-1"></use>
    </g>
</svg>