<?xml version="1.0" encoding="UTF-8"?>
<svg width="24px" height="24px" viewBox="0 0 24 24" version="1.1" xmlns="http://www.w3.org/2000/svg" xmlns:xlink="http://www.w3.org/1999/xlink">
    <!-- Generator: Sketch 51.3 (57544) - http://www.bohemiancoding.com/sketch -->
    <title>radio active</title>
    <desc>Created with Sketch.</desc>
    <defs>
        <path d="M12,21 C7.038,21 3,16.963 3,12 C3,7.037 7.038,3 12,3 C16.962,3 21,7.037 21,12 C21,16.963 16.962,21 12,21 M12,1 C5.935,1 1,5.935 1,12 C1,18.065 5.935,23 12,23 C18.065,23 23,18.065 23,12 C23,5.935 18.065,1 12,1 M12,8 C9.794,8 8,9.795 8,12 C8,14.205 9.794,16 12,16 C14.206,16 16,14.205 16,12 C16,9.795 14.206,8 12,8" id="path-1"></path>
    </defs>
    <g id="radio-active" stroke="none" stroke-width="1" fill="none" fill-rule="evenodd">
        <mask id="mask-2" fill="white">
            <use xlink:href="#path-1"></use>
        </mask>
        <use fill="#000000" xlink:href="#path-1"></use>
    </g>
</svg>