<?xml version="1.0" encoding="UTF-8"?>
<svg width="12px" height="12px" viewBox="0 0 12 12" version="1.1" xmlns="http://www.w3.org/2000/svg" xmlns:xlink="http://www.w3.org/1999/xlink">
    <!-- Generator: Sketch 51.3 (57544) - http://www.bohemiancoding.com/sketch -->
    <title>radio active</title>
    <desc>Created with Sketch.</desc>
    <defs></defs>
    <g id="radio-active" stroke="none" stroke-width="1" fill="none" fill-rule="evenodd">
        <path d="M6,10 C3.794,10 2,8.206 2,6 C2,3.794 3.794,2 6,2 C8.206,2 10,3.794 10,6 C10,8.206 8.206,10 6,10 M6,0 C2.691,0 0,2.691 0,6 C0,9.309 2.691,12 6,12 C9.309,12 12,9.309 12,6 C12,2.691 9.309,0 6,0 M6,4 C4.897,4 4,4.897 4,6 C4,7.103 4.897,8 6,8 C7.103,8 8,7.103 8,6 C8,4.897 7.103,4 6,4" id="Fill-1" fill="#000000"></path>
    </g>
</svg>