<?xml version="1.0" encoding="UTF-8"?>
<svg width="18px" height="18px" viewBox="0 0 18 18" version="1.1" xmlns="http://www.w3.org/2000/svg" xmlns:xlink="http://www.w3.org/1999/xlink">
    <!-- Generator: Sketch 51.3 (57544) - http://www.bohemiancoding.com/sketch -->
    <title>italics</title>
    <desc>Created with Sketch.</desc>
    <defs>
        <path d="M7.1,17 L7.078,17 L4,17 C3.448,17 3,16.553 3,16 C3,15.447 3.448,15 4,15 L6.432,15 L10.984,4 L9,4 C8.448,4 8,3.553 8,3 C8,2.447 8.448,2 9,2 L12.458,2 L12.503,2 L15,2 C15.553,2 16,2.447 16,3 C16,3.553 15.553,4 15,4 L13.149,4 L8.597,15 L11,15 C11.553,15 12,15.447 12,16 C12,16.553 11.553,17 11,17 L7.123,17 L7.1,17 Z" id="path-1"></path>
    </defs>
    <g id="italics" stroke="none" stroke-width="1" fill="none" fill-rule="evenodd">
        <mask id="mask-2" fill="white">
            <use xlink:href="#path-1"></use>
        </mask>
        <use id="icons/18px/Italics" fill="#000000" xlink:href="#path-1"></use>
    </g>
</svg>