<?xml version="1.0" encoding="UTF-8"?>
<svg width="18px" height="18px" viewBox="0 0 18 18" version="1.1" xmlns="http://www.w3.org/2000/svg" xmlns:xlink="http://www.w3.org/1999/xlink">
    <!-- Generator: Sketch 51.3 (57544) - http://www.bohemiancoding.com/sketch -->
    <title>bold</title>
    <desc>Created with Sketch.</desc>
    <defs></defs>
    <g id="bold" stroke="none" stroke-width="1" fill="none" fill-rule="evenodd">
        <path d="M9.5,15 L6,15 L6,10 L9.5,10 C10.878,10 12,11.121 12,12.5 C12,13.879 10.878,15 9.5,15 Z M6,4 L8,4 C9.103,4 10,4.896 10,6 C10,7.104 9.103,8 8,8 L6,8 L6,4 Z M11.236,8.349 C11.716,7.688 12,6.877 12,6 C12,3.795 10.206,2 8,2 L5,2 C4.448,2 4,2.447 4,3 L4,16 C4,16.553 4.448,17 5,17 L9.5,17 C11.981,17 14,14.981 14,12.5 C14,10.634 12.858,9.029 11.236,8.349 Z" id="Fill-1" fill="#000000"></path>
    </g>
</svg>