<?xml version="1.0" encoding="UTF-8"?>
<svg width="18px" height="18px" viewBox="0 0 18 18" version="1.1" xmlns="http://www.w3.org/2000/svg" xmlns:xlink="http://www.w3.org/1999/xlink">
    <!-- Generator: Sketch 51.3 (57544) - http://www.bohemiancoding.com/sketch -->
    <title>message</title>
    <desc>Created with Sketch.</desc>
    <defs>
        <path d="M3.414,4 L9,9.586 L14.586,4 L3.414,4 Z M2,14 L16,14 L16,5.414 L9.707,11.707 C9.316,12.098 8.684,12.098 8.293,11.707 L2,5.414 L2,14 Z M17,16 L1,16 C0.447,16 0,15.553 0,15 L0,3 L0,2.997 C0,2.863 0.027,2.735 0.075,2.619 C0.124,2.5 0.196,2.389 0.293,2.293 C0.39,2.197 0.5,2.124 0.619,2.075 C0.735,2.027 0.863,2 0.997,2 L1,2 L17,2 L17.003,2 C17.137,2 17.265,2.027 17.381,2.075 C17.5,2.124 17.61,2.197 17.707,2.293 C17.804,2.389 17.876,2.5 17.925,2.619 C17.973,2.735 18,2.863 18,2.997 L18,3 L18,15 C18,15.553 17.553,16 17,16 Z" id="path-1"></path>
    </defs>
    <g id="message" stroke="none" stroke-width="1" fill="none" fill-rule="evenodd">
        <mask id="mask-2" fill="white">
            <use xlink:href="#path-1"></use>
        </mask>
        <use id="icons/18px/Message" fill="#000000" xlink:href="#path-1"></use>
    </g>
</svg>