<?xml version="1.0" encoding="UTF-8"?>
<svg width="12px" height="12px" viewBox="0 0 12 12" version="1.1" xmlns="http://www.w3.org/2000/svg" xmlns:xlink="http://www.w3.org/1999/xlink">
    <!-- Generator: Sketch 51.3 (57544) - http://www.bohemiancoding.com/sketch -->
    <title>aarow</title>
    <desc>Created with Sketch.</desc>
    <defs></defs>
    <g id="aarow" stroke="none" stroke-width="1" fill="none" fill-rule="evenodd">
        <path d="M5,11.00025 C4.744,11.00025 4.488,10.90225 4.293,10.70725 L0.293,6.70725 C0.196,6.61125 0.124,6.50025 0.075,6.38125 C0.027,6.26525 0,6.13725 0,6.00325 L0,5.99725 C0,5.86325 0.027,5.73525 0.075,5.61925 C0.124,5.50025 0.196,5.38925 0.293,5.29325 L4.293,1.29325 C4.684,0.90225 5.316,0.90225 5.707,1.29325 C6.098,1.68425 6.098,2.31625 5.707,2.70725 L3.414,5.00025 L11,5.00025 C11.553,5.00025 12,5.44825 12,6.00025 C12,6.55225 11.553,7.00025 11,7.00025 L3.414,7.00025 L5.707,9.29325 C6.098,9.68425 6.098,10.31625 5.707,10.70725 C5.512,10.90225 5.256,11.00025 5,11.00025" id="Fill-1" fill="#000000"></path>
    </g>
</svg>