<?xml version="1.0" encoding="UTF-8"?>
<svg width="12px" height="12px" viewBox="0 0 12 12" version="1.1" xmlns="http://www.w3.org/2000/svg" xmlns:xlink="http://www.w3.org/1999/xlink">
    <!-- Generator: Sketch 51.3 (57544) - http://www.bohemiancoding.com/sketch -->
    <title>question</title>
    <desc>Created with Sketch.</desc>
    <defs></defs>
    <g id="question" stroke="none" stroke-width="1" fill="none" fill-rule="evenodd">
        <path d="M6,10 C3.794,10 2,8.206 2,6 C2,3.794 3.794,2 6,2 C8.206,2 10,3.794 10,6 C10,8.206 8.206,10 6,10 M6,0 C2.691,0 0,2.691 0,6 C0,9.309 2.691,12 6,12 C9.309,12 12,9.309 12,6 C12,2.691 9.309,0 6,0 M4,5 L5,5 L5,4 L4,4 L4,5 Z M6,3 L5,3 L5,4 L6,4 L7,4 L7,3 L6,3 Z M7,5 L7,6 L8,6 L8,5 L8,4 L7,4 L7,5 Z M6,7 L7,7 L7,6 L6,6 L6,7 Z M6,9 L7,9 L7,8 L6,8 L6,9 Z" id="Fill-1" fill="#000000"></path>
    </g>
</svg>