<?xml version="1.0" encoding="UTF-8"?>
<svg width="12px" height="12px" viewBox="0 0 12 12" version="1.1" xmlns="http://www.w3.org/2000/svg" xmlns:xlink="http://www.w3.org/1999/xlink">
    <!-- Generator: Sketch 51.3 (57544) - http://www.bohemiancoding.com/sketch -->
    <title>play</title>
    <desc>Created with Sketch.</desc>
    <defs></defs>
    <g id="play" stroke="none" stroke-width="1" fill="none" fill-rule="evenodd">
        <path d="M2,8.52211915 L2,3.47711915 L8.308,6.00011915 L2,8.52211915 Z M11.372,5.07111915 L1.372,1.07111915 C1.063,0.949119155 0.715,0.985119155 0.439,1.17111915 C0.165,1.35811915 0,1.66811915 0,2.00011915 L0,10.0001192 C0,10.3321192 0.165,10.6411192 0.439,10.8281192 C0.607,10.9421192 0.803,11.0001192 1,11.0001192 C1.125,11.0001192 1.251,10.9761192 1.372,10.9281192 L11.372,6.92811915 C11.751,6.77611915 12,6.40911915 12,6.00011915 C12,5.59011915 11.751,5.22311915 11.372,5.07111915 Z" id="Fill-1" fill="#000000"></path>
    </g>
</svg>