<?xml version="1.0" encoding="UTF-8"?>
<svg width="12px" height="12px" viewBox="0 0 12 12" version="1.1" xmlns="http://www.w3.org/2000/svg" xmlns:xlink="http://www.w3.org/1999/xlink">
    <!-- Generator: Sketch 51.3 (57544) - http://www.bohemiancoding.com/sketch -->
    <title>book</title>
    <desc>Created with Sketch.</desc>
    <defs></defs>
    <g id="book" stroke="none" stroke-width="1" fill="none" fill-rule="evenodd">
        <path d="M3.5,3 C2.673,3 2,3.673 2,4.5 L2,6.838 C2.91,6.404 4.09,6.404 5,6.838 L5,4.5 C5,4.103 4.841,3.715 4.563,3.437 C4.285,3.159 3.897,3 3.5,3 M8.5,6.5 C9.037,6.5 9.545,6.621 10,6.838 L10,4.5 C10,4.103 9.841,3.715 9.563,3.437 C9.285,3.159 8.897,3 8.5,3 C7.673,3 7,3.673 7,4.5 L7,6.838 C7.455,6.621 7.963,6.5 8.5,6.5 M11,11 C10.448,11 10,10.553 10,10 C10,9.173 9.327,8.5 8.5,8.5 C7.673,8.5 7,9.173 7,10 C7,10.553 6.552,11 6,11 C5.448,11 5,10.553 5,10 C5,9.173 4.327,8.5 3.5,8.5 C2.673,8.5 2,9.173 2,10 C2,10.553 1.552,11 1,11 C0.448,11 0,10.553 0,10 L0,4.5 C0,2.57 1.57,1 3.5,1 C4.437,1 5.317,1.363 5.977,2.023 C5.986,2.032 5.995,2.041 6.003,2.05 C6.639,1.402 7.523,1 8.5,1 C9.437,1 10.317,1.363 10.977,2.023 C11.627,2.673 12,3.575 12,4.5 L12,10 C12,10.553 11.552,11 11,11" id="Fill-1" fill="#000000"></path>
    </g>
</svg>