<?xml version="1.0" encoding="UTF-8"?>
<svg width="12px" height="12px" viewBox="0 0 12 12" version="1.1" xmlns="http://www.w3.org/2000/svg" xmlns:xlink="http://www.w3.org/1999/xlink">
    <!-- Generator: Sketch 51.3 (57544) - http://www.bohemiancoding.com/sketch -->
    <title>alert</title>
    <desc>Created with Sketch.</desc>
    <defs></defs>
    <g id="alert" stroke="none" stroke-width="1" fill="none" fill-rule="evenodd">
        <path d="M7.0004095,9.99255573 C7.0004095,9.43850111 6.5534095,8.98883359 6.0004095,8.98883359 C5.4474095,8.98883359 5.0004095,9.43850111 5.0004095,9.99255573 L2.6184095,9.99255573 L6.0004095,3.20237548 L9.3824095,9.99255573 L7.0004095,9.99255573 Z M11.8954095,10.5476141 L6.8954095,0.510392706 C6.5554095,-0.170130902 5.4454095,-0.170130902 5.1054095,0.510392706 L0.105409497,10.5476141 C-0.0495905031,10.8577642 -0.0325905031,11.2281377 0.149409497,11.5242357 C0.332409497,11.81933 0.653409497,12 1.0004095,12 L11.0004095,12 C11.3474095,12 11.6684095,11.81933 11.8514095,11.5242357 C12.0334095,11.2281377 12.0504095,10.8577642 11.8954095,10.5476141 Z M5.0001095,5.97766718 L5.0001095,6.98138932 C5.0001095,7.53544394 5.4471095,7.98511145 6.0001095,7.98511145 C6.5531095,7.98511145 7.0001095,7.53544394 7.0001095,6.98138932 L7.0001095,5.97766718 C7.0001095,5.42361256 6.5531095,4.97394505 6.0001095,4.97394505 C5.4471095,4.97394505 5.0001095,5.42361256 5.0001095,5.97766718" id="Fill-1" fill="#000000"></path>
    </g>
</svg>