<svg width="24" height="24" viewBox="0 0 24 24" xmlns="http://www.w3.org/2000/svg">
  <g fill-rule="evenodd">
    <path d="M11.69 5.204l-3.787 4.11H4.275c-.78 0-1.036.46-1.036.895v3.52c0 .435.253.984 1.033.984H7.92l3.786 4.176c.165.093.35.144.533.144a.964.964 0 0 0 .5-.137c.33-.185.5-.526.5-.897V6.048c0-.37-.17-.713-.5-.898-.33-.187-.72-.13-1.05.053zm4.95 10.156a4.393 4.393 0 0 0 0-6.19.708.708 0 0 0-1.005 1 2.978 2.978 0 0 1 0 4.192.707.707 0 1 0 1.003.998z"/>
    <path d="M20.754 12.265a6.186 6.186 0 0 0-1.815-4.39.707.707 0 1 0-1.006.997 4.777 4.777 0 0 1 1.403 3.393 4.778 4.778 0 0 1-1.4 3.394.708.708 0 1 0 1 .996 6.186 6.186 0 0 0 1.815-4.393z"/>
  </g>
</svg>
