<svg viewBox="0 0 24 24" xmlns="http://www.w3.org/2000/svg"><path fill-rule="evenodd" clip-rule="evenodd" d="M12 3.85717L10.0698 7.95468C9.64219 8.86245 8.8156 9.49163 7.85943 9.6372L3.54338 10.2943L6.6665 13.4837C7.3584 14.1903 7.67412 15.2084 7.51079 16.2061L6.77352 20.7097L10.6339 18.5834C11.4891 18.1123 12.5109 18.1123 13.3661 18.5834L17.2265 20.7097L16.4892 16.2061C16.3259 15.2084 16.6416 14.1903 17.3335 13.4837L20.4566 10.2943L16.1406 9.6372C15.1844 9.49163 14.3578 8.86244 13.9302 7.95468L12 3.85717ZM12.7521 0.489852C12.4445 -0.163284 11.5555 -0.163284 11.2479 0.489852L8.18943 6.98241C8.06726 7.24177 7.83109 7.42154 7.5579 7.46313L0.719066 8.50426C0.0310963 8.60899 -0.243607 9.49476 0.254213 10.0032L5.20284 15.0569C5.40052 15.2588 5.49073 15.5497 5.44406 15.8347L4.27585 22.9707C4.15833 23.6886 4.87751 24.236 5.49285 23.8971L11.6097 20.5279C11.854 20.3934 12.146 20.3934 12.3903 20.5279L18.5071 23.8971C19.1225 24.236 19.8417 23.6886 19.7241 22.9707L18.5559 15.8347C18.5093 15.5497 18.5995 15.2588 18.7972 15.0569L23.7458 10.0032C24.2436 9.49476 23.9689 8.60899 23.2809 8.50426L16.4421 7.46313C16.1689 7.42154 15.9327 7.24177 15.8106 6.98241L12.7521 0.489852Z"/></svg>