<svg viewBox="0 0 12 12" xmlns="http://www.w3.org/2000/svg">
  <path fill-rule="evenodd" clip-rule="evenodd" d="M2 0H10C10.2652 0 10.5196 0.105357 10.7071 0.292893C10.8946 0.48043 11 0.734784 11 1V11C11 11.2652 10.8946 11.5196 10.7071 11.7071C10.5196 11.8946 10.2652 12 10 12H2C1.73478 12 1.48043 11.8946 1.29289 11.7071C1.10536 11.5196 1 11.2652 1 11V1C1 0.734784 1.10536 0.48043 1.29289 0.292893C1.48043 0.105357 1.73478 0 2 0ZM3 5V10H9V2H3V3H6C6.26522 3 6.51957 3.10536 6.70711 3.29289C6.89464 3.48043 7 3.73478 7 4C7 4.26522 6.89464 4.51957 6.70711 4.70711C6.51957 4.89464 6.26522 5 6 5H3ZM4.29289 7.29289C4.48043 7.10536 4.73478 7 5 7H7C7.26522 7 7.51957 7.10536 7.70711 7.29289C7.89464 7.48043 8 7.73478 8 8C8 8.26522 7.89464 8.51957 7.70711 8.70711C7.51957 8.89464 7.26522 9 7 9H5C4.73478 9 4.48043 8.89464 4.29289 8.70711C4.10536 8.51957 4 8.26522 4 8C4 7.73478 4.10536 7.48043 4.29289 7.29289Z"/>
</svg>
