<?xml version="1.0" encoding="UTF-8"?>
<svg width="24px" height="24px" viewBox="0 0 24 24" version="1.1" xmlns="http://www.w3.org/2000/svg" xmlns:xlink="http://www.w3.org/1999/xlink">
    <!-- Generator: Sketch 51.3 (57544) - http://www.bohemiancoding.com/sketch -->
    <title>alert</title>
    <desc>Created with Sketch.</desc>
    <defs>
        <path d="M11.0002095,9.9555 L11.0002095,13.9555 C11.0002095,14.5085 11.4472095,14.9555 12.0002095,14.9555 C12.5532095,14.9555 13.0002095,14.5085 13.0002095,13.9555 L13.0002095,9.9555 C13.0002095,9.4025 12.5532095,8.9555 12.0002095,8.9555 C11.4472095,8.9555 11.0002095,9.4025 11.0002095,9.9555 M2.6184095,21.9555 L12.0004095,3.1915 L21.3824095,21.9555 L2.6184095,21.9555 Z M23.8944095,22.5085 L12.8944095,0.5085 C12.5554095,-0.1695 11.4454095,-0.1695 11.1054095,0.5085 L0.105409497,22.5085 C-0.0495905031,22.8185 -0.0325905031,23.1855 0.149409497,23.4805 C0.332409497,23.7755 0.653409497,23.9555 1.0004095,23.9555 L23.0004095,23.9555 C23.3474095,23.9555 23.6684095,23.7755 23.8504095,23.4805 C24.0334095,23.1855 24.0504095,22.8185 23.8944095,22.5085 Z M12.0061095,16.9457 C11.4531095,16.9457 11.0001095,17.3987 11.0001095,17.9507 C11.0001095,18.5027 11.4531095,18.9557 12.0061095,18.9557 C12.5591095,18.9557 13.0111095,18.5027 13.0111095,17.9507 C13.0111095,17.3987 12.5591095,16.9457 12.0061095,16.9457" id="path-1"></path>
    </defs>
    <g id="alert" stroke="none" stroke-width="1" fill="none" fill-rule="evenodd">
        <mask id="mask-2" fill="white">
            <use xlink:href="#path-1"></use>
        </mask>
        <use id="icons/24px/Alert" fill="#000000" xlink:href="#path-1"></use>
    </g>
</svg>