<?xml version="1.0" encoding="UTF-8"?>
<svg width="24px" height="24px" viewBox="0 0 24 24" version="1.1" xmlns="http://www.w3.org/2000/svg" xmlns:xlink="http://www.w3.org/1999/xlink">
    <!-- Generator: Sketch 51.3 (57544) - http://www.bohemiancoding.com/sketch -->
    <title>gripper</title>
    <desc>Created with Sketch.</desc>
    <defs>
        <path d="M2,9 L22,9 C22.553,9 23,8.553 23,8 C23,7.447 22.553,7 22,7 L2,7 C1.447,7 1,7.447 1,8 C1,8.553 1.447,9 2,9 M22,15 L2,15 C1.447,15 1,15.447 1,16 C1,16.553 1.447,17 2,17 L22,17 C22.553,17 23,16.553 23,16 C23,15.447 22.553,15 22,15" id="path-1"></path>
    </defs>
    <g id="gripper" stroke="none" stroke-width="1" fill="none" fill-rule="evenodd">
        <mask id="mask-2" fill="white">
            <use xlink:href="#path-1"></use>
        </mask>
        <use id="icons/24px/Icon-Gripper" fill="#000000" xlink:href="#path-1"></use>
    </g>
</svg>