<?xml version="1.0" encoding="UTF-8"?>
<svg width="24px" height="24px" viewBox="0 0 24 24" version="1.1" xmlns="http://www.w3.org/2000/svg" xmlns:xlink="http://www.w3.org/1999/xlink">
    <!-- Generator: Sketch 51.3 (57544) - http://www.bohemiancoding.com/sketch -->
    <title>text</title>
    <desc>Created with Sketch.</desc>
    <defs>
        <path d="M21,0 L3,0 C2.448,0 2,0.447 2,1 L2,4 C2,4.553 2.448,5 3,5 C3.552,5 4,4.553 4,4 L4,2 L11,2 L11,22 L8,22 C7.448,22 7,22.447 7,23 C7,23.553 7.448,24 8,24 L16,24 C16.552,24 17,23.553 17,23 C17,22.447 16.552,22 16,22 L13,22 L13,2 L20,2 L20,4 C20,4.553 20.448,5 21,5 C21.552,5 22,4.553 22,4 L22,1 C22,0.447 21.552,0 21,0" id="path-1"></path>
    </defs>
    <g id="text" stroke="none" stroke-width="1" fill="none" fill-rule="evenodd">
        <mask id="mask-2" fill="white">
            <use xlink:href="#path-1"></use>
        </mask>
        <use id="icons/24px/Text" fill="#000000" xlink:href="#path-1"></use>
    </g>
</svg>