<svg width="254" height="26" viewBox="0 0 254 26" xmlns="http://www.w3.org/2000/svg"><defs><linearGradient x1="0%" y1="100%" x2="63.848%" y2="32.54%" id="a"><stop stop-color="#94D11F" offset="0%"/><stop stop-color="#09D3BF" offset="100%"/></linearGradient></defs><g fill="none" fill-rule="evenodd"><path d="M232.073 9.342v10.496h2.358v-1.89l.814-.772 1.606 2.662h3.058l-2.948-4.234 2.828-2.765h-3.372l-1.356 1.598-.63.786V9.342h-2.357zM223.57 12.838l-.888 4.78-1.162-4.78h-2.715l-1.143 4.78-.893-4.78h-2.46l1.817 7h3.16l.885-3.633.885 3.632h3.16l1.822-7h-2.47zM250.655 17.215c-.3.392-.772.654-1.387.654-.705 0-1.268-.46-1.268-1.545s.563-1.543 1.268-1.543c.615 0 1.086.262 1.387.654v1.78zm2.353-2.34l.13-2.037h-2.15l-.164.767c-.496-.522-1.112-.955-2.196-.955-1.963 0-3.035 1.27-3.035 3.675 0 2.407 1.072 3.675 3.035 3.675 1.084 0 1.7-.43 2.196-.954l.17.792h2.145l-.132-2.06v-2.904zM228.555 9.38c-.745 0-1.348.605-1.348 1.35 0 .744.603 1.347 1.348 1.347.745 0 1.348-.603 1.348-1.348 0-.745-.603-1.35-1.348-1.35M230.585 14.314V12.84l-1.02-.002h-2.358v7h3.378V18.37h-1.06v-4.057h1.06zM241.718 10.73c0 .743.604 1.347 1.348 1.347.745 0 1.35-.604 1.35-1.348 0-.746-.605-1.35-1.35-1.35-.744 0-1.348.604-1.348 1.35M242.094 14.314v4.056h-1.06v1.468h3.38V12.84h-3.378v1.474h1.058z" fill="#0B2343"/><path d="M147.733 16.13c.176 0 .346-.013.51-.04.163-.026.306-.076.43-.15.124-.076.224-.183.3-.32.074-.137.112-.316.112-.538 0-.222-.038-.402-.113-.54-.075-.136-.175-.242-.3-.318-.123-.075-.266-.125-.43-.15-.163-.028-.333-.04-.51-.04h-1.194v2.096h1.195zm.42-3.292c.44 0 .81.064 1.118.192.308.127.558.295.75.504.193.21.333.447.422.715.088.267.132.545.132.832 0 .28-.044.556-.132.828-.09.27-.23.51-.422.72-.192.208-.442.377-.75.504-.306.127-.678.19-1.116.19h-1.616v2.51H145v-6.995l3.154-.002zM152.97 17.223c.067.278.176.528.327.75.15.22.346.398.588.532.24.134.535.2.88.2.347.002.64-.066.883-.2.242-.134.437-.312.588-.534.15-.22.26-.47.328-.748.068-.277.103-.563.103-.857 0-.307-.035-.604-.103-.892-.07-.287-.178-.543-.328-.768-.15-.226-.346-.405-.588-.54-.242-.133-.536-.2-.882-.2s-.64.067-.88.2c-.243.135-.44.314-.59.54-.15.225-.26.48-.327.768-.07.288-.104.585-.104.892 0 .294.034.58.103.857m-1.407-2.312c.157-.447.382-.837.676-1.17.293-.333.654-.595 1.082-.784.427-.19.91-.284 1.444-.284.542 0 1.026.095 1.45.284.425.19.784.45 1.078.783.294.333.52.723.676 1.17.156.448.235.933.235 1.455 0 .51-.08.984-.235 1.425-.157.44-.382.825-.676 1.15-.294.328-.653.584-1.078.77-.424.186-.908.28-1.45.28-.535 0-1.017-.094-1.444-.28-.428-.186-.79-.442-1.083-.77-.295-.325-.52-.71-.677-1.15-.157-.44-.235-.916-.235-1.425 0-.522.078-1.007.235-1.455M164.484 19.833l-1.185-4.76h-.02l-1.167 4.76h-1.557l-1.852-6.994h1.538l1.107 4.76h.02l1.214-4.76h1.44l1.195 4.818h.018l1.146-4.82h1.51l-1.882 6.995h-1.528zM173.927 12.84v1.292h-3.693v1.5h3.39v1.194h-3.39v1.714h3.77v1.293h-5.308V12.84h5.23zM178.364 16.003c.353 0 .617-.078.794-.235.176-.157.264-.41.264-.764 0-.34-.088-.586-.264-.74-.177-.153-.44-.23-.794-.23h-1.685v1.97h1.684zm.55-3.164c.312 0 .595.05.846.15.25.102.467.24.646.417.18.177.317.38.412.612.094.23.142.48.142.75 0 .41-.087.766-.26 1.067-.173.3-.455.53-.847.685v.02c.19.052.346.132.47.24.124.108.225.235.304.382.078.147.135.308.17.485.037.175.06.35.075.528l.02.392c.006.15.017.303.034.46.016.157.042.305.078.446.036.14.09.26.16.357h-1.536c-.085-.222-.138-.486-.157-.793-.02-.307-.048-.6-.087-.882-.052-.366-.163-.633-.333-.803-.17-.17-.448-.255-.833-.255h-1.538v2.733h-1.54V12.84h3.773zM187.542 12.84v1.292h-3.693v1.5h3.39v1.194h-3.39v1.714h3.77v1.293h-5.31V12.84h5.232zM191.667 18.54c.222 0 .437-.036.646-.108.21-.072.395-.19.56-.357.162-.167.293-.384.39-.652.1-.268.147-.594.147-.98 0-.352-.034-.67-.102-.955-.07-.284-.182-.527-.338-.73-.157-.202-.365-.357-.622-.464-.258-.11-.577-.162-.956-.162h-1.097v4.408h1.372zm.108-5.7c.45 0 .87.07 1.26.214.387.144.723.36 1.007.647.284.288.506.647.667 1.078.158.43.238.938.238 1.52 0 .508-.065.978-.195 1.41-.13.43-.33.802-.593 1.116-.265.313-.595.56-.99.74-.395.18-.86.27-1.395.27h-3.018v-6.995h3.018zM202.12 18.638c.15 0 .293-.014.43-.044s.258-.078.363-.147c.104-.068.187-.162.25-.28.06-.116.092-.267.092-.45 0-.358-.1-.615-.303-.768-.203-.155-.47-.232-.803-.232h-1.677v1.92h1.646zm-.09-2.968c.275 0 .5-.065.677-.196.176-.13.264-.342.264-.637 0-.163-.028-.297-.087-.4-.058-.106-.137-.187-.235-.246-.098-.058-.21-.098-.338-.12-.127-.024-.26-.036-.397-.036h-1.44v1.636h1.558zm.197-2.83c.333 0 .637.03.91.087.275.06.51.155.706.29.196.133.348.31.456.533.106.222.16.497.16.823 0 .353-.08.647-.24.88-.16.237-.396.43-.71.58.43.124.753.34.965.65.212.31.318.685.318 1.123 0 .352-.068.657-.205.916-.138.258-.322.468-.554.63-.232.165-.496.285-.793.364-.296.078-.602.117-.915.117h-3.39V12.84h3.292zM205.175 12.84h1.724l1.635 2.762 1.626-2.763h1.715l-2.596 4.31v2.683h-1.538V17.11l-2.567-4.27z" fill="#7E90A2"/><g><g fill="#39414D"><path d="M129.71 10.107c-1.16-1.222-2.797-1.868-4.736-1.868-1.972 0-3.59.887-4.583 2.507-.993-1.62-2.61-2.508-4.583-2.508-1.938 0-3.574.645-4.735 1.867-1.08 1.14-1.676 2.736-1.676 4.496v7.29h3.654v-7.29c0-1.97 1.005-3.1 2.757-3.1 1.752 0 2.756 1.13 2.756 3.1v7.29h3.655v-7.29c0-1.97 1.005-3.1 2.756-3.1 1.753 0 2.758 1.13 2.758 3.1v7.29h3.654v-7.29c0-1.76-.596-3.357-1.677-4.496M42.565 1.72c-.295-.044-.6-.09-.917-.09-4.383 0-7.327 2.782-7.327 6.92v13.342h3.654v-9.806h3.834V8.82h-3.834v-.297c0-2.336 1.293-3.52 3.84-3.52.25 0 .488.04.74.082l.292.047.185.027V1.78l-.138-.018c-.11-.014-.22-.03-.327-.045M54.2 15.132c0 2.373-1.223 3.627-3.536 3.627-3.172 0-3.646-2.274-3.646-3.628 0-2.306 1.33-3.628 3.646-3.628 2.262 0 3.418 1.19 3.535 3.628m3.668.678c-.004-.254-.007-.484-.016-.684-.17-4.248-2.925-6.887-7.188-6.887-2.2 0-4.06.697-5.384 2.016-1.236 1.232-1.916 2.954-1.916 4.85 0 3.943 2.97 6.918 6.91 6.918 1.874 0 3.395-.673 4.422-1.952.15.6.362 1.18.63 1.73l.042.09h3.684l-.102-.214c-1.028-2.18-1.06-4.398-1.082-5.868M67.768 8.24c-2.1 0-3.877.695-5.137 2.01-1.18 1.235-1.83 2.968-1.83 4.882v6.76h3.655v-6.76c0-2.306 1.208-3.628 3.313-3.628 2.105 0 3.312 1.322 3.312 3.628v6.76h3.654v-6.76c0-1.914-.65-3.647-1.83-4.88-1.26-1.317-3.035-2.013-5.136-2.013M87.634 15.132c0 2.373-1.222 3.627-3.535 3.627-3.173 0-3.647-2.274-3.647-3.628 0-2.306 1.33-3.628 3.646-3.628 2.26 0 3.417 1.19 3.534 3.628m3.14 0V3.55H87.25v5.456c-1.122-.478-1.946-.767-3.342-.767-4.31 0-7.205 2.76-7.205 6.865 0 3.944 2.992 6.92 6.96 6.92 2.02 0 3.477-.575 4.444-1.755.154.627.38 1.3.65 1.927l.04.095h3.687l-.1-.213c-1.18-2.557-1.61-5.556-1.61-6.948M103.926 15.132c0 2.305-1.308 3.627-3.59 3.627s-3.59-1.323-3.59-3.628c0-2.306 1.308-3.628 3.59-3.628s3.59 1.322 3.59 3.628m-3.59-6.893c-4.265 0-7.245 2.833-7.245 6.892 0 4.058 2.98 6.892 7.246 6.892 4.265 0 7.245-2.834 7.245-6.892 0-4.06-2.98-6.893-7.244-6.893"/></g><path d="M11.48 18.903c0 .214-.052.518-.296.75l-.913.785-8.303-7.804V9.572l9.13 8.582c.143.135.383.413.383.75zm12.646-9.107v2.84l-10.33 9.968c-.172.162-.343.235-.558.235-.22 0-.415-.08-.58-.237l-.945-.854L24.126 9.795zm-7.87 5.06l-2.863 2.724-9.07-8.63c-.457-.434-.707-1.013-.707-1.633 0-.618.25-1.197.704-1.63L7.185 2.96l9.07 8.632c.947.9.947 2.363 0 3.263zm-1.69-7.518l2.985-2.84c.458-.434 1.067-.673 1.715-.673.65 0 1.258.24 1.715.675l3.08 2.93-4.698 4.47-1.715-1.63-3.08-2.932zm11.47-.452L19.29.356 19.15.22l-.14.134-5.892 5.66L7.852.977 7.845.97 7.84.967l-.66-.53-.136-.11-.128.12L.06 6.874 0 6.93v6.48l.058.055L12.913 25.69l.14.134.14-.133 12.843-12.225.057-.055V6.94l-.056-.054z" fill="url(#a)" transform="translate(.48 .067)"/></g></g></svg>