<svg width="184px" height="44px" viewBox="0 0 184 44" version="1.1" xmlns="http://www.w3.org/2000/svg" xmlns:xlink="http://www.w3.org/1999/xlink">
    <defs>
        <linearGradient x1="33.0157659%" y1="84.7938692%" x2="84.2245321%" y2="35.3195962%" id="linearGradient-1">
            <stop stop-color="#ADED00" offset="0%"></stop>
            <stop stop-color="#00D6D6" offset="100%"></stop>
        </linearGradient>
    </defs>
    <g id="Footer" stroke="none" stroke-width="1" fill="none" fill-rule="evenodd">
        <g id="Mobile-Footer-Oct-4" transform="translate(-67.000000, -30.000000)">
            <g id="Fandom-logo-white" transform="translate(67.000000, 30.000000)">
                <g id="Page-1">
                    <path d="M48.2829597,1.88443046 C43.1424727,1.88443046 39.6885913,5.35022081 39.6885913,10.5083334 L39.6885913,27.1377948 L43.974266,27.1377948 L43.974266,14.9153744 L48.4708442,14.9153744 L48.4708442,10.8454978 L43.974266,10.8454978 L43.974266,10.4754137 C43.974266,7.56275756 45.4897848,6.08598573 48.4785172,6.08598573 C48.7707129,6.08598573 49.0500511,6.1360991 49.3455648,6.18956734 C49.4581711,6.20990624 49.5720217,6.23045482 49.6881534,6.24848725 L49.9044487,6.28203595 L49.9044487,2.07272254 L49.7414495,2.05091588 C49.6116309,2.03330281 49.4840934,2.01359295 49.3578001,1.99388309 C49.0123083,1.93999549 48.6549959,1.88443046 48.2829597,1.88443046 Z" id="Fill-1" fill="#FFFFFF"></path>
                    <path d="M63.0031097,18.7116824 C63.0031097,21.6696293 61.5695053,23.2329987 58.8574152,23.2329987 C55.1368457,23.2329987 54.5812799,20.4002304 54.5812799,18.7116824 C54.5812799,15.838446 56.1399333,14.1903661 58.8574152,14.1903661 C61.5101952,14.1903661 62.8662402,15.6721702 63.0031097,18.7116824 M67.3068264,19.5579483 C67.3024714,19.2409131 67.2983239,18.9544911 67.2887845,18.7043436 C67.087213,13.4097298 63.8566778,10.1209088 58.8574152,10.1209088 C56.2774249,10.1209088 54.0937341,10.9900298 52.5427537,12.6339161 C51.0935959,14.1702369 50.2956052,16.3169343 50.2956052,18.6787627 C50.2956052,23.595115 53.7801785,27.302456 58.4011835,27.302456 C60.5979392,27.302456 62.3815977,26.4633191 63.5866716,24.8695462 C63.7627355,25.6160048 64.0099302,26.3400277 64.3239005,27.0273566 L64.3742934,27.1378577 L68.6946002,27.1378577 L68.5757726,26.8700971 C67.3700767,24.1551686 67.3319191,21.388659 67.3068264,19.5579483" id="Fill-3" fill="#FFFFFF"></path>
                    <path d="M78.9175085,10.1208459 C76.4536499,10.1208459 74.3705374,10.9880798 72.8931762,12.6290306 C71.5089277,14.1663997 70.746606,16.3265166 70.746606,18.7116195 L70.746606,27.1377948 L75.0322807,27.1377948 L75.0322807,18.7116195 C75.0322807,15.838383 76.4484654,14.1905129 78.9175085,14.1905129 C81.3865515,14.1905129 82.8025288,15.838383 82.8025288,18.7116195 L82.8025288,27.1377948 L87.0882035,27.1377948 L87.0882035,18.7116195 C87.0882035,16.3265166 86.3260892,14.1663997 84.9418407,12.6290306 C83.4644795,10.9880798 81.381367,10.1208459 78.9175085,10.1208459" id="Fill-5" fill="#FFFFFF"></path>
                    <path d="M102.217262,18.7116824 C102.217262,21.6696293 100.783657,23.2329987 98.071567,23.2329987 C94.3509975,23.2329987 93.7954317,20.4002304 93.7954317,18.7116824 C93.7954317,15.838446 95.3540851,14.1903661 98.071567,14.1903661 C100.724554,14.1903661 102.080599,15.6721702 102.217262,18.7116824 M105.900918,18.7116824 L105.900918,4.27609629 L101.768495,4.27609629 L101.768495,11.0768371 C100.45123,10.481138 99.4852632,10.1209088 97.847184,10.1209088 C92.7931736,10.1209088 89.3975655,13.5600699 89.3975655,18.6787627 C89.3975655,23.595115 92.906402,27.302456 97.5593433,27.302456 C99.9284301,27.302456 101.638469,26.5866106 102.771998,25.1167582 C102.953246,25.8978139 103.21869,26.7356926 103.534527,27.5184257 L103.582224,27.6364752 L107.906264,27.6364752 L107.790339,27.3701824 C106.404224,24.1847334 105.900918,20.4469889 105.900918,18.7116824" id="Fill-7" fill="#FFFFFF"></path>
                    <path d="M121.326278,18.7116824 C121.326278,21.5849188 119.791473,23.2329987 117.115259,23.2329987 C114.439253,23.2329987 112.904448,21.5849188 112.904448,18.7116824 C112.904448,15.838446 114.439253,14.1903661 117.115259,14.1903661 C119.791473,14.1903661 121.326278,15.838446 121.326278,18.7116824 M117.115259,10.1209088 C112.112678,10.1209088 108.618773,13.6535869 108.618773,18.7116824 C108.618773,23.7697779 112.112678,27.302456 117.115259,27.302456 C122.118254,27.302456 125.61216,23.7697779 125.61216,18.7116824 C125.61216,13.6535869 122.118254,10.1209088 117.115259,10.1209088" id="Fill-9" fill="#FFFFFF"></path>
                    <path d="M151.565419,12.4485176 C150.205433,10.925826 148.285527,10.1208669 146.013079,10.1208669 C143.699569,10.1208669 141.80289,11.2273449 140.636803,13.2461379 C139.470509,11.2273449 137.573829,10.1208669 135.260527,10.1208669 C132.988078,10.1208669 131.067965,10.925826 129.70798,12.4485176 C128.439656,13.868676 127.741206,15.8589526 127.741206,18.0526182 L127.741206,27.1378157 L132.027089,27.1378157 L132.027089,18.0526182 C132.027089,15.5981115 133.205618,14.1905338 135.260527,14.1905338 C137.315436,14.1905338 138.493758,15.5981115 138.493758,18.0526182 L138.493758,27.1378157 L142.77964,27.1378157 L142.77964,18.0526182 C142.77964,15.5981115 143.95817,14.1905338 146.013079,14.1905338 C148.06778,14.1905338 149.246517,15.5981115 149.246517,18.0526182 L149.246517,27.1378157 L153.532192,27.1378157 L153.532192,18.0526182 C153.532192,15.8589526 152.833743,13.868676 151.565419,12.4485176" id="Fill-11" fill="#FFFFFF"></path>
                    <path d="M13.4638745,23.4959576 C13.4638745,23.7626698 13.4039423,24.1415604 13.1181753,24.4307083 L12.0472751,25.4090722 L2.30672823,15.6826751 L2.30672823,11.8663009 L13.0169749,22.5622554 C13.1830847,22.7306279 13.4638745,23.0770182 13.4638745,23.4959576 L13.4638745,23.4959576 Z M28.2967967,12.1449648 L28.2967967,15.6847719 L16.1792827,28.1089038 C15.9795776,28.3106154 15.7780062,28.4011969 15.5268714,28.4011969 C15.2680636,28.4011969 15.0393256,28.3024379 14.8466714,28.1076457 L13.7382357,27.0428939 L28.2967967,12.1449648 Z M19.0659851,18.4512816 L15.7074976,21.8468293 L5.06879644,11.0896485 C4.53459059,10.5495144 4.24032114,9.82716898 4.24032114,9.05575856 C4.24032114,8.28518687 4.53417584,7.56326079 5.06755217,7.02312672 L8.42707654,3.62632088 L19.0657777,14.3828727 C20.1750429,15.5046574 20.1750429,17.3297066 19.0659851,18.4512816 L19.0659851,18.4512816 Z M17.0846952,9.08154913 L20.5844072,5.54300003 C21.1206868,5.00160789 21.8348968,4.70344382 22.5951447,4.70344382 C23.3558074,4.70344382 24.0700174,5.00202725 24.6065044,5.54446779 L28.2186152,9.19687278 L22.7087879,14.7680537 L20.6972208,12.7341638 L17.0846952,9.08154913 Z M30.5373092,8.51876969 L22.622726,0.378177717 L22.4588973,0.209595501 L22.2944465,0.377548679 L15.3850248,7.4309531 L9.20889177,1.15273332 L9.20184092,1.14560422 L9.19416793,1.13910416 L8.42251422,0.479452854 L8.26179623,0.342112865 L8.11186191,0.491404578 L0.068704347,8.50304374 L6.22134139e-05,8.57160889 L6.22134139e-05,8.66931948 L6.22134139e-05,16.5534736 L6.22134139e-05,16.6501358 L0.0676674568,16.7184912 L15.1452958,31.95673 L15.3085023,32.121538 L15.4715014,31.95673 L30.5360649,16.7180719 L30.6034628,16.6497164 L30.6034628,16.5530542 L30.6034628,8.68210992 L30.6034628,8.58670581 L30.5373092,8.51876969 Z" id="Fandom-Heart" fill="url(#linearGradient-1)"></path>
                </g>
                <g id="Page-1" transform="translate(89.206136, 33.583646)" fill="#656E78">
                    <g id="Group-16" transform="translate(60.182743, 0.101077)">
                        <polygon id="Fill-4" points="4.07578774 3.37548331 3.07746224 7.78927155 2.29839074 3.37548331 0.152816964 3.37548331 1.73692115 9.83677402 4.49470683 9.83677402 5.26622598 6.48268439 6.0389252 9.83677402 8.7974189 9.83677402 10.3871873 3.37548331 8.2333532 3.37548331 7.45758584 7.78927155 6.44321162 3.37548331"></polygon>
                        <path d="M31.8672814,7.41681682 C31.6029494,7.77703946 31.1913466,8.01943459 30.6548942,8.01943459 C30.0403221,8.01943459 29.5503638,7.59705296 29.5503638,6.59601846 C29.5503638,5.59198836 30.0403221,5.16785928 30.6548942,5.16785928 C31.1913466,5.16785928 31.6029494,5.41100332 31.8672814,5.77322303 L31.8672814,7.41681682 Z M33.9189229,5.25498174 L34.0331521,3.37548331 L32.1552145,3.37548331 L32.012192,4.08394613 C31.5810004,3.60290037 31.0428958,3.20273621 30.0981448,3.20273621 C28.3854147,3.20273621 27.4496321,4.37477036 27.4496321,6.59601846 C27.4496321,8.81452059 28.3854147,9.98530657 30.0981448,9.98530657 C31.0428958,9.98530657 31.5810004,9.58788838 32.012192,9.10609373 L32.1587547,9.83677402 L34.0331521,9.83677402 L33.9189229,7.93405958 L33.9189229,5.25498174 Z" id="Fill-6"></path>
                        <polygon id="Fill-1" points="15.6527053 9.83679898 15.6527053 0.148482622 17.709775 0.148482622 17.709775 5.57903233 18.2606241 4.853844 19.44233 3.37550827 22.383732 3.37550827 19.9155316 5.93001849 22.4892288 9.83679898 19.8206552 9.83679898 18.4189874 7.38064478 17.709775 8.09185357 17.709775 9.83679898"></polygon>
                        <path d="M12.5821346,0.183830873 C11.932397,0.183830873 11.405621,0.742013696 11.405621,1.42825904 C11.405621,2.11625182 11.932397,2.67443464 12.5821346,2.67443464 C13.2314002,2.67443464 13.7581762,2.11625182 13.7581762,1.42825904 C13.7581762,0.742013696 13.2314002,0.183830873 12.5821346,0.183830873" id="Fill-8"></path>
                        <polygon id="Fill-10" points="14.3528997 4.73868759 14.3528997 3.37543338 13.4631391 3.37543338 11.4055974 3.37543338 11.4055974 5.57720999 11.4055974 7.63694455 11.4055974 9.78654755 11.4055974 9.83672409 14.3528997 9.83672409 14.3528997 8.48095892 13.4298616 8.48095892 13.4298616 4.73868759"></polygon>
                        <path d="M24.0668427,1.42818415 C24.0668427,2.11642656 24.5945628,2.67435975 25.2450084,2.67435975 C25.894746,2.67435975 26.421522,2.11642656 26.421522,1.42818415 C26.421522,0.741938806 25.894746,0.183755982 25.2450084,0.183755982 C24.5945628,0.183755982 24.0668427,0.741938806 24.0668427,1.42818415" id="Fill-12"></path>
                        <polygon id="Fill-14" points="24.3978242 4.73868759 24.3978242 8.48095892 23.4743141 8.48095892 23.4743141 9.83672409 26.4213804 9.83672409 26.4213804 9.78654755 26.4213804 7.63694455 26.4213804 5.57720999 26.4213804 3.37543338 24.3626586 3.37543338 23.4743141 3.37543338 23.4743141 4.73868759"></polygon>
                    </g>
                    <g id="Group-35" transform="translate(0.000000, 3.096691)">
                        <path d="M2.39220501,3.41020747 C2.54655605,3.41020747 2.69524282,3.39822502 2.83826534,3.37401047 C2.98081584,3.35004555 3.10660957,3.30311426 3.21517452,3.23321659 C3.32373946,3.16406782 3.41106344,3.06571181 3.47667443,2.93864784 C3.54252143,2.81183349 3.57532693,2.64532726 3.57532693,2.43987803 C3.57532693,2.23442881 3.54252143,2.06792257 3.47667443,1.94085859 C3.41106344,1.81404425 3.32373946,1.71593788 3.21517452,1.64628984 C3.10660957,1.57689144 2.98081584,1.52996015 2.83826534,1.5057456 C2.69524282,1.48153105 2.54655605,1.46954859 2.39220501,1.46954859 L1.34620535,1.46954859 L1.34620535,3.41020747 L2.39220501,3.41020747 Z M2.76085381,0.362918689 C3.14366326,0.362918689 3.46959411,0.422082074 3.73841036,0.539909575 C4.0069906,0.657737076 4.22577257,0.813509027 4.39428425,1.00697579 C4.56279593,1.20069219 4.68575753,1.42111949 4.76293305,1.66900658 C4.84010857,1.91689368 4.87881433,2.17376762 4.87881433,2.43987803 C4.87881433,2.69999722 4.84010857,2.95537335 4.76293305,3.20625606 C4.68575753,3.45713877 4.56279593,3.67931351 4.39428425,3.87278027 C4.22577257,4.06624704 4.0069906,4.22201899 3.73841036,4.33984649 C3.46959411,4.45767399 3.14366326,4.51683737 2.76085381,4.51683737 L1.34620535,4.51683737 L1.34620535,6.83843856 L0,6.83843856 L0,0.362918689 L2.76085381,0.362918689 Z" id="Fill-17"></path>
                        <path d="M6.88929555,4.42152691 C6.94924228,4.67840085 7.04506265,4.90981206 7.17652064,5.11526129 C7.30797863,5.32071051 7.47932244,5.48571894 7.69102408,5.60953767 C7.90225371,5.7333564 8.15974144,5.79526576 8.46254324,5.79526576 C8.76558105,5.79526576 9.02283277,5.7333564 9.23429841,5.60953767 C9.44576405,5.48571894 9.61734387,5.32071051 9.74880186,5.11526129 C9.88025985,4.90981206 9.9758442,4.67840085 10.0360269,4.42152691 C10.0959737,4.16465297 10.125947,3.89979073 10.125947,3.62793872 C10.125947,3.34360498 10.0959737,3.06875736 10.0360269,2.80264694 C9.9758442,2.53653652 9.88025985,2.29913408 9.74880186,2.09068924 C9.61734387,1.8822444 9.44576405,1.7159878 9.23429841,1.5916698 C9.02283277,1.46810071 8.76558105,1.40594171 8.46254324,1.40594171 C8.15974144,1.40594171 7.90225371,1.46810071 7.69102408,1.5916698 C7.47932244,1.7159878 7.30797863,1.8822444 7.17652064,2.09068924 C7.04506265,2.29913408 6.94924228,2.53653652 6.88929555,2.80264694 C6.82934882,3.06875736 6.79937545,3.34360498 6.79937545,3.62793872 C6.79937545,3.89979073 6.82934882,4.16465297 6.88929555,4.42152691 M5.65897148,2.28116039 C5.79609373,1.8670167 5.99339872,1.50554589 6.25041443,1.19724724 C6.50766616,0.888948584 6.82344855,0.647302353 7.19799762,0.472058908 C7.57231067,0.296565829 7.99382588,0.208944107 8.46254324,0.208944107 C8.93692486,0.208944107 9.36009214,0.296565829 9.73157307,0.472058908 C10.10329,0.647302353 10.4176563,0.888948584 10.674672,1.19724724 C10.9321598,1.50554589 11.1292288,1.8670167 11.266351,2.28116039 C11.4037093,2.69530409 11.4721524,3.14439662 11.4721524,3.62793872 C11.4721524,4.09949836 11.4037093,4.53935441 11.266351,4.94725724 C11.1292288,5.35565934 10.9321598,5.71088929 10.674672,6.01319671 C10.4176563,6.31550414 10.10329,6.55265695 9.73157307,6.72490478 C9.36009214,6.89740224 8.93692486,6.98352616 8.46254324,6.98352616 C7.99382588,6.98352616 7.57231067,6.89740224 7.19799762,6.72490478 C6.82344855,6.55265695 6.50766616,6.31550414 6.25041443,6.01319671 C5.99339872,5.71088929 5.79609373,5.35565934 5.65897148,4.94725724 C5.52161322,4.53935441 5.4531701,4.09949836 5.4531701,3.62793872 C5.4531701,3.14439662 5.52161322,2.69530409 5.65897148,2.28116039" id="Fill-19"></path>
                        <polygon id="Fill-21" points="16.8826281 6.83838864 15.8451249 2.43084126 15.8281321 2.43084126 14.8078576 6.83838864 13.4441875 6.83838864 11.8239736 0.362868762 13.169943 0.362868762 14.1390031 4.77066577 14.1562319 4.77066577 15.2192243 0.362868762 16.4797578 0.362868762 17.5255214 4.8250861 17.5427502 4.8250861 18.5460319 0.362868762 19.8665121 0.362868762 18.2203371 6.83838864"></polygon>
                        <polygon id="Fill-23" points="25.0623361 0.362943652 25.0623361 1.55994125 21.8299328 1.55994125 21.8299328 2.94765964 24.796352 2.94765964 24.796352 4.05403991 21.8299328 4.05403991 21.8299328 5.64121629 25.1307792 5.64121629 25.1307792 6.83846353 20.4834914 6.83846353 20.4834914 0.362943652"></polygon>
                        <path d="M28.8605988,3.29235501 C29.1693009,3.29235501 29.4008274,3.21971136 29.5549424,3.07467369 C29.7095295,2.92963603 29.786469,2.69398103 29.786469,2.36745905 C29.786469,2.05291954 29.7095295,1.82475357 29.5549424,1.68271152 C29.4008274,1.54066947 29.1693009,1.46952363 28.8605988,1.46952363 L27.3860036,1.46952363 L27.3860036,3.29235501 L28.8605988,3.29235501 Z M29.3406447,0.362893726 C29.6151252,0.362893726 29.8624644,0.409825018 30.0824265,0.503687604 C30.3023885,0.59755019 30.4909611,0.725862341 30.6483803,0.889123328 C30.8055634,1.05213468 30.9254569,1.24135766 31.0085327,1.45604336 C31.0913724,1.67047943 31.1326743,1.90164101 31.1326743,2.1495281 C31.1326743,2.53047041 31.0569149,2.85998799 30.905396,3.13808087 C30.7541131,3.41617374 30.5067738,3.62786383 30.1638502,3.77290149 L30.1638502,3.79112481 C30.3295297,3.83980355 30.466888,3.91369537 30.5754529,4.01329955 C30.6840179,4.11315337 30.7725219,4.23098087 30.841201,4.36728132 C30.9098802,4.50308251 30.9596784,4.65286323 30.9913039,4.81587459 C31.0226933,4.97913557 31.0439343,5.14239656 31.0554988,5.30565755 C31.0611631,5.40850698 31.0670633,5.52957973 31.0727276,5.66837653 C31.0781558,5.8076726 31.0883043,5.94971465 31.102701,6.09475232 C31.1168616,6.23978998 31.1397546,6.37733861 31.1713801,6.5073982 C31.2027695,6.6374578 31.2499717,6.74754663 31.3127505,6.8384136 L29.9665452,6.8384136 C29.8924378,6.63296438 29.8464157,6.3880729 29.8294229,6.10398879 C29.8124302,5.81965506 29.786469,5.54780305 29.7522474,5.28768386 C29.7064613,4.94892979 29.6092249,4.7010427 29.4607741,4.54377294 C29.3120874,4.38675282 29.0692323,4.30811794 28.7319729,4.30811794 L27.3860036,4.30811794 L27.3860036,6.8384136 L26.0395622,6.8384136 L26.0395622,0.362893726 L29.3406447,0.362893726 Z" id="Fill-25"></path>
                        <polygon id="Fill-27" points="36.808851 0.362943652 36.808851 1.55994125 33.5764477 1.55994125 33.5764477 2.94765964 36.5428669 2.94765964 36.5428669 4.05403991 33.5764477 4.05403991 33.5764477 5.64121629 36.8772941 5.64121629 36.8772941 6.83846353 32.2300063 6.83846353 32.2300063 0.362943652"></polygon>
                        <path d="M40.332586,5.64129118 C40.5268228,5.64129118 40.7153954,5.60808979 40.8983038,5.54143737 C41.0812121,5.47503458 41.2440595,5.36469611 41.387082,5.21042197 C41.5298685,5.05639746 41.6443337,4.85544166 41.7300057,4.60730493 C41.8159136,4.35941784 41.8586315,4.05711041 41.8586315,3.70063229 C41.8586315,3.37411032 41.8286581,3.07929193 41.7687114,2.81617713 C41.7085287,2.55306233 41.6101122,2.32789198 41.4727539,2.14041644 C41.3356317,1.95344017 41.1541394,1.80965068 40.9282771,1.70979687 C40.7024148,1.60994305 40.4239221,1.56001614 40.092563,1.56001614 L39.1322353,1.56001614 L39.1322353,5.64129118 L40.332586,5.64129118 Z M40.4267543,0.363018543 C40.8211282,0.363018543 41.188597,0.429670964 41.5286885,0.562476537 C41.868544,0.695531745 42.1630854,0.89498974 42.4116047,1.16110016 C42.66036,1.42721057 42.8545969,1.75972377 42.9947873,2.15863976 C43.1347417,2.55780539 43.2048369,3.02636941 43.2048369,3.56458147 C43.2048369,4.03589148 43.1474862,4.47125411 43.033257,4.87041973 C42.9190278,5.26958536 42.746268,5.61408102 42.5147414,5.90440598 C42.2829789,6.19448131 41.9943377,6.42264728 41.6485819,6.58890388 C41.3025902,6.75541012 40.8954716,6.83828878 40.4267543,6.83828878 L37.7860299,6.83828878 L37.7860299,0.363018543 L40.4267543,0.363018543 Z" id="Fill-29"></path>
                        <path d="M49.3097979,5.73183363 C49.4410198,5.73183363 49.5668136,5.71835336 49.6869431,5.6911432 C49.8068365,5.66393303 49.9125693,5.61874918 50.0041415,5.55509237 C50.0954777,5.4916852 50.168405,5.40556129 50.2229235,5.296471 C50.277206,5.18787997 50.3043472,5.0485839 50.3043472,4.87958132 C50.3043472,4.54706812 50.2156071,4.30966567 50.0383631,4.16762362 C49.861119,4.02533194 49.6269963,3.95443573 49.335287,3.95443573 L47.8694242,3.95443573 L47.8694242,5.73183363 L49.3097979,5.73183363 Z M49.2326223,2.98410628 C49.4726453,2.98410628 49.6699503,2.92344509 49.8240653,2.80262198 C49.9784163,2.68179886 50.0555919,2.48533648 50.0555919,2.2129852 C50.0555919,2.06220594 50.0298667,1.93813758 49.9784163,1.84127938 C49.926966,1.74467081 49.8582869,1.66903155 49.772851,1.61461122 C49.6869431,1.55994125 49.5882906,1.52249607 49.4768935,1.50127714 C49.3654964,1.4800582 49.2498511,1.46957355 49.1297217,1.46957355 L47.8694242,1.46957355 L47.8694242,2.98410628 L49.2326223,2.98410628 Z M49.4039662,0.362943652 C49.6954394,0.362943652 49.9614236,0.390153817 50.2014465,0.444574146 C50.4414694,0.498994475 50.6472708,0.588363639 50.8186146,0.712182369 C50.9901944,0.836250733 51.1233045,1.00100953 51.2174728,1.20645875 C51.3118771,1.41215761 51.3588432,1.66603593 51.3588432,1.96834336 C51.3588432,2.29486533 51.2889841,2.56696697 51.1487937,2.78439866 C51.0086033,3.00232961 50.8016218,3.18056866 50.5271413,3.3196151 C50.9045225,3.43444699 51.1858474,3.63565242 51.3718238,3.92273214 C51.5575643,4.20981186 51.6503165,4.55605496 51.6503165,4.96121181 C51.6503165,5.28773379 51.5903698,5.57032008 51.4702403,5.8089707 C51.3503469,6.04787095 51.1886795,6.24308516 50.9859462,6.39386442 C50.782977,6.54514295 50.5514504,6.65697922 50.2916026,6.72962287 C50.0312827,6.80226652 49.7641186,6.83846353 49.4898741,6.83846353 L46.5229829,6.83846353 L46.5229829,0.362943652 L49.4039662,0.362943652 Z" id="Fill-31"></path>
                        <polygon id="Fill-33" points="51.8990247 0.362943652 53.4080774 0.362943652 54.8399547 2.92044948 56.2633355 0.362943652 57.7638919 0.362943652 55.4915804 4.35335172 55.4915804 6.83846353 54.145611 6.83846353 54.145611 4.31715471"></polygon>
                    </g>
                </g>
            </g>
        </g>
    </g>
</svg>
