<svg width="184" height="44" viewBox="0 0 184 44" xmlns="http://www.w3.org/2000/svg">
  <defs>
    <linearGradient x1="33.016%" y1="84.794%" x2="84.225%" y2="35.32%" id="linearGradient-1">
      <stop stop-color="#ADED00" offset="0%"/>
      <stop stop-color="#00D6D6" offset="100%"/>
    </linearGradient>
  </defs>
  <g id="Footer" fill="none" fill-rule="evenodd">
    <g id="Mobile-Footer-Oct-4" transform="translate(-67 -30)">
      <g id="Fandom-logo-white" transform="translate(67 30)">
        <g id="Page-1">
          <path d="M48.283 1.884c-5.14 0-8.594 3.466-8.594 8.624v16.63h4.285V14.915h4.497v-4.07h-4.497v-.37c0-2.912 1.516-4.389 4.505-4.389.292 0 .571.05.867.104.112.02.226.04.342.058l.216.034v-4.21l-.163-.021c-.13-.018-.257-.037-.383-.057a6.92 6.92 0 0 0-1.075-.11z" id="Fill-1" fill="#FFF"/>
          <path d="M63.003 18.712c0 2.958-1.433 4.521-4.146 4.521-3.72 0-4.276-2.833-4.276-4.521 0-2.874 1.559-4.522 4.276-4.522 2.653 0 4.01 1.482 4.146 4.522m4.304.846a36.71 36.71 0 0 0-.018-.854c-.202-5.294-3.432-8.583-8.432-8.583-2.58 0-4.763.869-6.314 2.513-1.45 1.536-2.247 3.683-2.247 6.045 0 4.916 3.484 8.623 8.105 8.623 2.197 0 3.98-.839 5.186-2.432.176.746.423 1.47.737 2.157l.05.11h4.32l-.118-.267c-1.206-2.715-1.244-5.481-1.27-7.312" id="Fill-3" fill="#FFF"/>
          <path d="M78.918 10.12c-2.464 0-4.547.868-6.025 2.509-1.384 1.537-2.146 3.698-2.146 6.083v8.426h4.285v-8.426c0-2.874 1.416-4.521 3.886-4.521 2.469 0 3.885 1.647 3.885 4.52v8.427h4.285v-8.426c0-2.385-.762-4.546-2.146-6.083-1.478-1.64-3.56-2.508-6.024-2.508" id="Fill-5" fill="#FFF"/>
          <path d="M102.217 18.712c0 2.958-1.433 4.521-4.145 4.521-3.721 0-4.277-2.833-4.277-4.521 0-2.874 1.56-4.522 4.277-4.522 2.653 0 4.009 1.482 4.145 4.522m3.684 0V4.276h-4.133v6.8c-1.317-.595-2.283-.955-3.92-.955-5.055 0-8.45 3.44-8.45 8.558 0 4.916 3.508 8.623 8.161 8.623 2.37 0 4.08-.715 5.213-2.185.181.78.447 1.619.763 2.401l.047.118h4.324l-.116-.266c-1.386-3.185-1.89-6.923-1.89-8.658" id="Fill-7" fill="#FFF"/>
          <path d="M121.326 18.712c0 2.873-1.535 4.521-4.21 4.521-2.677 0-4.212-1.648-4.212-4.521 0-2.874 1.535-4.522 4.211-4.522s4.211 1.648 4.211 4.522m-4.21-8.591c-5.003 0-8.497 3.533-8.497 8.59 0 5.059 3.494 8.591 8.496 8.591 5.003 0 8.497-3.532 8.497-8.59s-3.494-8.591-8.497-8.591" id="Fill-9" fill="#FFF"/>
          <path d="M151.565 12.449c-1.36-1.523-3.28-2.328-5.552-2.328-2.313 0-4.21 1.106-5.376 3.125-1.166-2.019-3.063-3.125-5.376-3.125-2.273 0-4.193.805-5.553 2.328-1.268 1.42-1.967 3.41-1.967 5.604v9.085h4.286v-9.085c0-2.455 1.179-3.862 3.234-3.862 2.054 0 3.233 1.407 3.233 3.862v9.085h4.286v-9.085c0-2.455 1.178-3.862 3.233-3.862s3.234 1.407 3.234 3.862v9.085h4.285v-9.085c0-2.194-.698-4.184-1.967-5.604" id="Fill-11" fill="#FFF"/>
          <path d="M13.464 23.496c0 .267-.06.646-.346.935l-1.07.978-9.741-9.726v-3.817l10.71 10.696c.166.169.447.515.447.934zm14.833-11.351v3.54L16.179 28.109c-.2.202-.401.292-.652.292a.93.93 0 0 1-.68-.293l-1.109-1.065 14.559-14.898zm-9.231 6.306l-3.359 3.396L5.07 11.09a2.872 2.872 0 0 1-.829-2.034c0-.77.294-1.493.828-2.033l3.36-3.397 10.638 10.757a2.903 2.903 0 0 1 0 4.068zm-1.981-9.37l3.5-3.538a2.811 2.811 0 0 1 2.01-.84c.76 0 1.475.299 2.012.841l3.612 3.653-5.51 5.571-2.012-2.034-3.612-3.652zm13.452-.562L22.623.379l-.164-.17-.165.169-6.909 7.053-6.176-6.278-.007-.007-.008-.007-.771-.66-.161-.137-.15.15L.069 8.502 0 8.572V16.65l.068.068 15.077 15.239.164.165.163-.165 15.064-15.239.067-.068V8.587l-.066-.068z" id="Fandom-Heart" fill="url(#linearGradient-1)"/>
        </g>
        <g id="Page-1" transform="translate(89.206 33.584)" fill="#656E78">
          <g id="Group-16" transform="translate(60.183 .101)">
            <path id="Fill-4" d="M4.076 3.375L3.077 7.79l-.779-4.414H.153l1.584 6.462h2.758l.771-3.354.773 3.354h2.758l1.59-6.462H8.233L7.458 7.79 6.443 3.375z"/>
            <path d="M31.867 7.417c-.264.36-.676.602-1.212.602-.615 0-1.105-.422-1.105-1.423 0-1.004.49-1.428 1.105-1.428.536 0 .948.243 1.212.605v1.644zm2.052-2.162l.114-1.88h-1.878l-.143.709c-.431-.481-.97-.881-1.914-.881-1.713 0-2.648 1.172-2.648 3.393 0 2.219.935 3.39 2.648 3.39.945 0 1.483-.398 1.914-.88l.147.73h1.874l-.114-1.902V5.255z" id="Fill-6"/>
            <path id="Fill-1" d="M15.653 9.837V.148h2.057V5.58l.55-.725 1.182-1.478h2.942L19.916 5.93l2.573 3.907h-2.668L18.419 7.38l-.71.71v1.746z"/>
            <path d="M12.582.184c-.65 0-1.176.558-1.176 1.244 0 .688.526 1.246 1.176 1.246.65 0 1.176-.558 1.176-1.246 0-.686-.527-1.244-1.176-1.244" id="Fill-8"/>
            <path id="Fill-10" d="M14.353 4.739V3.375h-2.947V9.837h2.947V8.48h-.923V4.739z"/>
            <path d="M24.067 1.428c0 .688.528 1.246 1.178 1.246.65 0 1.177-.558 1.177-1.246 0-.686-.527-1.244-1.177-1.244s-1.178.558-1.178 1.244" id="Fill-12"/>
            <path id="Fill-14" d="M24.398 4.739V8.48h-.924v1.356h2.947V3.375h-2.947V4.74z"/>
          </g>
          <g id="Group-35" transform="translate(0 3.097)">
            <path d="M2.392 3.41c.155 0 .303-.012.446-.036a.992.992 0 0 0 .377-.14.746.746 0 0 0 .262-.295c.066-.127.098-.294.098-.5 0-.205-.032-.371-.098-.498a.75.75 0 0 0-.262-.295 1.004 1.004 0 0 0-.377-.14 2.669 2.669 0 0 0-.446-.036H1.346v1.94h1.046zM2.761.363c.383 0 .709.06.977.177.269.118.488.274.656.467.169.194.292.414.369.662a2.592 2.592 0 0 1 0 1.537c-.077.251-.2.473-.369.667-.168.193-.387.349-.656.467-.268.118-.594.177-.977.177H1.346v2.321H0V.363h2.76z" id="Fill-17"/>
            <path d="M6.89 4.422c.06.256.155.488.287.693.131.206.302.37.514.495.211.123.469.185.772.185.303 0 .56-.062.771-.185.212-.124.383-.29.515-.495.131-.205.227-.437.287-.693.06-.257.09-.522.09-.794 0-.284-.03-.56-.09-.825a2.256 2.256 0 0 0-.287-.712 1.497 1.497 0 0 0-.515-.5 1.506 1.506 0 0 0-.771-.185c-.303 0-.56.062-.772.186-.212.124-.383.29-.514.499a2.25 2.25 0 0 0-.288.712c-.06.266-.09.54-.09.825 0 .272.03.537.09.794m-1.23-2.14c.137-.415.334-.776.591-1.085.258-.308.573-.55.948-.725A2.944 2.944 0 0 1 8.463.21c.474 0 .897.088 1.269.263.371.175.686.417.943.725.257.309.454.67.591 1.084.138.414.206.863.206 1.347 0 .471-.068.911-.206 1.32a3.19 3.19 0 0 1-.591 1.065c-.257.303-.572.54-.943.712a2.98 2.98 0 0 1-1.27.259c-.468 0-.89-.087-1.264-.26a2.716 2.716 0 0 1-.948-.71 3.197 3.197 0 0 1-.591-1.067 4.109 4.109 0 0 1-.206-1.32c0-.483.069-.932.206-1.346" id="Fill-19"/>
            <path id="Fill-21" d="M16.883 6.838l-1.038-4.407h-.017l-1.02 4.407h-1.364L11.824.363h1.346l.969 4.408h.017L15.22.363h1.26l1.047 4.462h.017L18.546.363h1.32L18.22 6.838z"/>
            <path id="Fill-23" d="M25.062.363V1.56H21.83v1.388h2.966v1.106H21.83v1.587h3.3v1.197h-4.647V.363z"/>
            <path d="M28.86 3.292c.31 0 .54-.072.695-.217.155-.145.231-.381.231-.708 0-.314-.076-.542-.231-.684-.154-.142-.386-.213-.694-.213h-1.475v1.822h1.475zm.48-2.93c.275 0 .522.048.742.142a1.683 1.683 0 0 1 .926.952c.083.214.125.446.125.694 0 .38-.076.71-.228.988-.15.278-.398.49-.741.635v.018c.166.049.303.123.411.222.109.1.198.218.266.354.069.136.119.286.15.449.032.163.053.326.064.49l.018.362c.005.14.015.282.03.427.014.145.037.282.068.412.032.13.079.24.142.331h-1.346a2.638 2.638 0 0 1-.138-.734 11.532 11.532 0 0 0-.077-.816c-.046-.34-.143-.587-.291-.744-.149-.157-.392-.236-.729-.236h-1.346v2.53H26.04V.363h3.3z" id="Fill-25"/>
            <path id="Fill-27" d="M36.809.363V1.56h-3.233v1.388h2.967v1.106h-2.967v1.587h3.301v1.197H32.23V.363z"/>
            <path d="M40.333 5.641c.194 0 .382-.033.565-.1.183-.066.346-.176.49-.33.142-.155.256-.356.342-.604.086-.248.129-.55.129-.906 0-.327-.03-.622-.09-.885a1.812 1.812 0 0 0-.296-.676 1.325 1.325 0 0 0-.545-.43c-.226-.1-.504-.15-.835-.15h-.96v4.081h1.2zm.094-5.278c.394 0 .762.067 1.102.2.34.133.634.332.883.598.248.266.443.599.583.998.14.399.21.867.21 1.406 0 .47-.058.906-.172 1.305a2.93 2.93 0 0 1-.518 1.034c-.232.29-.52.519-.866.685-.346.166-.754.25-1.222.25h-2.641V.362h2.64z" id="Fill-29"/>
            <path d="M49.31 5.732c.131 0 .257-.014.377-.04a.897.897 0 0 0 .317-.137.674.674 0 0 0 .219-.259.933.933 0 0 0 .081-.416c0-.333-.088-.57-.266-.712-.177-.143-.411-.214-.703-.214H47.87v1.778h1.44zm-.077-2.748a.93.93 0 0 0 .591-.181c.154-.121.232-.318.232-.59a.79.79 0 0 0-.078-.372.593.593 0 0 0-.205-.226.837.837 0 0 0-.296-.114 1.851 1.851 0 0 0-.347-.031h-1.26v1.514h1.363zm.171-2.621c.291 0 .557.027.797.082.24.054.446.143.618.267.171.124.304.289.398.494.095.206.142.46.142.762 0 .327-.07.599-.21.816-.14.218-.347.397-.622.536.378.114.659.316.845.603.186.287.278.633.278 1.038 0 .327-.06.61-.18.848-.12.239-.281.434-.484.585a2.092 2.092 0 0 1-.694.336c-.26.072-.528.108-.802.108h-2.967V.363h2.881z" id="Fill-31"/>
            <path id="Fill-33" d="M51.899.363h1.51L54.84 2.92 56.263.363h1.5l-2.271 3.99v2.485h-1.346v-2.52z"/>
          </g>
        </g>
      </g>
    </g>
  </g>
</svg>
