<svg width="119px" height="35px" viewBox="0 0 119 35" version="1.1" xmlns="http://www.w3.org/2000/svg" xmlns:xlink="http://www.w3.org/1999/xlink">
    <g id="Footer" stroke="none" stroke-width="1" fill="none" fill-rule="evenodd">
        <g id="Desktop-Footer-Oct-4" transform="translate(-864.000000, -218.000000)">
            <g id="Advertise-Copy" transform="translate(854.000000, 125.000000)">
                <g id="App-Store" transform="translate(0.000000, 83.000000)">
                    <g transform="translate(10.000000, 10.000000)">
                        <path d="M114.766244,35 L4.16852593,35 C1.8705037,35 0,33.138 0,30.858625 L0,4.13525 C0,1.855 1.8705037,0 4.16852593,0 L114.766244,0 C117.063385,0 119,1.855 119,4.13525 L119,30.858625 C119,33.138 117.063385,35 114.766244,35" id="Fill-1" fill="#A9AAA9"></path>
                        <path d="M118.146726,30.8595 C118.146726,32.711 116.635867,34.21075 114.767126,34.21075 L4.16852593,34.21075 C2.30066667,34.21075 0.784518519,32.711 0.784518519,30.8595 L0.784518519,4.134375 C0.784518519,2.28375 2.30066667,0.77875 4.16852593,0.77875 L114.766244,0.77875 C116.635867,0.77875 118.145844,2.28375 118.145844,4.134375 L118.145844,30.8595 L118.146726,30.8595" id="Fill-4" fill="#0A0B09"></path>
                        <path d="M26.5572741,17.311 C26.5317111,14.490875 28.8835037,13.118875 28.9910444,13.054125 C27.6591259,11.1265 25.5946963,10.863125 24.869237,10.843 C23.135363,10.661875 21.4534963,11.872875 20.5702519,11.872875 C19.6693778,11.872875 18.3083704,10.8605 16.8433481,10.89025 C14.9578593,10.919125 13.1922519,12.00325 12.2243852,13.68675 C10.2269481,17.119375 11.7166519,22.16375 13.6303481,24.938375 C14.587637,26.29725 15.706237,27.8145 17.1694963,27.761125 C18.6019037,27.701625 19.136963,26.85375 20.8664296,26.85375 C22.5791481,26.85375 23.0815926,27.761125 24.5748222,27.727 C26.1121259,27.701625 27.0799926,26.362 28.0037852,24.990875 C29.1100444,23.4325 29.5543111,21.898625 29.5719407,21.819875 C29.5358,21.8085 26.586363,20.691125 26.5572741,17.311" id="Fill-5" fill="#FFFFFF"></path>
                        <path d="M23.7365333,9.01775 C24.5060667,8.061375 25.0331926,6.76025 24.8868667,5.439875 C23.7717926,5.488875 22.3772889,6.204625 21.5751407,7.140875 C20.8646667,7.965125 20.23,9.316125 20.3939556,10.586625 C21.6465407,10.679375 22.9326222,9.95925 23.7365333,9.01775" id="Fill-6" fill="#FFFFFF"></path>
                        <path d="M43.8581111,22.710625 L42.8664444,19.670875 C42.7615481,19.359375 42.5649778,18.627875 42.2740889,17.476375 L42.2397111,17.476375 C42.124237,17.9725 41.9382444,18.703125 41.6826148,19.670875 L40.7085778,22.710625 L43.8581111,22.710625 L43.8581111,22.710625 Z M47.2870741,27.566 L45.2852296,27.566 L44.1886667,24.145625 L40.3780222,24.145625 L39.3334667,27.566 L37.3845111,27.566 L41.1607778,15.9215 L43.4931778,15.9215 L47.2870741,27.566 L47.2870741,27.566 Z" id="Fill-7" fill="#FFFFFF"></path>
                        <path d="M55.0837778,23.33275 C55.0837778,22.5155 54.8986667,21.84175 54.5266815,21.3115 C54.1203185,20.759375 53.575563,20.482 52.8906519,20.482 C52.4269926,20.482 52.0056444,20.636 51.6292519,20.9405 C51.2519778,21.245875 51.005163,21.64575 50.8896889,22.141875 C50.8315111,22.372 50.8024222,22.561875 50.8024222,22.710625 L50.8024222,24.110625 C50.8024222,24.721375 50.9910593,25.23675 51.3683333,25.65675 C51.7456074,26.077625 52.2357111,26.287625 52.8386444,26.287625 C53.5464741,26.287625 54.0982815,26.016375 54.4923037,25.475625 C54.8863259,24.934 55.0837778,24.22 55.0837778,23.33275 L55.0837778,23.33275 Z M56.9983556,23.2645 C56.9983556,24.6925 56.6096222,25.82125 55.8321556,26.649875 C55.1357852,27.3875 54.2719333,27.755875 53.238837,27.755875 C52.1255259,27.755875 51.3251407,27.358625 50.8376815,26.56325 L50.8024222,26.56325 L50.8024222,30.986375 L48.9231037,30.986375 L48.9231037,21.933625 C48.9231037,21.035875 48.8993037,20.1145 48.8534667,19.1695 L50.5062444,19.1695 L50.6111407,20.500375 L50.6464,20.500375 C51.2722519,19.497625 52.2242519,18.997125 53.4997556,18.997125 C54.4984741,18.997125 55.3305926,19.38825 55.9978741,20.171375 C56.6651556,20.955375 56.9983556,21.986125 56.9983556,23.2645 L56.9983556,23.2645 Z" id="Fill-8" fill="#FFFFFF"></path>
                        <path d="M64.8126889,23.33275 C64.8126889,22.5155 64.6266963,21.84175 64.2555926,21.3115 C63.8492296,20.759375 63.3044741,20.482 62.619563,20.482 C62.1550222,20.482 61.7345556,20.636 61.3572815,20.9405 C60.9808889,21.245875 60.7349556,21.64575 60.6186,22.141875 C60.5613037,22.372 60.5313333,22.561875 60.5313333,22.710625 L60.5313333,24.110625 C60.5313333,24.721375 60.7199704,25.23675 61.0954815,25.65675 C61.4727556,26.077625 61.9637407,26.287625 62.5675556,26.287625 C63.2753852,26.287625 63.8263111,26.016375 64.2203333,25.475625 C64.615237,24.934 64.8126889,24.22 64.8126889,23.33275 L64.8126889,23.33275 Z M66.7272667,23.2645 C66.7272667,24.6925 66.3385333,25.82125 65.5601852,26.649875 C64.8646963,27.3875 63.999963,27.755875 62.9677481,27.755875 C61.8535556,27.755875 61.0531704,27.358625 60.5665926,26.56325 L60.5313333,26.56325 L60.5313333,30.986375 L58.6520148,30.986375 L58.6520148,21.933625 C58.6520148,21.035875 58.6282148,20.1145 58.5823778,19.1695 L60.236037,19.1695 L60.3400519,20.500375 L60.3753111,20.500375 C61.001163,19.497625 61.9514,18.997125 63.2286667,18.997125 C64.2256222,18.997125 65.0595037,19.38825 65.7267852,20.171375 C66.3931852,20.955375 66.7272667,21.986125 66.7272667,23.2645 L66.7272667,23.2645 Z" id="Fill-9" fill="#FFFFFF"></path>
                        <path d="M77.6047481,24.301375 C77.6047481,25.291 77.2583259,26.096875 76.562837,26.719 C75.7985926,27.39975 74.7346444,27.738375 73.3674667,27.738375 C72.1060667,27.738375 71.0932444,27.496875 70.327237,27.013 L70.7626889,25.458125 C71.5877556,25.953375 72.493037,26.201 73.4794148,26.201 C74.1872444,26.201 74.7381704,26.042625 75.1339556,25.725 C75.5288593,25.40825 75.7245481,24.983875 75.7245481,24.45275 C75.7245481,23.98025 75.563237,23.582125 75.2370889,23.25925 C74.9135852,22.936375 74.373237,22.63625 73.6195704,22.358875 C71.5657185,21.5985 70.5387926,20.484625 70.5387926,19.019 C70.5387926,18.062625 70.8993185,17.27775 71.6186074,16.666125 C72.3361333,16.0545 73.2934222,15.749125 74.4904741,15.749125 C75.5579481,15.749125 76.4447185,15.932875 77.1516667,16.30125 L76.681837,17.822 C76.0207259,17.465 75.2732296,17.2865 74.4367037,17.2865 C73.7755926,17.2865 73.2590444,17.4475 72.8888222,17.770375 C72.5758963,18.05825 72.4189926,18.409125 72.4189926,18.82475 C72.4189926,19.285 72.5979333,19.665625 72.9584593,19.964 C73.2713852,20.241375 73.8399407,20.540625 74.6641259,20.8635 C75.6734222,21.266875 76.4147481,21.7385 76.8916296,22.27925 C77.3676296,22.820875 77.6047481,23.4955 77.6047481,24.301375" id="Fill-10" fill="#FFFFFF"></path>
                        <path d="M83.8183111,20.5695 L81.7468296,20.5695 L81.7468296,24.646125 C81.7468296,25.683 82.111763,26.201 82.8433926,26.201 C83.179237,26.201 83.4586667,26.172125 83.679037,26.11525 L83.730163,27.531875 C83.3599407,27.66925 82.873363,27.738375 82.2686667,27.738375 C81.5264593,27.738375 80.9464444,27.5135 80.5277407,27.0655 C80.1116815,26.61575 79.9010074,25.8615 79.9010074,24.801875 L79.9010074,20.5695 L78.6669333,20.5695 L78.6669333,19.1695 L79.9010074,19.1695 L79.9010074,17.632125 L81.7468296,17.079125 L81.7468296,19.1695 L83.8183111,19.1695 L83.8183111,20.5695" id="Fill-11" fill="#FFFFFF"></path>
                        <path d="M91.2148222,23.359 C91.2148222,22.5855 91.0473407,21.921375 90.7097333,21.366625 C90.3157111,20.696375 89.7524444,20.362125 89.0225778,20.362125 C88.2671481,20.362125 87.6933037,20.696375 87.2992815,21.366625 C86.9616741,21.921375 86.7950741,22.596 86.7950741,23.394 C86.7950741,24.168375 86.9616741,24.8325 87.2992815,25.386375 C87.7056444,26.05575 88.2742,26.390875 89.0058296,26.390875 C89.7233556,26.390875 90.2866222,26.0505 90.6929852,25.368875 C91.0402889,24.803625 91.2148222,24.1325 91.2148222,23.359 L91.2148222,23.359 Z M93.1646593,23.298625 C93.1646593,24.58925 92.7935556,25.648875 92.0513481,26.4775 C91.273,27.32975 90.2399037,27.755875 88.9520593,27.755875 C87.7109333,27.755875 86.7227926,27.34725 85.9858741,26.529125 C85.2489556,25.711875 84.8804963,24.68025 84.8804963,23.436875 C84.8804963,22.13575 85.2595333,21.07 86.0202519,20.241375 C86.7792074,19.411875 87.8034889,18.997125 89.0913333,18.997125 C90.3333407,18.997125 91.3311778,19.40575 92.0857259,20.223875 C92.8050148,21.018375 93.1646593,22.043 93.1646593,23.298625 L93.1646593,23.298625 Z" id="Fill-12" fill="#FFFFFF"></path>
                        <path d="M99.2733259,20.810125 C99.0873333,20.776 98.8898815,20.759375 98.6809704,20.759375 C98.0198593,20.759375 97.5086,21.007 97.1489556,21.50225 C96.8351481,21.93975 96.6791259,22.49275 96.6791259,23.160375 L96.6791259,27.566 L94.8006889,27.566 L94.817437,21.81375 C94.817437,20.845125 94.793637,19.964 94.7469185,19.1695 L96.3847111,19.1695 L96.4534667,20.776 L96.5045926,20.776 C96.7029259,20.223875 97.0167333,19.779375 97.4451333,19.446875 C97.8629556,19.14675 98.316037,18.997125 98.8034963,18.997125 C98.9771481,18.997125 99.1340519,19.009375 99.2733259,19.03125 L99.2733259,20.810125" id="Fill-13" fill="#FFFFFF"></path>
                        <path d="M105.8862,22.486625 C105.898541,21.933625 105.776015,21.45675 105.521267,21.0525 C105.196,20.5345 104.6962,20.2755 104.02363,20.2755 C103.409237,20.2755 102.909437,20.528375 102.527756,21.035875 C102.213948,21.43925 102.027956,21.923125 101.971541,22.486625 L105.8862,22.486625 L105.8862,22.486625 Z M107.678252,22.9705 C107.678252,23.30475 107.656215,23.5865 107.609496,23.816625 L101.971541,23.816625 C101.993578,24.646125 102.265956,25.2805 102.788674,25.718 C103.263793,26.109125 103.879067,26.305125 104.632733,26.305125 C105.467496,26.305125 106.229096,26.172125 106.914007,25.907 L107.208422,27.202875 C106.408037,27.5485 105.463089,27.72175 104.372696,27.72175 C103.061052,27.72175 102.031481,27.3385 101.282222,26.572 C100.535607,25.806375 100.160096,24.77825 100.160096,23.4885 C100.160096,22.2215 100.5074,21.167125 101.205533,20.327125 C101.9354,19.4285 102.921778,18.979625 104.162904,18.979625 C105.381993,18.979625 106.304904,19.4285 106.931637,20.327125 C107.428793,21.041125 107.678252,21.923125 107.678252,22.9705 L107.678252,22.9705 Z" id="Fill-14" fill="#FFFFFF"></path>
                        <path d="M42.2626296,8.78325 C42.2626296,8.115625 42.0845704,7.60375 41.7275704,7.24675 C41.3714519,6.890625 40.8513778,6.712125 40.1673481,6.712125 C39.8764593,6.712125 39.6278815,6.73225 39.4233778,6.771625 L39.4233778,11.0495 C39.5370889,11.067 39.7451185,11.074875 40.0474667,11.074875 C40.7544148,11.074875 41.3000519,10.87975 41.6852593,10.4895 C42.0695852,10.09925 42.2626296,9.5305 42.2626296,8.78325 L42.2626296,8.78325 Z M43.2366667,8.757875 C43.2366667,9.78775 42.9263852,10.563 42.3049407,11.083625 C41.7284519,11.564 40.9113185,11.804625 39.8508963,11.804625 C39.3264148,11.804625 38.8759778,11.781875 38.4995852,11.73725 L38.4995852,6.10925 C38.9905704,6.0305 39.5194593,5.991125 40.0906593,5.991125 C41.0990741,5.991125 41.8606741,6.209 42.3736963,6.64475 C42.9484222,7.1365 43.2366667,7.840875 43.2366667,8.757875 L43.2366667,8.757875 Z" id="Fill-15" fill="#FFFFFF"></path>
                        <path d="M47.4430963,9.687125 C47.4430963,9.307375 47.360237,8.981 47.1945185,8.708875 C47.0014741,8.379 46.7246889,8.2145 46.3659259,8.2145 C45.9948222,8.2145 45.7127481,8.379 45.5188222,8.708875 C45.3539852,8.981 45.2711259,9.312625 45.2711259,9.70375 C45.2711259,10.084375 45.3539852,10.41075 45.5188222,10.68375 C45.7189185,11.011875 45.9974667,11.176375 46.3571111,11.176375 C46.7105852,11.176375 46.9864889,11.00925 47.1865852,10.675 C47.3575926,10.39675 47.4430963,10.06775 47.4430963,9.687125 L47.4430963,9.687125 Z M48.4012667,9.657375 C48.4012667,10.29175 48.2188,10.8115 47.8538667,11.21925 C47.4713037,11.638375 46.9644519,11.8475 46.3315481,11.8475 C45.721563,11.8475 45.2358667,11.647125 44.8735778,11.244625 C44.5121704,10.843 44.3305852,10.336375 44.3305852,9.725625 C44.3305852,9.086 44.5165778,8.56275 44.8903259,8.155 C45.2640741,7.74725 45.7665185,7.54425 46.3994222,7.54425 C47.0102889,7.54425 47.4995111,7.7455 47.8706148,8.147125 C48.2232074,8.537375 48.4012667,9.041375 48.4012667,9.657375 L48.4012667,9.657375 Z" id="Fill-16" fill="#FFFFFF"></path>
                        <path d="M55.3261852,7.629125 L54.026,11.753875 L53.1806593,11.753875 L52.6411926,9.96275 C52.504563,9.515625 52.3934963,9.072 52.3071111,8.630125 L52.2912444,8.630125 C52.2110296,9.083375 52.099963,9.527875 51.957163,9.96275 L51.3842,11.753875 L50.529163,11.753875 L49.3065481,7.629125 L50.2559037,7.629125 L50.7257333,9.589125 C50.8394444,10.05375 50.933763,10.49475 51.0086889,10.913875 L51.0245556,10.913875 C51.0933111,10.569125 51.2070222,10.129875 51.3674519,9.597875 L51.957163,7.629125 L52.7090667,7.629125 L53.2740963,9.555875 C53.4107259,10.02575 53.5217926,10.478125 53.6072963,10.913875 L53.6328593,10.913875 C53.6954444,10.4895 53.789763,10.037125 53.9158148,9.555875 L54.4200222,7.629125 L55.3261852,7.629125" id="Fill-17" fill="#FFFFFF"></path>
                        <path d="M60.1152741,11.753875 L59.1914815,11.753875 L59.1914815,9.391375 C59.1914815,8.663375 58.9129333,8.299375 58.3540741,8.299375 C58.0799333,8.299375 57.8578,8.4 57.6867926,8.600375 C57.5157852,8.80075 57.4302815,9.036125 57.4302815,9.307375 L57.4302815,11.753875 L56.5064889,11.753875 L56.5064889,8.808625 C56.5064889,8.446375 56.4950296,8.0535 56.4729926,7.629125 L57.284837,7.629125 L57.3280296,8.274 L57.3535926,8.274 C57.4611333,8.073625 57.621563,7.907375 57.832237,7.776125 C58.0825778,7.62125 58.3628889,7.54425 58.6696444,7.54425 C59.0574963,7.54425 59.3801185,7.6685 59.6366296,7.917875 C59.9557259,8.22325 60.1152741,8.67825 60.1152741,9.28375 L60.1152741,11.753875" id="Fill-18" fill="#FFFFFF"></path>
                        <polygon id="Fill-19" fill="#FFFFFF" points="61.7398444 5.7365 62.6627556 5.7365 62.6627556 11.753875 61.7398444 11.753875"></polygon>
                        <path d="M67.1424444,9.687125 C67.1424444,9.307375 67.0595852,8.981 66.8947481,8.708875 C66.7017037,8.379 66.424037,8.2145 66.0661556,8.2145 C65.6941704,8.2145 65.4120963,8.379 65.2190519,8.708875 C65.0542148,8.981 64.9713556,9.312625 64.9713556,9.70375 C64.9713556,10.084375 65.0542148,10.41075 65.2190519,10.68375 C65.4191481,11.011875 65.6976963,11.176375 66.0573407,11.176375 C66.4108148,11.176375 66.685837,11.00925 66.8859333,10.675 C67.0578222,10.39675 67.1424444,10.06775 67.1424444,9.687125 L67.1424444,9.687125 Z M68.1014963,9.657375 C68.1014963,10.29175 67.9190296,10.8115 67.5540963,11.21925 C67.1715333,11.638375 66.6638,11.8475 66.0317778,11.8475 C65.4209111,11.8475 64.9352148,11.647125 64.5738074,11.244625 C64.2124,10.843 64.0316963,10.336375 64.0316963,9.725625 C64.0316963,9.086 64.2176889,8.56275 64.5905556,8.155 C64.9643037,7.74725 65.4676296,7.54425 66.0987704,7.54425 C66.7105185,7.54425 67.1988593,7.7455 67.5708444,8.147125 C67.9243185,8.537375 68.1014963,9.041375 68.1014963,9.657375 L68.1014963,9.657375 Z" id="Fill-20" fill="#FFFFFF"></path>
                        <path d="M71.6133185,10.336375 L71.6133185,9.70025 C70.5943259,9.68275 70.0848296,9.960125 70.0848296,10.5315 C70.0848296,10.74675 70.1430074,10.90775 70.2620074,11.015375 C70.3810074,11.123 70.5326222,11.176375 70.7133259,11.176375 C70.9160667,11.176375 71.1055852,11.113375 71.2774741,10.985625 C71.4520074,10.85875 71.5586667,10.696 71.5983333,10.49825 C71.6080296,10.45275 71.6133185,10.3985 71.6133185,10.336375 L71.6133185,10.336375 Z M72.5723704,11.753875 L71.7428963,11.753875 L71.6732593,11.27875 L71.6476963,11.27875 C71.3638593,11.657625 70.9592593,11.8475 70.4338963,11.8475 C70.041637,11.8475 69.7251852,11.72325 69.4854222,11.473875 C69.2685778,11.24725 69.1601556,10.96725 69.1601556,10.633875 C69.1601556,10.129875 69.3717111,9.74575 69.7974667,9.478875 C70.2223407,9.21375 70.8199852,9.083375 71.5895185,9.088625 L71.5895185,9.0125 C71.5895185,8.469125 71.3021556,8.197875 70.7265481,8.197875 C70.3166593,8.197875 69.9552519,8.299375 69.6440889,8.50325 L69.4563333,7.900375 C69.8415407,7.66325 70.3184222,7.54425 70.8816889,7.54425 C71.9676741,7.54425 72.5124296,8.113 72.5124296,9.2505 L72.5124296,10.7695 C72.5124296,11.1825 72.5327037,11.510625 72.5723704,11.753875 L72.5723704,11.753875 Z" id="Fill-21" fill="#FFFFFF"></path>
                        <path d="M76.8643037,10.014375 L76.8643037,9.326625 C76.8643037,9.207625 76.8554889,9.111375 76.8387407,9.037875 C76.7867333,8.817375 76.6747852,8.631875 76.5046593,8.48225 C76.3327704,8.33175 76.1256222,8.257375 75.8867407,8.257375 C75.5420815,8.257375 75.2723481,8.393 75.0740148,8.66425 C74.8774444,8.936375 74.777837,9.28375 74.777837,9.708125 C74.777837,10.115875 74.8721556,10.446625 75.0616741,10.70125 C75.2617704,10.9725 75.5315037,11.109 75.8691111,11.109 C76.1723407,11.109 76.4147481,10.99525 76.5989778,10.7695 C76.777037,10.560375 76.8643037,10.308375 76.8643037,10.014375 L76.8643037,10.014375 Z M77.8215926,11.753875 L77.0018148,11.753875 L76.9595037,11.0915 L76.9330593,11.0915 C76.6712593,11.5955 76.2261111,11.8475 75.5993778,11.8475 C75.0978148,11.8475 74.6817556,11.652375 74.3512,11.262125 C74.0206444,10.871 73.8549259,10.36525 73.8549259,9.74225 C73.8549259,9.074625 74.0338667,8.533875 74.3935111,8.12175 C74.7416963,7.73675 75.1683333,7.54425 75.6769481,7.54425 C76.2340444,7.54425 76.6254222,7.730625 76.8475556,8.10425 L76.8643037,8.10425 L76.8643037,5.7365 L77.7889778,5.7365 L77.7889778,10.642625 C77.7889778,11.04425 77.7995556,11.414375 77.8215926,11.753875 L77.8215926,11.753875 Z" id="Fill-22" fill="#FFFFFF"></path>
                        <path d="M84.7650222,9.687125 C84.7650222,9.307375 84.682163,8.981 84.5173259,8.708875 C84.3225185,8.379 84.0474963,8.2145 83.6869704,8.2145 C83.3176296,8.2145 83.0346741,8.379 82.8398667,8.708875 C82.6750296,8.981 82.5921704,9.312625 82.5921704,9.70375 C82.5921704,10.084375 82.6750296,10.41075 82.8398667,10.68375 C83.039963,11.011875 83.3185111,11.176375 83.679037,11.176375 C84.0316296,11.176375 84.3092963,11.00925 84.5085111,10.675 C84.678637,10.39675 84.7650222,10.06775 84.7650222,9.687125 L84.7650222,9.687125 Z M85.7223111,9.657375 C85.7223111,10.29175 85.5398444,10.8115 85.1749111,11.21925 C84.7923481,11.638375 84.2863778,11.8475 83.6525926,11.8475 C83.0434889,11.8475 82.5577926,11.647125 82.1946222,11.244625 C81.8332148,10.843 81.6525111,10.336375 81.6525111,9.725625 C81.6525111,9.086 81.8385037,8.56275 82.2122519,8.155 C82.5851185,7.74725 83.0884444,7.54425 83.7222296,7.54425 C84.3313333,7.54425 84.8223185,7.7455 85.1916593,8.147125 C85.5451333,8.537375 85.7223111,9.041375 85.7223111,9.657375 L85.7223111,9.657375 Z" id="Fill-23" fill="#FFFFFF"></path>
                        <path d="M90.6894593,11.753875 L89.7665481,11.753875 L89.7665481,9.391375 C89.7665481,8.663375 89.488,8.299375 88.9282593,8.299375 C88.6541185,8.299375 88.4319852,8.4 88.2618593,8.600375 C88.0917333,8.80075 88.0053481,9.036125 88.0053481,9.307375 L88.0053481,11.753875 L87.0806741,11.753875 L87.0806741,8.808625 C87.0806741,8.446375 87.0700963,8.0535 87.0480593,7.629125 L87.8590222,7.629125 L87.9022148,8.274 L87.9277778,8.274 C88.0362,8.073625 88.1966296,7.907375 88.4064222,7.776125 C88.6576444,7.62125 88.9370741,7.54425 89.2447111,7.54425 C89.632563,7.54425 89.9543037,7.6685 90.2108148,7.917875 C90.5307926,8.22325 90.6894593,8.67825 90.6894593,9.28375 L90.6894593,11.753875" id="Fill-24" fill="#FFFFFF"></path>
                        <path d="M96.9065481,8.316 L95.888437,8.316 L95.888437,10.31975 C95.888437,10.829 96.0691407,11.083625 96.4279037,11.083625 C96.5927407,11.083625 96.7302519,11.069625 96.8386741,11.04075 L96.8633556,11.73725 C96.6808889,11.804625 96.4411259,11.83875 96.1449481,11.83875 C95.7800148,11.83875 95.4961778,11.7285 95.2916741,11.508 C95.0845259,11.286625 94.9831556,10.9165 94.9831556,10.395875 L94.9831556,8.316 L94.3749333,8.316 L94.3749333,7.629125 L94.9831556,7.629125 L94.9831556,6.873125 L95.888437,6.601875 L95.888437,7.629125 L96.9065481,7.629125 L96.9065481,8.316" id="Fill-25" fill="#FFFFFF"></path>
                        <path d="M101.797007,11.753875 L100.873215,11.753875 L100.873215,9.408875 C100.873215,8.6695 100.593785,8.299375 100.035807,8.299375 C99.6074074,8.299375 99.3147556,8.51375 99.1543259,8.943375 C99.127,9.0335 99.1120148,9.14375 99.1120148,9.27325 L99.1120148,11.753875 L98.1891037,11.753875 L98.1891037,5.7365 L99.1120148,5.7365 L99.1120148,8.222375 L99.128763,8.222375 C99.4196519,7.77 99.8365926,7.54425 100.376941,7.54425 C100.759504,7.54425 101.075956,7.6685 101.327178,7.917875 C101.640985,8.2285 101.797007,8.6905 101.797007,9.30125 L101.797007,11.753875" id="Fill-26" fill="#FFFFFF"></path>
                        <path d="M105.960244,9.258375 C105.967296,8.987125 105.906474,8.75175 105.781304,8.554 C105.620874,8.299375 105.376704,8.1725 105.046148,8.1725 C104.744681,8.1725 104.498748,8.29675 104.310993,8.546125 C104.157615,8.743875 104.066822,8.981875 104.036852,9.258375 L105.960244,9.258375 L105.960244,9.258375 Z M106.841726,9.496375 C106.841726,9.660875 106.829385,9.799125 106.807348,9.912 L104.036852,9.912 C104.049193,10.31975 104.181415,10.630375 104.437926,10.845625 C104.6724,11.038125 104.97563,11.134375 105.345852,11.134375 C105.755741,11.134375 106.128607,11.069625 106.466215,10.93925 L106.610778,11.575375 C106.216756,11.745125 105.753978,11.830875 105.216274,11.830875 C104.572793,11.830875 104.066822,11.64275 103.700126,11.265625 C103.331667,10.889375 103.1492,10.3845 103.1492,9.751 C103.1492,9.128875 103.319326,8.610875 103.662222,8.197875 C104.020104,7.756 104.504037,7.5355 105.114904,7.5355 C105.712548,7.5355 106.166511,7.756 106.473267,8.197875 C106.7192,8.54875 106.841726,8.981875 106.841726,9.496375 L106.841726,9.496375 Z" id="Fill-27" fill="#FFFFFF"></path>
                    </g>
                </g>
            </g>
        </g>
    </g>
</svg>
