<svg xmlns="http://www.w3.org/2000/svg" xmlns:xlink="http://www.w3.org/1999/xlink" width="322" height="182"><defs><path id="a" d="M0 0h322v181.13H0z"/></defs><g fill="none" fill-rule="evenodd"><mask id="b" fill="#fff"><use xlink:href="#a"/></mask><use fill="#00D6D6" xlink:href="#a"/><g fill="#002A32" mask="url(#b)" opacity=".07"><path d="M220.75 101.3c0 1.18-.46 2.3-1.27 3.13L166.04 159c-.9.9-1.8 1.31-2.94 1.31a4.2 4.2 0 0 1-3.07-1.32l-3.77-3.6a1.7 1.7 0 0 1-.03-2.4l61.67-62.87a1.67 1.67 0 0 1 2.86 1.2v10zm-68.53 41.16l-3.05 2.78a2.52 2.52 0 0 1-3.48-.07l-40.66-40.46a5.46 5.46 0 0 1-1.6-3.86V93.3c0-2.72 3.26-4.1 5.2-2.18l43.16 42.95c.75.76 2.02 2.31 2.02 4.2 0 1.2-.27 2.9-1.56 4.2zm-36.34-78.29l14-14.08a1.66 1.66 0 0 1 2.35 0l46.85 47.18a13 13 0 0 1 0 18.3l-13.98 14.08a1.66 1.66 0 0 1-2.36 0L115.9 82.46a12.9 12.9 0 0 1-3.74-9.15c0-3.46 1.33-6.7 3.74-9.14zm55.43 8.07l14.62-14.72a12.78 12.78 0 0 1 10.93-3.65c2.88.4 5.5 1.9 7.56 3.98l14.81 14.9a1.7 1.7 0 0 1 0 2.39L196.7 97.8a1.66 1.66 0 0 1-2.36 0L171.3 74.62a1.7 1.7 0 0 1 0-2.38zm58.14-2.8l-32.6-33.4a3.42 3.42 0 0 0-4.9-.01l-25.87 26.3a5.1 5.1 0 0 1-7.26.01l-25.86-26.02a3.42 3.42 0 0 0-4.85-.01L94.8 69.37a6.02 6.02 0 0 0-1.8 4.3v31.3c0 1.6.63 3.14 1.75 4.27l64.92 65.36a3.42 3.42 0 0 0 4.88 0l64.86-65.36a6.05 6.05 0 0 0 1.75-4.27v-31.3c0-1.58-.62-3.1-1.72-4.22z"/><path d="M248.56 243.39a6.62 6.62 0 0 1-1.89 4.63l-79.28 80.99a5.83 5.83 0 0 1-4.37 1.95 6.24 6.24 0 0 1-4.55-1.96l-5.59-5.36a2.52 2.52 0 0 1-.06-3.57l91.51-93.3a2.48 2.48 0 0 1 4.25 1.76v14.83zm-101.68 61.07l-4.54 4.13a3.73 3.73 0 0 1-5.16-.12l-60.34-60.03a8.07 8.07 0 0 1-2.37-5.72V231.5a4.51 4.51 0 0 1 7.7-3.24L146.2 292c1.12 1.12 3 3.44 3 6.23 0 1.78-.4 4.31-2.3 6.24zM92.95 188.29l20.75-20.9a2.46 2.46 0 0 1 3.5 0l69.5 70.02a19.3 19.3 0 0 1 0 27.15l-20.73 20.89c-.97.97-2.54.97-3.51 0l-69.51-70.02a19.12 19.12 0 0 1-5.55-13.58c0-5.14 1.97-9.96 5.54-13.56zm82.25 11.97l21.7-21.85a18.94 18.94 0 0 1 16.2-5.41c4.28.6 8.17 2.83 11.22 5.9l21.96 22.13a2.5 2.5 0 0 1 0 3.53l-33.4 33.65c-.96.97-2.54.97-3.5 0l-34.16-34.42a2.5 2.5 0 0 1 0-3.53zm86.26-4.15l-48.38-49.57a5.08 5.08 0 0 0-7.28-.02l-38.37 39.02a7.57 7.57 0 0 1-10.77.03l-38.38-38.62a5.09 5.09 0 0 0-7.2-.03l-49.43 49.06a8.98 8.98 0 0 0-2.65 6.37v46.45c0 2.37.94 4.65 2.6 6.33l96.33 96.99a5.09 5.09 0 0 0 7.23 0l96.25-97a9.02 9.02 0 0 0 2.6-6.32v-46.44a9 9 0 0 0-2.55-6.28zm-187-257.85c0-1.73.67-3.4 1.88-4.63l79.28-80.98a5.83 5.83 0 0 1 4.37-1.95c1.73 0 3.26.66 4.55 1.96l5.59 5.35a2.51 2.51 0 0 1 .06 3.56l-91.5 93.29a2.48 2.48 0 0 1-4.25-1.76v-14.83zm101.67-61.07l4.54-4.13a3.73 3.73 0 0 1 5.16.12l60.34 60.03a8.08 8.08 0 0 1 2.37 5.73v11.21a4.51 4.51 0 0 1-7.7 3.24l-64.04-63.73c-1.12-1.12-3-3.43-3-6.23 0-1.78.4-4.3 2.3-6.23zM230.06-6.64l-20.75 20.9a2.46 2.46 0 0 1-3.5 0l-69.52-70.01a19.28 19.28 0 0 1 0-27.15l20.74-20.9a2.46 2.46 0 0 1 3.5 0l69.5 70.03a19.12 19.12 0 0 1 5.56 13.57c0 5.14-1.97 9.96-5.54 13.57zM147.81-18.6l-21.7 21.85a18.95 18.95 0 0 1-16.2 5.42c-4.28-.6-8.16-2.84-11.21-5.91L76.73-19.38a2.5 2.5 0 0 1 0-3.53l33.4-33.65a2.47 2.47 0 0 1 3.51 0l34.17 34.42a2.5 2.5 0 0 1 0 3.53zm-86.26 4.15l48.38 49.58a5.09 5.09 0 0 0 7.28 0l38.37-39.01a7.56 7.56 0 0 1 10.77-.03l38.38 38.6a5.08 5.08 0 0 0 7.2.03l49.43-49.06a8.98 8.98 0 0 0 2.65-6.38v-46.45a8.97 8.97 0 0 0-2.6-6.33l-96.33-97a5.09 5.09 0 0 0-7.23 0L61.6-73.5a8.99 8.99 0 0 0-2.6 6.33v46.44c0 2.34.91 4.6 2.55 6.27zM8.61 177.56a6.62 6.62 0 0 1-4.63-1.89L-77.01 96.4a5.82 5.82 0 0 1-1.95-4.37c0-1.74.66-3.27 1.96-4.56l5.36-5.59a2.52 2.52 0 0 1 3.57-.06l93.3 91.5a2.48 2.48 0 0 1-1.76 4.25H8.62zM-52.46 75.88l-4.13-4.54a3.74 3.74 0 0 1 .12-5.16L3.56 5.83a8.07 8.07 0 0 1 5.72-2.38H20.5a4.51 4.51 0 0 1 3.24 7.7L-40 75.2c-1.12 1.11-3.44 3-6.23 3-1.78 0-4.31-.4-6.24-2.32zM63.71 21.95l20.9 20.75a2.46 2.46 0 0 1 0 3.5L14.6 115.72a19.28 19.28 0 0 1-27.14 0l-20.9-20.74a2.47 2.47 0 0 1 0-3.5l70.02-69.52a19.12 19.12 0 0 1 13.58-5.55c5.14 0 9.96 1.97 13.56 5.54zM51.74 104.2l21.85 21.7A18.94 18.94 0 0 1 79 142.1c-.6 4.28-2.83 8.17-5.9 11.22l-22.13 21.96a2.5 2.5 0 0 1-3.53 0l-33.65-33.4a2.47 2.47 0 0 1 0-3.5l34.42-34.17a2.5 2.5 0 0 1 3.53 0zm4.15 86.26l49.57-48.38c2.05-2 2.06-5.27.02-7.28L66.46 96.43a7.57 7.57 0 0 1-.03-10.77l38.62-38.38c2-1.99 2.01-5.2.03-7.2L56.01-9.35A9 9 0 0 0 49.63-12H3.17a8.97 8.97 0 0 0-6.33 2.6l-96.99 96.33a5.09 5.09 0 0 0 0 7.23l97 96.25a9 9 0 0 0 6.32 2.6h46.44a9 9 0 0 0 6.28-2.55zm257.84-187c1.74 0 3.4.67 4.63 1.88l81 79.28a5.83 5.83 0 0 1 1.94 4.37c0 1.73-.66 3.26-1.96 4.55L394 99.13a2.51 2.51 0 0 1-3.56.06l-93.29-91.5a2.48 2.48 0 0 1 1.76-4.25h14.84zm61.07 101.67l4.13 4.54a3.73 3.73 0 0 1-.11 5.16l-60.03 60.34a8.08 8.08 0 0 1-5.73 2.37h-11.21a4.51 4.51 0 0 1-3.24-7.7l63.73-64.05c1.12-1.12 3.43-3 6.23-3 1.78 0 4.3.4 6.23 2.31zm-116.17 53.93l-20.9-20.75a2.47 2.47 0 0 1 0-3.5l70.02-69.52a19.3 19.3 0 0 1 27.15 0l20.9 20.74c.97.97.97 2.54 0 3.51l-70.03 69.52a19.13 19.13 0 0 1-13.57 5.55c-5.14 0-9.96-1.97-13.56-5.55zm11.98-82.25l-21.85-21.7a18.95 18.95 0 0 1-5.42-16.2c.6-4.28 2.84-8.17 5.91-11.22l22.13-21.96a2.5 2.5 0 0 1 3.53 0l33.65 33.4c.97.97.97 2.54 0 3.5L274.14 76.8a2.5 2.5 0 0 1-3.53 0zm-4.15-86.26l-49.58 48.38a5.08 5.08 0 0 0-.02 7.28l39.02 38.37a7.57 7.57 0 0 1 .03 10.77l-38.61 38.38a5.09 5.09 0 0 0-.03 7.2l49.05 49.43a8.98 8.98 0 0 0 6.37 2.65h46.46c2.37 0 4.65-.94 6.33-2.6l96.99-96.33a5.08 5.08 0 0 0-.01-7.23L325.5-9.4a8.99 8.99 0 0 0-6.33-2.6h-46.44c-2.35 0-4.6.91-6.27 2.55z"/></g></g></svg>
