<?xml version="1.0" encoding="UTF-8"?>
<svg width="24px" height="24px" viewBox="0 0 24 24" version="1.1" xmlns="http://www.w3.org/2000/svg" xmlns:xlink="http://www.w3.org/1999/xlink">
    <!-- Generator: Sketch 51.3 (57544) - http://www.bohemiancoding.com/sketch -->
    <title>search</title>
    <desc>Created with Sketch.</desc>
    <defs>
        <path d="M10.5,18 C6.364,18 3,14.636 3,10.5 C3,6.364 6.364,3 10.5,3 C14.636,3 18,6.364 18,10.5 C18,14.636 14.636,18 10.5,18 M22.707,21.293 L17.884,16.471 C19.207,14.838 20,12.76 20,10.5 C20,5.262 15.738,1 10.5,1 C5.262,1 1,5.262 1,10.5 C1,15.738 5.262,20 10.5,20 C12.76,20 14.838,19.207 16.47,17.885 L21.293,22.707 C21.488,22.902 21.744,23 22,23 C22.256,23 22.512,22.902 22.707,22.707 C23.098,22.316 23.098,21.684 22.707,21.293" id="path-1"></path>
    </defs>
    <g id="search" stroke="none" stroke-width="1" fill="none" fill-rule="evenodd">
        <mask id="mask-2" fill="white">
            <use xlink:href="#path-1"></use>
        </mask>
        <use id="icons/24px/Search" fill="#000000" xlink:href="#path-1"></use>
    </g>
</svg>