<?xml version="1.0" encoding="UTF-8"?>
<svg width="24px" height="24px" viewBox="0 0 24 24" version="1.1" xmlns="http://www.w3.org/2000/svg" xmlns:xlink="http://www.w3.org/1999/xlink">
    <!-- Generator: Sketch 51.3 (57544) - http://www.bohemiancoding.com/sketch -->
    <title>bookmark</title>
    <desc>Created with Sketch.</desc>
    <defs>
        <path d="M9,10 L11,10 L11,12 C11,12.553 11.447,13 12,13 C12.553,13 13,12.553 13,12 L13,10 L15,10 C15.553,10 16,9.553 16,9 C16,8.447 15.553,8 15,8 L13,8 L13,6 C13,5.447 12.553,5 12,5 C11.447,5 11,5.447 11,6 L11,8 L9,8 C8.447,8 8,8.447 8,9 C8,9.553 8.447,10 9,10 M19,20 L12.6,15.2 C12.422,15.066 12.211,15 12,15 C11.789,15 11.578,15.066 11.4,15.2 L5,20 L5,3 L19,3 L19,20 Z M20,1 L4,1 C3.447,1 3,1.447 3,2 L3,22 C3,22.379 3.214,22.725 3.553,22.895 C3.893,23.064 4.298,23.027 4.6,22.8 L12,17.25 L19.4,22.8 C19.576,22.932 19.788,23 20,23 C20.152,23 20.306,22.965 20.447,22.895 C20.786,22.725 21,22.379 21,22 L21,2 C21,1.447 20.553,1 20,1 Z" id="path-1"></path>
    </defs>
    <g id="bookmark" stroke="none" stroke-width="1" fill="none" fill-rule="evenodd">
        <mask id="mask-2" fill="white">
            <use xlink:href="#path-1"></use>
        </mask>
        <use id="icons/24px/Bookmark" fill="#000000" xlink:href="#path-1"></use>
    </g>
</svg>