<?xml version="1.0" encoding="UTF-8"?>
<svg width="24px" height="24px" viewBox="0 0 24 24" version="1.1" xmlns="http://www.w3.org/2000/svg" xmlns:xlink="http://www.w3.org/1999/xlink">
    <!-- Generator: Sketch 51.3 (57544) - http://www.bohemiancoding.com/sketch -->
    <title>users</title>
    <desc>Created with Sketch.</desc>
    <defs>
        <path d="M16,10 C15.448,10 15,10.447 15,11 C15,11.553 15.448,12 16,12 C19.309,12 22,14.691 22,18 C22,18.553 22.448,19 23,19 C23.552,19 24,18.553 24,18 C24,13.589 20.411,10 16,10 M11,9 C11,10.65 9.65,12 8,12 C6.35,12 5,10.65 5,9 C5,7.35 6.35,6 8,6 C9.65,6 11,7.35 11,9 M19,5 C19,6.65 17.65,8 16,8 C14.35,8 13,6.65 13,5 C13,3.35 14.35,2 16,2 C17.65,2 19,3.35 19,5 M8,14 C3.589,14 0,17.589 0,22 C0,22.553 0.448,23 1,23 C1.552,23 2,22.553 2,22 C2,18.691 4.691,16 8,16 C11.309,16 14,18.691 14,22 C14,22.553 14.448,23 15,23 C15.552,23 16,22.553 16,22 C16,17.589 12.411,14 8,14" id="path-1"></path>
    </defs>
    <g id="users" stroke="none" stroke-width="1" fill="none" fill-rule="evenodd">
        <mask id="mask-2" fill="white">
            <use xlink:href="#path-1"></use>
        </mask>
        <use id="icons/24px/Users" fill="#000000" xlink:href="#path-1"></use>
    </g>
</svg>