<svg width="24" height="24" viewBox="0 0 24 24" xmlns="http://www.w3.org/2000/svg">
  <g id="Styleguide" fill="none" fill-rule="evenodd">
    <g id="Base-Style---Icons" transform="translate(-220 -455)" fill="#999">
      <g id="Alert" transform="translate(207 455)">
        <path d="M26,11.8571429 C26,12.488 25.552,13 25,13 C24.448,13 24,12.488 24,11.8571429 L24,6.14285714 C24,5.512 24.448,5 25,5 C25.552,5 26,5.512 26,6.14285714 L26,11.8571429 Z M26,17 C26,17.552 25.552,18 25,18 C24.448,18 24,17.552 24,17 L24,16 C24,15.448 24.448,15 25,15 C25.552,15 26,15.448 26,16 L26,17 Z M25,0 C18.383,0 13,5.383 13,12 C13,18.617 18.383,24 25,24 C31.617,24 37,18.617 37,12 C37,5.383 31.617,0 25,0 L25,0 Z" id="alert"/>
      </g>
    </g>
  </g>
</svg>
