<svg width="24" height="24" viewBox="0 0 24 24" xmlns="http://www.w3.org/2000/svg">
  <g id="Styleguide" fill="none" fill-rule="evenodd">
    <g id="Base-Style---Icons" transform="translate(-320 -455)" fill="#999">
      <g id="Arrow-Left" transform="translate(301 455)">
        <path d="M41.99875,12.00025 C41.99875,11.44825 41.55175,11.00025 40.99875,11.00025 L23.41275,11.00025 L28.70575,5.70725 C29.09675,5.31625 29.09675,4.68425 28.70575,4.29325 C28.31475,3.90225 27.68275,3.90225 27.29175,4.29325 L20.29275,11.29225 C20.19975,11.38525 20.12675,11.49525 20.07575,11.61825 C19.97475,11.86225 19.97475,12.13825 20.07575,12.38225 C20.12675,12.50525 20.19975,12.61525 20.29275,12.70825 L27.29175,19.70725 C27.48675,19.90225 27.74275,20.00025 27.99875,20.00025 C28.25475,20.00025 28.51075,19.90225 28.70575,19.70725 C29.09675,19.31625 29.09675,18.68425 28.70575,18.29325 L23.41275,13.00025 L40.99875,13.00025 C41.55175,13.00025 41.99875,12.55225 41.99875,12.00025" id="arrow-left"/>
      </g>
    </g>
  </g>
</svg>
