<svg width="24" height="24" viewBox="0 0 24 24" xmlns="http://www.w3.org/2000/svg">
  <g id="Styleguide" fill="none" fill-rule="evenodd">
    <g id="Base-Style---Icons" transform="translate(-420 -455)" fill="#999">
      <g id="Arrow-Right" transform="translate(396 455)">
        <path d="M25,12.00025 C25,12.55225 25.447,13.00025 26,13.00025 L43.586,13.00025 L38.293,18.29325 C37.902,18.68425 37.902,19.31625 38.293,19.70725 C38.488,19.90225 38.744,20.00025 39,20.00025 C39.256,20.00025 39.512,19.90225 39.707,19.70725 L46.706,12.70825 C46.799,12.61525 46.872,12.50525 46.923,12.38225 C47.024,12.13825 47.024,11.86225 46.923,11.61825 C46.872,11.49525 46.799,11.38525 46.706,11.29225 L39.707,4.29325 C39.316,3.90225 38.684,3.90225 38.293,4.29325 C37.902,4.68425 37.902,5.31625 38.293,5.70725 L43.586,11.00025 L26,11.00025 C25.447,11.00025 25,11.44825 25,12.00025" id="arrow-right"/>
      </g>
    </g>
  </g>
</svg>
