<svg width="24" height="24" viewBox="0 0 24 24" xmlns="http://www.w3.org/2000/svg">
  <g id="Styleguide" fill="none" fill-rule="evenodd">
    <g id="Base-Style---Icons" transform="translate(-520 -455)" fill="#999">
      <g id="Bell" transform="translate(507 455)">
        <g id="bell" transform="translate(15)">
          <path d="M19.8818,19.4717 C20.0558,19.1467 20.0368,18.7517 19.8318,18.4457 C19.8138,18.4177 17.9998,15.6557 17.9998,11.9997 L17.9998,7.9997 C17.9998,3.5887 14.4108,-0.0003 9.9998,-0.0003 C5.5888,-0.0003 1.9998,3.5887 1.9998,7.9997 L1.9998,11.9997 C1.9998,15.6277 0.1848,18.4187 0.1678,18.4457 C-0.0362,18.7517 -0.0552,19.1467 0.1178,19.4717 C0.2928,19.7967 0.6318,19.9997 0.9998,19.9997 L18.9998,19.9997 C19.3688,19.9997 19.7078,19.7967 19.8818,19.4717" id="Fill-3085"/>
          <path d="M10,24 C11.474,24 12.75,23.19 13.444,22 L6.556,22 C7.25,23.19 8.526,24 10,24" id="Fill-3143"/>
        </g>
      </g>
    </g>
  </g>
</svg>
