<svg width="24" height="24" viewBox="0 0 24 24" xmlns="http://www.w3.org/2000/svg">
  <g id="Styleguide" fill="none" fill-rule="evenodd">
    <g id="Base-Style---Icons" transform="translate(-620 -455)" fill="#999">
      <g id="Bullet-List" transform="translate(602 455)">
        <g id="bullet-list" transform="translate(19 1)">
          <path d="M3,6 C4.654,6 6,4.654 6,3 C6,1.346 4.654,0 3,0 C1.346,0 0,1.346 0,3 C0,4.654 1.346,6 3,6" id="Fill-1024"/>
          <path d="M3,14 C4.654,14 6,12.654 6,11 C6,9.346 4.654,8 3,8 C1.346,8 0,9.346 0,11 C0,12.654 1.346,14 3,14" id="Fill-1025"/>
          <path d="M3,22 C4.654,22 6,20.654 6,19 C6,17.346 4.654,16 3,16 C1.346,16 0,17.346 0,19 C0,20.654 1.346,22 3,22" id="Fill-1026"/>
          <path d="M21,2 L9,2 C8.447,2 8,2.447 8,3 C8,3.553 8.447,4 9,4 L21,4 C21.553,4 22,3.553 22,3 C22,2.447 21.553,2 21,2" id="Fill-1027"/>
          <path d="M21,10 L9,10 C8.447,10 8,10.447 8,11 C8,11.553 8.447,12 9,12 L21,12 C21.553,12 22,11.553 22,11 C22,10.447 21.553,10 21,10" id="Fill-1028"/>
          <path d="M22,19 C22,18.447 21.553,18 21,18 L9,18 C8.447,18 8,18.447 8,19 C8,19.553 8.447,20 9,20 L21,20 C21.553,20 22,19.553 22,19" id="Fill-1029"/>
        </g>
      </g>
    </g>
  </g>
</svg>
