<svg width="24" height="24" viewBox="0 0 24 24" xmlns="http://www.w3.org/2000/svg">
  <g id="Styleguide" fill="none" fill-rule="evenodd">
    <g id="Base-Style---Icons" transform="translate(-820 -455)" fill="#999">
      <g transform="translate(820 458)" id="Camera">
        <path d="M12,15.5 C9.2,15.5 7,13.3 7,10.5 C7,7.7 9.2,5.5 12,5.5 C14.8,5.5 17,7.7 17,10.5 C17,13.3 14.8,15.5 12,15.5 M23,3 L17.5,3 L15.8,0.4 C15.6,0.2 15.3,0 15,0 L9,0 C8.7,0 8.4,0.2 8.2,0.4 L6.5,3 L1,3 C0.4,3 0,3.4 0,4 L0,17 C0,17.6 0.4,18 1,18 L23,18 C23.6,18 24,17.6 24,17 L24,4 C24,3.4 23.6,3 23,3" id="Fill-1"/>
        <path d="M12,7.5 C10.32,7.5 9,8.82 9,10.5 C9,12.18 10.32,13.5 12,13.5 C13.68,13.5 15,12.18 15,10.5 C15,8.82 13.68,7.5 12,7.5" id="Fill-3"/>
        <path d="M1.5,2 L4.5,2 C4.776,2 5,1.776 5,1.5 C5,1.224 4.776,1 4.5,1 L1.5,1 C1.224,1 1,1.224 1,1.5 C1,1.776 1.224,2 1.5,2" id="Fill-5"/>
      </g>
    </g>
  </g>
</svg>
