<svg width="24" height="24" viewBox="0 0 24 24" xmlns="http://www.w3.org/2000/svg">
  <g id="Styleguide" fill="none" fill-rule="evenodd">
    <g id="Base-Style---Icons" transform="translate(-1120 -455)" fill="#999">
      <g id="Checkmark-circle" transform="translate(1076 455)">
        <g id="checkmark-circle" transform="translate(45 1)">
          <path d="M11,2 C6.037,2 2,6.037 2,11 C2,15.963 6.037,20 11,20 C15.963,20 20,15.963 20,11 C20,6.037 15.963,2 11,2 M11,22 C4.935,22 0,17.065 0,11 C0,4.935 4.935,0 11,0 C17.065,0 22,4.935 22,11 C22,17.065 17.065,22 11,22" id="Fill-1"/>
          <path d="M9.8789,14.7529 C9.6429,14.7529 9.4049,14.6689 9.2159,14.5009 L6.3369,11.9499 C5.9239,11.5839 5.8859,10.9519 6.2519,10.5389 C6.6179,10.1249 7.2509,10.0879 7.6629,10.4539 L9.8539,12.3949 L14.9459,7.5239 C15.3479,7.1429 15.9799,7.1569 16.3599,7.5559 C16.7419,7.9549 16.7279,8.5879 16.3289,8.9699 L10.5699,14.4759 C10.3769,14.6599 10.1279,14.7529 9.8789,14.7529" id="Fill-3"/>
        </g>
      </g>
    </g>
  </g>
</svg>
