<svg width="24" height="24" viewBox="0 0 24 24" xmlns="http://www.w3.org/2000/svg">
  <g id="Styleguide" fill="none" fill-rule="evenodd">
    <g id="Base-Style---Icons" transform="translate(-920 -455)" fill="#999">
      <g id="Checkbox" transform="translate(900 455)">
        <path d="M37.03025,9.53025 L31.03025,15.53025 C30.884,15.6765 30.692,15.75 30.5,15.75 C30.308,15.75 30.116,15.6765 29.96975,15.53025 L26.96975,12.53025 C26.6765,12.237 26.6765,11.763 26.96975,11.46975 C27.263,11.1765 27.737,11.1765 28.03025,11.46975 L30.5,13.9395 L35.96975,8.46975 C36.263,8.1765 36.737,8.1765 37.03025,8.46975 C37.3235,8.763 37.3235,9.237 37.03025,9.53025 M40.25,3 L23.75,3 C23.33525,3 23,3.336 23,3.75 L23,20.25 C23,20.664 23.33525,21 23.75,21 L40.25,21 C40.66475,21 41,20.664 41,20.25 L41,3.75 C41,3.336 40.66475,3 40.25,3" id="checkbox"/>
      </g>
    </g>
  </g>
</svg>
