<svg width="24" height="24" viewBox="0 0 24 24" xmlns="http://www.w3.org/2000/svg">
  <g id="Styleguide" fill="none" fill-rule="evenodd">
    <g id="Base-Style---Icons" transform="translate(-1220 -455)" fill="#999">
      <g id="Clipbard" transform="translate(1201 455)">
        <g id="clipbard" transform="translate(21 1)">
          <path d="M12.3821,9.2639 L8.9611,12.6519 L7.5911,11.3949 C7.1961,11.0349 6.5921,11.0699 6.2401,11.4799 C5.8901,11.8889 5.9271,12.5159 6.3221,12.8789 L8.3511,14.7399 C8.5321,14.9059 8.7591,14.9889 8.9861,14.9889 C9.2241,14.9889 9.4621,14.8969 9.6471,14.7139 L13.7051,10.6959 C14.0861,10.3179 14.1001,9.6909 13.7351,9.2949 C13.3701,8.8999 12.7651,8.8849 12.3821,9.2639" id="Fill-1"/>
          <path d="M17,19 L3,19 L3,3 L6,3 L6,5.497 C6,5.775 6.225,6 6.503,6 L8,6 C8,4.895 8.895,4 10,4 C11.105,4 12,4.895 12,6 L13.497,6 C13.775,6 14,5.775 14,5.497 L14,3 L17,3 L17,19 Z M18.5,0 L1.5,0 C0.672,0 0,0.672 0,1.5 L0,20.5 C0,21.328 0.672,22 1.5,22 L18.5,22 C19.328,22 20,21.328 20,20.5 L20,1.5 C20,0.672 19.328,0 18.5,0 L18.5,0 Z" id="Fill-3"/>
        </g>
      </g>
    </g>
  </g>
</svg>
