<svg width="24" height="24" viewBox="0 0 24 24" xmlns="http://www.w3.org/2000/svg">
  <g id="Styleguide" fill="none" fill-rule="evenodd">
    <g id="Base-Style---Icons" transform="translate(-1320 -455)" fill="#999">
      <path d="M33.0037794,5.4887807 C33.0037794,6.86381422 31.8834156,7.97795241 30.5013221,7.97795241 C29.1197525,7.97795241 28,6.86381422 28,5.4887807 C28,4.11470299 29.1197525,3 30.5013221,3 C31.8834156,3 33.0037794,4.11470299 33.0037794,5.4887807 L33.0037794,5.4887807 Z M43.9553493,5.4887807 C43.9553493,6.86381422 42.8349855,7.97795241 41.452892,7.97795241 C40.0713224,7.97795241 38.9515699,6.86381422 38.9515699,5.4887807 C38.9515699,4.11470299 40.0713224,3 41.452892,3 C42.8349855,3 43.9553493,4.11470299 43.9553493,5.4887807 L43.9553493,5.4887807 Z M33.991647,9.01596318 L28.0492195,9.01596318 L28.0492195,20.9999997 L33.991647,21 L33.991647,19.0448099 L31.9859207,19.0448096 L31.9859207,10.9990563 L33.991647,10.9990563 L33.991647,9.01596318 Z M38.0522095,9.01596318 L44,9.01596318 L44,20.9999997 L38.0522095,20.9999997 L38.0522095,19.0448096 L40.0292274,19.0448096 L40.0292274,10.9990563 L38.0522095,10.9990563 L38.0522095,9.01596318 Z" transform="translate(1296 455)" id="Community"/>
    </g>
  </g>
</svg>
