<svg width="24" height="24" viewBox="0 0 24 24" xmlns="http://www.w3.org/2000/svg">
  <g id="Styleguide" fill="none" fill-rule="evenodd">
    <g id="Base-Style---Icons" transform="translate(-320 -573)" fill="#999">
      <path d="M32.70725,4.29325 C32.31625,3.90225 31.68425,3.90225 31.29325,4.29325 L25.00025,10.58625 L18.70725,4.29325 C18.31625,3.90225 17.68425,3.90225 17.29325,4.29325 C16.90225,4.68425 16.90225,5.31625 17.29325,5.70725 L23.58625,12.00025 L17.29325,18.29325 C16.90225,18.68425 16.90225,19.31625 17.29325,19.70725 C17.48825,19.90225 17.74425,20.00025 18.00025,20.00025 C18.25625,20.00025 18.51225,19.90225 18.70725,19.70725 L25.00025,13.41425 L31.29325,19.70725 C31.48825,19.90225 31.74425,20.00025 32.00025,20.00025 C32.25625,20.00025 32.51225,19.90225 32.70725,19.70725 C33.09825,19.31625 33.09825,18.68425 32.70725,18.29325 L26.41425,12.00025 L32.70725,5.70725 C33.09825,5.31625 33.09825,4.68425 32.70725,4.29325" transform="translate(307 573)" id="Cross"/>
    </g>
  </g>
</svg>
