<svg width="24" height="24" viewBox="0 0 24 24" xmlns="http://www.w3.org/2000/svg">
  <g id="Styleguide" fill="none" fill-rule="evenodd">
    <g id="Base-Style---Icons" transform="translate(-420 -573)" fill="#999">
      <g id="Document" transform="translate(399 573)">
        <path d="M32,10 L34,10 L34,8 L32,8 L32,10 Z M31,12 L35,12 C35.553,12 36,11.553 36,11 L36,7 C36,6.447 35.553,6 35,6 L31,6 C30.447,6 30,6.447 30,7 L30,11 C30,11.553 30.447,12 31,12 L31,12 Z M37,10 C37,9.447 37.447,9 38,9 L39,9 C39.553,9 40,9.447 40,10 C40,10.553 39.553,11 39,11 L38,11 C37.447,11 37,10.553 37,10 L37,10 Z M37,7 C37,6.447 37.447,6 38,6 L39,6 C39.553,6 40,6.447 40,7 C40,7.553 39.553,8 39,8 L38,8 C37.447,8 37,7.553 37,7 L37,7 Z M30,17 C30,16.447 30.447,16 31,16 L39,16 C39.553,16 40,16.447 40,17 C40,17.553 39.553,18 39,18 L31,18 C30.447,18 30,17.553 30,17 L30,17 Z M30,14 C30,13.447 30.447,13 31,13 L39,13 C39.553,13 40,13.447 40,14 C40,14.553 39.553,15 39,15 L31,15 C30.447,15 30,14.553 30,14 L30,14 Z M41,19.363 C41,19.708 40.708,20 40.363,20 L28.903,20 C28.966,19.798 29,19.585 29,19.363 L29,4 L41,4 L41,19.363 Z M26,20 C25.529,20 25,19.585 25,19.363 L25,14 L27,14 L27,19.363 C27,19.585 26.471,20 26,20 L26,20 Z M42,2 L28,2 C27.447,2 27,2.447 27,3 L27,12 L24,12 C23.447,12 23,12.447 23,13 L23,19.363 C23,20.872 24.584,22 26,22 L40.363,22 C41.817,22 43,20.817 43,19.363 L43,3 C43,2.447 42.553,2 42,2 L42,2 Z" id="document"/>
      </g>
    </g>
  </g>
</svg>
