<svg width="24" height="24" viewBox="0 0 24 24" xmlns="http://www.w3.org/2000/svg">
  <g id="Styleguide" fill="none" fill-rule="evenodd">
    <g id="Base-Style---Icons" transform="translate(-720 -573)" fill="#999">
      <g id="Eye-Crossed" transform="translate(691 573)">
        <g id="eye-crossed" transform="translate(30 2)">
          <path d="M19.201 6.041L14.973 10.269C14.838 12.256 13.257 13.837 11.27 13.972L7.831 17.411C8.813 17.773 9.869 18 11 18 17.473 18 21.69 10.805 21.866 10.499 22.044 10.191 22.045 9.812 21.868 9.504 21.787 9.362 20.836 7.74 19.201 6.041L19.201 6.041zM4.647 15.624C5.617 14.609 6.686 13.509 7.8 12.375 7.304 11.709 7 10.893 7 10 7 7.794 8.794 6 11 6 11.893 6 12.709 6.304 13.375 6.8 14.462 5.732 15.517 4.707 16.497 3.769 14.941 2.748 13.092 2 11 2 4.461 2 .304 9.2.13 9.507-.044 9.814-.043 10.19.132 10.496.24 10.685 1.88 13.498 4.647 15.624L4.647 15.624z" id="Shape"/>
          <path d="M2,20 C1.744,20 1.488,19.902 1.293,19.707 C0.902,19.316 0.902,18.684 1.293,18.293 L19.293,0.293 C19.684,-0.098 20.316,-0.098 20.707,0.293 C21.098,0.684 21.098,1.316 20.707,1.707 L2.707,19.707 C2.512,19.902 2.256,20 2,20 L2,20 Z" id="Shape"/>
        </g>
      </g>
    </g>
  </g>
</svg>
