<svg width="24" height="24" viewBox="0 0 24 24" xmlns="http://www.w3.org/2000/svg">
  <g id="Styleguide" fill="none" fill-rule="evenodd">
    <g id="Base-Style---Icons" transform="translate(-220 -1836)">
      <g id="Facebook-Active" transform="translate(202 1836)">
        <g id="Facebook-Icon-Copy" transform="translate(18)">
          <path id="Rectangle-115" d="M0 0H24V24H0z"/>
          <path d="M16.7619048,5.43195266 L14.9761905,5.43195266 C13.547619,5.43195266 13.3095238,6.14201183 13.3095238,7.0887574 L13.3095238,9.33727811 L16.7619048,9.33727811 L16.4047619,12.887574 L13.547619,12.887574 L13.547619,22 L9.97619048,22 L9.97619048,12.887574 L7,12.887574 L7,9.33727811 L9.97619048,9.33727811 L9.97619048,6.73372781 C9.97619048,3.77514793 11.7619048,2 14.3809524,2 C15.5714286,2 16.6428571,2.1183432 17,2.1183432 L17,5.43195266 L16.7619048,5.43195266 Z" id="Facebook-Icon" fill="#4760A5"/>
        </g>
      </g>
    </g>
  </g>
</svg>
