<svg width="24" height="24" viewBox="0 0 24 24" xmlns="http://www.w3.org/2000/svg">
  <g id="Styleguide" fill="none" fill-rule="evenodd">
    <g id="Base-Style---Icons" transform="translate(-820 -573)" fill="#999">
      <g transform="translate(821 574)" id="Flag">
        <path d="M0.486946414,4.16584048 C0.0206747908,4.43450638 -0.137993841,5.03024382 0.130672063,5.49554202 L9.37823035,21.5132864 C9.55831438,21.8257565 9.88538592,22 10.2221917,22 C10.3867009,22 10.5551038,21.9581426 10.7079319,21.8695608 C11.1742035,21.6008949 11.3328721,21.0051574 11.0642062,20.5398592 L1.81664795,4.52211483 C1.54700862,4.05681663 0.951271183,3.89620115 0.486946414,4.16584048" id="Fill-1839"/>
        <path d="M9.96803918,13.5556136 C11.1400392,11.4906136 12.5880392,11.3306136 14.5050392,11.3306136 L15.4820392,11.3346136 C17.2580392,11.3346136 19.3070392,11.1966136 21.1580392,9.5386136 C21.5100392,9.2226136 21.5930392,8.7036136 21.3570392,8.2936136 L16.8570392,0.499613599 C16.7050392,0.237613599 16.4420392,0.057613599 16.1420392,0.011613599 C15.8410392,-0.034386401 15.5370392,0.057613599 15.3150392,0.263613599 C14.0050392,1.4646136 12.5520392,1.5636136 11.0550392,1.5636136 L9.90903918,1.5566136 C7.92503918,1.5566136 5.69103918,1.7796136 4.03103918,4.2846136 L9.59803918,13.9276136 C9.75003918,13.8396136 9.87903918,13.7126136 9.96803918,13.5556136" id="Fill-1873"/>
      </g>
    </g>
  </g>
</svg>
