<svg width="24" height="24" viewBox="0 0 24 24" xmlns="http://www.w3.org/2000/svg">
  <g id="Styleguide" fill="none" fill-rule="evenodd">
    <g id="Base-Style---Icons" transform="translate(-920 -573)" fill="#999">
      <g id="Gear" transform="translate(907 573)">
        <path d="M25,9 C26.657,9 28,10.343 28,12 C28,13.657 26.657,15 25,15 C23.343,15 22,13.657 22,12 C22,10.343 23.343,9 25,9 M17.611,8.951 C17.351,9.584 16.74,10 16.055,10 L15,10 C14.448,10 14,10.448 14,11 L14,13 C14,13.552 14.448,14 15,14 L16.055,14 C16.74,14 17.351,14.416 17.611,15.049 C17.614,15.055 17.617,15.062 17.62,15.069 C17.883,15.702 17.745,16.426 17.261,16.911 L16.515,17.657 C16.124,18.047 16.124,18.681 16.515,19.071 L17.929,20.485 C18.319,20.876 18.953,20.876 19.343,20.485 L20.089,19.739 C20.574,19.255 21.298,19.117 21.931,19.38 C21.938,19.383 21.945,19.386 21.951,19.389 C22.584,19.649 23,20.26 23,20.945 L23,22 C23,22.552 23.448,23 24,23 L26,23 C26.552,23 27,22.552 27,22 L27,20.945 C27,20.26 27.416,19.649 28.049,19.389 C28.055,19.386 28.062,19.383 28.069,19.38 C28.702,19.117 29.426,19.255 29.911,19.739 L30.657,20.485 C31.047,20.876 31.681,20.876 32.071,20.485 L33.485,19.071 C33.876,18.681 33.876,18.047 33.485,17.657 L32.739,16.911 C32.255,16.426 32.117,15.702 32.38,15.069 C32.383,15.062 32.386,15.055 32.389,15.049 C32.649,14.416 33.26,14 33.945,14 L35,14 C35.552,14 36,13.552 36,13 L36,11 C36,10.448 35.552,10 35,10 L33.945,10 C33.26,10 32.649,9.584 32.389,8.951 C32.386,8.945 32.383,8.938 32.38,8.931 C32.117,8.298 32.255,7.574 32.739,7.089 L33.485,6.343 C33.876,5.953 33.876,5.319 33.485,4.929 L32.071,3.515 C31.681,3.124 31.047,3.124 30.657,3.515 L29.911,4.261 C29.426,4.745 28.702,4.883 28.069,4.62 C28.062,4.617 28.055,4.614 28.049,4.611 C27.416,4.351 27,3.74 27,3.055 L27,2 C27,1.448 26.552,1 26,1 L24,1 C23.448,1 23,1.448 23,2 L23,3.055 C23,3.74 22.584,4.351 21.951,4.611 C21.945,4.614 21.938,4.617 21.931,4.62 C21.298,4.883 20.574,4.745 20.089,4.261 L19.343,3.515 C18.953,3.124 18.319,3.124 17.929,3.515 L16.515,4.929 C16.124,5.319 16.124,5.953 16.515,6.343 L17.261,7.089 C17.745,7.574 17.883,8.298 17.62,8.931 C17.617,8.938 17.614,8.945 17.611,8.951" id="gear"/>
      </g>
    </g>
  </g>
</svg>
