<svg width="24" height="24" viewBox="0 0 24 24" xmlns="http://www.w3.org/2000/svg">
  <g id="Styleguide" fill="none" fill-rule="evenodd">
    <g id="Base-Style---Icons" transform="translate(-1020 -573)" fill="#999">
      <g id="Gift" transform="translate(1007 573)">
        <path d="M23 4L18.8 4C18.9 3.7 19 3.4 19 3 19 1.3 17.7 0 16 0 14 0 12.8 1.3 12 2.5 11.2 1.3 10 0 8 0 6.3 0 5 1.3 5 3 5 3.4 5.1 3.7 5.2 4L1 4C.4 4 0 4.4 0 5L0 7C0 7.6.4 8 1 8L23 8C23.6 8 24 7.6 24 7L24 5C24 4.4 23.6 4 23 4L23 4zM16 2C16.6 2 17 2.4 17 3 17 3.6 16.6 4 16 4L13.5 4C13.9 3.1 14.8 2 16 2L16 2zM7 3C7 2.4 7.4 2 8 2 9.2 2 10.1 3.1 10.5 4L8 4C7.4 4 7 3.6 7 3L7 3zM11 10L3 10C2.4 10 2 10.4 2 11L2 23C2 23.6 2.4 24 3 24L11 24 11 10 11 10zM21 10L13 10 13 24 21 24C21.6 24 22 23.6 22 23L22 11C22 10.4 21.6 10 21 10L21 10z" transform="translate(13)" id="Shape"/>
      </g>
    </g>
  </g>
</svg>
