<svg width="24" height="24" viewBox="0 0 24 24" xmlns="http://www.w3.org/2000/svg">
  <g id="Styleguide" fill="none" fill-rule="evenodd">
    <g id="Base-Style---Icons" transform="translate(-520 -1570)">
      <g transform="translate(520 1570)" id="Google+">
        <path id="Rectangle-115" d="M0 0H24V24H0z"/>
        <g id="Google-Plus" transform="translate(0 5)" fill="#999">
          <path d="M21.1457835,6.16336634 L21.1457835,3.56435644 L19.3021509,3.56435644 L19.3021509,6.16336634 L16.6473199,6.16336634 L16.6473199,8.01980198 L19.3021509,8.01980198 L19.3021509,10.6930693 L21.1457835,10.6930693 L21.1457835,8.01980198 L23.7268692,8.01980198 L23.7268692,6.16336634 L21.1457835,6.16336634 L21.1457835,6.16336634 Z M7.72413793,6.01485149 L7.72413793,8.98514851 C7.72413793,8.98514851 10.5857508,8.98128713 11.7509266,8.98128713 C11.1199618,10.9068564 10.1388542,11.9554455 7.72413793,11.9554455 C5.28043974,11.9554455 3.3731649,9.96066832 3.3731649,7.5 C3.3731649,5.03933168 5.28043974,3.04455446 7.72413793,3.04455446 C9.01615568,3.04455446 9.85058382,3.50183168 10.6159863,4.13918317 C11.2286623,3.52225248 11.1774831,3.43433168 12.7362376,1.95207921 C11.4130256,0.739306931 9.65434756,0 7.72413793,0 C3.61055104,0 0.275862069,3.35784653 0.275862069,7.5 C0.275862069,11.6420792 3.61055104,15 7.72413793,15 C13.8728003,15 15.3756559,9.60891089 14.8774326,6.01485149 L7.72413793,6.01485149 L7.72413793,6.01485149 Z" id="Google-Plus-Icon"/>
        </g>
      </g>
    </g>
  </g>
</svg>
