<svg width="24" height="24" viewBox="0 0 24 24" xmlns="http://www.w3.org/2000/svg">
  <g id="Styleguide" fill="none" fill-rule="evenodd">
    <g id="Base-Style---Icons" transform="translate(-1120 -573)" fill="#999">
      <path d="M35.2337,18 L31.7667,18 C31.3427,18 30.9997,18.343 30.9997,18.766 L30.9997,22.234 C30.9997,22.657 31.3427,23 31.7667,23 L35.2337,23 C35.6567,23 35.9997,22.657 35.9997,22.234 L35.9997,18.766 C35.9997,18.343 35.6567,18 35.2337,18 M26.7337,18 L23.2667,18 C22.8427,18 22.4997,18.343 22.4997,18.766 L22.4997,22.234 C22.4997,22.657 22.8427,23 23.2667,23 L26.7337,23 C27.1567,23 27.4997,22.657 27.4997,22.234 L27.4997,18.766 C27.4997,18.343 27.1567,18 26.7337,18 M18.2337,18 L14.7667,18 C14.3427,18 13.9997,18.343 13.9997,18.766 L13.9997,22.234 C13.9997,22.657 14.3427,23 14.7667,23 L18.2337,23 C18.6567,23 18.9997,22.657 18.9997,22.234 L18.9997,18.766 C18.9997,18.343 18.6567,18 18.2337,18 M35.2337,9.5 L31.7667,9.5 C31.3427,9.5 30.9997,9.843 30.9997,10.266 L30.9997,13.734 C30.9997,14.157 31.3427,14.5 31.7667,14.5 L35.2337,14.5 C35.6567,14.5 35.9997,14.157 35.9997,13.734 L35.9997,10.266 C35.9997,9.843 35.6567,9.5 35.2337,9.5 M26.7337,9.5 L23.2667,9.5 C22.8427,9.5 22.4997,9.843 22.4997,10.266 L22.4997,13.734 C22.4997,14.157 22.8427,14.5 23.2667,14.5 L26.7337,14.5 C27.1567,14.5 27.4997,14.157 27.4997,13.734 L27.4997,10.266 C27.4997,9.843 27.1567,9.5 26.7337,9.5 M18.2337,9.5 L14.7667,9.5 C14.3427,9.5 13.9997,9.843 13.9997,10.266 L13.9997,13.734 C13.9997,14.157 14.3427,14.5 14.7667,14.5 L18.2337,14.5 C18.6567,14.5 18.9997,14.157 18.9997,13.734 L18.9997,10.266 C18.9997,9.843 18.6567,9.5 18.2337,9.5 M35.2337,1 L31.7667,1 C31.3427,1 30.9997,1.343 30.9997,1.766 L30.9997,5.234 C30.9997,5.657 31.3427,6 31.7667,6 L35.2337,6 C35.6567,6 35.9997,5.657 35.9997,5.234 L35.9997,1.766 C35.9997,1.343 35.6567,1 35.2337,1 M26.7337,1 L23.2667,1 C22.8427,1 22.4997,1.343 22.4997,1.766 L22.4997,5.234 C22.4997,5.657 22.8427,6 23.2667,6 L26.7337,6 C27.1567,6 27.4997,5.657 27.4997,5.234 L27.4997,1.766 C27.4997,1.343 27.1567,1 26.7337,1 M18.9997,1.766 L18.9997,5.234 C18.9997,5.657 18.6567,6 18.2337,6 L14.7667,6 C14.3427,6 13.9997,5.657 13.9997,5.234 L13.9997,1.766 C13.9997,1.343 14.3427,1 14.7667,1 L18.2337,1 C18.6567,1 18.9997,1.343 18.9997,1.766" transform="translate(1107 573)" id="Grid"/>
    </g>
  </g>
</svg>
