<svg width="16" height="16" viewBox="0 0 16 16" xmlns="http://www.w3.org/2000/svg">
  <g id="Styleguide" fill="none" fill-rule="evenodd">
    <g id="Base-Style---Icons" transform="translate(-242 -1170)" fill="#999">
      <path d="M248.3,1181.7 L246.3,1179.7 C245.9,1179.3 245.9,1178.7 246.3,1178.3 C246.7,1177.9 247.3,1177.9 247.7,1178.3 L249,1179.6 L252.3,1176.3 C252.7,1175.9 253.3,1175.9 253.7,1176.3 C254.1,1176.7 254.1,1177.3 253.7,1177.7 L249.7,1181.7 C249.3,1182.1 248.8,1182.2 248.3,1181.7 Z M257,1171 L254,1171 L254,1173 L256,1173 L256,1184 L244,1184 L244,1173 L246,1173 L246,1171 L243,1171 C242.4,1171 242,1171.4 242,1172 L242,1185 C242,1185.6 242.4,1186 243,1186 L257,1186 C257.6,1186 258,1185.6 258,1185 L258,1172 C258,1171.4 257.6,1171 257,1171 Z M247,1170 L253,1170 L253,1174 L247,1174 L247,1170 Z" id="Guide-Small"/>
    </g>
  </g>
</svg>
