<svg width="16" height="16" viewBox="0 0 16 16" xmlns="http://www.w3.org/2000/svg">
  <g id="Styleguide" fill="none" fill-rule="evenodd">
    <g id="Base-Style---Icons" transform="translate(-218 -1170)" fill="#999">
      <path d="M228.95464,1185.925 L230.95464,1185.925 C231.55464,1185.925 231.95464,1185.525 231.95464,1184.925 L231.95464,1177.925 L232.95464,1177.925 L232.95464,1177.925 C233.25464,1177.925 233.55464,1177.825 233.75464,1177.625 C234.15464,1177.225 234.05464,1176.625 233.65464,1176.225 L226.65464,1170.225 C226.25464,1169.925 225.75464,1169.925 225.35464,1170.225 L218.35464,1176.225 C217.95464,1176.625 217.85464,1177.225 218.25464,1177.625 C218.35464,1177.825 218.65464,1177.925 218.95464,1177.925 L219.95464,1177.925 L219.95464,1184.925 C219.95464,1185.525 220.35464,1185.925 220.95464,1185.925 L222.95464,1185.925 C223.55464,1185.925 223.95464,1185.525 223.95464,1184.925 L223.95464,1181.925 L227.95464,1181.925 L227.95464,1184.925 C227.95464,1185.525 228.35464,1185.925 228.95464,1185.925 L228.95464,1185.925 Z" id="Home-Small"/>
    </g>
  </g>
</svg>
