<svg width="24" height="24" viewBox="0 0 24 24" xmlns="http://www.w3.org/2000/svg">
  <g id="Styleguide" fill="none" fill-rule="evenodd">
    <g id="Base-Style---Icons" transform="translate(-1220 -573)" fill="#999">
      <g id="House" transform="translate(1207 573)">
        <path d="M35.6639,10.1256 L25.6619,1.2506 C25.2819,0.9146 24.7119,0.9166 24.3349,1.2556 L14.3319,10.2556 C14.0229,10.5326 13.9179,10.9726 14.0679,11.3596 C14.2159,11.7456 14.5859,11.9996 14.9979,11.9996 L15.0029,11.9996 L16.9919,11.9876 L16.9919,21.9996 C16.9919,22.5526 17.4379,22.9996 17.9889,22.9996 L20.9809,22.9996 C21.5319,22.9996 21.9779,22.5526 21.9779,21.9996 L21.9779,17.4996 L27.9609,17.4996 L27.9609,21.9996 C27.9609,22.5526 28.4069,22.9996 28.9579,22.9996 L31.9499,22.9996 C32.5009,22.9996 32.9469,22.5526 32.9469,21.9996 L32.9469,11.8876 L35.0089,11.8746 C35.4219,11.8716 35.7919,11.6136 35.9369,11.2266 C36.0819,10.8386 35.9729,10.3996 35.6639,10.1256" id="house"/>
      </g>
    </g>
  </g>
</svg>
