<svg width="24" height="24" viewBox="0 0 24 24" xmlns="http://www.w3.org/2000/svg">
  <g id="Styleguide" fill="none" fill-rule="evenodd">
    <g id="Base-Style---Icons" transform="translate(-220 -691)" fill="#999">
      <g transform="translate(221 693)" id="Image">
        <path d="M2,2 L20,2 L20,10.737 L16.17,7.546 C15.784,7.226 15.214,7.273 14.888,7.654 L9.964,13.398 L6.073,10.284 C5.737,10.017 5.263,10.017 4.927,10.284 L2,12.626 L2,2 Z M21,0 L1,0 C0.448,0 0,0.448 0,1 L0,19 C0,19.552 0.448,20 1,20 L21,20 C21.552,20 22,19.552 22,19 L22,1 C22,0.448 21.552,0 21,0 L21,0 Z" id="Fill-1"/>
        <path d="M8,8 C9.1,8 10,7.1 10,6 C10,4.9 9.1,4 8,4 C6.9,4 6,4.9 6,6 C6,7.1 6.9,8 8,8" id="Fill-3"/>
      </g>
    </g>
  </g>
</svg>
