<svg width="24" height="24" viewBox="0 0 24 24" xmlns="http://www.w3.org/2000/svg">
  <g id="Styleguide" fill="none" fill-rule="evenodd">
    <g id="Base-Style---Icons" transform="translate(-1320 -573)" fill="#999">
      <path d="M39,18 L35,18 C34.447,18 34,17.552 34,17 C34,16.448 34.447,16 35,16 L36,16 L36,12 L35,12 C34.447,12 34,11.552 34,11 C34,10.448 34.447,10 35,10 L37,10 C37.553,10 38,10.448 38,11 L38,16 L39,16 C39.553,16 40,16.448 40,17 C40,17.552 39.553,18 39,18 L39,18 Z M36,6 C36,5.448 36.447,5 37,5 C37.553,5 38,5.448 38,6 L38,7 C38,7.552 37.553,8 37,8 C36.447,8 36,7.552 36,7 L36,6 Z M37,0 C30.383,0 25,5.383 25,12 C25,18.617 30.383,24 37,24 C43.617,24 49,18.617 49,12 C49,5.383 43.617,0 37,0 L37,0 Z" transform="translate(1295 573)" id="Information"/>
    </g>
  </g>
</svg>
