<svg width="24" height="24" viewBox="0 0 24 24" xmlns="http://www.w3.org/2000/svg">
  <g id="Styleguide" fill="none" fill-rule="evenodd">
    <g id="Base-Style---Icons" transform="translate(-520 -691)" fill="#999">
      <path d="M18,17 L23,17 C25.757,17 28,14.757 28,12 C28,11.447 27.552,11 27,11 C26.448,11 26,11.447 26,12 C26,13.654 24.654,15 23,15 L18,15 C16.346,15 15,13.654 15,12 C15,10.346 16.346,9 18,9 L20,9 C20.552,9 21,8.553 21,8 C21,7.447 20.552,7 20,7 L18,7 C15.243,7 13,9.243 13,12 C13,14.757 15.243,17 18,17 Z M32,7 L27,7 C24.243,7 22,9.243 22,12 C22,12.553 22.448,13 23,13 C23.552,13 24,12.553 24,12 C24,10.346 25.346,9 27,9 L32,9 C33.654,9 35,10.346 35,12 C35,13.654 33.654,15 32,15 L30,15 C29.448,15 29,15.447 29,16 C29,16.553 29.448,17 30,17 L32,17 C34.757,17 37,14.757 37,12 C37,9.243 34.757,7 32,7 Z" transform="translate(507 691)" id="Link"/>
    </g>
  </g>
</svg>
