<svg width="24" height="24" viewBox="0 0 24 24" xmlns="http://www.w3.org/2000/svg">
  <g id="Styleguide" fill="none" fill-rule="evenodd">
    <g id="Base-Style---Icons" transform="translate(-620 -691)" fill="#999">
      <path d="M28.0099902,3.51582138 C27.0474873,3.17433425 26.0329987,3 25,3 C20.0294373,3 16,7.02943725 16,12 C16,16.9705627 20.0294373,21 25,21 L25.36,21 L25.36,20.64 L25.36,20.208 L25.36,19.848 L25,19.848 C20.6656693,19.848 17.152,16.3343307 17.152,12 C17.152,7.66566928 20.6656693,4.152 25,4.152 C25.9017896,4.152 26.7860074,4.30391998 27.6247963,4.60151454 C30.7480102,5.70960203 32.848,8.6691544 32.848,12 L32.848,12.36 L33.208,12.36 L33.64,12.36 L34,12.36 L34,12 C34,8.18036625 31.5919118,4.7866541 28.0099902,3.51582138 L28.0099902,3.51582138 Z M27.769244,4.19437961 C31.0644719,5.36349605 33.28,8.48583378 33.28,12 L33.64,11.64 L33.208,11.64 L33.568,12 C33.568,8.36368883 31.275452,5.13276074 27.8655425,3.92295631 C26.9493784,3.59790977 25.9837361,3.432 25,3.432 C20.2680243,3.432 16.432,7.26802426 16.432,12 C16.432,16.7319757 20.2680243,20.568 25,20.568 L24.64,20.208 L24.64,20.64 L25,20.28 C20.4270823,20.28 16.72,16.5729177 16.72,12 C16.72,7.42708227 20.4270823,3.72 25,3.72 C25.9510448,3.72 26.8841092,3.88034195 27.769244,4.19437961 L27.769244,4.19437961 Z" transform="translate(607 691)" id="Loading"/>
    </g>
  </g>
</svg>
