<svg width="24" height="24" viewBox="0 0 24 24" xmlns="http://www.w3.org/2000/svg">
  <g id="Styleguide" fill="none" fill-rule="evenodd">
    <g id="Base-Style---Icons" transform="translate(-720 -691)" fill="#999">
      <path d="M29,8 L21,8 L21,6 C21,3.794 22.794,2 25,2 C27.206,2 29,3.794 29,6 L29,8 Z M26,17.816 L26,19 C26,19.552 25.552,20 25,20 C24.448,20 24,19.552 24,19 L24,17.816 C22.839,17.402 22,16.302 22,15 C22,13.346 23.346,12 25,12 C26.654,12 28,13.346 28,15 C28,16.302 27.161,17.402 26,17.816 L26,17.816 Z M25,0 C21.691,0 19,2.691 19,6 L19,8 L17,8 C16.448,8 16,8.448 16,9 L16,23 C16,23.552 16.448,24 17,24 L33,24 C33.552,24 34,23.552 34,23 L34,9 C34,8.448 33.552,8 33,8 L31,8 L31,6 C31,2.691 28.309,0 25,0 L25,0 Z" transform="translate(707 691)" id="Lock"/>
    </g>
  </g>
</svg>
