<svg width="24" height="24" viewBox="0 0 24 24" xmlns="http://www.w3.org/2000/svg">
  <g id="Styleguide" fill="none" fill-rule="evenodd">
    <g id="Base-Style---Icons" transform="translate(-920 -691)" fill="#999">
      <g id="Maginfying-Glass" transform="translate(876 691)">
        <g id="maginfying-glass" transform="translate(46 2)">
          <path d="M19.7468263,18.5243953 L14.8751285,13.6526975 C14.5375635,13.3151325 13.9902625,13.3151325 13.6526975,13.6526975 C13.3151325,13.9902625 13.3151325,14.5375635 13.6526975,14.8751285 L18.5243953,19.7468263 C18.8619603,20.0843913 19.4092613,20.0843913 19.7468263,19.7468263 C20.0843913,19.4092613 20.0843913,18.8619603 19.7468263,18.5243953 L19.7468263,18.5243953 L19.7468263,18.5243953 L19.7468263,18.5243953 Z" id="Stroke-5191"/>
          <path d="M1.84782609,8.76293996 C1.84782609,4.94345007 4.94345007,1.84782609 8.76293996,1.84782609 C12.5824299,1.84782609 15.6780538,4.94345007 15.6780538,8.76293996 C15.6780538,12.5824299 12.5824299,15.6780538 8.76293996,15.6780538 C4.94345007,15.6780538 1.84782609,12.5824299 1.84782609,8.76293996 L1.84782609,8.76293996 L1.84782609,8.76293996 L1.84782609,8.76293996 Z M0.119047619,8.76293996 C0.119047619,13.5372078 3.98867208,17.4068323 8.76293996,17.4068323 C13.5372078,17.4068323 17.4068323,13.5372078 17.4068323,8.76293996 C17.4068323,3.98867208 13.5372078,0.119047619 8.76293996,0.119047619 C3.98867208,0.119047619 0.119047619,3.98867208 0.119047619,8.76293996 L0.119047619,8.76293996 L0.119047619,8.76293996 L0.119047619,8.76293996 Z" id="Stroke-5192"/>
        </g>
      </g>
    </g>
  </g>
</svg>
