<svg width="24" height="24" viewBox="0 0 24 24" xmlns="http://www.w3.org/2000/svg">
  <g id="Styleguide" fill="none" fill-rule="evenodd">
    <g id="Base-Style---Icons" transform="translate(-820 -691)" fill="#999">
      <g id="mail" transform="translate(807 691)">
        <path d="M36,2 L14,2 C13.448,2 13,2.447 13,3 L13,6 C13,6.366 13.2,6.703 13.521,6.878 L24.521,12.878 C24.67,12.959 24.835,13 25,13 C25.165,13 25.33,12.959 25.479,12.878 L36.479,6.878 C36.8,6.703 37,6.366 37,6 L37,3 C37,2.447 36.552,2 36,2 Z M25,15 C24.502,15 24.006,14.874 23.567,14.636 L13,8.872 L13,21 C13,21.553 13.448,22 14,22 L36,22 C36.552,22 37,21.553 37,21 L37,8.872 L26.437,14.634 C25.994,14.874 25.498,15 25,15 Z" id="Mail"/>
      </g>
    </g>
  </g>
</svg>
