<svg width="24" height="24" viewBox="0 0 24 24" xmlns="http://www.w3.org/2000/svg">
  <g id="Styleguide" fill="none" fill-rule="evenodd">
    <g id="Base-Style---Icons" transform="translate(-1020 -691)" fill="#999">
      <g transform="translate(1020 692)" id="Map">
        <path d="M22.7251,0.0386 L17.0001,1.6746 L17.0001,21.7546 L23.2751,19.9616 C23.7041,19.8386 24.0001,19.4466 24.0001,18.9996 L24.0001,0.9996 C24.0001,0.6856 23.8521,0.3906 23.6021,0.2016 C23.3521,0.0136 23.0271,-0.0474 22.7251,0.0386" id="Fill-1847"/>
        <path id="Fill-1849" d="M15 1.7191L9 0.2191 9 20.2811 15 21.7811z"/>
        <path d="M1,22 C1.092,22 1.185,21.987 1.275,21.961 L7,20.326 L7,0.246 L0.725,2.039 C0.296,2.161 0,2.554 0,3 L0,21 C0,21.314 0.147,21.609 0.398,21.798 C0.573,21.931 0.785,22 1,22" id="Fill-1851"/>
      </g>
    </g>
  </g>
</svg>
