<svg width="24" height="24" viewBox="0 0 24 24" xmlns="http://www.w3.org/2000/svg">
  <g id="Styleguide" fill="none" fill-rule="evenodd">
    <g id="Base-Style---Icons" transform="translate(-1320 -1836)">
      <g id="Meneame-Active" transform="translate(1300 1836)">
        <g id="Meneame-Icon-Copy" transform="translate(20)">
          <path id="Rectangle-115" d="M0 0H23.862V23.862H0z"/>
          <g id="Mename-Icon" transform="translate(1.988 3.977)" fill="#FF6400">
            <path d="M18.5053726,3.81506786 C17.0783184,5.18528244 14.5015334,5.14577312 13.5432214,6.99638684 C12.7256735,9.19108881 14.6509823,12.6976343 15.4547368,14.6984727 C15.9992055,15.7315187 11.2017899,16.7274364 11.7885821,16.9832053 C15.1739945,16.9469326 16.6176716,15.7773525 16.211452,14.3421075 C15.8227198,12.9687679 14.068002,10.2276691 14.068002,8.03743146 C14.1171633,6.38313666 16.0717096,5.87513308 17.3306092,5.200982 C18.793385,4.58014247 20.1616499,3.19497238 19.7834102,1.57017937 C19.7672196,0.99707097 18.7129427,-0.910946598 19.1433697,0.568048828 C19.3781337,1.65994961 19.4909572,3.00758212 18.5053726,3.81506786" id="Fill-1"/>
            <path d="M14.1027018,1.34923222 C12.2603502,0.449483656 10.2134152,-0.0953878574 8.07047602,0.379058845 C6.91913401,0.58051175 5.56305133,1.1758674 4.79167812,2.17308718 C3.78019638,3.31662538 3.74082015,4.97999765 4.40424277,6.2876372 C4.919867,7.29519934 5.70357966,8.41615548 6.97344333,8.58416311 C8.06556382,8.73926139 9.2654777,8.59915582 10.1932555,8.00208884 C9.09017097,8.18166653 7.81236917,8.5528756 6.82171518,7.85491476 C5.16146884,6.84965918 4.35413829,4.5684236 5.36212254,2.9032656 C6.17181095,1.45146539 7.80281985,1.04245833 9.52849675,0.970619813 C11.8297268,0.874748319 14.0351884,2.11769228 14.8814236,2.42044828 C15.6968102,2.66349386 16.8661898,2.97130944 17.4463801,2.1518072 C17.7854793,1.77107424 17.6499418,0.722105426 17.3741903,0.624783025 C17.4538466,1.359649 16.8845811,2.28395138 15.9984588,2.04291475 C15.3366081,1.8949594 14.7276913,1.59447277 14.1027018,1.34923222" id="Fill-2"/>
            <path d="M1.75365681,7.84684176 C0.686411732,9.43926838 -0.288483914,11.3042796 0.0837039554,13.2452216 C0.425907732,15.2742969 2.49952586,16.7054868 4.561394,16.9602512 C6.67847531,17.1936241 8.7909981,17.1344345 10.913306,16.9898274 C11.2711502,16.66222 9.18145936,16.6711486 8.30127101,16.5510954 C6.29359431,16.3359146 4.11544448,16.2965169 2.39409032,15.1677854 C0.790393266,14.0317994 0.580190234,11.8035033 1.3490877,10.1610018 C1.99388324,8.61120951 2.95620364,7.11320348 3.96854993,5.81839888 C3.1791784,6.43912681 2.44985366,6.90211506 1.75365681,7.84684176" id="Fill-3"/>
            <path d="M7.02598427,12.8560064 C8.2765528,12.9475251 10.3519,12.8272858 11.3267564,13.4724188 C11.6756015,13.9692243 11.0264046,16.7188798 11.2500867,17.0363309 C11.7481449,17.1750599 12.3178426,13.8144981 12.0024792,12.9794823 C11.7636674,12.3420131 7.52388526,12.6810046 7.02598427,12.8560064" id="Fill-4"/>
          </g>
        </g>
      </g>
    </g>
  </g>
</svg>
