<svg width="24" height="24" viewBox="0 0 24 24" xmlns="http://www.w3.org/2000/svg">
  <g fill="none" fill-rule="evenodd">
    <path d="M0 0h23.862v23.862H0z"/>
    <g fill="#FF6400">
      <path d="M20.493 7.792c-1.427 1.37-4.003 1.33-4.962 3.181-.817 2.195 1.108 5.702 1.912 7.702.544 1.034-4.253 2.03-3.666 2.285 3.385-.036 4.829-1.206 4.422-2.64-.388-1.374-2.143-4.115-2.143-6.306.05-1.654 2.004-2.162 3.263-2.836 1.462-.62 2.83-2.006 2.452-3.63-.016-.574-1.07-2.482-.64-1.003.235 1.092.348 2.44-.638 3.247"/>
      <path d="M16.09 5.326c-1.842-.9-3.889-1.444-6.032-.97-1.15.202-2.507.797-3.278 1.794-1.012 1.144-1.051 2.807-.388 4.115.516 1.007 1.3 2.128 2.57 2.296 1.092.155 2.291.015 3.22-.582-1.104.18-2.382.55-3.372-.147-1.66-1.005-2.468-3.287-1.46-4.952.81-1.452 2.44-1.86 4.166-1.932 2.302-.096 4.507 1.147 5.353 1.45.816.242 1.985.55 2.565-.27.34-.38.204-1.429-.072-1.526.08.735-.49 1.659-1.376 1.418-.661-.148-1.27-.449-1.895-.694M3.74 11.824c-1.067 1.592-2.041 3.457-1.67 5.398.343 2.03 2.417 3.46 4.478 3.715 2.117.234 4.23.174 6.352.03.358-.328-1.732-.319-2.612-.439-2.007-.215-4.186-.254-5.907-1.383-1.604-1.136-1.814-3.364-1.045-5.007.645-1.55 1.607-3.048 2.62-4.343-.79.621-1.52 1.084-2.215 2.029"/>
      <path d="M9.014 16.833c1.25.092 3.326-.029 4.3.616.35.497-.3 3.247-.076 3.564.498.14 1.068-3.222.752-4.057-.238-.637-4.478-.298-4.976-.123"/>
    </g>
  </g>
</svg>
