<svg width="24" height="24" viewBox="0 0 24 24" xmlns="http://www.w3.org/2000/svg">
  <g id="Styleguide" fill="none" fill-rule="evenodd">
    <g id="Base-Style---Icons" transform="translate(-1120 -691)" fill="#999">
      <g id="Menu" transform="translate(1107 691)">
        <path d="M36,11 L14,11 C13.448,11 13,11.448 13,12 C13,12.552 13.448,13 14,13 L36,13 C36.552,13 37,12.552 37,12 C37,11.448 36.552,11 36,11 L36,11 Z M36,4 L14,4 C13.448,4 13,4.448 13,5 C13,5.552 13.448,6 14,6 L36,6 C36.552,6 37,5.552 37,5 C37,4.448 36.552,4 36,4 L36,4 Z M36,18 L14,18 C13.448,18 13,18.448 13,19 C13,19.552 13.448,20 14,20 L36,20 C36.552,20 37,19.552 37,19 C37,18.448 36.552,18 36,18 L36,18 Z" id="menu"/>
      </g>
    </g>
  </g>
</svg>
