<svg width="24" height="24" viewBox="0 0 24 24" xmlns="http://www.w3.org/2000/svg">
  <g id="Styleguide" fill="none" fill-rule="evenodd">
    <g id="Base-Style---Icons" transform="translate(-420 -810)" fill="#999">
      <g transform="rotate(90 -189.5 623.5)" id="More">
        <path d="M18,2 C18,0.895 17.105,-1.77635684e-15 16,-1.77635684e-15 C14.895,-1.77635684e-15 14,0.895 14,2 C14,3.105 14.895,4 16,4 C17.105,4 18,3.105 18,2" id="Fill-3186"/>
        <path d="M11,2 C11,0.895 10.105,-3.55271368e-15 9,-3.55271368e-15 C7.895,-3.55271368e-15 7,0.895 7,2 C7,3.105 7.895,4 9,4 C10.105,4 11,3.105 11,2" id="Fill-3184"/>
        <path d="M4,2 C4,0.895 3.105,0 2,0 C0.895,0 -4.4408921e-16,0.895 -4.4408921e-16,2 C-4.4408921e-16,3.105 0.895,4 2,4 C3.105,4 4,3.105 4,2" id="Fill-3185"/>
      </g>
    </g>
  </g>
</svg>
