<svg width="24" height="24" viewBox="0 0 24 24" xmlns="http://www.w3.org/2000/svg">
  <g id="Styleguide" fill="none" fill-rule="evenodd">
    <g id="Base-Style---Icons" transform="translate(-920 -1836)">
      <g id="NK-Active" transform="translate(907 1836)">
        <g id="Nk-Icon-Copy" transform="translate(13)">
          <path id="Rectangle-115" d="M0 0H23.862V23.862H0z"/>
          <g id="Nk-Icon" transform="translate(0 2.983)">
            <path d="M3.8516068,6.35592347 C4.42529326,6.10650263 4.97142664,5.85168331 5.53122456,5.62947301 C6.54760835,5.22605907 7.59770546,4.93797637 8.70279673,4.91550995 C9.03343367,4.90880275 9.37683912,4.95444447 9.6956036,5.0415291 C10.6877384,5.31248934 11.1920942,6.03212353 11.2982743,6.97096886 C11.3800935,7.69480187 11.341508,8.43853838 11.2874659,9.16864236 C11.1701973,10.7532335 11.009583,12.3348801 10.8650974,13.9175627 C10.7759419,14.8943611 10.6801781,15.8706141 10.5965109,16.8478486 C10.5817263,17.0209818 10.5148597,17.0844003 10.3387328,17.0834188 C9.46157043,17.0787292 8.58435209,17.0754574 7.70724575,17.0854364 C7.46156413,17.0882174 7.43244299,16.9713594 7.45092372,16.7799586 C7.53380696,15.9211635 7.61226603,15.0619867 7.69190115,14.2028644 C7.81504997,12.8735288 7.93808679,11.5441932 8.06073159,10.214803 C8.10827745,9.69932963 8.14669496,9.18292925 8.20325717,8.6683829 C8.28020418,7.96859768 7.99218491,7.68160558 7.27138069,7.75691169 C6.57174529,7.82998208 5.93886452,8.09379887 5.32418445,8.40680184 C4.90265595,8.62148698 4.47911136,8.8337728 4.07001535,9.06945204 C3.97089147,9.12659962 3.8746237,9.26696019 3.86308725,9.37760184 C3.7418425,10.5428018 3.6372304,11.7096921 3.52959419,12.8762553 C3.41025352,14.1694374 3.28839275,15.462456 3.17762041,16.756347 C3.15639558,17.0043501 3.06315193,17.0936159 2.79747753,17.0880539 C1.99530212,17.0713131 1.19256669,17.0823827 0.390055271,17.081892 C0.0338253243,17.0816738 0.0244729582,17.0802015 0.0534260917,16.745332 C0.192871551,15.134839 0.337861228,13.5247822 0.480778823,11.9145618 C0.599671478,10.5756834 0.721924264,9.23713221 0.835104696,7.89781756 C0.867417961,7.51610662 0.855265485,7.51512508 0.470194409,7.51294387 C-0.0199927827,7.5101083 -0.0125444911,7.5108172 0.0342733419,7.03520536 C0.0868033985,6.50195517 0.13384524,5.9678325 0.163246391,5.43305546 C0.175342865,5.21280825 0.254977983,5.13035869 0.483802942,5.1347211 C1.06213758,5.14568165 1.64080824,5.13777478 2.21942289,5.13821102 C3.20097332,5.13886539 3.5810042,5.41855045 3.8516068,6.35592347" id="Fill-1" fill="#FFD404"/>
            <path d="M13.6779755,2.4153578 L12.8166058,2.4153578 C12.8166058,2.23377245 12.8046773,2.07301761 12.8187339,1.91444398 C12.8676798,1.36352602 12.9315223,0.813862264 12.9768281,0.26272619 C12.9913326,0.0865393241 13.0655355,0.0333179124 13.2404304,0.034735696 C14.0706629,0.0415519628 14.9011754,0.0282466099 15.7312399,0.0419336738 C16.4084744,0.0531123514 16.9907292,0.667339791 16.9367991,1.3236645 C16.8173464,2.77880115 16.6771169,4.23224736 16.5479759,5.68662059 C16.447732,6.81583063 16.3548803,7.94569502 16.2526203,9.07468694 C16.1495763,10.2126218 16.0356678,11.3496296 15.9326238,12.4875645 C15.8303638,13.6166109 15.7369521,14.7464208 15.6371002,15.8756854 C15.605907,16.22795 15.5748258,16.5807055 15.5236398,16.9304618 C15.5134474,17.0002603 15.4124194,17.1117199 15.3523851,17.1122652 C14.3824831,17.1213718 13.4124131,17.1159188 12.4423991,17.1118835 C12.4174222,17.1117745 12.3925012,17.0908894 12.3290507,17.0624247 C12.7766762,12.2020447 13.2253098,7.33081322 13.6779755,2.4153578" id="Fill-2" fill="#0D66A5"/>
            <path d="M22.757443,17.1056671 C22.6092612,17.1136285 22.5191537,17.1225169 22.4291021,17.122626 C21.5238267,17.123662 20.6184952,17.1186998 19.7132758,17.1267703 C19.5129,17.1285697 19.3942873,17.0723492 19.2970115,16.8901095 C18.2956923,15.0138911 17.2865888,13.1415989 16.2724451,11.2719242 C16.1918579,11.1233841 16.193706,11.0171594 16.2860536,10.8772351 C17.5008532,9.03580695 18.7084285,7.18990735 19.9263641,5.35049684 C19.9855025,5.26123101 20.1231559,5.16831166 20.2253039,5.16716653 C21.3637164,5.15429741 22.502409,5.15898701 23.6409896,5.16002308 C23.6853993,5.16007761 23.7298091,5.17103817 23.8183485,5.18276215 C23.7461617,5.29389456 23.6928476,5.38414193 23.6316372,5.46899082 C22.3347384,7.26804904 21.0395757,9.06830691 19.7350047,10.8621302 C19.6098958,11.0341728 19.5979113,11.1581198 19.6997793,11.3474484 C20.6688412,13.147979 21.6261987,14.9545078 22.5862443,16.7596734 C22.6370383,16.8550466 22.682288,16.9532554 22.757443,17.1056671" id="Fill-3" fill="#0D66A5"/>
          </g>
        </g>
      </g>
    </g>
  </g>
</svg>
