<svg width="24" height="24" viewBox="0 0 24 24" xmlns="http://www.w3.org/2000/svg">
  <g fill="none" fill-rule="evenodd">
    <path d="M0 0h23.862v23.862H0z"/>
    <path d="M3.852 9.339c.573-.25 1.12-.504 1.68-.727 1.016-.403 2.066-.691 3.17-.713.331-.007.675.038.994.126.992.27 1.496.99 1.602 1.929.082.724.044 1.468-.01 2.198-.118 1.584-.278 3.166-.423 4.749-.09.976-.185 1.953-.268 2.93-.015.173-.082.236-.258.235-.877-.004-1.755-.008-2.632.002-.245.003-.275-.114-.256-.305.083-.859.161-1.718.24-2.577l.37-3.988c.047-.516.086-1.032.142-1.547.077-.7-.21-.986-.932-.911-.7.073-1.332.337-1.947.65-.421.214-.845.427-1.254.662a.467.467 0 0 0-.207.309c-.121 1.165-.226 2.332-.333 3.498-.12 1.293-.242 2.586-.352 3.88-.022.248-.115.338-.38.332-.803-.017-1.605-.006-2.408-.006-.356 0-.366-.002-.337-.337.14-1.61.285-3.22.428-4.83.119-1.34.24-2.678.354-4.017.032-.382.02-.383-.365-.385-.49-.003-.483-.002-.436-.478.053-.533.1-1.067.13-1.602.011-.22.091-.303.32-.298.578.01 1.157.003 1.735.003.982 0 1.362.28 1.633 1.218m9.826-3.94h-.861c0-.182-.012-.343.002-.502.049-.55.113-1.1.158-1.651.014-.176.089-.23.263-.228.83.007 1.661-.007 2.491.007.677.011 1.26.625 1.206 1.282-.12 1.455-.26 2.908-.389 4.363-.1 1.129-.193 2.259-.295 3.388-.103 1.138-.217 2.275-.32 3.413-.103 1.129-.196 2.258-.296 3.388-.031.352-.062.705-.113 1.054-.01.07-.112.182-.172.182-.97.01-1.94.004-2.91 0-.025 0-.05-.021-.113-.05l1.349-14.647m9.08 14.69c-.149.009-.239.018-.329.018-.905 0-1.81-.004-2.716.004-.2.002-.319-.055-.416-.237a942.803 942.803 0 0 0-3.025-5.618c-.08-.149-.078-.255.014-.395 1.215-1.841 2.422-3.687 3.64-5.527.06-.089.197-.182.3-.183 1.138-.013 2.276-.008 3.415-.007.044 0 .089.011.177.023-.072.11-.125.201-.186.286-1.297 1.799-2.592 3.6-3.897 5.393-.125.172-.137.296-.035.485.969 1.801 1.926 3.608 2.886 5.413.051.095.096.193.171.346" fill="#999"/>
  </g>
</svg>
