<svg width="24" height="24" viewBox="0 0 24 24" xmlns="http://www.w3.org/2000/svg">
  <g id="Styleguide" fill="none" fill-rule="evenodd">
    <g id="Base-Style---Icons" transform="translate(-620 -810)" fill="#999">
      <g transform="translate(622 811)" id="Pages">
        <path d="M2,20.0527 L15,20.0527 L15,5.0527 L2,5.0527 L2,20.0527 Z M16,3.0527 L1,3.0527 C0.447,3.0527 0,3.4997 0,4.0527 L0,21.0527 C0,21.6057 0.447,22.0527 1,22.0527 L16,22.0527 C16.553,22.0527 17,21.6057 17,21.0527 L17,4.0527 C17,3.4997 16.553,3.0527 16,3.0527 L16,3.0527 Z" id="Fill-1"/>
        <path d="M19,0 L3.505,0 C2.952,0 2.505,0.447 2.505,1 C2.505,1.553 2.952,2 3.505,2 L18,2 L18,19.229 C18,19.782 18.447,20.229 19,20.229 C19.553,20.229 20,19.782 20,19.229 L20,1 C20,0.447 19.553,0 19,0" id="Fill-3"/>
        <path d="M5,9.042 L12,9.042 C12.553,9.042 13,8.595 13,8.042 C13,7.489 12.553,7.042 12,7.042 L5,7.042 C4.447,7.042 4,7.489 4,8.042 C4,8.595 4.447,9.042 5,9.042" id="Fill-4"/>
        <path d="M5,13.0527 L11,13.0527 C11.553,13.0527 12,12.6057 12,12.0527 C12,11.4997 11.553,11.0527 11,11.0527 L5,11.0527 C4.447,11.0527 4,11.4997 4,12.0527 C4,12.6057 4.447,13.0527 5,13.0527" id="Fill-5"/>
        <path d="M5,17.0527 L8,17.0527 C8.553,17.0527 9,16.6057 9,16.0527 C9,15.4997 8.553,15.0527 8,15.0527 L5,15.0527 C4.447,15.0527 4,15.4997 4,16.0527 C4,16.6057 4.447,17.0527 5,17.0527" id="Fill-6"/>
      </g>
    </g>
  </g>
</svg>
