<svg width="24" height="24" viewBox="0 0 24 24" xmlns="http://www.w3.org/2000/svg">
  <g id="Styleguide" fill="none" fill-rule="evenodd">
    <g id="Base-Style---Icons" transform="translate(-820 -810)" fill="#999">
      <g id="Play" transform="translate(807 810)">
        <path d="M29.555,12.832 L23.555,16.832 C23.388,16.943 23.195,17 23,17 C22.838,17 22.676,16.961 22.529,16.882 C22.203,16.707 22,16.369 22,16 L22,8 C22,7.631 22.203,7.292 22.529,7.118 C22.854,6.945 23.248,6.963 23.555,7.168 L29.555,11.168 C29.833,11.353 30,11.665 30,12 C30,12.334 29.833,12.646 29.555,12.832 M25,0 C18.383,0 13,5.383 13,12 C13,18.617 18.383,24 25,24 C31.618,24 37,18.617 37,12 C37,5.383 31.618,0 25,0" id="play"/>
      </g>
    </g>
  </g>
</svg>
