<svg width="24" height="24" viewBox="0 0 24 24" xmlns="http://www.w3.org/2000/svg">
  <g id="Styleguide" fill="none" fill-rule="evenodd">
    <g id="Base-Style---Icons" transform="translate(-1020 -810)" fill="#999">
      <path d="M29,12.868 L29,13 C29,13.553 28.553,14 28,14 C27.447,14 27,13.553 27,13 L27,12 C27,11.448 27.447,11 28,11 C29.065,11 30,10.066 30,9 C30,7.935 29.065,7 28,7 C27.188,7 26.408,7.672 26.124,8.322 C25.903,8.827 25.319,9.06 24.808,8.838 C24.302,8.617 24.07,8.028 24.292,7.521 C24.93,6.061 26.489,5 28,5 C30.168,5 32,6.832 32,9 C32,10.825 30.703,12.411 29,12.868 L29,12.868 Z M29,18 C29,18.553 28.553,19 28,19 C27.447,19 27,18.553 27,18 L27,17 C27,16.448 27.447,16 28,16 C28.553,16 29,16.448 29,17 L29,18 Z M28,0 C21.383,0 16,5.384 16,12 C16,18.617 21.383,24 28,24 C34.617,24 40,18.617 40,12 C40,5.384 34.617,0 28,0 L28,0 Z" transform="translate(1004 810)" id="Question"/>
    </g>
  </g>
</svg>
