<svg width="24" height="24" viewBox="0 0 24 24" xmlns="http://www.w3.org/2000/svg">
  <g id="Styleguide" fill="none" fill-rule="evenodd">
    <g id="Base-Style---Icons" transform="translate(-1120 -810)" fill="#999">
      <path d="M25,23 C31.065,23 36,18.1371295 36,12.160775 C36,11.6158576 35.553,11.175391 35,11.175391 C34.447,11.175391 34,11.6158576 34,12.160775 C34,17.0512363 29.963,21.0292318 25,21.0292318 C20.037,21.0292318 16,17.0512363 16,12.160775 C16,7.27031382 20.037,3.29231827 25,3.29231827 C27.76,3.29231827 30.287,4.52798991 31.975,6.5844865 L28.181,6.082926 C27.629,6.01099296 27.13,6.39036584 27.057,6.92838555 C26.983,7.46837603 27.367,7.96402422 27.915,8.03595726 L33.861,8.82130838 C33.906,8.82722068 33.951,8.83017683 33.995,8.83017683 C34.488,8.83017683 34.918,8.47051164 34.985,7.97584883 L35.782,2.11675505 C35.855,1.57676457 35.472,1.08111638 34.924,1.00918334 C34.372,0.935279532 33.873,1.31563779 33.8,1.85464288 L33.354,5.13498651 C31.293,2.74740087 28.28,1.32155009 25,1.32155009 C18.935,1.32155009 14,6.18442056 14,12.160775 C14,18.1371295 18.935,23 25,23" transform="translate(1107 810)" id="Refresh"/>
    </g>
  </g>
</svg>
