<svg width="24" height="24" viewBox="0 0 24 24" xmlns="http://www.w3.org/2000/svg">
  <g id="Styleguide" fill="none" fill-rule="evenodd">
    <g id="Base-Style---Icons" transform="translate(-1220 -810)" fill="#999">
      <path d="M25,2 C18.9344167,2 14,6.07818182 14,11.0909091 C14,16.1036364 18.9344167,20.1818182 25,20.1818182 C25.9185,20.1818182 26.8434167,20.0836364 27.75275,19.89 L32.9099167,21.9354545 C33.0199167,21.9790909 33.1354167,22 33.25,22 C33.448,22 33.64325,21.9372727 33.8045833,21.8145455 C34.06125,21.6209091 34.196,21.3081818 34.1611667,20.9909091 L33.6780833,16.6781818 C35.1786667,15.0872727 36,13.1181818 36,11.0909091 C36,6.07818182 31.0655833,2 25,2" transform="matrix(-1 0 0 1 1257 810)" id="Reply"/>
    </g>
  </g>
</svg>
