<svg width="24" height="24" viewBox="0 0 24 24" xmlns="http://www.w3.org/2000/svg">
  <g id="Styleguide" fill="none" fill-rule="evenodd">
    <g id="Base-Style---Icons" transform="translate(-1320 -810)" fill="#999">
      <path d="M18,16 C19.122,16 20.134,15.533 20.861,14.787 L28.156,18.955 C28.065,19.29 28,19.636 28,20 C28,22.206 29.794,24 32,24 C34.206,24 36,22.206 36,20 C36,17.794 34.206,16 32,16 C30.878,16 29.866,16.467 29.139,17.213 L21.844,13.045 C21.935,12.71 22,12.364 22,12 C22,11.636 21.935,11.29 21.844,10.955 L29.139,6.787 C29.866,7.533 30.878,8 32,8 C34.206,8 36,6.206 36,4 C36,1.794 34.206,0 32,0 C29.794,0 28,1.794 28,4 C28,4.364 28.065,4.71 28.156,5.045 L20.861,9.213 C20.134,8.467 19.122,8 18,8 C15.794,8 14,9.794 14,12 C14,14.206 15.794,16 18,16" transform="translate(1307 810)" id="Share"/>
    </g>
  </g>
</svg>
