<svg width="24" height="24" viewBox="0 0 24 24" xmlns="http://www.w3.org/2000/svg">
  <g id="Styleguide" fill="none" fill-rule="evenodd">
    <g id="Base-Style---Icons" transform="translate(-220 -928)" fill="#999">
      <path d="M36,0 L14,0 C13.448,0 13,0.448 13,1 L13,6 C13,6.552 13.448,7 14,7 L15,7 C15.334,7 15.646,6.833 15.832,6.555 L17.535,4 L23,4 L23,19.382 L19.553,21.105 C19.214,21.275 19,21.621 19,22 L19,23 C19,23.552 19.448,24 20,24 L30,24 C30.552,24 31,23.552 31,23 L31,22 C31,21.621 30.786,21.275 30.447,21.105 L27,19.382 L27,4 L32.465,4 L34.168,6.555 C34.354,6.833 34.666,7 35,7 L36,7 C36.552,7 37,6.552 37,6 L37,1 C37,0.448 36.552,0 36,0" transform="translate(207 928)" id="Text"/>
    </g>
  </g>
</svg>
