<svg width="24" height="24" viewBox="0 0 24 24" xmlns="http://www.w3.org/2000/svg">
  <g id="Styleguide" fill="none" fill-rule="evenodd">
    <g id="Base-Style---Icons" transform="translate(-320 -928)" fill="#999">
      <g id="Trash" transform="translate(307 928)">
        <g id="trash" transform="translate(14 1)">
          <path d="M17.4166667,20.1666667 L4.58333333,20.1666667 L4.58333333,5.5 L17.4166667,5.5 L17.4166667,20.1666667 Z M8.25,1.83333333 L13.75,1.83333333 L13.75,3.66666667 L8.25,3.66666667 L8.25,1.83333333 Z M21.0833333,3.66666667 L15.5833333,3.66666667 L15.5833333,0.916666667 C15.5833333,0.410666667 15.1735833,0 14.6666667,0 L7.33333333,0 C6.82733333,0 6.41666667,0.410666667 6.41666667,0.916666667 L6.41666667,3.66666667 L0.916666667,3.66666667 C0.410666667,3.66666667 0,4.07733333 0,4.58333333 C0,5.08933333 0.410666667,5.5 0.916666667,5.5 L2.75,5.5 L2.75,21.0833333 C2.75,21.59025 3.16066667,22 3.66666667,22 L18.3333333,22 C18.84025,22 19.25,21.59025 19.25,21.0833333 L19.25,5.5 L21.0833333,5.5 C21.59025,5.5 22,5.08933333 22,4.58333333 C22,4.07733333 21.59025,3.66666667 21.0833333,3.66666667 L21.0833333,3.66666667 Z" id="Fill-1"/>
          <path d="M11,8.25 C10.494,8.25 10.0833333,8.66066667 10.0833333,9.16666667 L10.0833333,16.5 C10.0833333,17.0069167 10.494,17.4166667 11,17.4166667 C11.506,17.4166667 11.9166667,17.0069167 11.9166667,16.5 L11.9166667,9.16666667 C11.9166667,8.66066667 11.506,8.25 11,8.25" id="Fill-3"/>
          <path d="M7.33333333,8.25 C6.82733333,8.25 6.41666667,8.66066667 6.41666667,9.16666667 L6.41666667,16.5 C6.41666667,17.0069167 6.82733333,17.4166667 7.33333333,17.4166667 C7.83933333,17.4166667 8.25,17.0069167 8.25,16.5 L8.25,9.16666667 C8.25,8.66066667 7.83933333,8.25 7.33333333,8.25" id="Fill-4"/>
          <path d="M13.75,9.16666667 L13.75,16.5 C13.75,17.0069167 14.15975,17.4166667 14.6666667,17.4166667 C15.1735833,17.4166667 15.5833333,17.0069167 15.5833333,16.5 L15.5833333,9.16666667 C15.5833333,8.66066667 15.1735833,8.25 14.6666667,8.25 C14.15975,8.25 13.75,8.66066667 13.75,9.16666667" id="Fill-5"/>
        </g>
      </g>
    </g>
  </g>
</svg>
