<svg width="24" height="24" viewBox="0 0 24 24" xmlns="http://www.w3.org/2000/svg">
  <g id="Styleguide" fill="none" fill-rule="evenodd" fill-opacity="100">
    <g id="Base-Style---Icons" transform="translate(-820 -928)" fill="#999">
      <g id="Undo" transform="translate(807 928)">
        <path d="M32.5857864,15 L21,15 C18.2382847,15 16,12.7617153 16,10 C16,7.23828475 18.2382847,5 21,5 L35,5 C35.5522847,5 36,4.55228475 36,4 C36,3.44771525 35.5522847,3 35,3 L21,3 C17.1337153,3 14,6.13371525 14,10 C14,13.8662847 17.1337153,17 21,17 L32.5857864,17 L29.2928932,20.2928932 C28.9023689,20.6834175 28.9023689,21.3165825 29.2928932,21.7071068 C29.6834175,22.0976311 30.3165825,22.0976311 30.7071068,21.7071068 L35.7071068,16.7071068 C35.8880712,16.5261424 36,16.2761424 36,16 C36,15.7238576 35.8880712,15.4738576 35.7071068,15.2928932 L30.7071068,10.2928932 C30.3165825,9.90236893 29.6834175,9.90236893 29.2928932,10.2928932 C28.9023689,10.6834175 28.9023689,11.3165825 29.2928932,11.7071068 L32.5857864,15 Z" id="undo" transform="matrix(-1 0 0 1 50 0)"/>
      </g>
    </g>
  </g>
</svg>
