<svg width="24" height="24" viewBox="0 0 24 24" xmlns="http://www.w3.org/2000/svg">
  <g id="Styleguide" fill="none" fill-rule="evenodd">
    <g id="Base-Style---Icons" transform="translate(-520 -928)" fill="#999">
      <path d="M25,17.99875 C25.552,17.99875 26,17.55075 26,16.99875 L26,5.41275 L29.293,8.70575 C29.488,8.90075 29.744,8.99875 30,8.99875 C30.256,8.99875 30.512,8.90075 30.707,8.70575 C31.098,8.31475 31.098,7.68275 30.707,7.29175 L25.707,2.29175 C25.615,2.19975 25.505,2.12675 25.382,2.07575 C25.138,1.97475 24.862,1.97475 24.618,2.07575 C24.495,2.12675 24.385,2.19975 24.293,2.29175 L19.293,7.29175 C18.902,7.68275 18.902,8.31475 19.293,8.70575 C19.684,9.09675 20.316,9.09675 20.707,8.70575 L24,5.41275 L24,16.99875 C24,17.55075 24.448,17.99875 25,17.99875 Z M18,14.99875 C17.448,14.99875 17,15.44675 17,15.99875 L17,20.99875 C17,21.55075 17.448,21.99875 18,21.99875 L32,21.99875 C32.552,21.99875 33,21.55075 33,20.99875 L33,15.99875 C33,15.44675 32.552,14.99875 32,14.99875 C31.448,14.99875 31,15.44675 31,15.99875 L31,19.99875 L19,19.99875 L19,15.99875 C19,15.44675 18.552,14.99875 18,14.99875 Z" transform="translate(507 928)" id="Upload"/>
    </g>
  </g>
</svg>
