<svg width="24" height="24" viewBox="0 0 24 24" xmlns="http://www.w3.org/2000/svg">
  <g id="Styleguide" fill="none" fill-rule="evenodd">
    <g id="Base-Style---Icons" transform="translate(-620 -928)" fill="#999">
      <path d="M29.707,11.707 C29.512,11.902 29.256,12 29,12 C28.744,12 28.488,11.902 28.293,11.707 L26,9.414 L26,18 C26,18.552 25.552,19 25,19 C24.448,19 24,18.552 24,18 L24,9.414 L21.707,11.707 C21.316,12.098 20.684,12.098 20.293,11.707 C19.902,11.316 19.902,10.684 20.293,10.293 L24.293,6.293 C24.385,6.201 24.495,6.128 24.618,6.077 C24.862,5.976 25.138,5.976 25.382,6.077 C25.504,6.128 25.615,6.201 25.707,6.293 L29.707,10.293 C30.098,10.684 30.098,11.316 29.707,11.707 M25,0 C18.383,0 13,5.383 13,12 C13,18.617 18.383,24 25,24 C31.617,24 37,18.617 37,12 C37,5.383 31.617,0 25,0" transform="translate(607 928)" id="Upvote"/>
    </g>
  </g>
</svg>
