<svg width="24" height="24" viewBox="0 0 24 24" xmlns="http://www.w3.org/2000/svg">
  <g id="Styleguide" fill="none" fill-rule="evenodd">
    <g id="Base-Style---Icons" transform="translate(-720 -928)" fill="#999">
      <g id="Upvote-Reply" transform="translate(691 928)">
        <text id="2" font-family="HelveticaNeue-Bold, Helvetica Neue" font-size="12" font-weight="bold">
          <tspan x="30" y="23">2</tspan>
        </text>
        <path d="M45.70725,5.29175 L41.70725,1.29175 C41.61525,1.19975 41.50425,1.12675 41.38225,1.07575 C41.13825,0.97475 40.86225,0.97475 40.61825,1.07575 C40.49525,1.12675 40.38525,1.19975 40.29325,1.29175 L36.29325,5.29175 C35.90225,5.68275 35.90225,6.31475 36.29325,6.70575 C36.48825,6.90075 36.74425,6.99875 37.00025,6.99875 C37.25625,6.99875 37.51225,6.90075 37.70725,6.70575 L40.00025,4.41275 L40.00025,9.99875 C40.00025,10.55075 40.44825,10.99875 41.00025,10.99875 C41.55225,10.99875 42.00025,10.55075 42.00025,9.99875 L42.00025,4.41275 L44.29325,6.70575 C44.48825,6.90075 44.74425,6.99875 45.00025,6.99875 C45.25625,6.99875 45.51225,6.90075 45.70725,6.70575 C46.09825,6.31475 46.09825,5.68275 45.70725,5.29175"/>
      </g>
    </g>
  </g>
</svg>
