<svg width="24" height="24" viewBox="0 0 24 24" xmlns="http://www.w3.org/2000/svg">
  <g id="Styleguide" fill="none" fill-rule="evenodd">
    <g id="Base-Style---Icons" transform="translate(-920 -928)" fill="#999">
      <path d="M25,14 C28.309,14 31,11.309 31,8 L31,6 C31,2.691 28.309,0 25,0 C21.691,0 19,2.691 19,6 L19,8 C19,11.309 21.691,14 25,14 Z M30,16 L20,16 C16.14,16 13,19.14 13,23 C13,23.552 13.448,24 14,24 L36,24 C36.552,24 37,23.552 37,23 C37,19.14 33.86,16 30,16 Z" transform="translate(907 928)" id="User"/>
    </g>
  </g>
</svg>
