<svg width="24" height="24" viewBox="0 0 24 24" xmlns="http://www.w3.org/2000/svg">
  <g id="Styleguide" fill="none" fill-rule="evenodd">
    <g id="Base-Style---Icons" transform="translate(-218 -1954)">
      <g id="Weibo-Active" transform="translate(207 1954)">
        <g id="Weibo-Icon-Copy" transform="translate(11)">
          <path id="Rectangle-115" d="M0 0H23.862V23.862H0z"/>
          <g id="Weibo-Icon" transform="translate(1.988 3.977)">
            <g id="Group-3" transform="translate(0 1.657)" fill="#E6162D">
              <path d="M14.5733412,5.98410441 C14.3001925,5.90312184 14.1127177,5.8474642 14.2558436,5.49105505 C14.5654218,4.71642671 14.5976755,4.04824897 14.2617472,3.57165366 C13.6320796,2.67784073 11.9089532,2.72591519 9.93370062,3.54761643 C9.93370062,3.54661488 9.31353638,3.81746295 9.47206919,3.32841979 C9.77588775,2.35791666 9.73009898,1.5450863 9.25738034,1.07578801 C8.18595195,0.0102805845 5.33639303,1.11613622 2.89245349,3.54346715 C1.06248662,5.36199802 -1.43989837e-05,7.28941181 -1.43989837e-05,8.95599305 C-1.43989837e-05,12.1439306 4.11406329,14.0819322 8.13886727,14.0819322 C13.414943,14.0819322 16.9246953,11.0357857 16.9246953,8.61761181 C16.9246953,7.15649165 15.6862387,6.32720724 14.5733412,5.98410441 M8.14966651,12.9395915 C4.93811714,13.2540786 2.16588076,11.812131 1.9570955,9.71659966 C1.74859821,7.62178374 4.18389836,5.6677573 7.39487177,5.35241174 C10.6068531,5.03649387 13.3792335,6.47929995 13.5875868,8.57368664 C13.7957961,10.6696472 11.3615039,12.6241029 8.14966651,12.9395915" id="Fill-1"/>
            </g>
            <path d="M18.0769164,1.80705595 C16.8028943,0.403596528 14.9235389,-0.131374905 13.1886053,0.235049765 L13.1880294,0.235049765 C12.7870177,0.320181619 12.5307158,0.71264662 12.6171097,1.11097785 C12.7023516,1.509166 13.0971718,1.76398925 13.4984715,1.67871432 C14.7324644,1.418311 16.0679701,1.79961586 16.9742422,2.7963024 C17.8790743,3.79327511 18.124721,5.15338167 17.7372443,6.34537071 L17.7373883,6.34579995 C17.6109653,6.73440182 17.8246462,7.14975942 18.2160106,7.27523948 C18.605935,7.40071954 19.0246575,7.18824761 19.1510806,6.80107652 C19.1510806,6.8005042 19.1510806,6.79921649 19.1512246,6.79835802 C19.6950742,5.12075972 19.3518024,3.20937075 18.0769164,1.80705595" id="Fill-4" fill="#FC9732"/>
            <path d="M16.1201089,3.56173077 C15.4999446,2.87838668 14.5846012,2.61855568 13.7392369,2.79711795 C13.3936613,2.87023119 13.1733568,3.20804011 13.2476556,3.55185834 C13.3216663,3.89367347 13.6613384,4.11372858 14.0057621,4.03918455 L14.0057621,4.03989995 C14.4190129,3.95276499 14.8669653,4.07938968 15.1703519,4.41276316 C15.4738825,4.74728127 15.5555247,5.202844 15.4250699,5.60246293 L15.4255019,5.60246293 C15.3172215,5.93583641 15.5008086,6.29424867 15.8368808,6.40255928 C16.1732411,6.50958219 16.5335037,6.32729986 16.641928,5.99335407 C16.9077333,5.17580211 16.741569,4.24507487 16.1201089,3.5615877" id="Fill-6" fill="#FC9732"/>
            <path d="M8.47072065,8.62146741 C6.9424125,8.22614083 5.2149664,8.9830274 4.55117324,10.321386 C3.87514095,11.6860711 4.52885482,13.2009888 6.07271387,13.6963275 C7.67229699,14.2086925 9.55726798,13.4233332 10.2129977,11.9504806 C10.8593681,10.5102499 10.0521611,9.02766797 8.47072065,8.62146741 M7.30353902,12.1067226 C6.99295293,12.5991996 6.32771988,12.8149624 5.82649125,12.5877533 C5.33275009,12.3644074 5.18717636,11.7920924 5.49790643,11.3120632 C5.80474878,10.8340371 6.44751942,10.6207067 6.94500432,10.8280278 C7.44796082,11.040929 7.60879748,11.6092378 7.30353902,12.1067226 M8.3268748,10.8014152 C8.21456273,10.9925684 7.96618026,11.0842819 7.77179397,11.004587 C7.58028749,10.926466 7.52038771,10.7129925 7.62910004,10.5254163 C7.74112414,10.3388416 7.97985929,10.2477004 8.17050184,10.3228168 C8.36460014,10.3934977 8.43414723,10.6094035 8.3268748,10.8014152" id="Fill-8" fill="#000"/>
          </g>
        </g>
      </g>
    </g>
  </g>
</svg>
