<svg width="24" height="24" viewBox="0 0 24 24" xmlns="http://www.w3.org/2000/svg">
  <g fill="none" fill-rule="evenodd">
    <path d="M0 0h23.862v23.862H0z"/>
    <g fill="#999">
      <path d="M16.561 11.618c-.273-.08-.46-.137-.317-.493.31-.775.342-1.443.006-1.92-.63-.893-2.353-.845-4.328-.023 0-.001-.62.27-.462-.22.304-.97.258-1.783-.215-2.252-1.071-1.066-3.92.04-6.365 2.467-1.83 1.819-2.892 3.746-2.892 5.413 0 3.188 4.114 5.126 8.139 5.126 5.276 0 8.786-3.046 8.786-5.464 0-1.462-1.239-2.29-2.352-2.634m-6.423 6.956c-3.212.314-5.984-1.128-6.193-3.223-.208-2.095 2.227-4.05 5.438-4.365 3.212-.316 5.984 1.127 6.193 3.222.208 2.096-2.226 4.05-5.438 4.366m9.927-12.79a5.155 5.155 0 0 0-4.888-1.572h-.001a.738.738 0 1 0 .31 1.444c1.234-.26 2.57.12 3.476 1.117a3.611 3.611 0 0 1 .763 3.55.744.744 0 0 0 1.414.455v-.003a5.076 5.076 0 0 0-1.074-4.99"/>
      <path d="M18.108 7.539a2.51 2.51 0 0 0-2.38-.765.635.635 0 1 0 .266 1.242 1.23 1.23 0 0 1 1.164.374c.304.334.386.79.255 1.19a.635.635 0 0 0 .412.8.64.64 0 0 0 .805-.41 2.47 2.47 0 0 0-.522-2.431m-7.65 5.06c-1.528-.396-3.255.361-3.919 1.7-.676 1.364-.022 2.879 1.522 3.374 1.6.513 3.484-.273 4.14-1.746.646-1.44-.16-2.922-1.742-3.329m-1.167 3.486c-.311.492-.976.708-1.478.48-.493-.223-.639-.795-.328-1.275.307-.478.95-.691 1.447-.484.503.213.664.781.359 1.279m1.023-1.306a.465.465 0 0 1-.555.204c-.192-.079-.252-.292-.143-.48.112-.186.35-.277.542-.202.194.07.263.286.156.478"/>
    </g>
  </g>
</svg>
