<svg width="24" height="24" viewBox="0 0 24 24" xmlns="http://www.w3.org/2000/svg">
  <g id="Styleguide" fill="none" fill-rule="evenodd">
    <g id="Base-Style---Icons" transform="translate(-420 -1954)">
      <g id="Youtube-Active" transform="translate(405 1954)">
        <path id="Rectangle-804" d="M15 0H39V24H15z"/>
        <path d="M38.8,7.6 C38.8,7.6 38.6,5.9 37.8,5.2 C36.9,4.2 35.9,4.2 35.4,4.2 C32,4 27,4 27,4 L27,4 C27,4 22,4 18.6,4.2 C18.1,4.3 17.1,4.3 16.2,5.2 C15.5,5.9 15.2,7.6 15.2,7.6 C15.2,7.6 15,9.5 15,11.5 L15,13.3 C15,15.2 15.2,17.2 15.2,17.2 C15.2,17.2 15.4,18.9 16.2,19.6 C17.1,20.6 18.3,20.5 18.8,20.6 C20.7,20.8 27,20.8 27,20.8 C27,20.8 32,20.8 35.4,20.5 C35.9,20.4 36.9,20.4 37.8,19.5 C38.5,18.8 38.8,17.1 38.8,17.1 C38.8,17.1 39,15.2 39,13.2 L39,11.4 C39,9.5 38.8,7.6 38.8,7.6 L38.8,7.6 Z M24.5,15.5 L24.5,8.8 L31,12.2 L24.5,15.5 L24.5,15.5 Z" id="Shape" fill="#DC2217"/>
      </g>
    </g>
  </g>
</svg>
